<svg width="714" height="1425" viewBox="0 0 714 1425" fill="none" xmlns="http://www.w3.org/2000/svg">
<path fill-rule="evenodd" clip-rule="evenodd" d="M62.6006 64.9595C212.37 79.2943 353.282 145.236 460.573 252.527C582.565 374.519 651.099 539.976 651.099 712.499C651.1 885.022 582.565 1050.48 460.573 1172.47C353.282 1279.76 212.371 1345.7 62.6008 1360.04L62.6006 712.499L62.6006 64.9595ZM0.899841 1425C21.5771 1424.99 42.1615 1424.08 62.6008 1422.3C228.845 1407.78 385.486 1335.24 504.414 1216.31C638.033 1082.69 713.1 901.465 713.099 712.499C713.099 523.532 638.033 342.306 504.413 208.686C385.486 89.7588 228.845 17.2159 62.6006 2.7008C42.0628 0.907591 21.3785 -9.08228e-07 0.600586 0V0.000107295H0.899841V1425Z" fill="#E5FF00"/>
</svg>
