<svg width="16" height="16" viewBox="0 0 16 16" fill="none" xmlns="http://www.w3.org/2000/svg">
<g id="Group">
<path id="Vector" d="M14.7286 1.72322L14.2179 1.27133C13.6619 0.778684 12.9464 0.507324 12.2028 0.507324C11.3326 0.507324 10.5034 0.879754 9.92762 1.52922L8.46593 3.17868C8.27769 3.39069 8.18338 3.66343 8.20052 3.94645C8.21769 4.22906 8.34365 4.48836 8.55565 4.67635L8.69249 4.79783C8.8867 4.97031 9.13697 5.06525 9.39677 5.06525L9.4601 5.06343C9.74271 5.04644 10.0022 4.92046 10.1908 4.70814L11.6528 3.05849C11.91 2.76817 12.398 2.739 12.6889 2.99603L13.1994 3.4489C13.3458 3.57849 13.4328 3.75787 13.4447 3.95406C13.4566 4.1501 13.3916 4.33839 13.2616 4.48463L10.0641 8.09152C9.84887 8.3347 9.4667 8.4049 9.1782 8.25623C8.72875 8.0244 8.14283 8.13505 7.80947 8.51078L7.7844 8.53933C7.5509 8.80197 7.45366 9.151 7.51696 9.49836C7.5809 9.84362 7.7959 10.1397 8.1075 10.3028C8.53872 10.5282 9.02517 10.6521 9.51412 10.6521H9.51449C10.3843 10.6521 11.2139 10.2748 11.79 9.62514L14.987 6.01628C16.0983 4.76244 15.9829 2.83554 14.7286 1.72322Z" fill="#0B0B0B"/>
<path id="Vector_2" d="M7.80634 11.2137C7.38488 10.8405 6.68322 10.8825 6.30866 11.3043L4.84731 12.9534C4.5901 13.2436 4.10242 13.2737 3.81194 13.0164L3.30086 12.563C3.1545 12.4333 3.06745 12.2539 3.05558 12.0579C3.04365 11.8622 3.10868 11.6739 3.23858 11.5277L6.43569 7.92107C6.6477 7.68165 7.02297 7.60932 7.30817 7.74946C7.77439 7.9791 8.36755 7.86718 8.72802 7.45913C8.9572 7.20094 9.05346 6.85802 8.99275 6.51987C8.93244 6.17976 8.72306 5.89122 8.41871 5.72852C7.98085 5.49407 7.48527 5.37012 6.98603 5.37012C6.11583 5.37012 5.28658 5.7427 4.71084 6.39226L1.51333 9.99828C0.401433 11.2521 0.51718 13.1766 1.77112 14.2884L2.28183 14.735C2.83747 15.2276 3.55304 15.4929 4.2966 15.4929C4.29694 15.4929 4.2966 15.4929 4.29694 15.4929C5.16714 15.4929 5.99673 15.1263 6.57278 14.4767L8.03388 12.8309C8.22246 12.6186 8.3168 12.3471 8.2996 12.0657C8.28316 11.7861 8.15357 11.5201 7.94385 11.3348L7.80634 11.2137Z" fill="#0B0B0B"/>
</g>
</svg>
