<svg width="37" height="39" viewBox="0 0 37 39" fill="none" xmlns="http://www.w3.org/2000/svg">
<g id="Logos 08">
<g id="logo">
<g id="crest">
<path id="crest-border" d="M36.3835 2.91478V0.719238H0.812446V2.91478C0.812446 2.91478 0.811291 15.2291 0.811291 15.3026C0.80373 20.1701 2.2825 24.9239 5.04983 28.9281L0.623047 33.355L3.72832 36.4602L7.87622 32.3123C8.87098 33.3033 9.95042 34.2055 11.1022 35.0086C13.2001 36.4732 15.5194 37.5916 17.9717 38.3214L18.598 38.5078L19.2244 38.3214C24.1845 36.8497 28.5357 33.8134 31.6285 29.6656C34.7212 25.5178 36.3896 20.4811 36.3847 15.3072C36.3847 15.2337 36.3835 2.91478 36.3835 2.91478Z" fill="white"/>
<g id="crest-fill">
<path id="Vector" d="M34.1881 2.87817H3.0085C3.0085 2.87817 3.00735 15.2106 3.00735 15.2841C2.99968 20.3347 4.7509 25.2302 7.9602 29.13L34.1881 2.90217V2.87817Z" fill="#E2231A"/>
<path id="Vector_2" d="M18.5981 36.2074C27.6143 33.5241 34.189 25.1719 34.189 15.2841C34.189 15.2124 34.1879 3.49867 34.1879 2.9021L7.95996 29.1299C10.7215 32.4964 14.426 34.961 18.5981 36.2074Z" fill="white"/>
</g>
<path id="crest-outline" d="M34.9195 2.8783L34.9194 2.14648H2.27613L2.27608 2.8783C2.27608 2.8783 2.27493 15.2109 2.27493 15.2843C2.26745 20.1963 3.87018 24.9753 6.8377 28.8895C6.88377 28.9503 6.93087 29.0102 6.97749 29.0704L2.69305 33.355L3.72811 34.39L7.91365 30.2045C9.10741 31.5582 10.4588 32.7644 11.9391 33.7971C13.9086 35.1731 16.0863 36.2239 18.389 36.9092L18.5978 36.9714L18.8066 36.9092C21.1093 36.2239 23.287 35.1731 25.2564 33.7971C27.2037 32.4389 28.9252 30.7828 30.3579 28.8895C33.3254 24.9753 34.9282 20.1963 34.9207 15.2843C34.9207 15.2109 34.9195 2.8783 34.9195 2.8783ZM8.00477 28.0059C5.22978 24.346 3.73125 19.8773 3.73878 15.2843C3.73878 15.2217 3.73959 6.26305 3.73985 3.61029H32.4377L8.02102 28.0269C8.01568 28.0199 8.01012 28.0129 8.00477 28.0059ZM32.328 22.111C31.6033 24.2307 30.5442 26.2208 29.1908 28.0059C27.8507 29.7769 26.2403 31.3261 24.4187 32.5967C22.6375 33.8412 20.6738 34.8014 18.5978 35.443C16.5218 34.8014 14.558 33.8412 12.7768 32.5967C11.3671 31.613 10.0824 30.4613 8.95114 29.167L33.4558 4.66231C33.4562 8.08178 33.4568 15.2284 33.4568 15.2843C33.4595 17.6066 33.078 19.9132 32.328 22.111Z" fill="#001F5B"/>
</g>
<path id="trademark" d="M8.10128 25.5602L7.90888 25.7526L8.43878 26.2825L8.31661 26.4046L7.78671 25.8747L7.59435 26.0672L7.49512 25.968L8.00205 25.461L8.10128 25.5602ZM8.92582 25.4289L8.65099 24.812L8.82659 24.6365L9.45568 25.2655L9.34118 25.3801L8.84945 24.8884L8.84643 24.8914L9.15034 25.571L9.06482 25.6564L8.38529 25.3526L8.38221 25.3556L8.8739 25.8473L8.7594 25.9619L8.13031 25.3327L8.30743 25.1556L8.92582 25.4289Z" fill="#001F5B"/>
<g id="Group">
<g id="stars">
<path id="star-right" d="M14.8084 15.2672L15.2063 16.4915L14.1647 15.735L13.1232 16.4915L13.5208 15.2672L12.4795 14.5104H13.7671L14.1647 13.2856L14.5625 14.5104H15.8499L14.8084 15.2672Z" fill="white"/>
<path id="star-left" d="M8.81453 15.2672L9.85601 14.5104H8.56873L8.17081 13.2856L7.77314 14.5104H6.48535L7.52708 15.2672L7.12916 16.4915L8.17081 15.735L9.21203 16.4915L8.81453 15.2672Z" fill="white"/>
<path id="star-below" d="M11.5656 18.4975L11.1677 17.2729L10.77 18.4975H9.48242L10.5238 19.2543L10.1261 20.4786L11.1677 19.722L12.209 20.4786L11.8114 19.2543L12.8528 18.4975H11.5656Z" fill="white"/>
</g>
<g id="wordmark">
<path id="wordmark-M" d="M7.66948 10.4724L6.48854 7.78298H6.45107V11.3722C6.45185 11.3848 6.44996 11.3973 6.44554 11.409C6.44111 11.4208 6.43426 11.4314 6.42541 11.4403C6.41657 11.4492 6.40595 11.4561 6.39424 11.4606C6.38253 11.4651 6.37 11.4671 6.35748 11.4664H5.29858C5.28602 11.4671 5.27344 11.4652 5.26167 11.4607C5.24991 11.4562 5.23922 11.4493 5.23031 11.4405C5.2214 11.4316 5.21447 11.4209 5.20998 11.4091C5.20549 11.3974 5.20354 11.3848 5.20425 11.3722V5.18699C5.20352 5.17444 5.20547 5.16188 5.20996 5.15014C5.21445 5.1384 5.22139 5.12775 5.23031 5.11889C5.23923 5.11003 5.24993 5.10317 5.2617 5.09876C5.27347 5.09435 5.28604 5.0925 5.29858 5.09331H6.41368C6.44549 5.09001 6.47749 5.09744 6.50459 5.11441C6.5317 5.13138 6.55235 5.15693 6.56327 5.18699L8.17542 8.82315H8.21334L9.79679 5.18699C9.80783 5.15688 9.8286 5.13131 9.8558 5.11435C9.88301 5.09738 9.91511 5.08997 9.947 5.09331H11.0434C11.0559 5.09253 11.0684 5.09441 11.0801 5.09885C11.0918 5.10328 11.1024 5.11016 11.1113 5.11902C11.1201 5.12789 11.1269 5.13853 11.1313 5.15025C11.1357 5.16197 11.1376 5.17449 11.1368 5.18699V11.3722C11.1376 11.3847 11.1357 11.3973 11.1313 11.409C11.1269 11.4208 11.1201 11.4314 11.1113 11.4403C11.1024 11.4492 11.0918 11.4561 11.0801 11.4606C11.0684 11.4651 11.0559 11.4671 11.0434 11.4664H9.98418C9.97167 11.4671 9.95916 11.4651 9.94747 11.4606C9.93578 11.4561 9.92518 11.4492 9.91636 11.4403C9.90754 11.4314 9.90071 11.4207 9.89631 11.409C9.89191 11.3973 9.89004 11.3847 9.89083 11.3722V7.78298H9.8532L8.67242 10.4724C8.65996 10.5094 8.63578 10.5413 8.60353 10.5634C8.57128 10.5855 8.53272 10.5964 8.49369 10.5946H7.84718C7.80831 10.5963 7.76996 10.5852 7.73791 10.5632C7.70585 10.5411 7.68184 10.5092 7.66948 10.4724Z" fill="white"/>
<path id="wordmark-L" d="M12.0884 11.4662H16.2403C16.2528 11.467 16.2653 11.465 16.277 11.4605C16.2888 11.456 16.2994 11.4491 16.3083 11.4402C16.3171 11.4313 16.324 11.4207 16.3285 11.4089C16.3329 11.3972 16.3348 11.3846 16.3341 11.3721V10.3319C16.3348 10.3194 16.3329 10.3069 16.3284 10.2952C16.3239 10.2835 16.317 10.2728 16.3082 10.264C16.2993 10.2551 16.2887 10.2483 16.277 10.2438C16.2653 10.2394 16.2528 10.2374 16.2403 10.2382H13.4287C13.421 10.2393 13.4132 10.2386 13.4059 10.2361C13.3985 10.2337 13.3919 10.2296 13.3864 10.2241C13.3809 10.2186 13.3768 10.212 13.3744 10.2046C13.3719 10.1973 13.3712 10.1895 13.3723 10.1818V5.18687C13.3731 5.17436 13.3713 5.16183 13.3668 5.15011C13.3624 5.13839 13.3555 5.12774 13.3467 5.11888C13.3378 5.11002 13.3272 5.10315 13.3155 5.09872C13.3038 5.09429 13.2912 5.0924 13.2787 5.09319H12.0884C12.0759 5.09242 12.0634 5.09432 12.0517 5.09876C12.04 5.10319 12.0293 5.11007 12.0205 5.11893C12.0116 5.12778 12.0048 5.13842 12.0003 5.15014C11.9959 5.16185 11.994 5.17437 11.9948 5.18687V11.3721C11.994 11.3846 11.9959 11.3972 12.0004 11.4089C12.0048 11.4206 12.0116 11.4313 12.0205 11.4402C12.0293 11.4491 12.0399 11.456 12.0516 11.4605C12.0633 11.465 12.0759 11.4669 12.0884 11.4662Z" fill="white"/>
<path id="wordmark-S" d="M19.7916 7.6328L19.4545 7.58599C18.7235 7.48313 18.4611 7.2489 18.4611 6.88328C18.4611 6.47999 18.7514 6.18983 19.3139 6.18983C19.8388 6.18983 20.3071 6.35832 20.7945 6.67716C20.805 6.68401 20.8167 6.68871 20.829 6.69098C20.8413 6.69324 20.8539 6.69303 20.8661 6.69035C20.8783 6.68768 20.8899 6.68259 20.9001 6.67539C20.9103 6.66819 20.919 6.65902 20.9256 6.64842L21.4974 5.79576C21.5441 5.73005 21.5348 5.69299 21.479 5.65539C20.9444 5.24292 20.1571 4.98999 19.3139 4.98999C17.936 4.98999 17.0553 5.76788 17.0553 6.93927C17.0553 8.06393 17.7766 8.67293 19.0703 8.85117L19.4077 8.89778C20.1667 9.00095 20.3915 9.23548 20.3915 9.61041C20.3915 10.0599 20.0168 10.3694 19.3513 10.3694C18.6767 10.3694 18.1052 10.0508 17.6832 9.71343C17.6737 9.70404 17.6624 9.69677 17.6499 9.6921C17.6374 9.68743 17.6241 9.68547 17.6108 9.68634C17.5975 9.68721 17.5846 9.6909 17.5728 9.69716C17.5611 9.70342 17.5508 9.7121 17.5426 9.72264L16.8303 10.5381C16.811 10.5608 16.8012 10.59 16.8029 10.6197C16.8047 10.6494 16.8178 10.6773 16.8396 10.6976C17.3363 11.1757 18.3014 11.5689 19.2953 11.5689C20.9444 11.5689 21.7978 10.7162 21.7978 9.56368C21.7978 8.41065 21.1039 7.81096 19.7916 7.6328Z" fill="white"/>
</g>
</g>
</g>
</g>
</svg>
