<svg width="76" height="22" viewBox="0 0 76 22" fill="none" xmlns="http://www.w3.org/2000/svg">
<path id="Logos 13" d="M34.1547 13.7584V16.033H28.8317L27.7667 14.8476C27.5886 14.6534 27.4911 14.3816 27.4911 14.1282V4.73593H29.876V13.7584H34.1547ZM52.3117 13.7584V16.033H46.9887L45.9238 14.8476C45.7456 14.6534 45.6481 14.3816 45.6481 14.1282V4.73593H48.0331V13.7584H52.3117ZM53.6523 4.73593H56.0373V16.033H53.6523V4.73593ZM42.5338 7.9832L41.902 5.53295C41.7839 5.06694 41.3507 4.73593 40.8576 4.73593H38.079L37.2315 7.9832L35.4371 14.9253C35.3978 15.0806 35.3771 15.2359 35.3771 15.3913V16.033H37.5071L37.9608 14.3224L41.5101 12.6507L42.397 16.033H44.3882V15.0029L42.5357 7.9832H42.5338ZM38.5327 12.1255L39.6164 7.96471L39.952 6.68133L40.2877 7.96471L41.3714 12.1255H38.5327ZM74.1156 7.9832L73.4856 5.53295C73.3675 5.06694 72.9344 4.73593 72.4412 4.73593H69.6607L68.8132 7.9832L67.0001 14.9253C66.9608 15.0806 66.9401 15.2359 66.9401 15.3913V16.033H69.0701L69.5238 14.3224L73.0731 12.6507L73.96 16.033H75.9512V15.0029L74.1175 7.9832H74.1156ZM70.0938 12.1255L71.1775 7.96471L71.5131 6.68133L71.8488 7.96471L72.9325 12.1255H70.0938ZM66.1714 11.9498V12.5138C66.1714 14.5166 64.5346 16.131 62.504 16.131H61.3996C60.9459 16.131 60.5128 16.0533 60.119 15.898C58.7203 15.3931 57.7341 14.0506 57.7341 12.5157V8.37339C57.7341 8.23655 57.7341 8.10155 57.7547 7.98505C57.9122 6.60366 58.8385 5.45713 60.1209 4.99112C60.5147 4.83579 60.9497 4.75812 61.4015 4.75812H62.5059C64.3977 4.75812 65.9558 6.17834 66.1526 7.98505H63.8258V7.71321C63.8258 7.26569 63.4715 6.91619 63.0177 6.91619H60.929C60.4753 6.91619 60.1209 7.26569 60.1209 7.71321V13.137C60.1209 13.5846 60.4753 13.9341 60.929 13.9341H63.0177C63.4715 13.9341 63.8258 13.5846 63.8258 13.137V11.678H61.814V9.44225H64.5739L64.6133 9.48108L65.6183 10.5499C65.9745 10.9198 66.1714 11.4246 66.1714 11.9498ZM5.64786 10.8033H10.399L3.16355 14.4204L3.10542 14.3224L1.52859 12.2605C0.778606 11.2878 0.759856 9.94709 1.46859 8.95405L7.42345 0.730469H12.9227L5.64786 10.8033ZM11.8183 17.492H17.3776L8.90091 21.7305L8.86154 21.6713L6.98846 19.2414C6.23847 18.289 6.21972 16.9668 6.92846 15.9756L17.6944 0.730469H23.6681L11.8202 17.492H11.8183Z" fill="#FF2D25"/>
</svg>
