<svg width="106" height="34" viewBox="0 0 106 34" fill="none" xmlns="http://www.w3.org/2000/svg">
<g id="Logos 15">
<g id="Vector 4">
<path d="M67.686 18.6274H63.5288V29.8613H65.2586V25.0869H67.6831L69.2918 23.4551V20.231L67.686 18.6274ZM65.2586 20.3124H66.9681L67.5649 20.9275V22.7558L66.9681 23.399H65.2586V20.3124Z" fill="#0B0B0B"/>
<path d="M56.8115 29.8613H62.0008V28.1762H58.5412V25.0869H61.4242V23.4018H58.5412V20.3124H62.0008V18.6274H56.8115V29.8613Z" fill="#0B0B0B"/>
<path d="M89.9655 20.3124V18.6274H85.0645V20.3124H86.6213V29.8613H88.3511V20.3124H89.9655Z" fill="#0B0B0B"/>
<path d="M74.8271 18.6274H72.3823L70.6785 20.231V28.2295L72.3823 29.8613H74.8271L76.4444 28.2295V20.231L74.8271 18.6274ZM74.7147 27.5358L74.115 28.1762H73.0973L72.4083 27.533V20.9275L73.0973 20.3124H74.115L74.7147 20.9247V27.5358Z" fill="#0B0B0B"/>
<path d="M52.7033 25.0869L53.5826 29.8613H55.3123L54.3148 24.4269L55.2835 23.4692V20.2422L53.6517 18.6274H49.5176V29.8613H51.2474V25.0869M51.2474 20.3124H52.9368L53.5537 20.9415V22.7699L52.9368 23.4018H51.2474V20.3124Z" fill="#0B0B0B"/>
<path d="M81.1581 25.0869L82.0374 29.8613H83.7672L82.7696 24.4269L83.7383 23.4692V20.2422L82.1066 18.6274H77.9724V29.8613H79.7022V25.0869M79.7022 20.3124H81.3916L82.0086 20.9415V22.7699L81.3916 23.4018H79.7022V20.3124Z" fill="#0B0B0B"/>
<path d="M53.6517 4.58496H49.5176V15.8189H53.6517L55.2835 14.1872V10.963L54.4878 10.1879L55.2835 9.41274V6.1886L53.6517 4.58496ZM51.2474 6.27005H52.9368L53.5537 6.88511V8.71342L52.9368 9.35657H51.2474V6.27005ZM51.2474 11.0445H52.9368L53.5537 11.6595V13.4878L52.9368 14.131H51.2474V11.0445Z" fill="#0B0B0B"/>
<path d="M85.324 15.8189H87.0537V11.0445H89.3601V15.8189H91.0899V4.58496H89.3601V9.35937H87.0537V4.58496H85.324V15.8189Z" fill="#0B0B0B"/>
<path d="M63.1252 15.8189H68.3145V14.1338H64.8549V11.0445H67.7379V9.35937H64.8549V6.27005H68.3145V4.58496H63.1252V15.8189Z" fill="#0B0B0B"/>
<path d="M92.6467 15.8189H97.836V14.1338H94.3765V11.0445H97.2594V9.35937H94.3765V6.27005H97.836V4.58496H92.6467V15.8189Z" fill="#0B0B0B"/>
<path d="M61.7125 14.1338H58.5412V4.58496H56.8115V15.8189H61.7125V14.1338Z" fill="#0B0B0B"/>
<path d="M78.0301 14.1872L79.7339 15.8189H82.1787L83.796 14.1872V12.1679H82.0662V13.4935L81.4666 14.1338H80.4489L79.7599 13.4906V6.88511L80.4489 6.27005H81.4666L82.0662 6.8823V8.23598H83.796V6.1886L82.1787 4.58496H79.7339L78.0301 6.1886V14.1872Z" fill="#0B0B0B"/>
<path d="M75.003 15.8189H76.7327L74.7003 4.58496H71.5578L69.5253 15.8189H71.2551L71.8144 12.7295H74.4437L75.003 15.8189ZM72.12 11.0445L72.9849 6.27005H73.2761L74.141 11.0445H72.12Z" fill="#0B0B0B"/>
<path d="M102.521 11.0445L103.4 15.8189H105.13L104.132 10.3845L105.101 9.42678V6.19984L103.469 4.58496H99.3352V15.8189H101.065V11.0445M101.065 6.27005H102.754L103.371 6.89915V8.72747L102.754 9.35937H101.065V6.27005Z" fill="#0B0B0B"/>
</g>
<path id="Rectangle 39" d="M0.94751 0.0211792H47.0734V33.7229H0.94751V0.0211792Z" fill="#0B0B0B"/>
<g id="Mask group">
<g id="Vector 3">
<path d="M14.7165 5.63806H6.50293V28.1059H14.7165L18.0348 24.8733V18.4223L16.4463 16.8748L18.0348 15.3273V8.87062L14.7165 5.63806ZM9.96248 15.1869V9.00824H13.2808L14.5752 10.2692V13.9287L13.2808 15.1869M13.2808 18.5571L14.5752 19.8181V23.4775L13.2808 24.7385H9.96248V18.5599" fill="#F8F8F8"/>
<path d="M41.5309 28.1059L38.6652 17.692L41.0985 15.3217V8.87062L37.7802 5.63806H29.5666V28.1059H33.0262V18.5571H35.445L38.0714 28.1059H41.5309ZM33.0262 9.00824H36.3445L37.6389 10.2692V13.9287L36.3445 15.1897H33.0262V9.00824Z" fill="#F8F8F8"/>
<path d="M20.9177 17.6949V21.666L26.6837 16.0491V12.0779L20.9177 17.6949Z" fill="#F8F8F8"/>
</g>
<mask id="mask0_1327_14951" style="mask-type:alpha" maskUnits="userSpaceOnUse" x="0" y="0" width="48" height="34">
<g id="Vector 2">
<path d="M47.0749 0.0211792H0.94751V33.7229H47.0749V0.0211792Z" fill="#F8F8F8"/>
<path d="M14.927 5.63813H6.71343V28.106H14.927L18.2453 24.8734V18.4223L16.6568 16.8749L18.2453 15.3274V8.87069L14.927 5.63813ZM10.173 15.187V9.00831H13.4913L14.7857 10.2693V13.9288L13.4913 15.187M13.4913 18.5571L14.7857 19.8181V23.4776L13.4913 24.7386H10.173V18.5599" fill="#F8F8F8"/>
<path d="M41.7414 28.106L38.8758 17.6921L41.309 15.3218V8.87069L37.9907 5.63813H29.7771V28.106H33.2367V18.5571H35.6555L38.2819 28.106H41.7414ZM33.2367 9.00831H36.555L37.8494 10.2693V13.9288L36.555 15.1898H33.2367V9.00831Z" fill="#F8F8F8"/>
<path d="M21.1282 17.6949V21.6661L26.8942 16.0492V12.078L21.1282 17.6949Z" fill="#F8F8F8"/>
</g>
</mask>
<g mask="url(#mask0_1327_14951)">
</g>
</g>
</g>
</svg>
