<svg width="74" height="18" viewBox="0 0 74 18" fill="none" xmlns="http://www.w3.org/2000/svg">
<path id="Logos 07" d="M24.7467 6.61708e-06C22.0275 -0.00355116 20.2266 1.42786 19.9732 3.56819C19.9141 4.06285 19.8533 4.55729 19.7906 5.05152H55.1715C55.1715 5.05152 55.238 4.53011 55.2897 4.11161C55.5557 1.95546 54.6384 0.000270156 51.3016 0.000270156C51.3016 0.000270156 26.1802 0.00158785 24.7467 6.61708e-06ZM3.15423 0.000665463L2.53326 5.05152H18.5785L19.1971 0.000797235L3.15423 0.000665463ZM57.0146 0.000665463L56.3949 5.05152H73.7893C73.7893 5.05152 73.8104 4.86889 73.8874 4.27434C74.3107 0.959024 72.1689 0.000665463 70.101 0.000665463H57.0146ZM56.1553 6.97469L54.7999 17.998L60.801 17.9959L62.1575 6.9768L56.1553 6.97469ZM67.5559 6.97469L66.1984 17.998L72.1995 17.9959L73.556 6.9768L67.5559 6.97469ZM2.29918 6.97627L0.941406 17.9985H16.9856L17.5767 13.2169L7.53025 13.2158L7.78439 11.1539H17.8269L18.341 6.97654H2.29998L2.29918 6.97627ZM19.5552 6.97627C19.115 9.85306 20.557 11.1535 22.6007 11.1535C23.7122 11.1535 30.7183 11.1503 30.7183 11.1503L30.4649 13.2154L18.7889 13.2165L18.2009 17.9981C18.2009 17.9981 30.9125 18.0023 31.4277 17.9981C31.8531 17.9676 34.8267 17.8864 35.8391 15.4576C36.1673 14.6691 36.4576 11.8419 36.5389 11.2484C37.0066 7.80128 34.6167 6.97944 32.7345 6.97944C31.6968 6.97944 21.6042 6.97627 19.5552 6.97627ZM38.2332 6.97627L36.8778 17.9985H42.8757L43.7202 11.1539H51.2541C53.3907 11.1539 54.5392 10.0067 54.7524 8.46619C54.8205 7.97047 54.8821 7.47388 54.9371 6.97654L38.2332 6.97627Z" fill="#FF1919"/>
</svg>
