<svg width="52" height="22" viewBox="0 0 52 22" fill="none" xmlns="http://www.w3.org/2000/svg">
<g id="Logos 09">
<path id="Vector" d="M8.90742 17.8907C8.49494 17.7492 8.21299 17.5572 7.86877 17.1843C7.14572 16.4008 7.10599 16.1669 7.10599 12.6877C7.10599 9.33529 7.15746 9.01957 7.83109 8.2324C8.77556 7.1291 10.9594 7.16173 11.892 8.29303C12.5114 9.04448 12.5618 9.37904 12.5618 12.7392C12.5618 15.3985 12.5387 15.8417 12.3765 16.307C12.1278 17.0196 11.3949 17.709 10.6514 17.9298C9.95019 18.138 9.60483 18.1304 8.90742 17.8906V17.8907ZM10.1895 16.2781C10.6105 16.1165 10.6574 15.7628 10.6574 12.7492C10.6574 10.826 10.6187 9.78163 10.5411 9.61137C10.2806 9.03965 9.38712 9.03965 9.12668 9.61137C9.04906 9.78163 9.01036 10.826 9.01036 12.7492C9.01036 16.1117 9.05328 16.3067 9.79969 16.334C9.9225 16.3384 10.0979 16.3132 10.1895 16.2781ZM14.7628 17.8343C14.6146 17.7538 14.406 17.5123 14.2996 17.298C14.1199 16.9365 14.1037 16.5667 14.0753 12.1987L14.0447 7.48928H16.0102V11.8001C16.0102 15.4897 16.0322 16.1294 16.1633 16.238C16.3914 16.4273 16.762 16.2887 17.181 15.8574L17.5543 15.4731V7.48939H19.5101V17.8862H17.5543V16.8393L17.0653 17.2734C16.7964 17.5121 16.4273 17.7708 16.2451 17.8483C15.8204 18.0288 15.1084 18.022 14.7628 17.8343ZM2.83269 15.0295L2.83114 12.1729L1.55913 8.10681L0.287109 4.04073L1.32062 4.01118C1.92559 3.99389 2.38017 4.02395 2.41702 4.08365C2.45171 4.13975 2.77978 5.32252 3.14603 6.71199C3.51249 8.10146 3.83552 9.23852 3.86424 9.23873C3.89306 9.23894 4.16297 8.30116 4.46416 7.15463C4.76547 6.0082 5.08097 4.82697 5.16549 4.52969L5.31918 3.98926H6.40374C7.28737 3.98926 7.47822 4.01582 7.43344 4.13234C7.40328 4.21099 6.8192 6.06193 6.13569 8.24547L4.89291 12.2155V17.886H2.83413L2.83269 15.0295Z" fill="#010101"/>
<path id="Vector_2" d="M29.6107 21.8955C24.5816 21.7276 23.2198 21.3697 22.294 19.9718C21.9199 19.4071 21.5 18.1432 21.3663 17.1792C20.8969 13.7961 21.0122 6.74124 21.5764 4.30972C22.0874 2.10775 23.289 1.02906 25.481 0.804341C27.6343 0.583537 33.2475 0.463305 38.7074 0.520951C44.6019 0.583126 47.377 0.709226 48.3811 0.9605C50.3452 1.45183 51.298 2.89863 51.6301 5.89333C51.6929 6.4595 51.7701 8.43613 51.8016 10.2857C51.9287 17.7524 51.3669 20.1277 49.2261 21.1766C48.4177 21.5727 47.8889 21.6637 45.6042 21.8001C43.1228 21.9481 32.9962 22.0085 29.6107 21.8955ZM32.0847 17.8257C32.2583 17.7358 32.6033 17.4753 32.8516 17.2462L33.3031 16.8303V17.8858H35.2589V7.59193H33.3031V15.4425L32.8535 15.892C32.3709 16.3747 32.1757 16.4349 31.9208 16.18C31.779 16.0382 31.759 15.4979 31.759 11.8051V7.59182H29.8032V12.051C29.8032 16.9702 29.8436 17.3594 30.3969 17.7724C30.7472 18.0337 31.6285 18.0615 32.0847 17.8257ZM41.4985 17.7925C41.6781 17.6829 41.927 17.3776 42.0646 17.098C42.3061 16.6076 42.311 16.5401 42.3448 13.2041C42.3819 9.54643 42.323 8.88597 41.8934 8.14461C41.6546 7.73265 41.0854 7.38595 40.6474 7.38595C40.2255 7.38595 39.6211 7.66975 39.1602 8.08408L38.656 8.53732V4.0919H36.8031V17.8857H38.656V16.9354L39.0786 17.3172C39.311 17.5271 39.6469 17.7623 39.8249 17.8397C40.3029 18.0478 41.1175 18.0249 41.4985 17.7925ZM39.042 16.1133L38.6559 15.8895V9.57628L39.1128 9.33396C39.4835 9.13735 39.6242 9.11089 39.8591 9.19335C40.3667 9.37164 40.4213 9.76486 40.3861 12.9794L40.3544 15.8451L40.0656 16.0933C39.712 16.3974 39.5382 16.4008 39.042 16.1133ZM47.7146 17.7742C48.7094 17.3233 49.1573 16.5606 49.2357 15.1845L49.2871 14.283H47.3027V14.894C47.3027 15.6424 47.1867 15.9693 46.8408 16.196C46.451 16.4513 45.9664 16.289 45.7332 15.8249C45.5923 15.5448 45.553 15.2034 45.553 14.2571L45.5527 13.0476H49.2585V11.5361C49.2585 9.63382 49.1098 9.02751 48.4684 8.31415C47.9016 7.68385 47.2944 7.43289 46.3762 7.44977C45.6152 7.46367 45.1067 7.65338 44.5725 8.12237C43.6996 8.88896 43.5672 9.57196 43.6194 13.0477C43.6534 15.3061 43.6908 15.8563 43.8374 16.2447C44.0877 16.9078 44.5399 17.4127 45.1609 17.7222C45.8609 18.0708 47.0087 18.0943 47.7146 17.7742ZM45.5528 10.7281C45.5528 9.44771 45.8813 9.01084 46.7079 9.19242C47.1229 9.28363 47.3029 9.74809 47.3029 10.7282V11.5035H45.5529V10.7282L45.5528 10.7281ZM27.8473 11.9668V6.04784H30.112V4.092H23.6268V6.04784H25.7886V17.8858H27.8473V11.9668Z" fill="#D02726"/>
</g>
</svg>
