<svg width="42" height="26" viewBox="0 0 42 26" fill="none" xmlns="http://www.w3.org/2000/svg">
<g id="Logos 14">
<path d="M9.59878 1.29397L0.951172 20.377H7.36001L11.0915 10.7486L14.9541 20.377H21.3192L12.7595 1.29397H9.59878Z" fill="#0373FF"/>
<path d="M41.9512 10.7707C41.9512 16.3158 37.4014 20.811 31.7886 20.811C26.1761 20.811 21.6259 16.3158 21.6259 10.7707C21.6259 5.2255 26.1757 0.730469 31.7886 0.730469C37.401 0.730469 41.9512 5.22559 41.9512 10.7707ZM31.7886 6.49865C29.4006 6.49865 27.4647 8.41123 27.4647 10.7706C27.4647 13.1299 29.4007 15.0426 31.7886 15.0426C34.1765 15.0426 36.1124 13.1299 36.1124 10.7706C36.1124 8.41132 34.1765 6.49865 31.7886 6.49865Z" fill="#0373FF"/>
<path d="M17.0829 23.2123V23.025H17.6133V24.8351H17.0829V24.6544C16.9579 24.8084 16.7376 24.8993 16.5619 24.8993C15.8568 24.8993 15.6388 24.3967 15.6421 23.8983C15.6489 23.4031 15.9774 22.9949 16.5686 22.9949C16.7476 22.9949 16.9647 23.0617 17.0829 23.2123ZM17.0945 23.9592C17.0945 23.6875 16.8848 23.4647 16.6256 23.4647C16.3206 23.4647 16.1682 23.7025 16.1644 23.9517C16.1605 24.1971 16.3168 24.4501 16.6256 24.4501C16.8848 24.4501 17.0945 24.2312 17.0945 23.9592ZM25.7406 23.2123V23.025H26.2712V24.8351H25.7406V24.6544C25.6157 24.8084 25.3953 24.8993 25.2197 24.8993C24.5146 24.8993 24.2965 24.3967 24.2999 23.8983C24.3066 23.4031 24.6351 22.9949 25.2264 22.9949C25.4055 22.9949 25.6225 23.0617 25.7406 23.2123ZM25.7524 23.9592C25.7524 23.6875 25.5427 23.4647 25.2835 23.4647C24.9785 23.4647 24.826 23.7025 24.8222 23.9517C24.8184 24.1971 24.9747 24.4501 25.2835 24.4501C25.5427 24.4501 25.7524 24.2312 25.7524 23.9592ZM29.5955 23.2123V23.025H30.126V24.8351H29.5955V24.6544C29.4705 24.8084 29.2501 24.8993 29.0745 24.8993C28.3695 24.8993 28.1514 24.3967 28.1548 23.8983C28.1615 23.4031 28.49 22.9949 29.0812 22.9949C29.2604 22.9949 29.4772 23.0617 29.5955 23.2123ZM29.6071 23.9592C29.6071 23.6875 29.3975 23.4647 29.1383 23.4647C28.8333 23.4647 28.6808 23.7025 28.677 23.9517C28.6732 24.1971 28.8295 24.4501 29.1383 24.4501C29.3975 24.4501 29.6071 24.2312 29.6071 23.9592ZM19.0621 24.8962V24.7123C18.9337 24.8762 18.7132 24.923 18.5173 24.9197C17.997 24.9164 17.8941 24.4704 17.8974 24.0221V23.0249H18.4369V24.0798C18.4369 24.6114 19.0896 24.5822 19.0896 24.1108V23.0249H19.6058V24.8961L19.0621 24.8962ZM20.5902 22.9815C20.9821 22.9815 21.2799 23.1789 21.2833 23.6006H20.7935C20.7901 23.46 20.7016 23.426 20.5902 23.426C20.3736 23.426 20.3579 23.6515 20.5705 23.6882C20.9758 23.7584 21.2884 23.931 21.2884 24.2731C21.2884 24.7281 21.0589 24.9154 20.5604 24.9154C20.0619 24.9154 19.8577 24.7117 19.851 24.25H20.3436C20.347 24.3705 20.4193 24.4469 20.5739 24.4469C20.7299 24.4469 20.7759 24.3799 20.7653 24.3145C20.7545 24.2475 20.682 24.2005 20.5463 24.1822C20.134 24.1262 19.8738 23.9412 19.8738 23.6073C19.8737 23.1689 20.1813 22.9815 20.5902 22.9815ZM22.3707 24.8653C21.9618 24.8686 21.7522 24.6812 21.7522 24.2095V23.4967H21.443V23.045H21.7522V22.6343L22.2881 22.293V23.045H22.6275V23.4967H22.2881V24.2095C22.2881 24.37 22.3639 24.4202 22.4924 24.4202C22.5429 24.4202 22.597 24.4135 22.6443 24.4036L22.6612 24.8385C22.5565 24.8553 22.4585 24.8653 22.3707 24.8653ZM23.4374 24.8351H22.9553V23.0656H23.4352L23.4554 23.235C23.5736 23.1245 23.7673 23.0288 23.9159 23.0288C23.9802 23.0288 24.0511 23.0388 24.1221 23.0555L24.1153 23.5304C24.0612 23.5137 23.9311 23.5047 23.8703 23.5047C23.6777 23.5082 23.4374 23.587 23.4374 23.8312V24.8351ZM27.1296 22.1658V24.8351H26.589V22.1658H27.1296ZM27.6485 22.2246C27.8107 22.2212 27.9797 22.3217 27.9797 22.5325C27.9797 22.7266 27.8277 22.8236 27.6722 22.827C27.51 22.8303 27.341 22.7331 27.341 22.5325C27.341 22.3317 27.4931 22.2279 27.6485 22.2246ZM27.3918 23.025V24.8351H27.9324V23.025H27.3918ZM31.0009 23.025V23.2056C31.1293 23.045 31.3456 22.9982 31.5416 22.9982C32.0619 23.0049 32.2038 23.3863 32.2004 23.838V24.8352H31.6597V23.8006C31.6597 23.5564 31.5213 23.446 31.3759 23.446C31.2171 23.446 30.9975 23.5202 30.9975 23.8107V24.8352H30.4637V23.025L31.0009 23.025ZM40.4115 23.025V23.2056C40.5399 23.045 40.7561 22.9982 40.9521 22.9982C41.4724 23.0049 41.6144 23.3863 41.611 23.838V24.8352H41.0704V23.8006C41.0704 23.5564 40.9318 23.446 40.7865 23.446C40.6277 23.446 40.408 23.5202 40.408 23.8107V24.8352H39.8742V23.025L40.4115 23.025ZM33.34 23.9317C33.34 22.6401 35.2896 22.6435 35.2896 23.9317C35.2896 25.22 33.34 25.2133 33.34 23.9317ZM34.7558 23.9317C34.7558 23.3161 33.8738 23.3194 33.8738 23.9317C33.8738 24.5374 34.7558 24.5407 34.7558 23.9317ZM36.0118 24.6679V25.7305H35.5466V23.025H36.0325V23.2057C36.1575 23.0518 36.4191 23.0016 36.5948 23.0016C37.1759 23.0016 37.4972 23.4634 37.4939 23.9618C37.4871 24.4571 37.1793 24.906 36.588 24.906C36.4089 24.906 36.1334 24.8051 36.0118 24.6679ZM36.0634 23.9415C36.0634 24.2126 36.2724 24.4347 36.531 24.4347C36.835 24.4347 36.9871 24.1938 36.9909 23.9491C36.9947 23.7044 36.8388 23.4522 36.531 23.4522C36.2724 23.4522 36.0634 23.6706 36.0634 23.9415ZM39.595 24.1326H38.2222C38.2864 24.2998 38.4384 24.4683 38.6553 24.4683C38.8723 24.4683 38.9274 24.3858 38.9834 24.3038H39.5612C39.4193 24.7053 39.0341 24.9027 38.6489 24.8959C38.186 24.8859 37.7265 24.5373 37.7265 23.925C37.7265 23.3027 38.2029 22.9949 38.6794 22.9982C39.149 23.0016 39.6153 23.3093 39.6153 23.925C39.6153 23.9987 39.6085 24.0656 39.595 24.1326ZM39.096 23.721C39.0454 23.5403 38.8348 23.4566 38.6625 23.4566C38.5036 23.4566 38.3171 23.5436 38.2631 23.721H39.096Z" fill="#0373FF"/>
</g>
</svg>
