<svg width="25" height="28" viewBox="0 0 25 28" fill="none" xmlns="http://www.w3.org/2000/svg">
<g id="Logos 04">
<g id="g898">
<g id="g896">
<g id="g894">
<path id="polygon873" d="M0.0585938 20.3237H7.4123L12.0712 27.9409L0.0585938 20.3237Z" fill="#1A1659"/>
<path id="polygon875" d="M24.0969 20.3237H16.7312L12.0723 27.9409L24.0969 20.3237Z" fill="#1A1659"/>
<path id="polygon877" d="M7.41211 20.3238H12.0711H16.73L12.0711 8.02368L7.41211 20.3238Z" fill="#1A1659"/>
<path id="polygon892" d="M12.0711 27.9409L16.73 20.3237H7.41211L12.0711 27.9409Z" fill="url(#paint0_linear_1327_8300)"/>
</g>
</g>
</g>
<path id="path913" d="M12.0712 8.0236L14.0833 13.3293H11.5443L9.81962 17.9044H15.82L16.7302 20.3237H24.0959L15.3888 0.059082C13.1731 0.059082 10.9694 0.059082 8.75369 0.059082L0.0585938 20.3237H7.42428L12.0712 8.0236Z" fill="url(#paint1_linear_1327_8300)"/>
</g>
<defs>
<linearGradient id="paint0_linear_1327_8300" x1="7.41694" y1="24.1275" x2="16.7303" y2="24.1275" gradientUnits="userSpaceOnUse">
<stop stop-color="#31ECFF"/>
<stop offset="0.049371" stop-color="#2DE2FF"/>
<stop offset="0.2964" stop-color="#1BB2FF"/>
<stop offset="0.5147" stop-color="#0E90FF"/>
<stop offset="0.694" stop-color="#067BFF"/>
<stop offset="0.8118" stop-color="#0373FF"/>
</linearGradient>
<linearGradient id="paint1_linear_1327_8300" x1="18.9759" y1="1.36733" x2="10.6717" y2="24.183" gradientUnits="userSpaceOnUse">
<stop stop-color="#31ECFF"/>
<stop offset="0.0488274" stop-color="#2DE2FF"/>
<stop offset="0.2932" stop-color="#1BB2FF"/>
<stop offset="0.5091" stop-color="#0E90FF"/>
<stop offset="0.6863" stop-color="#067BFF"/>
<stop offset="0.8028" stop-color="#0373FF"/>
</linearGradient>
</defs>
</svg>
