<svg width="149" height="48" viewBox="0 0 149 48" fill="none" xmlns="http://www.w3.org/2000/svg">
<g id="Logos 15">
<g id="Vector 4">
<path d="M95.2981 26.48H89.3804V42.4712H91.8427V35.675H95.294L97.584 33.3522V28.7627L95.2981 26.48ZM91.8427 28.8787H94.2763L95.1258 29.7542V32.3568L94.2763 33.2723H91.8427V28.8787Z" fill="#0B0B0B"/>
<path d="M79.8185 42.4712H87.2054V40.0725H82.2808V35.675H86.3846V33.2763H82.2808V28.8787H87.2054V26.48H79.8185V42.4712Z" fill="#0B0B0B"/>
<path d="M127.013 28.8787V26.48H120.036V28.8787H122.252V42.4712H124.714V28.8787H127.013Z" fill="#0B0B0B"/>
<path d="M105.463 26.48H101.983L99.5579 28.7627V40.1485L101.983 42.4712H105.463L107.766 40.1485V28.7627L105.463 26.48ZM105.303 39.161L104.45 40.0725H103.001L102.02 39.157V29.7542L103.001 28.8787H104.45L105.303 29.7502V39.161Z" fill="#0B0B0B"/>
<path d="M73.9705 35.675L75.2222 42.4712H77.6845L76.2646 34.7355L77.6434 33.3722V28.7787L75.3207 26.48H69.4358V42.4712H71.8981V35.675M71.8981 28.8787H74.3029L75.1812 29.7742V32.3768L74.3029 33.2763H71.8981V28.8787Z" fill="#0B0B0B"/>
<path d="M114.475 35.675L115.727 42.4712H118.189L116.769 34.7355L118.148 33.3722V28.7787L115.825 26.48H109.941V42.4712H112.403V35.675M112.403 28.8787H114.808L115.686 29.7742V32.3768L114.808 33.2763H112.403V28.8787Z" fill="#0B0B0B"/>
<path d="M75.3207 6.49097H69.4358V22.4822H75.3207L77.6434 20.1595V15.57L76.5108 14.4666L77.6434 13.3632V8.77371L75.3207 6.49097ZM71.8981 8.88965H74.3029L75.1812 9.76517V12.3677L74.3029 13.2832H71.8981V8.88965ZM71.8981 15.6859H74.3029L75.1812 16.5614V19.164L74.3029 20.0795H71.8981V15.6859Z" fill="#0B0B0B"/>
<path d="M120.405 22.4822H122.868V15.6859H126.151V22.4822H128.613V6.49097H126.151V13.2872H122.868V6.49097H120.405V22.4822Z" fill="#0B0B0B"/>
<path d="M88.8059 22.4822H96.1928V20.0835H91.2682V15.6859H95.372V13.2872H91.2682V8.88965H96.1928V6.49097H88.8059V22.4822Z" fill="#0B0B0B"/>
<path d="M130.829 22.4822H138.216V20.0835H133.291V15.6859H137.395V13.2872H133.291V8.88965H138.216V6.49097H130.829V22.4822Z" fill="#0B0B0B"/>
<path d="M86.795 20.0835H82.2808V6.49097H79.8185V22.4822H86.795V20.0835Z" fill="#0B0B0B"/>
<path d="M110.023 20.1595L112.448 22.4822H115.928L118.23 20.1595V17.285H115.768V19.172L114.914 20.0835H113.466L112.485 19.168V9.76517L113.466 8.88965H114.914L115.768 9.76117V11.6881H118.23V8.77371L115.928 6.49097H112.448L110.023 8.77371V20.1595Z" fill="#0B0B0B"/>
<path d="M105.714 22.4822H108.176L105.283 6.49097H100.81L97.9164 22.4822H100.379L101.175 18.0846H104.918L105.714 22.4822ZM101.61 15.6859L102.841 8.88965H103.255L104.487 15.6859H101.61Z" fill="#0B0B0B"/>
<path d="M144.885 15.6859L146.136 22.4822H148.599L147.179 14.7464L148.558 13.3832V8.78971L146.235 6.49097H140.35V22.4822H142.812V15.6859M142.812 8.88965H145.217L146.095 9.78516V12.3877L145.217 13.2872H142.812V8.88965Z" fill="#0B0B0B"/>
</g>
<path id="Rectangle 39" d="M0.297363 -0.00537109H65.9565V47.9683H0.297363V-0.00537109Z" fill="#0B0B0B"/>
<g id="Mask group">
<g id="Vector 3">
<path d="M19.8971 7.98999H8.20532V39.9724H19.8971L24.6206 35.371V26.188L22.3594 23.9852L24.6206 21.7824V12.5915L19.8971 7.98999ZM13.1299 21.5825V12.7874H17.8534L19.6961 14.5824V19.7915L17.8534 21.5825M17.8534 26.3799L19.6961 28.1749V33.3841L17.8534 35.1791H13.1299V26.3839" fill="#F8F8F8"/>
<path d="M58.0669 39.9724L53.9877 25.1486L57.4513 21.7744V12.5915L52.7278 7.98999H41.036V39.9724H45.9606V26.3799H49.4037L53.1423 39.9724H58.0669ZM45.9606 12.7874H50.6841L52.5267 14.5824V19.7915L50.6841 21.5865H45.9606V12.7874Z" fill="#F8F8F8"/>
<path d="M28.7245 25.1526V30.8055L36.9321 22.8099V17.157L28.7245 25.1526Z" fill="#F8F8F8"/>
</g>
<mask id="mask0_1327_14880" style="mask-type:alpha" maskUnits="userSpaceOnUse" x="0" y="-1" width="66" height="49">
<g id="Vector 2">
<path d="M65.9587 -0.00537109H0.297363V47.9683H65.9587V-0.00537109Z" fill="#F8F8F8"/>
<path d="M20.1968 7.99024H8.50503V39.9727H20.1968L24.9204 35.3712V26.1883L22.6591 23.9855L24.9204 21.7827V12.5917L20.1968 7.99024ZM13.4296 21.5828V12.7876H18.1531L19.9958 14.5826V19.7918L18.1531 21.5828M18.1531 26.3801L19.9958 28.1752V33.3843L18.1531 35.1793H13.4296V26.3841" fill="#F8F8F8"/>
<path d="M58.3666 39.9727L54.2874 25.1488L57.751 21.7747V12.5917L53.0275 7.99024H41.3357V39.9727H46.2603V26.3801H49.7034L53.442 39.9727H58.3666ZM46.2603 12.7876H50.9838L52.8264 14.5826V19.7918L50.9838 21.5868H46.2603V12.7876Z" fill="#F8F8F8"/>
<path d="M29.0242 25.1528V30.8057L37.2318 22.8101V17.1572L29.0242 25.1528Z" fill="#F8F8F8"/>
</g>
</mask>
<g mask="url(#mask0_1327_14880)">
</g>
</g>
</g>
</svg>
