<svg width="81" height="27" viewBox="0 0 81 27" fill="none" xmlns="http://www.w3.org/2000/svg">
<g id="Logos 15">
<g id="Vector 4">
<path d="M51.9177 14.5707H48.7429V23.1497H50.0639V19.5036H51.9155L53.144 18.2575V15.7953L51.9177 14.5707ZM50.0639 15.8575H51.3695L51.8252 16.3272V17.7235L51.3695 18.2146H50.0639V15.8575Z" fill="#0B0B0B"/>
<path d="M43.6131 23.1497H47.576V21.8629H44.9341V19.5036H47.1357V18.2168H44.9341V15.8575H47.576V14.5707H43.6131V23.1497Z" fill="#0B0B0B"/>
<path d="M68.9319 15.8575V14.5707H65.1891V15.8575H66.378V23.1497H67.699V15.8575H68.9319Z" fill="#0B0B0B"/>
<path d="M57.3711 14.5707H55.5041L54.203 15.7953V21.9036L55.5041 23.1497H57.3711L58.6062 21.9036V15.7953L57.3711 14.5707ZM57.2853 21.3739L56.8273 21.8629H56.0501L55.5239 21.3717V16.3272L56.0501 15.8575H56.8273L57.2853 16.3251V21.3739Z" fill="#0B0B0B"/>
<path d="M40.4758 19.5036L41.1473 23.1497H42.4683L41.7065 18.9996L42.4462 18.2683V15.8039L41.2001 14.5707H38.043V23.1497H39.3639V19.5036M39.3639 15.8575H40.6541L41.1253 16.338V17.7342L40.6541 18.2168H39.3639V15.8575Z" fill="#0B0B0B"/>
<path d="M62.2059 19.5036L62.8774 23.1497H64.1984L63.4366 18.9996L64.1764 18.2683V15.8039L62.9302 14.5707H59.7731V23.1497H61.0941V19.5036M61.0941 15.8575H62.3842L62.8554 16.338V17.7342L62.3842 18.2168H61.0941V15.8575Z" fill="#0B0B0B"/>
<path d="M41.2001 3.84692H38.043V12.4259H41.2001L42.4462 11.1798V8.71766L41.8386 8.12571L42.4462 7.53376V5.07158L41.2001 3.84692ZM39.3639 5.13378H40.6541L41.1253 5.60348V6.99971L40.6541 7.49086H39.3639V5.13378ZM39.3639 8.77986H40.6541L41.1253 9.24956V10.6458L40.6541 11.1369H39.3639V8.77986Z" fill="#0B0B0B"/>
<path d="M65.3873 12.4259H66.7083V8.77986H68.4696V12.4259H69.7905V3.84692H68.4696V7.49301H66.7083V3.84692H65.3873V12.4259Z" fill="#0B0B0B"/>
<path d="M48.4347 12.4259H52.3976V11.1391H49.7557V8.77986H51.9573V7.49301H49.7557V5.13378H52.3976V3.84692H48.4347V12.4259Z" fill="#0B0B0B"/>
<path d="M70.9794 12.4259H74.9424V11.1391H72.3004V8.77986H74.502V7.49301H72.3004V5.13378H74.9424V3.84692H70.9794V12.4259Z" fill="#0B0B0B"/>
<path d="M47.3559 11.1391H44.9341V3.84692H43.6131V12.4259H47.3559V11.1391Z" fill="#0B0B0B"/>
<path d="M59.8171 11.1798L61.1183 12.4259H62.9853L64.2204 11.1798V9.63776H62.8994V10.6501L62.4415 11.1391H61.6643L61.1381 10.6479V5.60348L61.6643 5.13378H62.4415L62.8994 5.60133V6.6351H64.2204V5.07158L62.9853 3.84692H61.1183L59.8171 5.07158V11.1798Z" fill="#0B0B0B"/>
<path d="M57.5054 12.4259H58.8264L57.2743 3.84692H54.8745L53.3223 12.4259H54.6433L55.0704 10.0667H57.0783L57.5054 12.4259ZM55.3038 8.77986L55.9643 5.13378H56.1866L56.8471 8.77986H55.3038Z" fill="#0B0B0B"/>
<path d="M78.52 8.77986L79.1915 12.4259H80.5125L79.7507 8.27584L80.4905 7.54448V5.08016L79.2444 3.84692H76.0872V12.4259H77.4082V8.77986M77.4082 5.13378H78.6983L79.1695 5.6142V7.01044L78.6983 7.49301H77.4082V5.13378Z" fill="#0B0B0B"/>
</g>
<path id="Rectangle 39" d="M0.951172 0.361816H36.1762V26.0989H0.951172V0.361816Z" fill="#0B0B0B"/>
<g id="Mask group">
<g id="Vector 3">
<path d="M11.4658 4.65137H5.19336V21.8094H11.4658L13.9999 19.3408V14.4143L12.7868 13.2325L13.9999 12.0508V7.11998L11.4658 4.65137ZM7.83532 11.9435V7.22507H10.3694L11.3579 8.18807V10.9827L10.3694 11.9435M10.3694 14.5172L11.3579 15.4802V18.2748L10.3694 19.2378H7.83532V14.5194" fill="#F8F8F8"/>
<path d="M31.9432 21.8094L29.7548 13.8567L31.613 12.0465V7.11998L29.0789 4.65137H22.8064V21.8094H25.4484V14.5172H27.2956L29.3013 21.8094H31.9432ZM25.4484 7.22507H27.9825L28.971 8.18807V10.9827L27.9825 11.9457H25.4484V7.22507Z" fill="#F8F8F8"/>
<path d="M16.2015 13.8588V16.8915L20.6048 12.602V9.56929L16.2015 13.8588Z" fill="#F8F8F8"/>
</g>
<mask id="mask0_1327_8346" style="mask-type:alpha" maskUnits="userSpaceOnUse" x="0" y="0" width="37" height="27">
<g id="Vector 2">
<path d="M36.1773 0.361816H0.951172V26.0989H36.1773V0.361816Z" fill="#F8F8F8"/>
<path d="M11.6269 4.65132H5.35444V21.8094H11.6269L14.161 19.3407V14.4142L12.9479 13.2325L14.161 12.0507V7.11994L11.6269 4.65132ZM7.9964 11.9435V7.22503H10.5305L11.519 8.18802V10.9826L10.5305 11.9435M10.5305 14.5172L11.519 15.4802V18.2748L10.5305 19.2378H7.9964V14.5193" fill="#F8F8F8"/>
<path d="M32.1043 21.8094L29.9159 13.8566L31.7741 12.0464V7.11994L29.24 4.65132H22.9675V21.8094H25.6095V14.5172H27.4567L29.4623 21.8094H32.1043ZM25.6095 7.22503H28.1436L29.1321 8.18802V10.9826L28.1436 11.9456H25.6095V7.22503Z" fill="#F8F8F8"/>
<path d="M16.3626 13.8588V16.8914L20.7659 12.6019V9.56925L16.3626 13.8588Z" fill="#F8F8F8"/>
</g>
</mask>
<g mask="url(#mask0_1327_8346)">
</g>
</g>
</g>
</svg>
