<svg width="35" height="35" viewBox="0 0 35 35" fill="none" xmlns="http://www.w3.org/2000/svg">
<g id="Logos 03">
<path id="Vector" d="M34.5587 8.04722V15.5715L33.5413 16.5889L32.5166 17.6136L33.5413 18.6383L34.5587 19.6557V27.1799V34.6969H17.4681H0.384766V27.1946V19.663L1.40215 18.6456L2.42686 17.6209L1.40215 16.5962L0.384766 15.5788V8.04722V0.530273H17.4754H34.566V8.04722H34.5587ZM2.03893 8.51566V14.8469L3.42229 16.2302L4.81296 17.6209L3.42229 19.0116L2.03893 20.3949V26.7261V33.0574H17.4681H32.8972V26.7261V20.3949L31.5139 19.0116L30.1232 17.6209L31.5139 16.2302L32.8972 14.8469V8.51566V2.18444H17.4681H2.03893V8.51566Z" fill="#0B0B0B"/>
<path id="Vector_2" d="M14.4232 7.19825L15.4991 8.27419V10.836V13.3977L14.4305 14.4663L13.3546 15.5423H10.4927H7.63086V10.8286V6.11499H10.4927H13.3546L14.4232 7.19825ZM9.29235 10.836V13.8881H10.9685H12.6446L13.1935 13.2953L13.7425 12.7097V10.836V8.95489L13.1862 8.36202L12.63 7.76916H10.9538H9.29235V10.836Z" fill="#0B0B0B"/>
<path id="Vector_3" d="M26.1491 10.8285C27.2177 13.4049 28.0887 15.5129 28.0887 15.5275C28.0887 15.5421 27.6861 15.5495 27.1884 15.5495H26.2882L26.0539 14.9932L25.8197 14.4369H23.4263H21.0329L20.8133 14.9786L20.5937 15.5202L19.6788 15.5348C18.9542 15.5421 18.7639 15.5348 18.7858 15.4836C18.8005 15.447 19.6642 13.3537 20.7108 10.8358C21.7575 8.31065 22.6212 6.22464 22.6358 6.18804C22.6578 6.14413 22.8481 6.12949 23.4409 6.13681L24.2095 6.15145L26.1491 10.8285ZM22.6138 10.6675C22.182 11.7141 21.8087 12.6071 21.7941 12.6583C21.7648 12.7462 21.86 12.7535 23.4336 12.7535C24.7731 12.7535 25.0951 12.7388 25.0805 12.6876C25.0439 12.5412 23.4629 8.76445 23.4336 8.76445C23.4117 8.76445 23.053 9.62813 22.6138 10.6675Z" fill="#0B0B0B"/>
<path id="Vector_4" d="M14.7818 20.5121V21.3392L12.3152 24.3914L9.86325 27.4362L12.3152 27.4509L14.7818 27.4582V28.2926V29.1197H11.2027H7.63086V28.2706L7.63818 27.4362L10.1121 24.406L12.586 21.3758L10.1048 21.3612L7.63086 21.3466V20.5195V19.6924H11.2027H14.7818V20.5121Z" fill="#0B0B0B"/>
<path id="Vector_5" d="M23.2801 23.0446L25.6297 26.4115L25.6443 23.0446L25.6516 19.6924H26.486H27.3131V24.406V29.1197H26.3689H25.4247L23.3241 26.0675L21.2234 23.0227L21.2088 26.0748L21.2015 29.1197H20.3231H19.4375V24.406V19.6924H20.1841H20.9233L23.2801 23.0446Z" fill="#0B0B0B"/>
</g>
</svg>
