<svg width="87" height="16" viewBox="0 0 87 16" fill="none" xmlns="http://www.w3.org/2000/svg">
<g id="Logos 05">
<path id="Vector" d="M25.0772 0.761475L21.0605 15.2233H23.8491L26.1492 7.03234L27.5044 15.2233H30.2302L34.2316 0.761475H31.443L29.1752 8.92191L27.8369 0.761475H25.0772ZM37.8699 0.761475L35.2713 2.74603L31.806 15.2233H34.5945L35.7921 10.8912H39.3049L38.1074 15.2233H40.8807L44.346 2.76299L42.8805 0.761475H37.8699ZM48.5339 0.761475L45.9184 2.76299L44.6429 7.26811L46.1084 9.34766H50.3624L49.4957 12.467H45.9829L46.4086 10.9862H43.6184L43.0196 13.1607L44.5326 15.225H49.4635L52.0943 13.1929L53.3393 8.64034L51.8585 6.57606H47.6214L48.4729 3.48897H51.9705L51.5447 5.00198H54.3485L54.9778 2.76469L53.5276 0.76317H48.5339V0.761475ZM59.1827 0.761475L56.5519 2.76299L53.6531 13.176L55.1814 15.2233H60.1122L62.743 13.176L63.5623 10.2297H60.7737L60.1445 12.467H56.6486L59.1539 3.47201H62.6362L62.0222 5.73983H64.7954L65.63 2.76299L64.1967 0.761475H59.1827ZM69.8162 0.761475L67.2007 2.76299L63.7506 15.2233H66.5391L67.7367 10.8912H71.2495L70.0367 15.2233H72.8253L76.2754 2.74603L74.8098 0.761475H69.8162ZM78.4482 0.761475L74.4316 15.2233H77.2201L78.4177 10.8912H80.6855L81.2062 15.2233H83.932L83.3332 10.2924L85.2873 8.7014L86.9411 2.76299L85.4755 0.761475H78.4482ZM37.8377 3.47031H41.3505L40.0597 8.14844H36.5469L37.8377 3.47031ZM69.784 3.47031H73.2968L72.0043 8.14844H68.4915L69.784 3.47031ZM80.465 3.47031H83.9625L82.6548 8.14844H79.1742L80.465 3.47031Z" fill="black"/>
<path id="Vector_2" d="M23.5515 0.761475H18.0049L13.9883 15.2216H19.5332L23.5515 0.761475Z" fill="#007AC2"/>
<path id="Vector_3" d="M10.0336 0.761475L6 15.2386H8.69357L12.6949 0.761475H10.0336ZM13.7991 0.761475L9.76727 15.2386H12.4591L16.4605 0.761475H13.7991Z" fill="#E4002B"/>
<path id="Vector_4" d="M4.11062 0.761475L0.0957031 15.2386H1.76477L5.76611 0.761475H4.11062ZM6.85168 0.761475L2.83507 15.2386H4.50413L8.50548 0.761475H6.85168Z" fill="#FFD659"/>
</g>
</svg>
