<svg width="713" height="1425" viewBox="0 0 713 1425" fill="none" xmlns="http://www.w3.org/2000/svg">
<path fill-rule="evenodd" clip-rule="evenodd" d="M712.799 0.00299357C712.699 0.00295098 712.599 0.00292968 712.499 0.00292969C712.02 0.00292971 711.542 0.00341801 711.063 0.00439459L711.124 31.0043L711.186 62.0042L711.694 62.0033L712.499 62.0029C712.599 62.0029 712.699 62.0029 712.799 62.003V0.00299357ZM712.799 1363C712.699 1363 712.599 1363 712.499 1363C712.061 1363 711.623 1363 711.185 1363L711.124 1394L711.063 1425C711.542 1425 712.02 1425 712.499 1425C712.599 1425 712.699 1425 712.799 1425V1363ZM580.798 43.7123L574.843 13.2898C573.911 13.4722 572.98 13.6563 572.05 13.8423L578.127 44.2407L584.204 74.6392C584.665 74.5471 585.126 74.4556 585.587 74.3645C585.975 74.2876 586.364 74.2112 586.753 74.135L580.798 43.7123ZM452.897 82.1823L441.08 53.523C440.202 53.8853 439.324 54.2493 438.447 54.615L450.379 83.2266L462.311 111.838C462.706 111.673 463.101 111.509 463.496 111.346C463.661 111.277 463.827 111.208 463.992 111.14C464.233 111.04 464.473 110.941 464.714 110.842L452.897 82.1823ZM335.004 145.014L317.81 119.22C317.018 119.747 316.228 120.277 315.439 120.807L332.736 146.533L350.033 172.258C350.754 171.774 351.476 171.29 352.198 170.809L335.004 145.014ZM231.573 229.644L209.697 207.68C209.022 208.352 208.349 209.025 207.678 209.699L229.642 231.576L251.605 253.453L252.03 253.027C252.297 252.759 252.564 252.492 252.832 252.225C253.038 252.019 253.244 251.814 253.45 251.608L231.573 229.644ZM146.53 332.739L120.804 315.442C120.274 316.231 119.745 317.021 119.217 317.812L145.011 335.007L170.806 352.201C171.288 351.479 171.771 350.757 172.255 350.036L146.53 332.739ZM83.2236 450.382L54.6121 438.45C54.2464 439.327 53.8824 440.204 53.5201 441.083L82.1794 452.9L110.839 464.717C111.169 463.915 111.501 463.114 111.835 462.314L83.2236 450.382ZM44.2378 578.13L13.8394 572.053C13.6534 572.983 13.4692 573.914 13.2868 574.846L43.7095 580.801L74.1321 586.756C74.2985 585.906 74.4666 585.056 74.6363 584.207L44.2378 578.13ZM31.0013 711.127L0.00138521 711.066C0.000441518 711.544 -3.05176e-05 712.023 -3.05176e-05 712.502C-3.05176e-05 712.98 0.000441482 713.459 0.00138498 713.937L31.0013 713.876L62.0013 713.815L62.0008 713.525C62.0002 713.184 62 712.843 62 712.502C62 712.064 62.0004 711.626 62.0013 711.188L31.0013 711.127ZM43.7094 844.202L13.2868 850.157C13.4692 851.089 13.6533 852.02 13.8393 852.951L44.2378 846.873L74.6363 840.796C74.4666 839.947 74.2985 839.098 74.1321 838.247L43.7094 844.202ZM82.1794 972.103L53.52 983.92C53.8823 984.799 54.2464 985.677 54.6121 986.554L83.2236 974.621L111.835 962.689C111.501 961.889 111.169 961.088 110.839 960.286L82.1794 972.103ZM145.011 1090L119.217 1107.19C119.744 1107.98 120.274 1108.77 120.804 1109.56L146.53 1092.26L172.255 1074.97C171.771 1074.25 171.288 1073.52 170.806 1072.8L145.011 1090ZM229.641 1193.43L207.678 1215.3C208.349 1215.98 209.022 1216.65 209.697 1217.32L231.573 1195.36L253.45 1173.4C252.834 1172.78 252.219 1172.17 251.605 1171.55L229.641 1193.43ZM332.736 1278.47L315.439 1304.2C316.228 1304.73 317.018 1305.26 317.809 1305.78L335.004 1279.99L352.198 1254.19C351.476 1253.71 350.754 1253.23 350.033 1252.75L332.736 1278.47ZM450.379 1341.78L438.447 1370.39C439.324 1370.75 440.202 1371.12 441.08 1371.48L452.897 1342.82L464.714 1314.16C464.383 1314.03 464.051 1313.89 463.72 1313.75C463.25 1313.56 462.781 1313.36 462.311 1313.17L450.379 1341.78ZM578.127 1380.76L572.05 1411.16C572.98 1411.35 573.911 1411.53 574.843 1411.71L580.798 1381.29L586.753 1350.87C585.903 1350.7 585.053 1350.53 584.204 1350.36L578.127 1380.76Z" fill="#E5FF00"/>
</svg>
