<svg width="24" height="22" viewBox="0 0 24 22" fill="none" xmlns="http://www.w3.org/2000/svg">
<g id="Vector">
<path d="M0.738892 2.55556C0.738892 1.8148 0.998158 1.20369 1.51667 0.722222C2.03518 0.240733 2.70927 0 3.53889 0C4.35371 0 5.01296 0.237022 5.51667 0.711111C6.03518 1.2 6.29445 1.83702 6.29445 2.62222C6.29445 3.33333 6.0426 3.92591 5.53889 4.4C5.02038 4.88889 4.33889 5.13333 3.49445 5.13333H3.47222C2.6574 5.13333 1.99816 4.88889 1.49445 4.4C0.990736 3.91111 0.738892 3.29629 0.738892 2.55556ZM1.02778 22V7.15556H5.96111V22H1.02778ZM8.69445 22H13.6278V13.7111C13.6278 13.1926 13.687 12.7926 13.8056 12.5111C14.013 12.0074 14.3278 11.5815 14.75 11.2333C15.1722 10.8852 15.7018 10.7111 16.3389 10.7111C17.9982 10.7111 18.8278 11.8296 18.8278 14.0667V22H23.7611V13.4889C23.7611 11.2963 23.2426 9.63333 22.2056 8.5C21.1685 7.36667 19.7982 6.8 18.0944 6.8C16.1833 6.8 14.6944 7.62222 13.6278 9.26667V9.31111H13.6056L13.6278 9.26667V7.15556H8.69445C8.72407 7.62962 8.73889 9.10369 8.73889 11.5778C8.73889 14.0518 8.72407 17.5259 8.69445 22Z" fill="#0B0B0B"/>
<path d="M0.738892 2.55556C0.738892 1.8148 0.998158 1.20369 1.51667 0.722222C2.03518 0.240733 2.70927 0 3.53889 0C4.35371 0 5.01296 0.237022 5.51667 0.711111C6.03518 1.2 6.29445 1.83702 6.29445 2.62222C6.29445 3.33333 6.0426 3.92591 5.53889 4.4C5.02038 4.88889 4.33889 5.13333 3.49445 5.13333H3.47222C2.6574 5.13333 1.99816 4.88889 1.49445 4.4C0.990736 3.91111 0.738892 3.29629 0.738892 2.55556ZM1.02778 22V7.15556H5.96111V22H1.02778ZM8.69445 22H13.6278V13.7111C13.6278 13.1926 13.687 12.7926 13.8056 12.5111C14.013 12.0074 14.3278 11.5815 14.75 11.2333C15.1722 10.8852 15.7018 10.7111 16.3389 10.7111C17.9982 10.7111 18.8278 11.8296 18.8278 14.0667V22H23.7611V13.4889C23.7611 11.2963 23.2426 9.63333 22.2056 8.5C21.1685 7.36667 19.7982 6.8 18.0944 6.8C16.1833 6.8 14.6944 7.62222 13.6278 9.26667V9.31111H13.6056L13.6278 9.26667V7.15556H8.69445C8.72407 7.62962 8.73889 9.10369 8.73889 11.5778C8.73889 14.0518 8.72407 17.5259 8.69445 22Z" fill="#0B0B0B"/>
</g>
</svg>
