<svg xmlns="http://www.w3.org/2000/svg" width="76" height="22" viewBox="0 0 76 22" fill="none">
  <path d="M33.9223 13.857V16.1316H28.5993L27.5343 14.9462C27.3562 14.752 27.2587 14.4802 27.2587 14.2269V4.83456H29.6436V13.857H33.9223ZM52.0793 13.857V16.1316H46.7563L45.6913 14.9462C45.5132 14.752 45.4157 14.4802 45.4157 14.2269V4.83456H47.8007V13.857H52.0793ZM53.4199 4.83456H55.8048V16.1316H53.4199V4.83456ZM42.3014 8.08183L41.6696 5.63159C41.5514 5.16558 41.1183 4.83456 40.6252 4.83456H37.8465L36.9991 8.08183L35.2047 15.0239C35.1653 15.1792 35.1447 15.3346 35.1447 15.4899V16.1316H37.2747L37.7284 14.421L41.2777 12.7493L42.1646 16.1316H44.1558V15.1016L42.3033 8.08183H42.3014ZM38.3003 12.2241L39.384 8.06334L39.7196 6.77996L40.0552 8.06334L41.139 12.2241H38.3003ZM73.8832 8.08183L73.2532 5.63159C73.135 5.16558 72.7019 4.83456 72.2088 4.83456H69.4283L68.5808 8.08183L66.7677 15.0239C66.7283 15.1792 66.7077 15.3346 66.7077 15.4899V16.1316H68.8377L69.2914 14.421L72.8407 12.7493L73.7275 16.1316H75.7188V15.1016L73.885 8.08183H73.8832ZM69.8614 12.2241L70.9451 8.06334L71.2807 6.77996L71.6163 8.06334L72.7001 12.2241H69.8614ZM65.939 12.0485V12.6125C65.939 14.6152 64.3021 16.2296 62.2716 16.2296H61.1672C60.7135 16.2296 60.2804 16.1519 59.8866 15.9966C58.4879 15.4917 57.5017 14.1492 57.5017 12.6143V8.47202C57.5017 8.33518 57.5017 8.20018 57.5223 8.08368C57.6798 6.7023 58.606 5.55577 59.8885 5.08976C60.2822 4.93442 60.7172 4.85675 61.1691 4.85675H62.2734C64.1653 4.85675 65.7234 6.27697 65.9202 8.08368H63.5934V7.81184C63.5934 7.36433 63.239 7.01482 62.7853 7.01482H60.6966C60.2429 7.01482 59.8885 7.36433 59.8885 7.81184V13.2357C59.8885 13.6832 60.2429 14.0327 60.6966 14.0327H62.7853C63.239 14.0327 63.5934 13.6832 63.5934 13.2357V11.7766H61.5816V9.54088H64.3415L64.3809 9.57972L65.3859 10.6486C65.7421 11.0184 65.939 11.5233 65.939 12.0485ZM5.41544 10.9019H10.1666L2.93113 14.519L2.873 14.421L1.29617 12.3591C0.546184 11.3864 0.527434 10.0457 1.23617 9.05268L7.19102 0.829102H12.6903L5.41544 10.9019ZM11.5859 17.5906H17.1452L8.66849 21.8291L8.62911 21.7699L6.75603 19.34C6.00605 18.3877 5.9873 17.0655 6.69604 16.0743L17.462 0.829102H23.4356L11.5878 17.5906H11.5859Z" fill="#FF2D25"/>
</svg>