<svg xmlns="http://www.w3.org/2000/svg" width="42" height="26" viewBox="0 0 42 26" fill="none">
  <path d="M9.36636 1.3926L0.71875 20.4757H7.12759L10.859 10.8473L14.7216 20.4757H21.0868L12.5271 1.3926H9.36636Z" fill="#0373FF"/>
  <path d="M41.7188 10.8694C41.7188 16.4145 37.169 20.9096 31.5561 20.9096C25.9437 20.9096 21.3935 16.4144 21.3935 10.8694C21.3935 5.32413 25.9433 0.829102 31.5561 0.829102C37.1686 0.829102 41.7188 5.32422 41.7188 10.8694ZM31.5561 6.59728C29.1682 6.59728 27.2323 8.50987 27.2323 10.8693C27.2323 13.2286 29.1682 15.1412 31.5561 15.1412C33.9441 15.1412 35.88 13.2286 35.88 10.8693C35.88 8.50995 33.9441 6.59728 31.5561 6.59728Z" fill="#0373FF"/>
  <path d="M16.8504 23.311V23.1236H17.3809V24.9338H16.8504V24.753C16.7254 24.907 16.5051 24.9979 16.3294 24.9979C15.6244 24.9979 15.4063 24.4954 15.4097 23.9969C15.4165 23.5017 15.745 23.0935 16.3362 23.0935C16.5152 23.0935 16.7322 23.1604 16.8504 23.311ZM16.8621 24.0579C16.8621 23.7861 16.6524 23.5634 16.3932 23.5634C16.0882 23.5634 15.9358 23.8011 15.932 24.0504C15.9281 24.2958 16.0844 24.5487 16.3932 24.5487C16.6524 24.5487 16.8621 24.3298 16.8621 24.0579ZM25.5082 23.311V23.1236H26.0387V24.9338H25.5082V24.753C25.3832 24.907 25.1629 24.9979 24.9872 24.9979C24.2822 24.9979 24.0641 24.4954 24.0675 23.9969C24.0742 23.5017 24.4027 23.0935 24.9939 23.0935C25.1731 23.0935 25.39 23.1604 25.5082 23.311ZM25.52 24.0579C25.52 23.7861 25.3103 23.5634 25.0511 23.5634C24.7461 23.5634 24.5936 23.8011 24.5898 24.0504C24.586 24.2958 24.7423 24.5487 25.0511 24.5487C25.3102 24.5487 25.52 24.3298 25.52 24.0579ZM29.3631 23.311V23.1236H29.8936V24.9338H29.3631V24.753C29.2381 24.907 29.0177 24.9979 28.8421 24.9979C28.137 24.9979 27.9189 24.4954 27.9224 23.9969C27.9291 23.5017 28.2576 23.0935 28.8488 23.0935C29.0279 23.0935 29.2448 23.1604 29.3631 23.311ZM29.3747 24.0579C29.3747 23.7861 29.1651 23.5634 28.9058 23.5634C28.6009 23.5634 28.4484 23.8011 28.4446 24.0504C28.4408 24.2958 28.5971 24.5487 28.9058 24.5487C29.1651 24.5487 29.3747 24.3298 29.3747 24.0579ZM18.8297 24.9949V24.8109C18.7013 24.9748 18.4808 25.0216 18.2849 25.0184C17.7646 25.015 17.6616 24.569 17.665 24.1207V23.1236H18.2045V24.1784C18.2045 24.7101 18.8572 24.6808 18.8572 24.2094V23.1235H19.3734V24.9948L18.8297 24.9949ZM20.3577 23.0801C20.7497 23.0801 21.0475 23.2775 21.0508 23.6992H20.5611C20.5577 23.5587 20.4692 23.5246 20.3577 23.5246C20.1412 23.5246 20.1254 23.7501 20.3381 23.7869C20.7434 23.857 21.056 24.0296 21.056 24.3717C21.056 24.8268 20.8264 25.014 20.328 25.014C19.8294 25.014 19.6253 24.8104 19.6185 24.3486H20.1112C20.1145 24.4691 20.1869 24.5455 20.3415 24.5455C20.4974 24.5455 20.5435 24.4785 20.5329 24.4131C20.5221 24.3462 20.4496 24.2992 20.3139 24.2808C19.9016 24.2248 19.6413 24.0398 19.6413 23.7059C19.6413 23.2675 19.9489 23.0801 20.3577 23.0801ZM22.1383 24.9639C21.7294 24.9673 21.5198 24.7799 21.5198 24.3081V23.5954H21.2106V23.1436H21.5198V22.7329L22.0557 22.3917V23.1436H22.395V23.5954H22.0557V24.3081C22.0557 24.4687 22.1315 24.5189 22.2599 24.5189C22.3105 24.5189 22.3646 24.5121 22.4119 24.5022L22.4288 24.9372C22.3241 24.9539 22.2261 24.9639 22.1383 24.9639ZM23.205 24.9338H22.7229V23.1643H23.2027L23.223 23.3336C23.3412 23.2231 23.5349 23.1274 23.6835 23.1274C23.7478 23.1274 23.8187 23.1374 23.8896 23.1542L23.8829 23.629C23.8287 23.6123 23.6987 23.6033 23.6379 23.6033C23.4452 23.6068 23.205 23.6857 23.205 23.9298V24.9338ZM26.8972 22.2645V24.9338H26.3566V22.2645H26.8972ZM27.4161 22.3232C27.5783 22.3199 27.7473 22.4203 27.7473 22.6311C27.7473 22.8252 27.5952 22.9223 27.4397 22.9256C27.2776 22.9289 27.1086 22.8318 27.1086 22.6311C27.1086 22.4303 27.2607 22.3265 27.4161 22.3232ZM27.1594 23.1236V24.9337H27.6999V23.1236H27.1594ZM30.7685 23.1236V23.3043C30.8969 23.1436 31.1131 23.0968 31.3091 23.0968C31.8295 23.1035 31.9714 23.4849 31.9679 23.9367V24.9338H31.4273V23.8993C31.4273 23.6551 31.2888 23.5446 31.1435 23.5446C30.9847 23.5446 30.7651 23.6188 30.7651 23.9093V24.9338H30.2313V23.1237L30.7685 23.1236ZM40.179 23.1236V23.3043C40.3075 23.1436 40.5237 23.0968 40.7197 23.0968C41.24 23.1035 41.382 23.4849 41.3785 23.9367V24.9338H40.8379V23.8993C40.8379 23.6551 40.6994 23.5446 40.5541 23.5446C40.3953 23.5446 40.1756 23.6188 40.1756 23.9093V24.9338H39.6418V23.1237L40.179 23.1236ZM33.1076 24.0304C33.1076 22.7388 35.0571 22.7421 35.0571 24.0304C35.0571 25.3186 33.1076 25.3119 33.1076 24.0304ZM34.5234 24.0304C34.5234 23.4147 33.6414 23.4181 33.6414 24.0304C33.6414 24.636 34.5234 24.6393 34.5234 24.0304ZM35.7794 24.7666V25.8291H35.3141V23.1236H35.8001V23.3043C35.925 23.1504 36.1866 23.1003 36.3623 23.1003C36.9435 23.1003 37.2648 23.562 37.2614 24.0604C37.2547 24.5557 36.9469 25.0046 36.3555 25.0046C36.1764 25.0047 35.901 24.9037 35.7794 24.7666ZM35.8309 24.0402C35.8309 24.3112 36.04 24.5334 36.2985 24.5334C36.6026 24.5334 36.7547 24.2924 36.7585 24.0477C36.7623 23.8031 36.6064 23.5508 36.2985 23.5508C36.04 23.5508 35.8309 23.7692 35.8309 24.0402ZM39.3626 24.2312H37.9898C38.054 24.3984 38.2059 24.5669 38.4229 24.5669C38.6399 24.5669 38.6949 24.4844 38.751 24.4024H39.3287C39.1869 24.8039 38.8016 25.0013 38.4165 24.9946C37.9536 24.9845 37.4941 24.6359 37.4941 24.0236C37.4941 23.4013 37.9705 23.0935 38.4469 23.0968C38.9166 23.1002 39.3829 23.4079 39.3829 24.0236C39.3829 24.0974 39.3761 24.1642 39.3626 24.2312ZM38.8636 23.8196C38.8129 23.6389 38.6024 23.5552 38.4301 23.5552C38.2712 23.5552 38.0847 23.6423 38.0307 23.8196H38.8636Z" fill="#0373FF"/>
</svg>