<svg width="49" height="29" viewBox="0 0 49 29" fill="none" xmlns="http://www.w3.org/2000/svg">
<g id="Logos 08">
<g id="g3122">
<g id="g3029">
<path id="rect2987" d="M3.3556 0.289551H9.90501C11.4946 0.289551 12.7743 1.56924 12.7743 3.15882V25.3021C12.7743 26.8917 11.4946 28.1714 9.90501 28.1714H3.3556C1.76602 28.1714 0.486328 26.8917 0.486328 25.3021V3.15882C0.486328 1.56924 1.76602 0.289551 3.3556 0.289551Z" fill="white"/>
<path id="path2989" d="M8.27896 5.40032L8.28807 5.49463C8.48567 5.6114 8.58897 5.70571 8.791 5.83595C9.32094 6.17278 9.97227 6.77009 9.89137 8.82249C10.044 9.27159 10.1114 10.1473 10.2462 10.4258C10.5202 10.9782 10.7087 11.3375 10.7896 11.8539C10.7896 11.8539 10.8705 12.6623 10.9737 12.7207C11.5215 12.8464 11.3645 12.9003 11.4408 12.9991C11.526 13.1069 11.8449 13.1024 11.8449 13.3988C11.9572 13.5471 12.0426 13.6953 12.1009 13.8569V3.18175C12.1009 1.96019 11.1129 0.972168 9.89573 0.972168H7.78938C8.1262 1.09343 8.31932 1.23714 8.43166 1.46169C8.70099 1.48415 9.02004 2.09043 8.52142 2.99313C8.74141 3.14583 8.57075 3.37038 8.41357 3.62637C8.36417 3.7072 8.31476 3.85541 8.16656 3.84643C7.96896 4.25511 7.73985 4.64134 7.56483 4.66379C7.51549 4.72667 7.47943 4.90182 7.55578 4.98266C7.81196 5.09942 8.12171 5.25212 8.27896 5.40032Z" fill="#C80F2E"/>
<path id="path2991" d="M10.2445 27.46L10.2221 27.4645C11.1876 26.8762 10.5903 25.7625 10.4062 25.1068L10.4421 24.9944C10.4915 24.9046 10.3882 24.6936 10.3882 24.6936C10.267 24.5948 10.24 24.0469 10.1771 23.7954C10.0739 23.3867 10.3612 22.6727 10.3612 22.4302C10.3612 22.1875 10.1771 21.8552 9.84481 21.4331C9.76391 21.3388 9.5214 19.2685 9.30583 18.743C9.00493 18.0199 8.91505 18.1366 8.55589 17.27C8.28187 16.6636 8.49744 15.77 7.87774 13.6951L8.0169 13.5649C8.0169 13.5649 7.52289 11.7595 7.36115 11.2655C7.2039 10.7714 6.91211 10.74 6.91211 10.74L6.93001 10.484C6.95253 10.4077 7.53181 8.90317 7.58121 8.85377C7.58564 8.82234 8.41654 8.25197 8.42995 8.3373C8.49726 8.70557 8.82067 10.5783 8.95983 10.8747C9.09905 11.1756 9.57972 12.0918 9.79972 12.6622C8.94193 12.8732 8.29965 13.6502 8.29965 14.5709C8.29965 15.6577 9.17995 16.5424 10.2668 16.5424C11.0975 16.5424 11.8162 16.026 12.1036 15.2985L12.0991 25.2821C12.0992 26.3867 11.3043 27.2984 10.2445 27.46Z" fill="#C80F2E"/>
<path id="path2993" d="M7.09665 0.972168C6.37808 1.25061 6.27928 1.56049 6.2524 2.5575C6.13114 2.57097 5.87958 2.45421 5.96497 3.0605C5.96497 3.0605 6.00988 3.46469 6.17156 3.39732C6.04581 4.27757 6.14574 4.49787 5.56084 4.5605C5.43509 4.57397 5.28234 4.58295 5.09378 4.59194L5.03539 4.67278C4.23599 4.74912 3.84003 4.69804 3.32425 5.37787C3.12664 5.63835 2.91556 6.00661 2.65508 6.53206C2.65508 6.53206 2.41706 7.12039 2.34514 7.3629C2.1161 7.84344 1.55472 8.90781 1.38855 9.59045C1.33472 9.82399 1.23137 9.89584 1.37957 10.2327C1.59963 10.7177 1.23586 10.8434 2.48436 10.8075V11.0949C2.48436 11.0949 2.15203 11.3824 2.08017 11.553C2.0128 11.7282 1.81969 12.586 1.82873 12.9947C1.85113 14.059 2.71796 14.9482 2.97388 16.0081L3.55323 16.089C3.8676 16.8121 5.24185 18.7611 5.56078 19.0755C5.56527 19.08 5.56976 19.0845 5.57425 19.089C5.64605 19.2731 6.0009 19.5022 6.20743 19.7313C6.33324 19.8525 6.91264 20.4813 7.68504 21.0786C7.96859 21.2979 8.27349 21.5142 8.59222 21.6984C8.58324 21.6938 8.78085 22.0891 8.87965 22.4124C8.48444 22.7312 9.25241 23.3152 9.48594 24.2807C9.49941 24.4108 9.26133 24.5412 9.61618 24.86C9.59372 26.3195 9.14917 27.0831 9.89462 27.4872H3.32425C2.1297 27.4603 1.16406 26.4813 1.16406 25.2821V3.18175C1.16406 1.97367 2.12963 0.999114 3.32425 0.972168H7.09665Z" fill="#1D4289"/>
</g>
<g id="g3102">
<path id="rect3035" fill-rule="evenodd" clip-rule="evenodd" d="M16.0801 0.959473V27.4563H18.9439C18.9513 20.6327 19.1061 13.7815 18.6862 7.03773L21.9878 27.4563H26.0968V0.959473H23.2612C23.2034 7.98489 23.4529 14.9121 23.9293 21.7669L20.4986 0.959473H16.0801Z" fill="#0B0B0B"/>
<path id="rect3043" fill-rule="evenodd" clip-rule="evenodd" d="M40.9046 0.940918L38.0898 27.46H41.5919L42.0501 22.0976H44.3412L44.7994 27.46H48.2851L45.5522 0.940918H40.9046ZM43.1957 8.42629L44.0794 18.9863H42.312L43.1957 8.42629Z" fill="#0B0B0B"/>
<path id="path3059" d="M28.3047 0.959242V27.4417H33.4269C34.2665 27.4417 37.1253 26.708 37.1253 23.031V17.7419C37.1253 17.1846 37.13 15.4375 35.6034 14.411C36.5573 14.411 37.1253 12.5603 37.1253 10.8787V5.20522C37.1253 2.99465 35.7494 0.953227 32.985 0.959242H28.3047ZM31.4631 4.34505H33.0177C33.7299 4.34505 33.9669 5.13128 33.9669 5.73597V11.9036C33.9669 12.9586 33.6201 13.0383 32.9032 13.0383H31.4631V4.34505ZM31.4631 15.93H33.0177C33.7299 15.93 33.9669 16.7162 33.9669 17.3209V22.8297C33.9669 23.5475 33.6091 24.0925 32.9032 24.0925L31.4631 24.1108V15.93Z" fill="#0B0B0B"/>
</g>
</g>
</g>
</svg>
