<svg width="84" height="26" viewBox="0 0 84 26" fill="none" xmlns="http://www.w3.org/2000/svg">
<g id="Logos 03">
<path fill-rule="evenodd" clip-rule="evenodd" d="M19.1832 11.3189C19.4015 10.0596 19.4776 8.86722 19.4776 7.81608C19.4774 5.40958 19.0794 3.74469 19.0718 3.71277C19.0397 3.5828 18.9244 3.49225 18.793 3.49225C18.7728 3.49225 18.7532 3.49455 18.7343 3.49845L18.7357 3.49805C17.1709 3.81063 15.8636 3.93351 14.7757 3.93351C12.0585 3.93261 10.7138 3.17126 10.1296 2.68758C9.98649 2.00318 10.2478 1.43965 10.7813 1.40893C10.7813 1.40893 10.9157 1.369 12.1508 1.68319C13.4958 1.97236 13.7419 0.739933 13.7946 0C13.7946 0 13.3054 0.470474 11.8626 0.206019C10.4196 -0.0583343 9.53517 1.51028 9.53955 2.33787C9.53967 2.35088 9.53736 2.43643 9.5493 2.57041C9.5463 2.57311 9.54399 2.57531 9.54076 2.57831C9.03614 3.04548 7.70111 3.9324 4.76866 3.93351C3.68128 3.93351 2.37455 3.81093 0.810994 3.49845L0.809196 3.49805C0.789507 3.49404 0.770319 3.49225 0.752134 3.49225C0.62102 3.49255 0.505596 3.5823 0.473118 3.71208C0.471818 3.71748 0.464823 3.7457 0.453031 3.79993C0.370086 4.17565 0.0585938 5.72994 0.0585938 7.85318C0.0585938 8.89539 0.133544 10.0745 0.348001 11.3188C0.744537 13.6187 1.53701 15.7144 2.70513 17.5524C2.69254 17.7121 2.67485 17.8757 2.64947 18.0422C2.60689 18.3216 2.54444 18.6077 2.4538 18.894C2.37895 19.1681 2.27492 19.6213 1.95553 19.9911C1.62655 20.3719 1.58518 20.4392 1.38281 21.0339C1.38281 21.0339 0.542872 21.8275 0.581046 22.3575C0.584644 22.3686 0.591339 22.3818 0.606629 22.3872L0.608228 22.3883C0.78621 22.4552 1.87868 22.8268 3.12955 22.3614C3.15813 22.3449 3.16123 22.3298 3.16592 22.3084C3.17602 22.1447 3.22269 21.5242 3.3627 21.2333C3.52468 20.8966 3.61193 20.7597 3.56186 20.5352C3.5121 20.3108 3.49271 20.1214 3.61193 19.9039C3.6532 19.828 3.74754 19.7336 3.87545 19.6306C3.9487 19.5716 4.03205 19.509 4.11959 19.4439C5.58771 21.125 7.43966 22.5269 9.64452 23.6237C9.68411 23.6432 9.72803 23.6538 9.77242 23.6538C9.8172 23.6538 9.86066 23.6433 9.90003 23.6238C10.0657 23.5411 10.2297 23.4565 10.3913 23.3703C12.1316 22.4435 13.6396 21.3174 14.8984 20.0053C15.5351 19.342 16.1081 18.6311 16.615 17.8744C17.8971 15.9608 18.7609 13.7541 19.1832 11.3189ZM18.7859 3.7506L18.7873 3.7502L18.793 3.7496C18.8047 3.7496 18.8183 3.7585 18.822 3.77442C18.826 3.78952 19.2206 5.43861 19.2205 7.81608C19.2205 8.85482 19.1452 10.0327 18.9298 11.275C18.7368 12.3881 18.4494 13.4509 18.0725 14.4587C18.1555 13.8794 18.1932 13.2302 18.1954 12.7224C18.1989 11.908 18.058 11.1622 17.2923 10.3267C17.2923 10.3267 17.6135 9.41502 17.5974 8.44276C17.5135 3.34616 12.5432 5.37172 11.1057 4.19135C10.699 3.85746 10.4252 3.47864 10.2652 3.10942C11.0035 3.60652 12.3838 4.19165 14.7757 4.19096C15.8829 4.19096 17.2069 4.06608 18.7859 3.7506ZM0.315623 7.85318C0.315623 6.65441 0.416256 5.63858 0.517588 4.92048C0.568255 4.56137 0.619021 4.27671 0.657295 4.08099C0.67658 3.98294 0.692673 3.90719 0.704166 3.85546C0.715354 3.80393 0.722553 3.77471 0.722553 3.77471C0.726352 3.7589 0.739839 3.7498 0.752134 3.7498L0.756831 3.7502L0.758727 3.7506C2.33768 4.06608 3.6615 4.19066 4.76866 4.19066C7.55309 4.19165 8.96749 3.39879 9.59293 2.87498C9.72504 3.54808 10.1822 4.66644 11.7568 5.1219C13.5127 5.62981 17.4089 5.03445 16.4057 9.49224C16.4057 9.49224 15.6345 8.94173 14.6928 8.91034C14.4745 8.90312 14.2342 8.91033 13.9737 8.94964C13.4339 9.0313 13.057 8.86919 12.7946 8.69548C13.0637 8.73714 13.3044 8.75515 13.5202 8.75515C14.1339 8.75584 14.5488 8.60954 14.8392 8.48166C14.8773 8.46486 14.9134 8.44807 14.9476 8.43116C15.0666 8.37293 15.1625 8.31655 15.2377 8.27667C15.3552 8.21394 15.4349 8.16407 15.4922 8.11744C15.521 8.09396 15.5445 8.07104 15.5645 8.043C15.584 8.01558 15.6026 7.97905 15.603 7.93156C15.603 7.90766 15.5973 7.88262 15.5871 7.86178C15.5775 7.84089 15.5643 7.82427 15.5513 7.81169C15.5168 7.77949 15.4848 7.76743 15.4561 7.75733C15.4358 7.75086 15.4234 7.74936 15.4082 7.74694C15.3648 7.74111 15.3075 7.73765 15.2435 7.73465C15.2154 7.73343 15.1861 7.73234 15.1574 7.73141C15.0554 7.72795 14.9605 7.72674 14.9407 7.72651C14.777 7.71912 14.6455 7.70521 14.5348 7.68363C14.3683 7.65096 14.2481 7.60324 14.1213 7.5296C13.9946 7.45625 13.8612 7.35433 13.6841 7.21784C13.635 7.1801 13.5826 7.13988 13.5263 7.09705C13.4969 7.07484 13.4667 7.05192 13.4351 7.02832C13.2297 6.87452 12.9737 6.69111 12.6335 6.47349C12.3175 6.2715 12.0124 6.10546 11.7162 5.97169C11.6421 5.93827 10.991 5.65982 10.7268 5.56667C10.6824 5.55097 10.6372 5.53574 10.5903 5.52114C9.87098 4.74258 9.00882 4.37116 8.13639 4.50184C6.46331 4.75258 4.26999 6.46529 3.3589 9.19329C3.27156 9.54031 3.2019 10.0909 3.41106 10.6557L3.75653 11.5889C3.75653 11.5889 3.29504 11.205 3.06879 10.8031C2.98754 10.9094 2.58161 11.4972 2.61329 12.6335C2.61469 12.6909 2.61679 12.7448 2.61919 12.7985C2.64527 13.3892 2.71682 13.7519 2.77888 13.9645C2.80147 14.0419 2.82286 14.0986 2.84014 14.1392C2.82675 14.2446 2.81566 14.3502 2.80037 14.4539C2.78868 14.5344 2.77798 14.6201 2.76829 14.7062C2.72922 15.0509 2.70663 15.403 2.70323 15.4678L2.70273 15.4777C2.70054 15.5021 2.69934 15.529 2.69824 15.5572C2.69794 15.5653 2.69794 15.5743 2.69784 15.5828C2.69704 15.6046 2.69694 15.6273 2.69694 15.651V15.6776C2.69734 15.7075 2.69784 15.7387 2.69864 15.7714V15.7773C2.70733 16.1051 2.74161 16.5685 2.72841 17.1C1.68551 15.3687 0.970187 13.4139 0.601433 11.275C0.389873 10.0476 0.315623 8.8831 0.315623 7.85318ZM13.4444 16.8503C13.4661 16.8673 13.4514 16.9025 13.4242 16.8983C13.0631 16.8434 12.7364 16.5904 12.9749 16.0923C13.1615 15.7023 13.224 15.4566 13.2445 15.3475C13.2494 15.3219 13.284 15.3176 13.2952 15.3412C13.3407 15.4342 13.3907 15.6513 13.2543 16.0923C13.1228 16.5171 13.32 16.7507 13.4444 16.8503ZM11.4938 13.9178C11.5029 14.0104 11.5105 14.105 11.513 14.1955C11.5137 14.2259 11.5141 14.2558 11.5137 14.2851C11.5115 14.4603 11.4852 14.6144 11.4079 14.7064C11.3692 14.7524 11.3086 14.8065 11.2334 14.8633C11.1833 14.9009 11.1269 14.9399 11.0665 14.9787C10.9454 15.0563 10.8078 15.1331 10.6718 15.1966C10.6038 15.2284 10.5364 15.2572 10.4715 15.2811C10.4067 15.3049 10.3445 15.324 10.2873 15.3369C10.2014 15.3564 10.1266 15.3619 10.0708 15.3481C9.77265 15.2755 9.77501 15.238 9.63062 15.114C9.61535 15.1052 9.60261 15.0977 9.59143 15.091C9.5116 15.044 9.49713 15.0458 9.12986 15.0438C8.85711 15.042 8.61042 15.0375 8.41243 14.9854C8.21467 14.9331 8.06538 14.833 7.98699 14.6399C7.91915 14.5023 7.88399 14.3814 7.85379 14.2754C7.78745 14.0417 7.74566 13.8791 7.43556 13.7641C7.06742 13.6276 6.63283 13.5912 6.29766 13.2133C6.2761 13.1893 6.25506 13.163 6.23448 13.1359C6.22676 13.1258 6.21938 13.1148 6.21172 13.1043C6.19673 13.0835 6.18192 13.0617 6.16733 13.0389C6.16053 13.0282 6.15373 13.0176 6.14705 13.0067C6.12653 12.9726 6.10658 12.9376 6.08727 12.8997C5.74181 12.219 5.71393 11.6221 5.71393 11.6221C5.71393 11.6221 5.67046 11.6677 5.6134 11.7645C5.50567 11.9473 5.35017 12.3138 5.35067 12.9038C5.35117 13.112 5.37056 13.3478 5.41873 13.6135C5.41873 13.6135 4.87269 12.5928 5.29061 11.4995C5.31569 11.4391 5.34098 11.3815 5.36626 11.3265C5.61879 10.7753 5.87084 10.4766 6.01805 10.3334C6.09165 10.2619 6.13926 10.2293 6.14733 10.2236C6.14595 10.2255 6.14382 10.231 6.14122 10.2401C6.12324 10.3031 6.08197 10.5341 6.08485 10.8772C6.0871 11.1221 6.11166 11.4246 6.1837 11.7642C6.22676 11.9678 6.28722 12.1847 6.3697 12.4106C6.3697 12.4106 6.38037 12.433 6.39386 12.461C6.41633 12.5075 6.44677 12.5705 6.44677 12.5705C6.46124 12.5955 6.47841 12.6224 6.49812 12.6509C6.58683 12.7797 6.73035 12.9414 6.95462 13.0871C7.07924 13.1681 7.2287 13.2441 7.40778 13.3068C8.29409 13.6173 8.22666 13.7717 8.28804 14.017C8.31479 14.1244 8.35588 14.2547 8.42522 14.3706C8.46499 14.437 8.51376 14.4987 8.57462 14.5487C8.60511 14.5739 8.63837 14.5963 8.67514 14.6144C8.73013 14.6423 8.7925 14.6616 8.86362 14.6696C8.96818 14.6825 9.07522 14.6916 9.17551 14.6977C9.20882 14.6994 9.2415 14.7011 9.27303 14.7024C9.3992 14.7076 9.50728 14.7078 9.57494 14.705C9.62572 14.7029 9.66521 14.7003 9.70538 14.7076C9.77265 14.7197 9.84216 14.7595 9.97029 14.8763C9.97029 14.8763 10.132 15.0146 10.4996 14.8138C10.6837 14.7134 10.8125 14.6259 10.896 14.5634C10.9062 14.5557 10.9159 14.5483 10.9248 14.5413C10.9698 14.5062 10.9971 14.4818 11.0091 14.4705L11.0163 14.4639C11.0163 14.4639 11.0301 14.4556 11.0467 14.4284C11.0732 14.3848 11.1069 14.2925 11.1025 14.1063C11.1008 14.0364 11.0941 13.9536 11.0793 13.8551C11.0707 13.7981 11.0674 13.7346 11.0685 13.6659C11.0714 13.5058 11.0983 13.3182 11.1398 13.1206C11.1694 12.9795 11.2063 12.8334 11.2472 12.6889C11.2634 12.631 11.2807 12.5735 11.2979 12.5166C11.428 12.0898 11.5802 11.7004 11.6586 11.5253C11.8257 11.1517 11.8925 10.6869 11.8925 10.6869C11.8925 10.6869 11.9106 10.7347 11.9297 10.8085C11.9516 10.8931 11.9743 11.0117 11.9724 11.1317C11.9723 11.1468 11.9717 11.1619 11.9706 11.1769C11.9706 11.1769 12.147 11.1061 12.2811 10.9527C12.2963 10.9357 12.3107 10.9176 12.3243 10.8987C12.3923 10.8031 12.4398 10.6818 12.4297 10.5328C12.4277 10.5029 12.4232 10.4721 12.4163 10.4398C12.3885 10.3123 12.2429 10.0184 12.1724 9.73751C12.147 9.63547 12.1392 9.52017 12.1395 9.43602C12.1395 9.41502 12.1409 9.39482 12.1434 9.37572C12.158 9.25683 12.1599 9.0021 12.115 8.70558C12.0879 8.52742 12.0453 8.33438 11.9833 8.14647C11.8464 7.73355 11.6143 7.34608 11.2392 7.19989C10.9272 7.07812 10.4893 7.02411 10.0678 7.04702C9.93663 7.05446 9.8074 7.06935 9.68388 7.09186C9.27205 7.16711 8.92639 7.32871 8.80547 7.58685C8.76898 7.66441 8.75313 7.75052 8.7616 7.8458C8.83383 8.66039 10.5822 8.62178 10.5822 8.62178L11.4184 8.60897L11.4296 8.60914C11.4555 8.60776 11.5021 8.60954 11.528 8.63326L11.5415 8.64735L11.5471 8.6657L11.546 8.6687L11.5461 8.66968C11.5498 8.7192 11.2522 8.90353 10.7937 9.0732C10.519 9.17506 10.186 9.27155 9.82567 9.33036C9.52561 9.37918 9.16323 9.40769 8.79509 9.38541C8.7582 9.38299 8.72114 9.38039 8.68437 9.37699C8.61071 9.37041 8.53693 9.36158 8.46373 9.35038C8.42695 9.34478 8.39024 9.33849 8.35398 9.33174C8.2813 9.31806 8.20925 9.30167 8.13824 9.28274C7.57061 9.13016 7.07474 8.79884 6.88206 8.1613C6.83387 8.00191 6.81087 7.8473 6.80903 7.69823C6.80032 7.02734 7.22132 6.47118 7.72128 6.1207C7.99893 5.92598 8.30101 5.79469 8.56701 5.74246C8.97268 5.66293 9.38076 5.61907 9.80233 5.63362C10.1864 5.66871 10.4306 5.74488 10.6514 5.81258C10.8907 5.88604 11.5393 6.17431 11.6104 6.20623C11.8944 6.33452 12.1885 6.49449 12.4951 6.69054C12.8292 6.90424 13.0794 7.08338 13.2812 7.23446C13.3121 7.25778 13.3422 7.28034 13.3708 7.30227C13.4265 7.34452 13.4784 7.38451 13.5273 7.42197C13.6455 7.51269 13.7469 7.59095 13.8452 7.6587C13.9923 7.76015 14.1349 7.83847 14.3056 7.89122C14.4761 7.94425 14.6713 7.9723 14.9294 7.98367H14.9335C14.9335 7.98367 14.9594 7.98407 14.9993 7.98488C15.0395 7.98557 15.0936 7.98678 15.149 7.98869C15.1731 7.98938 15.1972 7.99031 15.2208 7.9914C15.1914 8.00877 15.157 8.02822 15.1171 8.0494C15.0342 8.09355 14.944 8.14647 14.8346 8.20008C14.8033 8.21521 14.7705 8.23073 14.7357 8.24602C14.4615 8.366 14.0945 8.49718 13.5202 8.4977C13.2437 8.4977 12.9196 8.46677 12.5367 8.38724C12.515 8.39625 12.462 8.44697 12.4496 8.45678C12.4496 8.45678 12.5182 8.82336 12.4848 9.50736C12.4798 9.61406 12.8982 10.3688 12.8282 10.7643C12.8081 10.8554 12.7653 10.9429 12.7086 11.0252C12.4628 11.3815 11.9594 11.6374 11.9594 11.6374C11.9594 11.6374 11.7939 12.0878 11.6507 12.5454C11.6109 12.6724 11.5731 12.8002 11.5409 12.9188C11.483 13.1324 11.4438 13.3172 11.447 13.4176C11.4511 13.5515 11.4757 13.7316 11.4938 13.9178ZM9.79213 10.8423C9.53748 10.9081 9.49978 11.1356 9.35799 11.1731C9.2407 11.2043 9.20202 11.0856 9.29782 10.9293C9.39379 10.7734 9.54976 10.5437 9.94343 10.4873C10.3369 10.4311 10.4365 10.7593 10.5998 10.8975C10.6405 10.9318 10.6788 10.9595 10.7135 10.9818C10.7829 11.0269 10.8377 11.051 10.8684 11.0676C10.8837 11.076 10.893 11.0825 10.8949 11.0889L10.8073 11.2512C10.8073 11.2512 10.7141 11.1993 10.6031 11.1614C10.5921 11.1577 10.5807 11.1539 10.5694 11.1504C10.5467 11.1435 10.5236 11.1374 10.5006 11.1325C10.4663 11.1254 10.4324 11.1213 10.4009 11.122C10.3264 11.1235 10.3146 11.167 10.2801 11.2054C10.2593 11.2282 10.2302 11.2493 10.1747 11.2585C10.0336 11.2816 9.98378 11.2469 9.9496 11.1889C9.91611 11.1319 9.95571 10.9636 9.95571 10.9636C9.98176 10.8169 9.79213 10.8423 9.79213 10.8423ZM9.75881 23.3929C7.58721 22.3125 5.76809 20.9364 4.32606 19.2891C4.49174 19.1597 4.81243 18.8857 5.01889 18.5528C5.19248 18.2727 5.16789 18.0411 5.17898 18.0488C3.8051 17.1019 3.83553 13.7257 3.83553 13.7257L4.36783 15.8399C4.83581 17.7454 5.72582 17.9464 5.86041 17.796C6.14647 17.477 6.60182 16.0042 6.62943 16.0401C6.63721 16.387 6.21368 17.6906 6.215 17.6912C6.17085 17.8232 6.12664 17.9496 6.08359 18.0664C6.06912 18.1054 6.05482 18.1431 6.04059 18.1799C5.98416 18.3265 5.92946 18.4541 5.8792 18.5534C5.77229 18.7646 5.71053 18.9755 5.69434 19.1781C5.68125 19.3401 5.69704 19.4969 5.74181 19.6442C5.82026 19.9019 5.98716 20.1308 6.24209 20.309C6.87514 20.751 6.99958 20.7832 7.05405 20.8279C7.08691 20.8549 7.10068 20.8826 7.17163 21.013C7.28126 21.2145 7.31758 21.3065 7.43118 21.3968C7.44738 21.4097 7.51695 21.4582 7.59199 21.4825C7.62883 21.4947 7.6675 21.4993 7.70278 21.4993C7.90595 21.499 8.39554 21.4182 8.39554 21.4182C8.39554 21.4182 8.57393 21.3837 8.70852 21.1124C8.80547 20.9165 8.87734 20.6616 8.88253 20.3816C8.88443 20.2883 8.87913 20.1922 8.86593 20.0951C8.86132 20.0628 8.85642 20.0309 8.85071 19.9992C8.78316 19.6195 8.63687 19.297 8.58085 19.1834C8.57122 19.1639 8.56465 19.1508 8.56125 19.1443L8.55923 19.1408L8.55871 19.14C8.55871 19.14 8.38303 19.1249 7.97483 19.3568L7.96135 19.3611L7.95835 19.3601L7.95304 19.3563L7.95166 19.3525L7.94982 19.3433V19.3377L7.95132 19.3221L7.95212 19.3166C7.95512 19.3001 7.96025 19.28 7.96734 19.2576L7.96901 19.253C7.97201 19.2432 7.97541 19.2332 7.97904 19.2226L7.98181 19.2149C7.98521 19.2052 7.98872 19.1955 7.99253 19.1854L7.99558 19.1772C7.99962 19.167 8.00348 19.1566 8.0074 19.1463L8.01011 19.1399C8.02008 19.115 8.02999 19.0907 8.03956 19.0685L8.04337 19.0595L8.05236 19.0383L8.05835 19.0247L8.06319 19.0138C8.07616 18.9844 8.08487 18.9651 8.08487 18.9651C8.08487 18.9651 8.09564 18.9283 8.14481 18.8702C8.20769 18.7956 8.3341 18.6858 8.58235 18.5747C9.04841 18.3657 9.46094 18.2458 9.78285 18.1353C9.87478 18.1035 9.9594 18.0727 10.0358 18.0405C10.303 17.9285 10.469 17.8025 10.4971 17.5828C10.5006 17.5548 10.4927 17.5228 10.4735 17.4871C10.4673 17.4752 10.4595 17.4629 10.4506 17.4502C10.8001 17.3477 11.621 17.0762 12.2529 16.5209C12.2529 16.5209 12.3122 16.5681 12.2728 16.6755C12.2688 16.6864 12.263 16.6985 12.2559 16.7117C12.1685 16.8693 11.8535 17.1695 11.4105 17.4245C11.2999 17.4883 11.181 17.5493 11.0559 17.6044C11.0559 17.6044 11.3725 18.563 10.9306 19.2115C10.8477 19.333 10.7778 19.4362 10.7178 19.5247C10.478 19.8788 10.3998 19.9988 10.3017 20.1267C10.2936 20.1373 10.2852 20.1481 10.2767 20.159C10.2511 20.1918 10.2174 20.2392 10.1796 20.2973C10.0159 20.5485 9.77495 20.9947 9.77495 21.2734C9.77495 21.2734 10.0896 21.3354 10.3684 21.3511C10.4084 21.3532 10.4474 21.3544 10.4848 21.3544C10.8097 21.3544 11.0933 21.347 11.3059 21.3051C11.4712 21.2724 11.5936 21.2185 11.659 21.1313C11.659 21.1313 11.7211 20.134 11.9578 19.9469C12.1648 19.7833 12.2384 19.6674 12.245 19.5199C12.2461 19.4988 12.2457 19.477 12.2442 19.4546C12.2319 19.2738 12.1694 19.1365 12.5119 18.8499C12.8542 18.563 13.01 18.0396 13.8194 17.5907C13.8194 17.5907 14.1323 17.4827 14.0705 17.0079C14.2331 17.0417 14.3642 16.968 14.446 16.9C13.5823 14.7877 14.2338 13.8095 14.3337 13.6778L14.3346 13.6788C13.8572 15.8771 15.1912 17.6646 15.8322 18.5237C15.4127 19.071 14.9551 19.5914 14.4603 20.0841C13.7779 20.7639 13.0246 21.3913 12.2026 21.9642C11.4537 22.486 10.6481 22.9629 9.78671 23.3927L9.77242 23.3964L9.75881 23.3929Z" fill="#FF1950"/>
<path fill-rule="evenodd" clip-rule="evenodd" d="M25.7574 15.68V23.6535H27.0658V20.7603H28.8972C29.4434 20.7603 29.9249 20.656 30.3422 20.447C30.7591 20.2383 31.0816 19.9421 31.3091 19.5585C31.5367 19.1753 31.6504 18.729 31.6504 18.2202C31.6504 17.7115 31.5367 17.2653 31.3091 16.8817C31.0816 16.4983 30.7591 16.2022 30.3422 15.9933C29.9249 15.7845 29.4434 15.68 28.8972 15.68H25.7574ZM27.0658 16.8191H28.7951C29.2651 16.8191 29.6368 16.9444 29.9098 17.195C30.1829 17.4455 30.3194 17.7873 30.3194 18.2202C30.3194 18.6455 30.181 18.9853 29.9042 19.2396C29.6272 19.4941 29.2537 19.6211 28.7835 19.6211H27.0658V16.8191ZM35.3522 17.8215C34.9045 17.8215 34.5481 17.8994 34.2828 18.0549C34.0171 18.2107 33.8011 18.4251 33.6344 18.6985L33.4978 17.8215H32.4057V23.6535H33.6344V20.7261C33.6344 20.2175 33.7481 19.7977 33.9757 19.4674C34.2033 19.1372 34.571 18.9719 35.0791 18.9719H35.6253V17.8215H35.3522ZM38.9755 23.7219C39.5593 23.7219 40.077 23.5985 40.5283 23.3516C40.9795 23.105 41.3284 22.7556 41.5749 22.3037C41.8213 21.8521 41.9446 21.3298 41.9446 20.7375C41.9446 20.1528 41.8213 19.6345 41.5749 19.1827C41.3284 18.7309 40.9795 18.3796 40.5283 18.1291C40.077 17.8785 39.5593 17.7533 38.9755 17.7533C38.3913 17.7533 37.8738 17.8785 37.4226 18.1291C36.9712 18.3796 36.6224 18.7309 36.3759 19.1827C36.1294 19.6345 36.0063 20.1528 36.0063 20.7375C36.0063 21.3298 36.1294 21.8521 36.3759 22.3037C36.6224 22.7556 36.9712 23.105 37.4226 23.3516C37.8738 23.5985 38.3913 23.7219 38.9755 23.7219ZM38.9755 22.6738C38.4596 22.6738 38.0463 22.4937 37.7354 22.1328C37.4244 21.7722 37.269 21.3069 37.269 20.7375C37.269 20.1679 37.4244 19.7028 37.7354 19.3422C38.0463 18.9815 38.4596 18.8011 38.9755 18.8011C39.4912 18.8011 39.9063 18.9815 40.2211 19.3422C40.5358 19.7028 40.6933 20.1679 40.6933 20.7375C40.6933 21.3069 40.5358 21.7722 40.2211 22.1328C39.9063 22.4937 39.4912 22.6738 38.9755 22.6738ZM50.9319 23.6535V22.4916H47.5076V15.68H46.1995V23.6535H50.9319ZM51.4029 20.7488C51.4029 21.3412 51.5261 21.8614 51.7726 22.3094C52.019 22.7576 52.3679 23.105 52.8192 23.3516C53.2703 23.5985 53.7995 23.7219 54.4063 23.7219C55.1039 23.7219 55.6861 23.5322 56.1525 23.1523C56.6189 22.7726 56.9052 22.2865 57.0115 21.6942H55.7828C55.6992 22.0208 55.5287 22.2734 55.2708 22.4517C55.0129 22.6303 54.6944 22.7195 54.3154 22.7195C53.8375 22.7195 53.4544 22.5713 53.1663 22.2752C52.8779 21.979 52.7187 21.5766 52.6884 21.0678V20.9994H57.0797C57.1025 20.8399 57.1138 20.6845 57.1138 20.5325C57.1062 19.9705 56.9792 19.4807 56.7327 19.0631C56.4863 18.6455 56.1486 18.3227 55.7202 18.095C55.2916 17.867 54.7969 17.7533 54.2357 17.7533C53.682 17.7533 53.1909 17.8767 52.7624 18.1232C52.3338 18.3702 52.0003 18.7195 51.7613 19.1714C51.5223 19.6232 51.4029 20.1491 51.4029 20.7488ZM52.734 20.0996C52.7795 19.6896 52.9482 19.3611 53.2403 19.1143C53.5322 18.8676 53.879 18.7441 54.2812 18.7441C54.7135 18.7441 55.0719 18.8637 55.3563 19.1028C55.6406 19.3422 55.8095 19.6745 55.8625 20.0996H52.734ZM63.364 22.5828C63.1058 22.5828 62.9772 22.446 62.9772 22.1727V19.8718C62.9772 19.1883 62.7645 18.6644 62.3397 18.2998C61.9155 17.9353 61.312 17.7533 60.531 17.7533C59.7955 17.7533 59.2001 17.9146 58.7454 18.2372C58.29 18.5601 58.0324 19.0137 57.9713 19.5985H59.1777C59.2232 19.3403 59.3615 19.1334 59.5927 18.9775C59.8238 18.822 60.1177 18.7441 60.4745 18.7441C60.8763 18.7441 61.191 18.8372 61.4187 19.0232C61.6463 19.2093 61.7599 19.4657 61.7599 19.792V20.1452H60.2924C59.4808 20.1452 58.8624 20.3066 58.4382 20.6292C58.0134 20.9521 57.8007 21.4135 57.8007 22.0133C57.8007 22.5448 57.9978 22.9625 58.3926 23.2662C58.7869 23.5701 59.3102 23.7219 59.9621 23.7219C60.8042 23.7219 61.4452 23.3876 61.885 22.7195C61.885 23.0233 61.9685 23.2549 62.1351 23.4143C62.3023 23.5738 62.5749 23.6535 62.9547 23.6535H63.6026V22.5828H63.364ZM61.7599 21.2614C61.7524 21.717 61.6066 22.0816 61.3218 22.355C61.0377 22.6283 60.6411 22.7651 60.1327 22.7651C59.799 22.7651 59.5356 22.6891 59.3425 22.5372C59.1488 22.3854 59.052 22.1841 59.052 21.9335C59.052 21.645 59.1546 21.4266 59.3592 21.2785C59.5644 21.1305 59.8561 21.0564 60.2353 21.0564H61.7599V21.2614ZM68.793 17.8215L68.6564 18.7327C68.4587 18.4291 68.201 18.1899 67.8823 18.0151C67.5641 17.8406 67.1849 17.7533 66.7451 17.7533C66.2217 17.7533 65.7514 17.8767 65.3341 18.1232C64.9173 18.3702 64.5894 18.7175 64.3502 19.1654C64.1115 19.6136 63.9922 20.13 63.9922 20.7147C63.9922 21.3223 64.1092 21.8482 64.3444 22.2923C64.5796 22.7365 64.9058 23.0781 65.3231 23.3175C65.7398 23.5567 66.2142 23.6762 66.7451 23.6762C67.5866 23.6762 68.22 23.3573 68.6448 22.7195V23.3688C68.6448 24.4545 68.0875 24.9975 66.9727 24.9975C66.5405 24.9975 66.1877 24.9082 65.9145 24.73C65.6413 24.5513 65.4666 24.2989 65.3911 23.9724H64.1398C64.1928 24.6178 64.466 25.1171 64.9588 25.4704C65.4517 25.8234 66.0926 26 66.8817 26C67.8978 26 68.6489 25.7739 69.1342 25.3222C69.6195 24.8704 69.8622 24.2344 69.8622 23.4143V17.8215H68.793ZM66.9497 22.6398C66.4413 22.6398 66.0321 22.4613 65.7208 22.1043C65.4101 21.7475 65.2545 21.2843 65.2545 20.7147C65.2545 20.1452 65.4101 19.682 65.7208 19.3251C66.0321 18.9681 66.4413 18.7896 66.9497 18.7896C67.4581 18.7896 67.8673 18.9702 68.1785 19.3307C68.4892 19.6915 68.6448 20.1604 68.6448 20.7375C68.6448 21.2995 68.4892 21.7569 68.1785 22.11C67.8673 22.4632 67.4581 22.6398 66.9497 22.6398ZM75.1292 17.8215V20.7147C75.1292 21.3146 74.9966 21.7873 74.7309 22.1328C74.4658 22.4784 74.0981 22.6511 73.6277 22.6511C73.1799 22.6511 72.8427 22.5029 72.615 22.2068C72.3873 21.9107 72.2738 21.4778 72.2738 20.9083V17.8215H71.0455V21.0336C71.0455 21.9752 71.2576 22.6587 71.6824 23.084C72.1072 23.5093 72.6605 23.7219 73.3436 23.7219C74.1015 23.7219 74.701 23.4524 75.1407 22.9131L75.2773 23.6535H76.3581V17.8215H75.1292ZM77.3477 20.7488C77.3477 21.3412 77.4711 21.8614 77.7172 22.3094C77.9639 22.7576 78.3126 23.105 78.7639 23.3516C79.2152 23.5985 79.7444 23.7219 80.3513 23.7219C81.0487 23.7219 81.6309 23.5322 82.0972 23.1523C82.5635 22.7726 82.8499 22.2865 82.956 21.6942H81.7277C81.6441 22.0208 81.4735 22.2734 81.2153 22.4517C80.9577 22.6303 80.6395 22.7195 80.2602 22.7195C79.7818 22.7195 79.3991 22.5713 79.1109 22.2752C78.8227 21.979 78.6636 21.5766 78.6331 21.0678V20.9994H83.0246C83.0471 20.8399 83.0586 20.6845 83.0586 20.5325C83.0511 19.9705 82.9237 19.4807 82.6776 19.0631C82.4309 18.6455 82.0931 18.3227 81.6649 18.095C81.2361 17.867 80.7415 17.7533 80.1801 17.7533C79.6268 17.7533 79.1357 17.8767 78.7069 18.1232C78.2786 18.3702 77.9449 18.7195 77.7063 19.1714C77.467 19.6232 77.3477 20.1491 77.3477 20.7488ZM78.6786 20.0996C78.7241 19.6896 78.893 19.3611 79.1853 19.1143C79.4769 18.8676 79.8239 18.7441 80.2256 18.7441C80.6579 18.7441 81.0165 18.8637 81.3012 19.1028C81.5854 19.3422 81.7542 19.6745 81.8073 20.0996H78.6786Z" fill="#FF1950"/>
<path fill-rule="evenodd" clip-rule="evenodd" d="M25.325 8.63384C25.3173 9.63622 25.5639 10.4014 26.0646 10.929C26.5651 11.4569 27.2855 11.7206 28.226 11.7206C29.1817 11.7206 29.9078 11.4626 30.4046 10.9461C30.9013 10.4298 31.1497 9.64759 31.1497 8.59962V3.67892H29.8415V8.62241C29.8415 9.29071 29.7067 9.78252 29.4377 10.0975C29.1683 10.4128 28.7644 10.5703 28.226 10.5703C27.7028 10.5703 27.3063 10.3993 27.0372 10.0576C26.7679 9.71598 26.6333 9.24148 26.6333 8.63384H25.325ZM36.4363 5.82025V8.71348C36.4363 9.3135 36.3034 9.78627 36.0381 10.1316C35.7726 10.4773 35.4048 10.65 34.9347 10.65C34.487 10.65 34.1497 10.5019 33.9221 10.2057C33.6946 9.90954 33.5808 9.47671 33.5808 8.90716V5.82025H32.3521V9.03245C32.3521 9.97418 32.5644 10.6576 32.9892 11.0828C33.4139 11.5082 33.9677 11.7206 34.6502 11.7206C35.4085 11.7206 36.0077 11.4513 36.4476 10.912L36.5842 11.6523H37.6649V5.82025H36.4363ZM42.0287 5.75192C41.2325 5.75192 40.5992 6.06351 40.129 6.68609L39.9811 5.82025H38.9116V13.9304H40.1403V10.8322C40.3298 11.1057 40.584 11.322 40.9025 11.4814C41.221 11.641 41.5966 11.7206 42.0287 11.7206C42.5597 11.7206 43.0337 11.5974 43.4507 11.3505C43.8679 11.1038 44.194 10.7545 44.4293 10.3025C44.6642 9.85085 44.7819 9.32862 44.7819 8.73639C44.7819 8.12893 44.6642 7.5992 44.4293 7.14738C44.194 6.69567 43.8679 6.34998 43.4507 6.11083C43.0337 5.87162 42.5597 5.75192 42.0287 5.75192ZM41.8241 10.6841C41.3158 10.6841 40.9063 10.5019 40.5954 10.1374C40.2844 9.77288 40.129 9.29838 40.129 8.71348C40.129 8.14405 40.2844 7.68265 40.5954 7.32957C40.9063 6.97655 41.3158 6.79996 41.8241 6.79996C42.332 6.79996 42.7435 6.97846 43.0583 7.33528C43.3729 7.69228 43.5305 8.15934 43.5305 8.73639C43.5305 9.30594 43.3729 9.77288 43.0583 10.1374C42.7435 10.5019 42.332 10.6841 41.8241 10.6841ZM46.371 3.48521C46.1587 3.48521 45.9805 3.55554 45.8365 3.69593C45.6922 3.83651 45.6203 4.01311 45.6203 4.22554C45.6203 4.43826 45.6922 4.61497 45.8365 4.75535C45.9805 4.89593 46.1587 4.96597 46.371 4.96597C46.5833 4.96597 46.7617 4.89593 46.9058 4.75535C47.0498 4.61497 47.1221 4.43826 47.1221 4.22554C47.1221 4.01311 47.0498 3.83651 46.9058 3.69593C46.7617 3.55554 46.5833 3.48521 46.371 3.48521ZM45.7568 11.6523H46.9855V5.82025H45.7568V11.6523ZM48.2446 11.6523H49.4733V3.67882H48.2446V11.6523ZM50.4823 8.7477C50.4823 9.34005 50.6055 9.86026 50.8519 10.3083C51.0985 10.7563 51.4473 11.1038 51.8988 11.3505C52.3498 11.5974 52.8788 11.7206 53.4857 11.7206C54.1834 11.7206 54.7654 11.531 55.232 11.1511C55.6984 10.7715 55.9846 10.2854 56.0908 9.69312H54.8622C54.7787 10.0197 54.6081 10.2723 54.3502 10.4506C54.0924 10.6292 53.7738 10.7184 53.3947 10.7184C52.9169 10.7184 52.5338 10.5703 52.2458 10.2741C51.9573 9.97799 51.798 9.57545 51.7679 9.06667V8.99823H56.1592C56.1818 8.83895 56.1933 8.68336 56.1933 8.53129C56.1856 7.96941 56.0585 7.47962 55.8122 7.06191C55.5656 6.64437 55.228 6.32147 54.7996 6.09363C54.3711 5.86579 53.8761 5.75192 53.3151 5.75192C52.7614 5.75192 52.2703 5.87548 51.8419 6.12214C51.4132 6.36897 51.0796 6.71841 50.8407 7.17006C50.6017 7.62205 50.4823 8.14791 50.4823 8.7477ZM51.8133 8.09851C51.8588 7.68836 52.0276 7.3601 52.3196 7.11315C52.6116 6.8665 52.9585 6.74299 53.3606 6.74299C53.7928 6.74299 54.1512 6.86257 54.4357 7.10184C54.7201 7.34094 54.8888 7.67335 54.9419 8.09851H51.8133ZM60.1292 5.82025C59.6819 5.82025 59.3251 5.89834 59.06 6.05392C58.7943 6.20963 58.5781 6.42403 58.4115 6.69746L58.2749 5.82025H57.1828V11.6523H58.4115V8.72497C58.4115 8.21636 58.5251 7.79651 58.7528 7.46623C58.9804 7.13607 59.3482 6.97084 59.8566 6.97084H60.4024V5.82025H60.1292Z" fill="#FF1950"/>
</g>
</svg>
