<svg xmlns="http://www.w3.org/2000/svg" width="71" height="40" viewBox="0 0 71 40" fill="none">
<path d="M4.20708 0H13.8102C16.1409 0 18.0173 1.80757 18.0173 4.05285V35.3303C18.0173 37.5756 16.1409 39.3832 13.8102 39.3832H4.20708C1.87636 39.3832 0 37.5756 0 35.3303V4.05285C0 1.80757 1.87636 0 4.20708 0Z" fill="white"/>
<path d="M11.4258 7.21865L11.4391 7.35187C11.7288 7.5168 11.8803 7.65002 12.1765 7.83398C12.9536 8.30975 13.9086 9.15345 13.7899 12.0525C14.0137 12.6868 14.1126 13.9238 14.3102 14.3171C14.7119 15.0974 14.9884 15.6049 15.1069 16.3344C15.1069 16.3344 15.2256 17.4762 15.3769 17.5587C16.1802 17.7363 15.9499 17.8125 16.0618 17.952C16.1868 18.1043 16.6543 18.0979 16.6543 18.5166C16.819 18.7259 16.9442 18.9353 17.0297 19.1636V4.08492C17.0297 2.35946 15.581 0.963867 13.7964 0.963867H10.7079C11.2018 1.13514 11.4849 1.33814 11.6496 1.65532C12.0446 1.68704 12.5124 2.54342 11.7813 3.81849C12.1038 4.03417 11.8536 4.35135 11.6231 4.71293C11.5507 4.82712 11.4783 5.03646 11.2609 5.02377C10.9712 5.60104 10.6353 6.14658 10.3786 6.1783C10.3063 6.26711 10.2534 6.51451 10.3654 6.6287C10.741 6.79363 11.1952 7.00931 11.4258 7.21865Z" fill="#C80F2E"/>
<path d="M14.3079 38.3787L14.2751 38.385C15.6908 37.554 14.815 35.9809 14.5451 35.0547L14.5977 34.896C14.6701 34.7691 14.5187 34.471 14.5187 34.471C14.341 34.3315 14.3014 33.5576 14.2092 33.2024C14.0579 32.6251 14.4791 31.6165 14.4791 31.2739C14.4791 30.9312 14.2092 30.4619 13.722 29.8657C13.6033 29.7325 13.2478 26.8081 12.9317 26.0659C12.4905 25.0444 12.3587 25.2093 11.8321 23.9852C11.4303 23.1287 11.7464 21.8664 10.8377 18.9357L11.0418 18.7517C11.0418 18.7517 10.3174 16.2016 10.0803 15.5038C9.84972 14.806 9.42188 14.7616 9.42188 14.7616L9.44812 14.4C9.48114 14.2921 10.3305 12.167 10.4029 12.0973C10.4094 12.0529 11.6278 11.2472 11.6474 11.3677C11.7461 11.8879 12.2203 14.5332 12.4244 14.9519C12.6285 15.3769 13.3333 16.671 13.6558 17.4766C12.3981 17.7748 11.4564 18.8722 11.4564 20.1727C11.4564 21.7079 12.7471 22.9575 14.3407 22.9575C15.5587 22.9575 16.6125 22.2281 17.0338 21.2004L17.0273 35.3023C17.0275 36.8627 15.862 38.1503 14.3079 38.3787Z" fill="#C80F2E"/>
<path d="M9.69087 0.963867C8.63727 1.35717 8.4924 1.79488 8.45298 3.20316C8.27518 3.22219 7.90633 3.05725 8.03154 3.91364C8.03154 3.91364 8.09739 4.48456 8.33445 4.38941C8.15007 5.63275 8.29659 5.94394 7.43898 6.0324C7.2546 6.05143 7.03062 6.06412 6.75414 6.0768L6.66854 6.19099C5.49641 6.29883 4.91584 6.22667 4.15957 7.18693C3.86983 7.55486 3.56033 8.07504 3.1784 8.81724C3.1784 8.81724 2.8294 9.64825 2.72395 9.9908C2.38811 10.6696 1.56499 12.173 1.32135 13.1372C1.24242 13.4671 1.09087 13.5686 1.30818 14.0444C1.63084 14.7295 1.09746 14.9071 2.92808 14.8563V15.2623C2.92808 15.2623 2.44079 15.6683 2.33543 15.9094C2.23666 16.1568 1.9535 17.3684 1.96677 17.9457C1.9996 19.4491 3.27059 20.705 3.64585 22.2022L4.49531 22.3165C4.95626 23.3378 6.97127 26.0908 7.43889 26.5349C7.44548 26.5412 7.45206 26.5477 7.45865 26.554C7.56391 26.814 8.08422 27.1376 8.38704 27.4612C8.57151 27.6324 9.42106 28.5205 10.5536 29.3643C10.9694 29.674 11.4164 29.9796 11.8838 30.2397C11.8706 30.2333 12.1603 30.7916 12.3052 31.2483C11.7257 31.6986 12.8518 32.5234 13.1942 33.8873C13.2139 34.0711 12.8648 34.2552 13.3851 34.7055C13.3522 36.767 12.7004 37.8457 13.7934 38.4165H4.15957C2.40805 38.3784 0.992188 36.9956 0.992188 35.3017V4.08492C0.992188 2.37849 2.40796 1.00193 4.15957 0.963867H9.69087Z" fill="#1D4289"/>
<path fill-rule="evenodd" clip-rule="evenodd" d="M22.8633 0.946289V38.3731H27.0623C27.0733 28.7347 27.3002 19.0575 26.6845 9.53185L31.5255 38.3731H37.5504V0.946289H33.3926C33.3079 10.8697 33.6737 20.6545 34.3722 30.3368L29.3419 0.946289H22.8633Z" fill="#0B0B0B"/>
<path fill-rule="evenodd" clip-rule="evenodd" d="M59.2638 0.919922L55.1367 38.3782H60.2716L60.9435 30.8039H64.3028L64.9746 38.3782H70.0856L66.0784 0.919922H59.2638ZM62.6231 11.493L63.9189 26.4092H61.3274L62.6231 11.493Z" fill="#0B0B0B"/>
<path d="M40.7891 0.945331V38.3519H48.2995C49.5306 38.3519 53.7223 37.3156 53.7223 32.1218V24.6508C53.7223 23.8637 53.7292 21.3959 51.4908 19.9459C52.8895 19.9459 53.7223 17.3319 53.7223 14.9567V6.9428C53.7223 3.82036 51.7049 0.936836 47.6516 0.945331H40.7891ZM45.4201 5.72779H47.6996C48.7438 5.72779 49.0913 6.83835 49.0913 7.69248V16.4043C49.0913 17.8945 48.5828 18.0071 47.5316 18.0071H45.4201V5.72779ZM45.4201 22.0916H47.6996C48.7438 22.0916 49.0913 23.2021 49.0913 24.0563V31.8375C49.0913 32.8513 48.5666 33.6212 47.5316 33.6212L45.4201 33.647V22.0916Z" fill="#0B0B0B"/>
</svg>