<svg width="109" height="34" viewBox="0 0 109 34" fill="none" xmlns="http://www.w3.org/2000/svg">
<g id="Logos 03">
<path fill-rule="evenodd" clip-rule="evenodd" d="M25.3518 14.8016C25.6359 13.1549 25.7349 11.5956 25.7349 10.221C25.7346 7.07407 25.2168 4.89691 25.2069 4.85517C25.165 4.6852 25.0151 4.56679 24.8441 4.56679C24.8179 4.56679 24.7924 4.5698 24.7678 4.5749L24.7695 4.57437C22.7334 4.98314 21.0323 5.14382 19.6168 5.14382C16.0811 5.14264 14.3314 4.14703 13.5712 3.51452C13.385 2.61954 13.7251 1.88261 14.4192 1.84244C14.4192 1.84244 14.5941 1.79023 16.2013 2.20109C17.9514 2.57924 18.2716 0.967605 18.3401 0C18.3401 0 17.7037 0.615236 15.8263 0.26941C13.9486 -0.0762834 12.7978 1.97499 12.8035 3.05722C12.8036 3.07423 12.8006 3.1861 12.8161 3.3613C12.8122 3.36483 12.8092 3.36772 12.805 3.37164C12.1484 3.98256 10.4113 5.14238 6.59556 5.14382C5.18066 5.14382 3.48033 4.98353 1.44582 4.5749L1.44348 4.57437C1.41786 4.56913 1.3929 4.56679 1.36923 4.56679C1.19863 4.56718 1.04844 4.68455 1.00618 4.85425C1.00449 4.86132 0.995385 4.89822 0.98004 4.96914C0.872113 5.46046 0.466797 7.49299 0.466797 10.2695C0.466797 11.6324 0.564322 13.1743 0.843375 14.8016C1.35935 17.8091 2.39052 20.5496 3.91049 22.9531C3.8941 23.162 3.87108 23.3759 3.83805 23.5936C3.78266 23.959 3.70139 24.3331 3.58345 24.7075C3.48606 25.066 3.35069 25.6586 2.9351 26.1422C2.50703 26.6402 2.45319 26.7281 2.18988 27.5059C2.18988 27.5059 1.09694 28.5437 1.14661 29.2368C1.1513 29.2513 1.16001 29.2685 1.1799 29.2756L1.18198 29.2771C1.41357 29.3645 2.8351 29.8504 4.46274 29.2418C4.49993 29.2202 4.50396 29.2005 4.51007 29.1725C4.52321 28.9584 4.58393 28.1471 4.76611 27.7666C4.97689 27.3264 5.09041 27.1473 5.02527 26.8538C4.96051 26.5603 4.93528 26.3126 5.09041 26.0282C5.14412 25.9289 5.26687 25.8055 5.43331 25.6708C5.52863 25.5937 5.63708 25.5118 5.75099 25.4266C7.66131 27.625 10.0711 29.4583 12.94 30.8925C12.9916 30.918 13.0487 30.9319 13.1065 30.9319C13.1647 30.9319 13.2213 30.9181 13.2725 30.8927C13.4881 30.7845 13.7015 30.6738 13.9118 30.5612C16.1763 29.3491 18.1385 27.8766 19.7764 26.1608C20.6049 25.2934 21.3505 24.3638 22.01 23.3742C23.6784 20.8718 24.8023 17.9862 25.3518 14.8016ZM24.8349 4.90463L24.8367 4.90411L24.8441 4.90332C24.8593 4.90332 24.877 4.91497 24.8818 4.93577C24.887 4.95553 25.4005 7.11203 25.4003 10.221C25.4003 11.5794 25.3024 13.1197 25.0222 14.7442C24.7709 16.1998 24.397 17.5896 23.9066 18.9075C24.0146 18.15 24.0637 17.3011 24.0665 16.637C24.0711 15.572 23.8877 14.5968 22.8914 13.5041C22.8914 13.5041 23.3093 12.3119 23.2884 11.0405C23.1792 4.37575 16.7118 7.02456 14.8414 5.481C14.3122 5.04437 13.9558 4.54899 13.7477 4.06617C14.7084 4.71621 16.5044 5.48139 19.6168 5.48048C21.0574 5.48048 22.7802 5.31718 24.8349 4.90463ZM0.801244 10.2695C0.801244 8.70192 0.932188 7.37353 1.06404 6.43448C1.12997 5.96487 1.19603 5.59262 1.24583 5.33668C1.27092 5.20846 1.29186 5.1094 1.30682 5.04175C1.32138 4.97437 1.33074 4.93617 1.33074 4.93617C1.33569 4.91549 1.35324 4.90358 1.36923 4.90358L1.37535 4.90411L1.37781 4.90463C3.43235 5.31718 5.15491 5.48009 6.59556 5.48009C10.2187 5.48139 12.0591 4.44457 12.8729 3.75959C13.0448 4.63979 13.6397 6.10226 15.6886 6.69788C17.9734 7.36206 23.0431 6.58351 21.7378 12.4129C21.7378 12.4129 20.7343 11.693 19.5088 11.652C19.2248 11.6425 18.9122 11.652 18.5732 11.7034C17.8708 11.8102 17.3804 11.5982 17.0389 11.371C17.389 11.4255 17.7022 11.449 17.983 11.449C18.7817 11.4499 19.3216 11.2586 19.6993 11.0914C19.749 11.0694 19.7959 11.0475 19.8404 11.0254C19.9953 10.9492 20.12 10.8755 20.2179 10.8233C20.3708 10.7413 20.4745 10.6761 20.5491 10.6151C20.5865 10.5844 20.6171 10.5544 20.6431 10.5178C20.6685 10.4819 20.6928 10.4341 20.6933 10.372C20.6933 10.3408 20.6859 10.308 20.6726 10.2808C20.66 10.2535 20.6428 10.2317 20.626 10.2153C20.5811 10.1732 20.5395 10.1574 20.5021 10.1442C20.4757 10.1357 20.4595 10.1338 20.4397 10.1306C20.3833 10.123 20.3088 10.1185 20.2255 10.1145C20.1889 10.113 20.1508 10.1115 20.1135 10.1103C19.9807 10.1058 19.8573 10.1042 19.8314 10.1039C19.6184 10.0942 19.4473 10.076 19.3033 10.0478C19.0866 10.0051 18.9303 9.9427 18.7653 9.8464C18.6004 9.75048 18.4268 9.6172 18.1964 9.43872C18.1325 9.38936 18.0643 9.33676 17.9911 9.28076C17.9528 9.25171 17.9134 9.22175 17.8723 9.19088C17.6051 8.98976 17.272 8.74992 16.8293 8.46533C16.4182 8.20119 16.0212 7.98407 15.6358 7.80913C15.5393 7.76543 14.6921 7.4013 14.3483 7.2795C14.2906 7.25897 14.2317 7.23904 14.1707 7.21995C13.2347 6.20184 12.1129 5.71614 10.9777 5.88702C8.80064 6.21492 5.94669 8.45461 4.76117 12.022C4.64752 12.4758 4.55688 13.1958 4.82904 13.9344L5.27857 15.1547C5.27857 15.1547 4.67808 14.6527 4.38368 14.1272C4.27796 14.2661 3.74976 15.0348 3.79098 16.5207C3.79281 16.5958 3.79554 16.6662 3.79866 16.7365C3.83259 17.5089 3.9257 17.9833 4.00645 18.2613C4.03584 18.3625 4.06367 18.4366 4.08616 18.4897C4.06874 18.6275 4.0543 18.7657 4.03441 18.9013C4.01919 19.0065 4.00528 19.1186 3.99267 19.2312C3.94182 19.682 3.91244 20.1424 3.90801 20.2271L3.90736 20.24C3.9045 20.272 3.90294 20.3071 3.90151 20.344C3.90112 20.3547 3.90112 20.3665 3.90099 20.3775C3.89995 20.4061 3.89982 20.4357 3.89982 20.4668V20.5015C3.90034 20.5406 3.90099 20.5814 3.90204 20.6242V20.6318C3.91335 21.0605 3.95795 21.6665 3.94078 22.3615C2.58375 20.0976 1.65297 17.5412 1.17314 14.7442C0.897859 13.1392 0.801244 11.6164 0.801244 10.2695ZM17.8844 22.035C17.9127 22.0572 17.8936 22.1033 17.8582 22.0978C17.3884 22.0259 16.9633 21.6951 17.2735 21.0438C17.5163 20.5338 17.5977 20.2124 17.6244 20.0698C17.6308 20.0363 17.6758 20.0307 17.6903 20.0616C17.7495 20.1831 17.8146 20.4671 17.6371 21.0438C17.466 21.5992 17.7226 21.9048 17.8844 22.035ZM15.3463 18.2001C15.3581 18.3213 15.368 18.445 15.3713 18.5634C15.3723 18.6031 15.3727 18.6422 15.3723 18.6805C15.3694 18.9097 15.3352 19.1112 15.2345 19.2315C15.1842 19.2916 15.1054 19.3623 15.0076 19.4366C14.9423 19.4858 14.869 19.5368 14.7903 19.5875C14.6327 19.689 14.4538 19.7894 14.2767 19.8725C14.1883 19.9141 14.1006 19.9518 14.0161 19.9829C13.9318 20.0142 13.8509 20.0391 13.7764 20.0559C13.6647 20.0814 13.5673 20.0887 13.4947 20.0706C13.1068 19.9756 13.1098 19.9266 12.922 19.7644C12.9021 19.7529 12.8855 19.7431 12.871 19.7343C12.7671 19.673 12.7483 19.6753 12.2704 19.6727C11.9155 19.6703 11.5945 19.6644 11.3368 19.5963C11.0795 19.5279 10.8853 19.397 10.7833 19.1445C10.695 18.9646 10.6492 18.8064 10.6099 18.6678C10.5236 18.3622 10.4692 18.1496 10.0657 17.9992C9.58672 17.8207 9.02122 17.7731 8.5851 17.2789C8.55704 17.2475 8.52967 17.2132 8.50289 17.1777C8.49284 17.1645 8.48324 17.1501 8.47327 17.1363C8.45377 17.1092 8.43449 17.0806 8.41552 17.0509C8.40667 17.0369 8.39782 17.0231 8.38912 17.0088C8.36242 16.9642 8.33647 16.9184 8.31134 16.8688C7.86182 15.9787 7.82555 15.1982 7.82555 15.1982C7.82555 15.1982 7.76898 15.2578 7.69473 15.3843C7.55456 15.6234 7.35222 16.1027 7.35288 16.8742C7.35352 17.1464 7.37875 17.4548 7.44143 17.8023C7.44143 17.8023 6.73092 16.4675 7.27472 15.0379C7.30736 14.9588 7.34026 14.8835 7.37315 14.8115C7.70175 14.0908 8.02972 13.7001 8.22127 13.5129C8.31704 13.4194 8.37899 13.3768 8.38949 13.3693C8.38769 13.3718 8.38492 13.379 8.38155 13.3909C8.35815 13.4733 8.30444 13.7754 8.3082 14.224C8.31112 14.5443 8.34307 14.9398 8.43682 15.384C8.49285 15.6502 8.57152 15.9339 8.67884 16.2292C8.67884 16.2292 8.69272 16.2585 8.71027 16.2952C8.73952 16.356 8.77912 16.4384 8.77912 16.4384C8.79795 16.471 8.82029 16.5063 8.84594 16.5435C8.96137 16.7119 9.14812 16.9234 9.43994 17.1138C9.60209 17.2199 9.79657 17.3193 10.0296 17.4012C11.1829 17.8072 11.0951 18.0091 11.175 18.3299C11.2098 18.4703 11.2633 18.6407 11.3535 18.7923C11.4052 18.8792 11.4687 18.9598 11.5479 19.0252C11.5876 19.0582 11.6308 19.0874 11.6787 19.1112C11.7502 19.1476 11.8314 19.1728 11.9239 19.1833C12.06 19.2002 12.1993 19.2121 12.3298 19.2201C12.3731 19.2223 12.4156 19.2245 12.4567 19.2262C12.6208 19.2331 12.7615 19.2333 12.8495 19.2297C12.9156 19.2269 12.967 19.2235 13.0192 19.2331C13.1068 19.2488 13.1972 19.3009 13.3639 19.4537C13.3639 19.4537 13.5743 19.6345 14.0527 19.3719C14.2923 19.2406 14.4598 19.1261 14.5684 19.0445C14.5817 19.0344 14.5943 19.0247 14.606 19.0156C14.6645 18.9696 14.7001 18.9377 14.7157 18.923L14.725 18.9143C14.725 18.9143 14.743 18.9034 14.7646 18.8679C14.799 18.8109 14.8429 18.6902 14.8372 18.4467C14.835 18.3553 14.8262 18.247 14.8069 18.1183C14.7958 18.0437 14.7915 17.9606 14.793 17.8708C14.7967 17.6614 14.8318 17.4161 14.8858 17.1577C14.9242 16.9732 14.9722 16.7822 15.0255 16.5932C15.0466 16.5175 15.069 16.4423 15.0914 16.3679C15.2608 15.8098 15.4588 15.3006 15.5608 15.0716C15.7783 14.5829 15.8651 13.9751 15.8651 13.9751C15.8651 13.9751 15.8887 14.0377 15.9135 14.1342C15.942 14.2448 15.9715 14.3999 15.9691 14.5569C15.9689 14.5765 15.9682 14.5964 15.9667 14.6159C15.9667 14.6159 16.1962 14.5234 16.3708 14.3228C16.3905 14.3005 16.4092 14.2768 16.427 14.2522C16.5154 14.1272 16.5773 13.9685 16.5641 13.7736C16.5615 13.7346 16.5556 13.6942 16.5466 13.652C16.5105 13.4853 16.321 13.101 16.2294 12.7337C16.1962 12.6002 16.1862 12.4495 16.1866 12.3394C16.1866 12.3119 16.1883 12.2855 16.1917 12.2606C16.2106 12.1051 16.2131 11.772 16.1546 11.3842C16.1194 11.1512 16.0639 10.8988 15.9832 10.6531C15.8052 10.1131 15.5032 9.60641 15.015 9.41525C14.609 9.25601 14.0392 9.18537 13.4908 9.21533C13.3201 9.22507 13.152 9.24454 12.9913 9.27397C12.4554 9.37238 12.0056 9.58369 11.8483 9.92126C11.8008 10.0227 11.7802 10.1353 11.7912 10.2599C11.8852 11.3251 14.1601 11.2746 14.1601 11.2746L15.2482 11.2579L15.2629 11.2581C15.2965 11.2563 15.3571 11.2586 15.3908 11.2897L15.4084 11.3081L15.4157 11.3321L15.4142 11.336L15.4144 11.3373C15.4192 11.402 15.032 11.6431 14.4354 11.8649C14.0779 11.9982 13.6447 12.1243 13.1758 12.2012C12.7853 12.2651 12.3138 12.3024 11.8348 12.2732C11.7868 12.2701 11.7385 12.2667 11.6907 12.2622C11.5948 12.2536 11.4988 12.2421 11.4036 12.2274C11.3557 12.2201 11.308 12.2119 11.2608 12.203C11.1662 12.1852 11.0725 12.1637 10.9801 12.139C10.2415 11.9394 9.59624 11.5062 9.34552 10.6725C9.28282 10.464 9.2529 10.2619 9.25049 10.0669C9.23917 9.1896 9.78697 8.46231 10.4375 8.00399C10.7988 7.74936 11.1919 7.57767 11.538 7.50937C12.0658 7.40538 12.5968 7.34802 13.1454 7.36704C13.6452 7.41292 13.9629 7.51254 14.2501 7.60107C14.5615 7.69714 15.4056 8.0741 15.4981 8.11584C15.8676 8.2836 16.2503 8.4928 16.6492 8.74916C17.0839 9.02862 17.4096 9.26288 17.6721 9.46045C17.7123 9.49094 17.7514 9.52045 17.7887 9.54913C17.8612 9.60437 17.9287 9.65667 17.9923 9.70565C18.1461 9.82429 18.2781 9.92662 18.406 10.0152C18.5974 10.1479 18.783 10.2503 19.0051 10.3193C19.2269 10.3886 19.4809 10.4253 19.8168 10.4402H19.8221C19.8221 10.4402 19.8558 10.4407 19.9078 10.4418C19.96 10.4427 20.0304 10.4443 20.1025 10.4467C20.1339 10.4477 20.1652 10.4489 20.1959 10.4503C20.1577 10.473 20.113 10.4984 20.061 10.5261C19.9531 10.5839 19.8358 10.6531 19.6933 10.7232C19.6526 10.743 19.61 10.7633 19.5647 10.7833C19.2079 10.9402 18.7304 11.1117 17.983 11.1124C17.6233 11.1124 17.2016 11.0719 16.7033 10.9679C16.6752 10.9797 16.6062 11.046 16.5901 11.0589C16.5901 11.0589 16.6793 11.5382 16.6359 12.4327C16.6294 12.5722 17.1737 13.5591 17.0827 14.0764C17.0565 14.1955 17.0008 14.31 16.927 14.4175C16.6072 14.8835 15.9521 15.2182 15.9521 15.2182C15.9521 15.2182 15.7368 15.8071 15.5505 16.4056C15.4987 16.5716 15.4495 16.7387 15.4077 16.8938C15.3322 17.1732 15.2813 17.4148 15.2854 17.5461C15.2908 17.7212 15.3228 17.9568 15.3463 18.2001ZM13.1321 14.1784C12.8008 14.2645 12.7517 14.562 12.5672 14.611C12.4146 14.6518 12.3643 14.4965 12.4889 14.2922C12.6138 14.0883 12.8167 13.7879 13.329 13.7142C13.8409 13.6407 13.9705 14.0698 14.183 14.2506C14.236 14.2954 14.2859 14.3317 14.331 14.3608C14.4213 14.4198 14.4926 14.4512 14.5326 14.473C14.5525 14.484 14.5645 14.4925 14.567 14.5009L14.453 14.7131C14.453 14.7131 14.3318 14.6452 14.1873 14.5956C14.173 14.5908 14.1582 14.5859 14.1435 14.5814C14.114 14.5723 14.0839 14.5643 14.054 14.5579C14.0093 14.5486 13.9652 14.5432 13.9243 14.5441C13.8274 14.5461 13.8119 14.6029 13.7671 14.6532C13.74 14.683 13.7022 14.7106 13.6299 14.7226C13.4463 14.7529 13.3815 14.7075 13.337 14.6316C13.2934 14.5571 13.345 14.3371 13.345 14.3371C13.3789 14.1452 13.1321 14.1784 13.1321 14.1784ZM13.0888 30.5907C10.2631 29.1778 7.89602 27.3784 6.01964 25.2242C6.23523 25.055 6.65251 24.6967 6.92116 24.2613C7.14703 23.8951 7.11504 23.5923 7.12947 23.6022C5.34176 22.364 5.38136 17.9491 5.38136 17.9491L6.07399 20.7137C6.68294 23.2055 7.84102 23.4684 8.01614 23.2718C8.38837 22.8546 8.98087 20.9285 9.01679 20.9755C9.02692 21.4291 8.47582 23.1338 8.47754 23.1346C8.42009 23.3073 8.36257 23.4726 8.30655 23.6252C8.28772 23.6763 8.26912 23.7256 8.25059 23.7738C8.17717 23.9655 8.106 24.1323 8.0406 24.2621C7.90149 24.5383 7.82112 24.8142 7.80006 25.079C7.78302 25.2909 7.80357 25.4959 7.86182 25.6886C7.9639 26.0255 8.18107 26.3249 8.51279 26.558C9.33652 27.1359 9.49844 27.178 9.56932 27.2365C9.61207 27.2717 9.62999 27.308 9.72232 27.4786C9.86497 27.742 9.91222 27.8623 10.06 27.9804C10.0811 27.9974 10.1716 28.0607 10.2693 28.0925C10.3172 28.1084 10.3675 28.1145 10.4134 28.1145C10.6778 28.1141 11.3149 28.0084 11.3149 28.0084C11.3149 28.0084 11.547 27.9632 11.7221 27.6085C11.8483 27.3524 11.9418 27.0191 11.9485 26.6529C11.951 26.5309 11.9441 26.4052 11.9269 26.2782C11.9209 26.2359 11.9146 26.1942 11.9071 26.1528C11.8192 25.6563 11.6289 25.2345 11.556 25.0859C11.5435 25.0604 11.5349 25.0434 11.5305 25.0348L11.5279 25.0303L11.5272 25.0293C11.5272 25.0293 11.2986 25.0095 10.7674 25.3128L10.7499 25.3183L10.746 25.3171L10.7391 25.3121L10.7373 25.3071L10.7349 25.2951V25.2878L10.7368 25.2674L10.7379 25.2602C10.7418 25.2386 10.7485 25.2123 10.7577 25.183L10.7599 25.177C10.7638 25.1641 10.7682 25.1511 10.7729 25.1372L10.7765 25.1272C10.7809 25.1145 10.7855 25.1019 10.7905 25.0887L10.7944 25.0779C10.7997 25.0646 10.8047 25.051 10.8098 25.0375L10.8133 25.0291C10.8263 24.9965 10.8392 24.9647 10.8517 24.9357L10.8566 24.9239L10.8683 24.8962L10.8761 24.8784L10.8824 24.8641C10.8993 24.8258 10.9106 24.8005 10.9106 24.8005C10.9106 24.8005 10.9246 24.7524 10.9886 24.6764C11.0704 24.5789 11.2349 24.4353 11.5579 24.29C12.1644 24.0166 12.7012 23.8599 13.12 23.7154C13.2397 23.6739 13.3498 23.6336 13.4492 23.5914C13.7968 23.445 14.0128 23.2802 14.0494 22.9929C14.054 22.9563 14.0437 22.9145 14.0187 22.8678C14.0106 22.8522 14.0005 22.8362 13.9889 22.8196C14.4437 22.6854 15.5119 22.3304 16.3341 21.6042C16.3341 21.6042 16.4113 21.666 16.36 21.8064C16.3547 21.8207 16.3473 21.8365 16.338 21.8538C16.2243 22.0598 15.8143 22.4524 15.238 22.7859C15.094 22.8693 14.9393 22.9491 14.7765 23.0211C14.7765 23.0211 15.1885 24.2747 14.6134 25.1227C14.5057 25.2816 14.4146 25.4166 14.3366 25.5323C14.0245 25.9954 13.9228 26.1523 13.7951 26.3195C13.7846 26.3334 13.7737 26.3475 13.7626 26.3618C13.7293 26.4047 13.6855 26.4667 13.6363 26.5426C13.4233 26.8711 13.1098 27.4546 13.1098 27.819C13.1098 27.819 13.5192 27.9002 13.882 27.9207C13.934 27.9235 13.9847 27.925 14.0334 27.925C14.4562 27.925 14.8252 27.9153 15.1018 27.8605C15.3169 27.8177 15.4762 27.7473 15.5613 27.6332C15.5613 27.6332 15.6421 26.3291 15.9501 26.0844C16.2195 25.8704 16.3152 25.719 16.3238 25.5261C16.3252 25.4984 16.3247 25.4699 16.3228 25.4406C16.3067 25.2042 16.2255 25.0247 16.6711 24.6498C17.1165 24.2747 17.3193 23.5902 18.3724 23.0032C18.3724 23.0032 18.7796 22.862 18.6991 22.2411C18.9108 22.2853 19.0813 22.1889 19.1878 22.1C18.0639 19.3377 18.9117 18.0586 19.0416 17.8863L19.0428 17.8877C18.4216 20.7624 20.1574 23.0999 20.9915 24.2233C20.4456 24.939 19.8502 25.6195 19.2064 26.2638C18.3184 27.1528 17.3382 27.9733 16.2686 28.7224C15.2941 29.4048 14.2459 30.0284 13.1251 30.5904L13.1065 30.5953L13.0888 30.5907Z" fill="#FF1950"/>
<path fill-rule="evenodd" clip-rule="evenodd" d="M33.9062 20.5047V30.9315H35.6087V27.1481H37.9918C38.7024 27.1481 39.329 27.0116 39.872 26.7384C40.4144 26.4655 40.8341 26.0782 41.1302 25.5765C41.4263 25.0753 41.5742 24.4918 41.5742 23.8264C41.5742 23.1612 41.4263 22.5776 41.1302 22.0761C40.8341 21.5747 40.4144 21.1875 39.872 20.9143C39.329 20.6413 38.7024 20.5047 37.9918 20.5047H33.9062ZM35.6087 21.9942H37.8588C38.4704 21.9942 38.954 22.158 39.3093 22.4858C39.6647 22.8134 39.8423 23.2603 39.8423 23.8264C39.8423 24.3825 39.6622 24.8269 39.302 25.1595C38.9416 25.4922 38.4557 25.6584 37.8438 25.6584H35.6087V21.9942ZM46.391 23.305C45.8085 23.305 45.3447 23.407 44.9995 23.6103C44.6538 23.814 44.3727 24.0944 44.1558 24.4519L43.9781 23.305H42.557V30.9315H44.1558V27.1033C44.1558 26.4382 44.3038 25.8893 44.5999 25.4574C44.896 25.0255 45.3745 24.8094 46.0357 24.8094H46.7463V23.305H46.391ZM51.1056 31.0209C51.8654 31.0209 52.5389 30.8595 53.1262 30.5368C53.7133 30.2142 54.1673 29.7573 54.488 29.1664C54.8086 28.5758 54.969 27.8929 54.969 27.1183C54.969 26.3536 54.8086 25.6758 54.488 25.0851C54.1673 24.4943 53.7133 24.0349 53.1262 23.7073C52.5389 23.3796 51.8654 23.2158 51.1056 23.2158C50.3456 23.2158 49.6721 23.3796 49.085 23.7073C48.4976 24.0349 48.0438 24.4943 47.723 25.0851C47.4023 25.6758 47.2421 26.3536 47.2421 27.1183C47.2421 27.8929 47.4023 28.5758 47.723 29.1664C48.0438 29.7573 48.4976 30.2142 49.085 30.5368C49.6721 30.8595 50.3456 31.0209 51.1056 31.0209ZM51.1056 29.6504C50.4344 29.6504 49.8965 29.4148 49.492 28.9429C49.0874 28.4713 48.8852 27.8629 48.8852 27.1183C48.8852 26.3735 49.0874 25.7652 49.492 25.2936C49.8965 24.8219 50.4344 24.586 51.1056 24.586C51.7767 24.586 52.3169 24.8219 52.7264 25.2936C53.1359 25.7652 53.3409 26.3735 53.3409 27.1183C53.3409 27.8629 53.1359 28.4713 52.7264 28.9429C52.3169 29.4148 51.7767 29.6504 51.1056 29.6504ZM66.6634 30.9315V29.4121H62.2076V20.5047H60.5055V30.9315H66.6634ZM67.2762 27.1331C67.2762 27.9077 67.4366 28.5879 67.7573 29.1739C68.0779 29.7599 68.5319 30.2142 69.1192 30.5368C69.7061 30.8595 70.3947 31.0209 71.1843 31.0209C72.092 31.0209 72.8496 30.7728 73.4565 30.2761C74.0633 29.7795 74.4359 29.1439 74.5742 28.3694H72.9755C72.8666 28.7965 72.6447 29.1268 72.3092 29.3599C71.9736 29.5935 71.5592 29.7101 71.066 29.7101C70.4441 29.7101 69.9457 29.5163 69.5708 29.1291C69.1955 28.7418 68.9884 28.2155 68.949 27.5502V27.4608H74.663C74.6926 27.2522 74.7073 27.0489 74.7073 26.8501C74.6974 26.1153 74.5322 25.4747 74.2115 24.9287C73.8908 24.3825 73.4514 23.9605 72.8939 23.6627C72.3362 23.3646 71.6926 23.2158 70.9623 23.2158C70.2418 23.2158 69.6028 23.3772 69.0452 23.6996C68.4875 24.0226 68.0536 24.4794 67.7426 25.0703C67.4316 25.6611 67.2762 26.3489 67.2762 27.1331ZM69.0083 26.2841C69.0674 25.7479 69.287 25.3184 69.6671 24.9957C70.0469 24.673 70.4982 24.5115 71.0215 24.5115C71.584 24.5115 72.0503 24.6679 72.4204 24.9806C72.7904 25.2936 73.0101 25.7281 73.0791 26.2841H69.0083ZM82.8401 29.5313C82.5041 29.5313 82.3368 29.3524 82.3368 28.995V25.9862C82.3368 25.0924 82.0601 24.4073 81.5073 23.9306C80.9553 23.4539 80.1701 23.2158 79.1538 23.2158C78.1968 23.2158 77.4221 23.4267 76.8303 23.8487C76.2378 24.2709 75.9025 24.864 75.8231 25.6288H77.3928C77.4521 25.2911 77.6321 25.0205 77.9328 24.8168C78.2336 24.6133 78.6161 24.5115 79.0803 24.5115C79.6031 24.5115 80.0126 24.6332 80.3088 24.8765C80.6051 25.1199 80.7528 25.4551 80.7528 25.8819V26.3437H78.8433C77.7873 26.3437 76.9826 26.5548 76.4306 26.9767C75.8778 27.3989 75.6011 28.0022 75.6011 28.7866C75.6011 29.4816 75.8576 30.0279 76.3713 30.425C76.8843 30.8224 77.5653 31.0209 78.4136 31.0209C79.5093 31.0209 80.3433 30.5838 80.9156 29.7101C80.9156 30.1074 81.0243 30.4102 81.2411 30.6186C81.4585 30.8272 81.8133 30.9315 82.3076 30.9315H83.1506V29.5313H82.8401ZM80.7528 27.8034C80.743 28.3991 80.5533 28.8759 80.1828 29.2334C79.8131 29.5908 79.2971 29.7697 78.6356 29.7697C78.2013 29.7697 77.8586 29.6704 77.6073 29.4717C77.3553 29.2733 77.2293 29.01 77.2293 28.6823C77.2293 28.305 77.3628 28.0194 77.6291 27.8258C77.8961 27.6321 78.2756 27.5353 78.7691 27.5353H80.7528V27.8034ZM89.9043 23.305L89.7266 24.4967C89.4693 24.0995 89.134 23.7868 88.7193 23.5582C88.3053 23.33 87.8118 23.2158 87.2396 23.2158C86.5586 23.2158 85.9466 23.3772 85.4036 23.6996C84.8613 24.0226 84.4346 24.4767 84.1233 25.0625C83.8128 25.6486 83.6576 26.3239 83.6576 27.0885C83.6576 27.8831 83.8098 28.5707 84.1158 29.1515C84.4218 29.7323 84.8463 30.1791 85.3893 30.4922C85.9316 30.805 86.5488 30.9612 87.2396 30.9612C88.3346 30.9612 89.1588 30.5442 89.7116 29.7101V30.5592C89.7116 31.979 88.9863 32.689 87.5358 32.689C86.9733 32.689 86.5143 32.5723 86.1588 32.3392C85.8033 32.1056 85.576 31.7755 85.4778 31.3485H83.8496C83.9186 32.1925 84.2741 32.8454 84.9153 33.3074C85.5565 33.7691 86.3905 34 87.4173 34C88.7395 34 89.7168 33.7044 90.3483 33.1136C90.9798 32.5229 91.2955 31.6912 91.2955 30.6186V23.305H89.9043ZM87.5058 29.6059C86.8443 29.6059 86.3118 29.3725 85.9068 28.9056C85.5025 28.439 85.3 27.8333 85.3 27.0885C85.3 26.3437 85.5025 25.738 85.9068 25.2713C86.3118 24.8044 86.8443 24.5711 87.5058 24.5711C88.1673 24.5711 88.6998 24.8071 89.1048 25.2786C89.509 25.7504 89.7116 26.3637 89.7116 27.1183C89.7116 27.8533 89.509 28.4513 89.1048 28.9131C88.6998 29.375 88.1673 29.6059 87.5058 29.6059ZM98.149 23.305V27.0885C98.149 27.873 97.9765 28.4911 97.6308 28.9429C97.2858 29.3948 96.8073 29.6207 96.1953 29.6207C95.6125 29.6207 95.1738 29.4269 94.8776 29.0396C94.5813 28.6525 94.4336 28.0864 94.4336 27.3417V23.305H92.8353V27.5054C92.8353 28.7368 93.1113 29.6306 93.664 30.1867C94.2168 30.7429 94.9368 31.0209 95.8255 31.0209C96.8118 31.0209 97.5918 30.6685 98.164 29.9634L98.3418 30.9315H99.748V23.305H98.149ZM101.036 27.1331C101.036 27.9077 101.196 28.5879 101.517 29.1739C101.838 29.7599 102.291 30.2142 102.879 30.5368C103.466 30.8595 104.154 31.0209 104.944 31.0209C105.852 31.0209 106.609 30.7728 107.216 30.2761C107.823 29.7795 108.195 29.1439 108.333 28.3694H106.735C106.626 28.7965 106.404 29.1268 106.068 29.3599C105.733 29.5935 105.319 29.7101 104.826 29.7101C104.203 29.7101 103.705 29.5163 103.33 29.1291C102.955 28.7418 102.748 28.2155 102.708 27.5502V27.4608H108.423C108.452 27.2522 108.467 27.0489 108.467 26.8501C108.457 26.1153 108.291 25.4747 107.971 24.9287C107.65 24.3825 107.211 23.9605 106.653 23.6627C106.095 23.3646 105.452 23.2158 104.721 23.2158C104.001 23.2158 103.362 23.3772 102.804 23.6996C102.247 24.0226 101.813 24.4794 101.502 25.0703C101.191 25.6611 101.036 26.3489 101.036 27.1331ZM102.768 26.2841C102.827 25.7479 103.047 25.3184 103.427 24.9957C103.806 24.673 104.258 24.5115 104.781 24.5115C105.343 24.5115 105.81 24.6679 106.18 24.9806C106.55 25.2936 106.77 25.7281 106.839 26.2841H102.768Z" fill="#FF1950"/>
<path fill-rule="evenodd" clip-rule="evenodd" d="M33.3436 11.2904C33.3336 12.6012 33.6544 13.6018 34.3059 14.2917C34.9572 14.9822 35.8946 15.327 37.1184 15.327C38.3619 15.327 39.3067 14.9896 39.9532 14.3142C40.5995 13.6389 40.9227 12.6161 40.9227 11.2457V4.81089H39.2205V11.2755C39.2205 12.1494 39.045 12.7925 38.695 13.2044C38.3445 13.6167 37.819 13.8227 37.1184 13.8227C36.4375 13.8227 35.9217 13.5991 35.5715 13.1523C35.221 12.7055 35.046 12.085 35.046 11.2904H33.3436ZM47.8016 7.6111V11.3946C47.8016 12.1792 47.6287 12.7974 47.2835 13.249C46.938 13.7011 46.4595 13.9269 45.8477 13.9269C45.2652 13.9269 44.8263 13.7332 44.5302 13.3459C44.2341 12.9586 44.0861 12.3926 44.0861 11.6478V7.6111H42.4873V11.8117C42.4873 13.0432 42.7635 13.9369 43.3163 14.4928C43.8688 15.0492 44.5895 15.327 45.4776 15.327C46.4643 15.327 47.244 14.9748 47.8164 14.2695L47.9941 15.2376H49.4003V7.6111H47.8016ZM55.0785 7.52175C54.0424 7.52175 53.2184 7.9292 52.6065 8.74335L52.4141 7.6111H51.0225V18.2167H52.6212V14.1652C52.8678 14.5228 53.1986 14.8057 53.613 15.0142C54.0276 15.2228 54.5163 15.327 55.0785 15.327C55.7694 15.327 56.3862 15.1658 56.9289 14.843C57.4716 14.5203 57.896 14.0636 58.2022 13.4725C58.5078 12.8819 58.661 12.199 58.661 11.4245C58.661 10.6301 58.5078 9.93741 58.2022 9.34657C57.896 8.75588 57.4716 8.30382 56.9289 7.99108C56.3862 7.67827 55.7694 7.52175 55.0785 7.52175ZM54.8122 13.9716C54.1509 13.9716 53.618 13.7332 53.2134 13.2566C52.8087 12.7799 52.6065 12.1594 52.6065 11.3946C52.6065 10.6499 52.8087 10.0465 53.2134 9.58482C53.618 9.12318 54.1509 8.89225 54.8122 8.89225C55.4732 8.89225 56.0086 9.12567 56.4183 9.59229C56.8276 10.0591 57.0327 10.6699 57.0327 11.4245C57.0327 12.1693 56.8276 12.7799 56.4183 13.2566C56.0086 13.7332 55.4732 13.9716 54.8122 13.9716ZM60.7287 4.55758C60.4524 4.55758 60.2206 4.64956 60.0332 4.83313C59.8455 5.01698 59.7519 5.24792 59.7519 5.52571C59.7519 5.80388 59.8455 6.03496 60.0332 6.21854C60.2206 6.40237 60.4524 6.49397 60.7287 6.49397C61.005 6.49397 61.2371 6.40237 61.4247 6.21854C61.6119 6.03496 61.706 5.80388 61.706 5.52571C61.706 5.24792 61.6119 5.01698 61.4247 4.83313C61.2371 4.64956 61.005 4.55758 60.7287 4.55758ZM59.9295 15.2376H61.5283V7.6111H59.9295V15.2376ZM63.1666 15.2376H64.7654V4.81077H63.1666V15.2376ZM66.0783 11.4393C66.0783 12.2139 66.2387 12.8942 66.5593 13.4801C66.8802 14.066 67.334 14.5203 67.9215 14.843C68.5084 15.1658 69.1967 15.327 69.9864 15.327C70.8943 15.327 71.6516 15.079 72.2586 14.5822C72.8656 14.0858 73.238 13.4502 73.3762 12.6756H71.7775C71.6689 13.1027 71.4468 13.433 71.1113 13.6661C70.7758 13.8997 70.3613 14.0163 69.8679 14.0163C69.2463 14.0163 68.7478 13.8227 68.373 13.4354C67.9977 13.0481 67.7904 12.5217 67.7511 11.8564V11.7669H73.4652C73.4946 11.5586 73.5096 11.3552 73.5096 11.1563C73.4995 10.4215 73.3341 9.78104 73.0136 9.2348C72.6928 8.68879 72.2535 8.26654 71.6961 7.96859C71.1385 7.67064 70.4944 7.52175 69.7645 7.52175C69.0439 7.52175 68.4049 7.68332 67.8475 8.00587C67.2896 8.32865 66.8556 8.78561 66.5447 9.37623C66.2337 9.9673 66.0783 10.655 66.0783 11.4393ZM67.8102 10.5904C67.8694 10.054 68.0891 9.62475 68.469 9.30182C68.849 8.97927 69.3003 8.81776 69.8236 8.81776C70.386 8.81776 70.8524 8.97413 71.2225 9.28703C71.5926 9.59969 71.8121 10.0344 71.8812 10.5904H67.8102ZM78.6309 7.6111C78.0489 7.6111 77.5847 7.71321 77.2397 7.91667C76.8939 8.12028 76.6127 8.40065 76.3959 8.75822L76.2182 7.6111H74.7971V15.2376H76.3959V11.4096C76.3959 10.7445 76.5437 10.1954 76.8399 9.76353C77.1362 9.33178 77.6147 9.11571 78.2762 9.11571H78.9864V7.6111H78.6309Z" fill="#FF1950"/>
</g>
</svg>
