<svg width="57" height="25" viewBox="0 0 57 25" fill="none" xmlns="http://www.w3.org/2000/svg">
<g id="Logos 01">
<path id="Vector" d="M9.82832 19.8694C9.37897 19.7152 9.07182 19.5061 8.69683 19.0998C7.90916 18.2463 7.86587 17.9915 7.86587 14.2013C7.86587 10.5492 7.92194 10.2053 8.65578 9.34775C9.68467 8.14583 12.0637 8.18138 13.0797 9.4138C13.7544 10.2324 13.8093 10.5969 13.8093 14.2573C13.8093 17.1544 13.7842 17.6372 13.6074 18.1441C13.3365 18.9203 12.5382 19.6713 11.7282 19.9119C10.9643 20.1387 10.5881 20.1304 9.82832 19.8693V19.8694ZM11.225 18.1126C11.6837 17.9365 11.7347 17.5512 11.7347 14.2682C11.7347 12.1732 11.6925 11.0355 11.608 10.85C11.3243 10.2271 10.3509 10.2271 10.0672 10.85C9.98262 11.0355 9.94046 12.1732 9.94046 14.2682C9.94046 17.9313 9.98722 18.1438 10.8003 18.1735C10.9341 18.1783 11.1252 18.1508 11.225 18.1126ZM16.2071 19.8079C16.0456 19.7202 15.8184 19.4572 15.7024 19.2237C15.5067 18.8298 15.489 18.427 15.4581 13.6686L15.4248 8.53821H17.566V13.2343C17.566 17.2537 17.59 17.9506 17.7327 18.0689C17.9812 18.2751 18.3849 18.1242 18.8414 17.6543L19.2481 17.2357V8.53832H21.3787V19.8644H19.2481V18.724L18.7154 19.1969C18.4225 19.4569 18.0204 19.7387 17.8219 19.8232C17.3592 20.0198 16.5835 20.0124 16.2071 19.8079ZM3.21061 16.7523L3.20893 13.6405L1.82321 9.21094L0.4375 4.78141L1.56338 4.74923C2.22243 4.73039 2.71764 4.76313 2.75779 4.82817C2.79558 4.88929 3.15297 6.17778 3.55196 7.69144C3.95118 9.20511 4.30307 10.4438 4.33436 10.444C4.36576 10.4443 4.65979 9.42266 4.98791 8.17364C5.31615 6.92474 5.65985 5.63794 5.75192 5.31408L5.91935 4.72534H7.10085C8.06346 4.72534 8.27137 4.75427 8.22259 4.88122C8.18973 4.96689 7.55345 6.98328 6.80884 9.36199L5.45497 13.6869V19.8642H3.21218L3.21061 16.7523Z" fill="#010101"/>
<path id="Vector_2" d="M32.383 24.2321C26.9044 24.0492 25.4209 23.6593 24.4123 22.1364C24.0048 21.5212 23.5474 20.1444 23.4017 19.0943C22.8903 15.4087 23.0159 7.72331 23.6306 5.07446C24.1872 2.67567 25.4962 1.50056 27.8842 1.25576C30.2299 1.01522 36.3449 0.88424 42.2928 0.947039C48.7141 1.01477 51.7373 1.15214 52.8311 1.42588C54.9707 1.96112 56.0087 3.53725 56.3706 6.79962C56.439 7.41639 56.5231 9.5697 56.5574 11.5846C56.6958 19.7187 56.0839 22.3063 53.7517 23.4489C52.871 23.8804 52.295 23.9796 49.806 24.1281C47.1028 24.2894 36.0711 24.3552 32.383 24.2321ZM35.0781 19.7985C35.2672 19.7006 35.6431 19.4168 35.9136 19.1672L36.4054 18.7141V19.864H38.5361V8.65004H36.4054V17.2023L35.9156 17.692C35.3899 18.2178 35.1773 18.2834 34.8996 18.0058C34.7451 17.8512 34.7233 17.2627 34.7233 13.2398V8.64993H32.5927V13.5077C32.5927 18.8665 32.6367 19.2905 33.2395 19.7404C33.6211 20.0252 34.5811 20.0554 35.0781 19.7985ZM45.3333 19.7623C45.529 19.643 45.8002 19.3104 45.9501 19.0058C46.2132 18.4716 46.2185 18.398 46.2554 14.7638C46.2957 10.7792 46.2316 10.0597 45.7635 9.25212C45.5035 8.80333 44.8833 8.42565 44.4062 8.42565C43.9466 8.42565 43.2881 8.73482 42.7861 9.18618L42.2368 9.67993V4.83717H40.2183V19.8639H42.2368V18.8286L42.6972 19.2446C42.9504 19.4732 43.3163 19.7295 43.5102 19.8138C44.0308 20.0405 44.9183 20.0155 45.3333 19.7623ZM42.6572 17.9331L42.2367 17.6893V10.8118L42.7344 10.5478C43.1382 10.3336 43.2915 10.3048 43.5474 10.3946C44.1004 10.5888 44.1599 11.0172 44.1216 14.5191L44.087 17.6409L43.7724 17.9113C43.3872 18.2426 43.1979 18.2463 42.6572 17.9331ZM52.105 19.7425C53.1887 19.2512 53.6768 18.4203 53.7621 16.9213L53.8182 15.9391H51.6563V16.6048C51.6563 17.42 51.53 17.7762 51.1532 18.0231C50.7285 18.3012 50.2007 18.1245 49.9465 17.6189C49.793 17.3137 49.7503 16.9419 49.7503 15.911L49.75 14.5933H53.787V12.9468C53.787 10.8744 53.625 10.2139 52.9262 9.43681C52.3088 8.75018 51.6473 8.47678 50.6471 8.49517C49.818 8.51031 49.2641 8.71699 48.6822 9.2279C47.7312 10.063 47.587 10.807 47.6439 14.5935C47.6809 17.0537 47.7216 17.6531 47.8813 18.0762C48.154 18.7986 48.6466 19.3486 49.3232 19.6858C50.0857 20.0655 51.3361 20.0911 52.105 19.7425ZM49.7501 12.0665C49.7501 10.6717 50.1079 10.1958 51.0084 10.3936C51.4604 10.4929 51.6566 10.9989 51.6566 12.0666V12.9112H49.7502V12.0666L49.7501 12.0665ZM30.462 13.416V6.96794H32.9291V4.83728H25.8643V6.96794H28.2192V19.864H30.462V13.416Z" fill="#D02726"/>
</g>
</svg>
