<svg xmlns="http://www.w3.org/2000/svg" width="138" height="24" viewBox="0 0 138 24" fill="none">
  <path d="M32.7757 19.7613H35.4627C35.5746 19.7613 35.6726 19.6658 35.6726 19.5567V13.4606H40.4867C40.5706 13.4606 40.6546 13.406 40.6826 13.3242L41.5363 11.033C41.5782 10.9239 41.5223 10.8148 41.4103 10.7739C41.3823 10.7603 41.3683 10.7603 41.3403 10.7603H35.6726V6.94169H42.9077C42.9917 6.94169 43.0757 6.88713 43.1036 6.80531L43.9713 4.51415C44.0133 4.40504 43.9573 4.29594 43.8454 4.25503C43.8174 4.24139 43.8034 4.24139 43.7754 4.24139H32.7757C32.6638 4.24139 32.5658 4.33685 32.5658 4.44596V19.5567C32.5658 19.6795 32.6638 19.7613 32.7757 19.7613Z" fill="#0373FF"/>
  <path d="M49.9889 4.37777L44.3491 19.4885C44.3072 19.5976 44.3631 19.7067 44.4751 19.7476C44.5031 19.7613 44.5171 19.7613 44.5451 19.7613H47.344C47.4279 19.7613 47.5119 19.7067 47.5399 19.6249L48.4495 17.0201H54.1173L55.0129 19.6249C55.0409 19.7067 55.1249 19.7613 55.2088 19.7613H57.9937C58.1057 19.7613 58.2036 19.6658 58.2036 19.5567C58.2036 19.5294 58.2036 19.5158 58.1896 19.4885L52.5359 4.37777C52.5079 4.29594 52.4239 4.24139 52.34 4.24139H50.1988C50.1009 4.24139 50.0309 4.29594 49.9889 4.37777ZM49.3312 14.4698L51.3464 8.82371L53.2916 14.4698H49.3312Z" fill="#0373FF"/>
  <path d="M70.9246 13.747L64.6691 4.33685C64.6271 4.2823 64.5571 4.24139 64.4872 4.24139H62.0381C61.9262 4.24139 61.8282 4.33685 61.8282 4.44596V19.5567C61.8282 19.6658 61.9262 19.7613 62.0381 19.7613H64.7251C64.837 19.7613 64.935 19.6658 64.935 19.5567V10.2284L71.1905 19.6658C71.2325 19.7204 71.3025 19.7613 71.3724 19.7613H73.8215C73.9334 19.7613 74.0314 19.6658 74.0314 19.5567V4.44596C74.0314 4.33685 73.9334 4.24139 73.8215 4.24139H71.1345C71.0226 4.24139 70.9246 4.33685 70.9246 4.44596V13.747Z" fill="#0373FF"/>
  <path d="M104.021 14.3334C104.021 16.12 102.93 17.1974 101.251 17.1974C99.5712 17.1974 98.4937 16.1336 98.4937 14.3334V4.44596C98.4937 4.33685 98.3957 4.24139 98.2838 4.24139H95.5968C95.4849 4.24139 95.3869 4.33685 95.3869 4.44596V14.4425C95.3869 17.7429 97.9899 19.8977 101.251 19.8977C104.511 19.8977 107.114 17.7429 107.114 14.4425V4.44596C107.114 4.33685 107.016 4.24139 106.904 4.24139H104.245C104.133 4.24139 104.035 4.33685 104.035 4.44596L104.021 14.3334Z" fill="#0373FF"/>
  <path d="M122.69 6.80531L123.544 4.51415C123.586 4.40504 123.53 4.29594 123.418 4.25503C123.39 4.24139 123.376 4.24139 123.348 4.24139H112.362C112.25 4.24139 112.152 4.33685 112.152 4.44596V19.5567C112.152 19.6658 112.25 19.7613 112.362 19.7613H123.348C123.46 19.7613 123.558 19.6658 123.558 19.5567C123.558 19.5294 123.558 19.5158 123.544 19.4885L122.69 17.1974C122.662 17.1155 122.578 17.061 122.494 17.061H115.259V13.2833H121.081C121.193 13.2833 121.291 13.1878 121.291 13.0787V10.7876C121.291 10.6785 121.193 10.583 121.081 10.583H115.259V6.94169H122.494C122.578 6.94169 122.662 6.88713 122.69 6.80531Z" fill="#0373FF"/>
  <path d="M136.95 17.061H130.373V4.44596C130.373 4.33685 130.275 4.24139 130.163 4.24139C130.163 4.24139 130.163 4.24139 130.149 4.24139H127.462C127.35 4.24139 127.252 4.33685 127.252 4.44596V19.5567C127.252 19.6658 127.35 19.7613 127.462 19.7613H137.79C137.902 19.7613 138 19.6658 138 19.5567C138 19.5294 138 19.5158 137.986 19.4885L137.132 17.1974C137.118 17.1155 137.034 17.061 136.95 17.061Z" fill="#0373FF"/>
  <path d="M89.2713 5.72792C88.2217 4.70508 86.7243 4.24139 85.059 4.24139H78.7335C78.6215 4.24139 78.5236 4.33685 78.5236 4.44596C78.5236 4.45959 78.5236 4.47323 78.5236 4.48687L78.9854 6.77803C79.0134 6.8735 79.0834 6.94169 79.1813 6.94169H84.7371C85.8147 6.94169 86.5284 7.26899 87.0602 7.89634C87.648 8.59187 87.7319 9.57379 87.7319 11.9331C87.7319 14.2925 87.648 15.3972 87.0602 16.0927C86.5284 16.72 85.8007 17.0473 84.7371 17.0473H82.428V8.98737C82.428 8.87826 82.3301 8.7828 82.2181 8.7828H79.5312C79.4192 8.7828 79.3213 8.87826 79.3213 8.98737V19.5704C79.3213 19.6795 79.4192 19.7749 79.5312 19.7749H85.073C86.7243 19.7749 88.2357 19.3112 89.2853 18.2884C91.0766 16.5427 90.8947 14.2789 90.8947 11.9468C90.8807 9.60107 91.0626 7.45993 89.2713 5.72792Z" fill="#0373FF"/>
  <path d="M10.1887 3.96862C10.6645 2.97306 11.2103 2.03204 11.84 1.15922C12.0919 0.804634 12.3578 0.477325 12.6237 0.163654C12.6657 0.0954651 12.6237 0 12.5397 0C12.4698 0 12.3998 0 12.3298 0C9.51693 0 6.802 0.463688 4.283 1.30924C2.98152 1.74565 1.72202 2.29116 0.518497 2.93214C0.18263 3.10943 -0.0132921 3.45038 0.000702336 3.8186C0.0286912 5.18239 0.18263 6.50526 0.448525 7.80086C0.68643 9.01463 1.0223 10.2011 1.44213 11.3467C1.94593 12.7241 2.57568 14.047 3.33138 15.2881C4.70284 17.5928 6.45214 19.6522 8.50933 21.3842C8.85919 21.6842 9.22304 21.9706 9.5869 22.2434C9.67087 22.2979 9.78282 22.2161 9.74084 22.1343C9.5869 21.766 9.44696 21.3842 9.32101 21.0023C8.69126 19.1612 8.29941 17.1837 8.17346 15.138C8.17346 15.0426 8.13148 14.9607 8.08949 14.8926C7.5717 14.197 7.10988 13.4879 6.69005 12.7241C7.0679 12.5196 7.47374 12.3423 7.87958 12.1923C8.06151 12.1241 8.17346 11.9604 8.18746 11.7695C8.28542 10.4057 8.49533 9.05554 8.8312 7.77358C8.84519 7.7054 8.78922 7.63721 8.71924 7.65084C7.44575 7.93724 6.21424 8.36001 5.08069 8.91917C4.75881 7.85541 4.52091 6.76438 4.38096 5.64608C6.08829 4.93691 7.92156 4.45958 9.82481 4.22774C9.96475 4.22774 10.1047 4.11864 10.1887 3.96862Z" fill="#0373FF"/>
  <path d="M24.1412 2.93215C22.9376 2.29117 21.6921 1.7593 20.3767 1.30925C18.6273 0.722818 16.8081 0.32732 14.9048 0.13639C14.7509 0.122752 14.6109 0.177303 14.499 0.272768C13.4774 1.29561 12.5678 2.53665 11.826 3.95499C11.7981 4.02318 11.84 4.09137 11.91 4.09137C12.05 4.09137 12.1759 4.09137 12.3159 4.09137C15.1427 4.09137 17.8437 4.65052 20.3067 5.65973C20.1667 6.77803 19.9288 7.8827 19.607 8.93281C19.2011 10.2557 18.6553 11.524 17.9836 12.7241C16.5842 15.2335 14.6389 17.4292 12.3159 19.1339C11.5042 18.5339 10.7485 17.8929 10.0488 17.1837C9.97878 17.1155 9.86682 17.1701 9.88082 17.2656C10.0627 18.302 10.3007 19.3112 10.6085 20.2659C11.0424 21.6024 11.6021 22.8298 12.2739 23.9481C12.3019 23.989 12.3578 24.0163 12.4138 23.989C13.7433 23.2253 15.0028 22.3525 16.1643 21.3706C18.2075 19.6385 19.9708 17.5792 21.3423 15.2744C22.084 14.0197 22.7137 12.7105 23.2315 11.3331C23.6514 10.1875 23.9872 9.001 24.2251 7.78723C24.477 6.49164 24.631 5.15512 24.673 3.80498C24.673 3.43675 24.477 3.09581 24.1412 2.93215Z" fill="#0373FF"/>
</svg>