<svg xmlns="http://www.w3.org/2000/svg" width="84" height="27" viewBox="0 0 84 27" fill="none">
  <path fill-rule="evenodd" clip-rule="evenodd" d="M19.9527 11.5494C20.171 10.2901 20.2471 9.09769 20.2471 8.04654C20.2469 5.64005 19.849 3.97516 19.8413 3.94324C19.8092 3.81327 19.694 3.72272 19.5625 3.72272C19.5424 3.72272 19.5228 3.72502 19.5039 3.72892L19.5052 3.72852C17.9404 4.0411 16.6331 4.16398 15.5452 4.16398C12.828 4.16308 11.4833 3.40173 10.8991 2.91805C10.756 2.23364 11.0174 1.67011 11.5508 1.63939C11.5508 1.63939 11.6852 1.59947 12.9204 1.91365C14.2654 2.20283 14.5114 0.970402 14.5641 0.230469C14.5641 0.230469 14.075 0.700943 12.6322 0.436488C11.1891 0.172134 10.3047 1.74075 10.3091 2.56834C10.3092 2.58135 10.3069 2.6669 10.3188 2.80088C10.3158 2.80358 10.3135 2.80578 10.3103 2.80878C9.80567 3.27595 8.47064 4.16287 5.53819 4.16398C4.45081 4.16398 3.14408 4.0414 1.58053 3.72892L1.57873 3.72852C1.55904 3.72451 1.53985 3.72272 1.52166 3.72272C1.39055 3.72302 1.27513 3.81277 1.24265 3.94254C1.24135 3.94795 1.23435 3.97617 1.22256 4.0304C1.13962 4.40611 0.828125 5.96041 0.828125 8.08365C0.828125 9.12586 0.903075 10.305 1.11753 11.5493C1.51407 13.8492 2.30654 15.9449 3.47467 17.7829C3.46207 17.9425 3.44438 18.1062 3.419 18.2727C3.37643 18.552 3.31397 18.8382 3.22333 19.1245C3.14848 19.3986 3.04445 19.8517 2.72506 20.2216C2.39608 20.6024 2.35471 20.6696 2.15234 21.2644C2.15234 21.2644 1.3124 22.058 1.35058 22.588C1.35417 22.5991 1.36087 22.6123 1.37616 22.6177L1.37776 22.6188C1.55574 22.6856 2.64821 23.0572 3.89908 22.5919C3.92766 22.5754 3.93076 22.5602 3.93545 22.5388C3.94555 22.3752 3.99222 21.7547 4.13223 21.4638C4.29422 21.1271 4.38146 20.9902 4.33139 20.7657C4.28163 20.5413 4.26224 20.3519 4.38146 20.1344C4.42273 20.0585 4.51707 19.9641 4.64498 19.8611C4.71824 19.8021 4.80158 19.7395 4.88912 19.6743C6.35724 21.3555 8.20919 22.7574 10.414 23.8541C10.4536 23.8736 10.4976 23.8842 10.5419 23.8842C10.5867 23.8842 10.6302 23.8737 10.6696 23.8543C10.8353 23.7715 10.9993 23.6869 11.1609 23.6008C12.9012 22.6739 14.4092 21.5479 15.6679 20.2358C16.3046 19.5725 16.8776 18.8616 17.3845 18.1048C18.6667 16.1912 19.5304 13.9846 19.9527 11.5494ZM19.5555 3.98107L19.5568 3.98067L19.5625 3.98007C19.5742 3.98007 19.5878 3.98897 19.5915 4.00488C19.5955 4.01999 19.9902 5.66908 19.99 8.04654C19.99 9.08529 19.9147 10.2632 19.6994 11.5055C19.5063 12.6185 19.219 13.6813 18.8421 14.6891C18.9251 14.1099 18.9628 13.4607 18.9649 12.9528C18.9685 12.1384 18.8275 11.3927 18.0619 10.5571C18.0619 10.5571 18.383 9.64549 18.3669 8.67323C18.283 3.57663 13.3127 5.60219 11.8752 4.42182C11.4685 4.08793 11.1947 3.70911 11.0348 3.33989C11.7731 3.83698 13.1533 4.42212 15.5452 4.42142C16.6524 4.42142 17.9764 4.29655 19.5555 3.98107ZM1.08515 8.08365C1.08515 6.88488 1.18579 5.86905 1.28712 5.15095C1.33779 4.79184 1.38855 4.50718 1.42683 4.31146C1.44611 4.21341 1.4622 4.13766 1.4737 4.08593C1.48489 4.0344 1.49208 4.00518 1.49208 4.00518C1.49588 3.98937 1.50937 3.98026 1.52166 3.98026L1.52636 3.98067L1.52826 3.98107C3.10721 4.29655 4.43103 4.42112 5.53819 4.42112C8.32262 4.42212 9.73702 3.62926 10.3625 3.10545C10.4946 3.77855 10.9518 4.89691 12.5263 5.35237C14.2822 5.86028 18.1785 5.26492 17.1753 9.7227C17.1753 9.7227 16.4041 9.1722 15.4623 9.1408C15.244 9.13359 15.0038 9.1408 14.7432 9.18011C14.2034 9.26177 13.8266 9.09966 13.5641 8.92595C13.8332 8.96761 14.0739 8.98562 14.2897 8.98562C14.9035 8.98631 15.3184 8.84001 15.6087 8.71213C15.6468 8.69533 15.6829 8.67854 15.7171 8.66163C15.8361 8.6034 15.932 8.54701 16.0072 8.50714C16.1247 8.4444 16.2044 8.39454 16.2617 8.34791C16.2905 8.32442 16.314 8.30151 16.334 8.27346C16.3535 8.24605 16.3722 8.20952 16.3726 8.16202C16.3726 8.13813 16.3669 8.11309 16.3567 8.09225C16.347 8.07136 16.3338 8.05474 16.3208 8.04216C16.2864 8.00996 16.2544 7.99789 16.2257 7.98779C16.2053 7.98133 16.1929 7.97983 16.1777 7.97741C16.1344 7.97158 16.0771 7.96811 16.013 7.96511C15.985 7.9639 15.9557 7.96281 15.927 7.96188C15.825 7.95842 15.7301 7.95721 15.7102 7.95698C15.5465 7.94959 15.415 7.93568 15.3043 7.9141C15.1378 7.88143 15.0177 7.83371 14.8909 7.76007C14.7642 7.68672 14.6307 7.5848 14.4537 7.44831C14.4046 7.41057 14.3521 7.37034 14.2959 7.32752C14.2665 7.3053 14.2362 7.28239 14.2046 7.25879C13.9992 7.10499 13.7432 6.92158 13.403 6.70395C13.087 6.50197 12.782 6.33593 12.4858 6.20216C12.4116 6.16874 11.7605 5.89029 11.4963 5.79714C11.452 5.78144 11.4067 5.76621 11.3598 5.75161C10.6405 4.97305 9.77835 4.60163 8.90592 4.73231C7.23284 4.98305 5.03952 6.69576 4.12843 9.42376C4.04109 9.77078 3.97143 10.3214 4.18059 10.8862L4.52606 11.8193C4.52606 11.8193 4.06457 11.4355 3.83832 11.0336C3.75707 11.1399 3.35115 11.7277 3.38282 12.864C3.38422 12.9214 3.38632 12.9752 3.38872 13.029C3.4148 13.6196 3.48636 13.9824 3.54841 14.195C3.571 14.2724 3.59239 14.329 3.60967 14.3697C3.59628 14.475 3.58519 14.5807 3.5699 14.6844C3.55821 14.7649 3.54752 14.8506 3.53782 14.9367C3.49875 15.2814 3.47616 15.6335 3.47276 15.6982L3.47226 15.7081C3.47007 15.7326 3.46887 15.7595 3.46777 15.7877C3.46747 15.7958 3.46747 15.8048 3.46737 15.8133C3.46657 15.8351 3.46647 15.8577 3.46647 15.8815V15.9081C3.46687 15.938 3.46737 15.9692 3.46817 16.0019V16.0077C3.47686 16.3356 3.51114 16.799 3.49795 17.3305C2.45504 15.5992 1.73972 13.6443 1.37096 11.5055C1.1594 10.2781 1.08515 9.11356 1.08515 8.08365ZM14.2139 17.0807C14.2356 17.0978 14.2209 17.133 14.1937 17.1288C13.8327 17.0738 13.506 16.8209 13.7444 16.3228C13.931 15.9328 13.9935 15.687 14.0141 15.578C14.019 15.5523 14.0535 15.5481 14.0647 15.5717C14.1102 15.6646 14.1602 15.8817 14.0239 16.3228C13.8923 16.7475 14.0895 16.9812 14.2139 17.0807ZM12.2633 14.1482C12.2724 14.2409 12.28 14.3354 12.2825 14.426C12.2833 14.4564 12.2836 14.4862 12.2833 14.5155C12.281 14.6908 12.2547 14.8449 12.1774 14.9369C12.1387 14.9829 12.0781 15.037 12.003 15.0938C11.9528 15.1314 11.8965 15.1704 11.836 15.2091C11.7149 15.2868 11.5774 15.3636 11.4413 15.4271C11.3733 15.4589 11.306 15.4877 11.241 15.5115C11.1763 15.5354 11.1141 15.5545 11.0568 15.5673C10.971 15.5868 10.8961 15.5924 10.8403 15.5786C10.5422 15.5059 10.5445 15.4685 10.4002 15.3445C10.3849 15.3356 10.3721 15.3281 10.361 15.3214C10.2811 15.2745 10.2667 15.2763 9.89939 15.2743C9.62664 15.2725 9.37995 15.268 9.18196 15.2159C8.9842 15.1635 8.83491 15.0635 8.75653 14.8704C8.68868 14.7328 8.65352 14.6119 8.62332 14.5059C8.55698 14.2721 8.51519 14.1096 8.20509 13.9945C7.83696 13.858 7.40236 13.8216 7.06719 13.4437C7.04563 13.4197 7.02459 13.3935 7.00402 13.3663C6.99629 13.3562 6.98891 13.3452 6.98125 13.3347C6.96626 13.3139 6.95145 13.2921 6.93687 13.2694C6.93006 13.2587 6.92326 13.2481 6.91658 13.2372C6.89606 13.2031 6.87611 13.1681 6.85681 13.1301C6.51134 12.4494 6.48346 11.8526 6.48346 11.8526C6.48346 11.8526 6.43999 11.8982 6.38293 11.995C6.2752 12.1778 6.1197 12.5443 6.1202 13.1342C6.1207 13.3425 6.14009 13.5783 6.18826 13.844C6.18826 13.844 5.64222 12.8232 6.06014 11.73C6.08522 11.6696 6.11051 11.6119 6.13579 11.5569C6.38832 11.0058 6.64037 10.707 6.78758 10.5639C6.86119 10.4924 6.9088 10.4598 6.91687 10.4541C6.91548 10.456 6.91335 10.4615 6.91076 10.4706C6.89277 10.5336 6.8515 10.7646 6.85438 11.1077C6.85663 11.3526 6.88119 11.655 6.95324 11.9947C6.99629 12.1983 7.05675 12.4152 7.13924 12.641C7.13924 12.641 7.1499 12.6634 7.16339 12.6915C7.18587 12.738 7.2163 12.801 7.2163 12.801C7.23077 12.8259 7.24794 12.8529 7.26766 12.8814C7.35636 13.0102 7.49988 13.1719 7.72416 13.3175C7.84877 13.3986 7.99823 13.4746 8.17731 13.5373C9.06363 13.8478 8.99619 14.0022 9.05757 14.2475C9.08432 14.3548 9.12541 14.4851 9.19475 14.6011C9.23452 14.6675 9.28329 14.7291 9.34415 14.7792C9.37464 14.8044 9.4079 14.8267 9.44468 14.8449C9.49966 14.8727 9.56203 14.8921 9.63316 14.9001C9.73771 14.9129 9.84475 14.9221 9.94504 14.9282C9.97835 14.9299 10.011 14.9316 10.0426 14.9329C10.1687 14.9381 10.2768 14.9383 10.3445 14.9355C10.3953 14.9334 10.4347 14.9308 10.4749 14.9381C10.5422 14.9502 10.6117 14.99 10.7398 15.1068C10.7398 15.1068 10.9015 15.2451 11.2692 15.0442C11.4533 14.9439 11.582 14.8563 11.6655 14.7939C11.6757 14.7862 11.6854 14.7788 11.6944 14.7718C11.7393 14.7366 11.7667 14.7122 11.7786 14.701L11.7859 14.6943C11.7859 14.6943 11.7996 14.686 11.8162 14.6588C11.8427 14.6153 11.8765 14.5229 11.8721 14.3368C11.8704 14.2669 11.8636 14.1841 11.8488 14.0856C11.8402 14.0286 11.8369 13.965 11.8381 13.8964C11.8409 13.7363 11.8679 13.5487 11.9094 13.3511C11.9389 13.21 11.9758 13.0639 12.0168 12.9194C12.033 12.8615 12.0502 12.804 12.0674 12.7471C12.1976 12.3203 12.3497 11.9309 12.4281 11.7558C12.5953 11.3821 12.662 10.9173 12.662 10.9173C12.662 10.9173 12.6801 10.9652 12.6992 11.039C12.7211 11.1235 12.7438 11.2421 12.7419 11.3622C12.7418 11.3772 12.7412 11.3924 12.7401 11.4073C12.7401 11.4073 12.9165 11.3366 13.0507 11.1832C13.0658 11.1662 13.0802 11.1481 13.0939 11.1292C13.1618 11.0336 13.2094 10.9122 13.1992 10.7632C13.1972 10.7334 13.1927 10.7025 13.1858 10.6703C13.158 10.5427 13.0124 10.2489 12.942 9.96798C12.9165 9.86594 12.9088 9.75064 12.9091 9.66649C12.9091 9.64549 12.9104 9.62529 12.913 9.60619C12.9276 9.4873 12.9295 9.23256 12.8845 8.93604C12.8574 8.75789 12.8148 8.56485 12.7528 8.37694C12.616 7.96402 12.3839 7.57655 12.0087 7.43036C11.6967 7.30859 11.2588 7.25458 10.8373 7.27749C10.7062 7.28493 10.5769 7.29982 10.4534 7.32233C10.0416 7.39758 9.69592 7.55918 9.575 7.81732C9.53851 7.89488 9.52266 7.98098 9.53113 8.07627C9.60336 8.89086 11.3517 8.85225 11.3517 8.85225L12.1879 8.83944L12.1992 8.83961C12.2251 8.83822 12.2716 8.84001 12.2975 8.86373L12.311 8.87781L12.3166 8.89617L12.3155 8.89917L12.3157 8.90015C12.3194 8.94967 12.0218 9.13399 11.5632 9.30366C11.2885 9.40552 10.9556 9.50202 10.5952 9.56083C10.2951 9.60965 9.93276 9.63816 9.56462 9.61588C9.52773 9.61346 9.49067 9.61086 9.4539 9.60746C9.38024 9.60088 9.30646 9.59205 9.23326 9.58085C9.19648 9.57525 9.15977 9.56896 9.12351 9.56221C9.05083 9.54853 8.97878 9.53214 8.90777 9.51321C8.34014 9.36063 7.84427 9.02931 7.65159 8.39177C7.6034 8.23237 7.5804 8.07777 7.57856 7.9287C7.56986 7.25781 7.99085 6.70165 8.49081 6.35117C8.76846 6.15645 9.07054 6.02516 9.33654 5.97293C9.74221 5.8934 10.1503 5.84954 10.5719 5.86409C10.956 5.89917 11.2001 5.97535 11.4209 6.04305C11.6602 6.11651 12.3089 6.40478 12.3799 6.4367C12.6639 6.56499 12.9581 6.72496 13.2646 6.92101C13.5987 7.13471 13.849 7.31384 14.0507 7.46493C14.0816 7.48825 14.1117 7.51081 14.1403 7.53274C14.196 7.57499 14.2479 7.61498 14.2968 7.65244C14.415 7.74316 14.5164 7.82141 14.6148 7.88917C14.7619 7.99062 14.9045 8.06894 15.0751 8.12168C15.2456 8.17472 15.4408 8.20277 15.699 8.21414H15.703C15.703 8.21414 15.7289 8.21454 15.7689 8.21535C15.809 8.21604 15.8631 8.21725 15.9186 8.21916C15.9427 8.21985 15.9667 8.22077 15.9903 8.22187C15.9609 8.23924 15.9266 8.25869 15.8866 8.27987C15.8037 8.32402 15.7135 8.37694 15.6041 8.43055C15.5728 8.44567 15.54 8.4612 15.5052 8.47649C15.231 8.59647 14.8641 8.72765 14.2897 8.72817C14.0132 8.72817 13.6891 8.69724 13.3062 8.61771C13.2846 8.62671 13.2315 8.67744 13.2192 8.68725C13.2192 8.68725 13.2877 9.05383 13.2544 9.73782C13.2494 9.84453 13.6677 10.5992 13.5977 10.9948C13.5776 11.0858 13.5348 11.1734 13.4781 11.2556C13.2324 11.6119 12.7289 11.8679 12.7289 11.8679C12.7289 11.8679 12.5634 12.3183 12.4202 12.7759C12.3805 12.9029 12.3426 13.0306 12.3105 13.1492C12.2525 13.3629 12.2134 13.5477 12.2165 13.648C12.2206 13.782 12.2452 13.9621 12.2633 14.1482ZM10.5617 11.0728C10.307 11.1386 10.2693 11.3661 10.1275 11.4036C10.0102 11.4348 9.97155 11.316 10.0673 11.1598C10.1633 11.0039 10.3193 10.7741 10.713 10.7178C11.1064 10.6616 11.206 10.9898 11.3693 11.128C11.41 11.1622 11.4484 11.19 11.483 11.2123C11.5524 11.2574 11.6072 11.2814 11.638 11.298C11.6532 11.3065 11.6625 11.313 11.6644 11.3194L11.5768 11.4817C11.5768 11.4817 11.4837 11.4297 11.3726 11.3918C11.3616 11.3881 11.3502 11.3844 11.3389 11.3809C11.3163 11.374 11.2932 11.3679 11.2702 11.363C11.2358 11.3559 11.2019 11.3518 11.1704 11.3525C11.096 11.354 11.0841 11.3974 11.0496 11.4359C11.0288 11.4587 10.9998 11.4798 10.9442 11.489C10.8031 11.5121 10.7533 11.4774 10.7191 11.4194C10.6856 11.3624 10.7252 11.1941 10.7252 11.1941C10.7513 11.0474 10.5617 11.0728 10.5617 11.0728ZM10.5283 23.6234C8.35674 22.5429 6.53762 21.1669 5.09559 19.5196C5.26128 19.3902 5.58196 19.1162 5.78842 18.7832C5.96201 18.5032 5.93742 18.2716 5.94851 18.2792C4.57463 17.3324 4.60506 13.9562 4.60506 13.9562L5.13736 16.0703C5.60534 17.9758 6.49535 18.1769 6.62994 18.0265C6.916 17.7075 7.37135 16.2346 7.39896 16.2705C7.40674 16.6174 6.98321 17.921 6.98453 17.9217C6.94038 18.0537 6.89617 18.1801 6.85312 18.2968C6.83865 18.3359 6.82435 18.3736 6.81012 18.4104C6.75369 18.557 6.69899 18.6846 6.64873 18.7839C6.54182 18.9951 6.48006 19.206 6.46388 19.4085C6.45078 19.5706 6.46657 19.7273 6.51134 19.8747C6.58979 20.1323 6.75669 20.3613 7.01162 20.5395C7.64467 20.9814 7.76911 21.0136 7.82358 21.0584C7.85644 21.0853 7.87021 21.113 7.94117 21.2435C8.05079 21.445 8.08711 21.537 8.20071 21.6272C8.21691 21.6402 8.28648 21.6886 8.36153 21.713C8.39836 21.7252 8.43703 21.7298 8.47231 21.7298C8.67549 21.7295 9.16507 21.6486 9.16507 21.6486C9.16507 21.6486 9.34346 21.6141 9.47805 21.3428C9.575 21.147 9.64687 20.8921 9.65206 20.6121C9.65396 20.5188 9.64866 20.4227 9.63546 20.3256C9.63085 20.2932 9.62595 20.2613 9.62024 20.2297C9.55269 19.85 9.4064 19.5275 9.35038 19.4138C9.34075 19.3943 9.33418 19.3813 9.33078 19.3748L9.32876 19.3713L9.32825 19.3705C9.32825 19.3705 9.15256 19.3554 8.74436 19.5873L8.73088 19.5915L8.72788 19.5906L8.72258 19.5868L8.72119 19.583L8.71935 19.5738V19.5682L8.72085 19.5526L8.72165 19.5471C8.72465 19.5306 8.72978 19.5104 8.73687 19.488L8.73854 19.4834C8.74154 19.4736 8.74494 19.4636 8.74857 19.453L8.75134 19.4454C8.75474 19.4356 8.75825 19.426 8.76206 19.4159L8.76511 19.4077C8.76915 19.3975 8.77301 19.3871 8.77693 19.3768L8.77964 19.3704C8.78961 19.3454 8.79952 19.3211 8.80909 19.2989L8.8129 19.2899L8.82189 19.2687L8.82788 19.2551L8.83272 19.2442C8.84569 19.2149 8.8544 19.1956 8.8544 19.1956C8.8544 19.1956 8.86517 19.1588 8.91434 19.1006C8.97722 19.0261 9.10363 18.9163 9.35188 18.8052C9.81795 18.5961 10.2305 18.4763 10.5524 18.3658C10.6443 18.334 10.7289 18.3032 10.8054 18.2709C11.0725 18.159 11.2385 18.033 11.2666 17.8133C11.2702 17.7853 11.2623 17.7533 11.243 17.7176C11.2368 17.7057 11.229 17.6934 11.2201 17.6807C11.5696 17.5782 12.3905 17.3067 13.0224 16.7513C13.0224 16.7513 13.0817 16.7986 13.0424 16.9059C13.0383 16.9168 13.0326 16.929 13.0254 16.9422C12.9381 17.0997 12.623 17.3999 12.18 17.655C12.0694 17.7187 11.9505 17.7797 11.8254 17.8349C11.8254 17.8349 12.142 18.7934 11.7001 19.4419C11.6173 19.5634 11.5473 19.6667 11.4873 19.7551C11.2475 20.1093 11.1693 20.2293 11.0712 20.3572C11.0631 20.3678 11.0547 20.3786 11.0462 20.3895C11.0206 20.4223 10.987 20.4697 10.9491 20.5278C10.7854 20.7789 10.5445 21.2252 10.5445 21.5038C10.5445 21.5038 10.8591 21.5659 11.1379 21.5816C11.1779 21.5837 11.2169 21.5849 11.2543 21.5849C11.5793 21.5849 11.8629 21.5775 12.0754 21.5356C12.2407 21.5029 12.3632 21.449 12.4285 21.3618C12.4285 21.3618 12.4907 20.3645 12.7273 20.1774C12.9344 20.0137 13.0079 19.8979 13.0145 19.7504C13.0156 19.7293 13.0152 19.7075 13.0137 19.6851C13.0014 19.5043 12.939 19.367 13.2814 19.0803C13.6237 18.7934 13.7796 18.2701 14.5889 17.8212C14.5889 17.8212 14.9019 17.7132 14.84 17.2384C15.0027 17.2722 15.1337 17.1984 15.2155 17.1305C14.3518 15.0182 15.0034 14.04 15.1032 13.9083L15.1041 13.9093C14.6268 16.1076 15.9608 17.8951 16.6018 18.7541C16.1822 19.3015 15.7246 19.8218 15.2298 20.3145C14.5474 20.9944 13.7941 21.6218 12.9721 22.1946C12.2232 22.7165 11.4176 23.1933 10.5562 23.6232L10.5419 23.6269L10.5283 23.6234Z" fill="#FF1950"/>
  <path fill-rule="evenodd" clip-rule="evenodd" d="M26.527 15.9105V23.884H27.8353V20.9908H29.6668C30.2129 20.9908 30.6945 20.8864 31.1117 20.6775C31.5286 20.4688 31.8511 20.1726 32.0787 19.789C32.3062 19.4057 32.42 18.9595 32.42 18.4507C32.42 17.942 32.3062 17.4957 32.0787 17.1122C31.8511 16.7288 31.5286 16.4327 31.1117 16.2238C30.6945 16.015 30.2129 15.9105 29.6668 15.9105H26.527ZM27.8353 17.0496H29.5646C30.0346 17.0496 30.4063 17.1749 30.6793 17.4255C30.9524 17.676 31.089 18.0177 31.089 18.4507C31.089 18.8759 30.9505 19.2157 30.6737 19.4701C30.3967 19.7245 30.0233 19.8516 29.5531 19.8516H27.8353V17.0496ZM36.1217 18.0519C35.6741 18.0519 35.3176 18.1299 35.0523 18.2854C34.7867 18.4412 34.5706 18.6556 34.4039 18.929L34.2673 18.0519H33.1753V23.884H34.4039V20.9565C34.4039 20.4479 34.5177 20.0282 34.7452 19.6979C34.9728 19.3676 35.3405 19.2024 35.8487 19.2024H36.3948V18.0519H36.1217ZM39.745 23.9523C40.3289 23.9523 40.8465 23.8289 41.2978 23.5821C41.749 23.3354 42.0979 22.9861 42.3444 22.5342C42.5908 22.0825 42.7141 21.5603 42.7141 20.968C42.7141 20.3832 42.5908 19.8649 42.3444 19.4132C42.0979 18.9614 41.749 18.6101 41.2978 18.3595C40.8465 18.109 40.3289 17.9837 39.745 17.9837C39.1609 17.9837 38.6433 18.109 38.1921 18.3595C37.7407 18.6101 37.3919 18.9614 37.1454 19.4132C36.8989 19.8649 36.7758 20.3832 36.7758 20.968C36.7758 21.5603 36.8989 22.0825 37.1454 22.5342C37.3919 22.9861 37.7407 23.3354 38.1921 23.5821C38.6433 23.8289 39.1609 23.9523 39.745 23.9523ZM39.745 22.9043C39.2291 22.9043 38.8158 22.7242 38.5049 22.3633C38.1939 22.0027 38.0385 21.5374 38.0385 20.968C38.0385 20.3984 38.1939 19.9333 38.5049 19.5726C38.8158 19.2119 39.2291 19.0315 39.745 19.0315C40.2607 19.0315 40.6759 19.2119 40.9906 19.5726C41.3053 19.9333 41.4629 20.3984 41.4629 20.968C41.4629 21.5374 41.3053 22.0027 40.9906 22.3633C40.6759 22.7242 40.2607 22.9043 39.745 22.9043ZM51.7014 23.884V22.7221H48.2771V15.9105H46.969V23.884H51.7014ZM52.1724 20.9793C52.1724 21.5716 52.2956 22.0918 52.5422 22.5399C52.7885 22.988 53.1374 23.3354 53.5888 23.5821C54.0398 23.8289 54.569 23.9523 55.1758 23.9523C55.8734 23.9523 56.4557 23.7626 56.9221 23.3828C57.3884 23.003 57.6748 22.517 57.781 21.9247H56.5524C56.4687 22.2513 56.2982 22.5039 56.0404 22.6822C55.7824 22.8608 55.4639 22.9499 55.0849 22.9499C54.607 22.9499 54.2239 22.8017 53.9359 22.5057C53.6474 22.2095 53.4882 21.807 53.458 21.2982V21.2299H57.8492C57.872 21.0704 57.8833 20.9149 57.8833 20.7629C57.8757 20.201 57.7487 19.7111 57.5023 19.2936C57.2559 18.8759 56.9182 18.5532 56.4897 18.3254C56.0611 18.0975 55.5665 17.9837 55.0052 17.9837C54.4515 17.9837 53.9604 18.1072 53.5319 18.3537C53.1033 18.6007 52.7698 18.95 52.5309 19.4019C52.2918 19.8536 52.1724 20.3796 52.1724 20.9793ZM53.5035 20.3301C53.549 19.9201 53.7177 19.5916 54.0098 19.3448C54.3017 19.0981 54.6486 18.9746 55.0507 18.9746C55.483 18.9746 55.8414 19.0941 56.1258 19.3333C56.4101 19.5726 56.579 19.9049 56.632 20.3301H53.5035ZM64.1335 22.8132C63.8753 22.8132 63.7467 22.6764 63.7467 22.4031V20.1022C63.7467 19.4188 63.5341 18.8949 63.1093 18.5303C62.685 18.1658 62.0816 17.9837 61.3006 17.9837C60.5651 17.9837 59.9697 18.145 59.5149 18.4677C59.0596 18.7906 58.8019 19.2441 58.7408 19.8289H59.9472C59.9927 19.5707 60.1311 19.3638 60.3622 19.208C60.5933 19.0524 60.8873 18.9746 61.2441 18.9746C61.6458 18.9746 61.9605 19.0677 62.1882 19.2537C62.4159 19.4398 62.5294 19.6961 62.5294 20.0225V20.3756H61.0619C60.2504 20.3756 59.6319 20.537 59.2077 20.8597C58.7829 21.1826 58.5702 21.6439 58.5702 22.2437C58.5702 22.7752 58.7673 23.193 59.1622 23.4966C59.5564 23.8005 60.0798 23.9523 60.7317 23.9523C61.5738 23.9523 62.2147 23.6181 62.6545 22.9499C62.6545 23.2538 62.7381 23.4853 62.9046 23.6447C63.0718 23.8042 63.3444 23.884 63.7243 23.884H64.3721V22.8132H64.1335ZM62.5294 21.4919C62.5219 21.9474 62.3761 22.3121 62.0914 22.5854C61.8072 22.8588 61.4106 22.9955 60.9023 22.9955C60.5685 22.9955 60.3051 22.9196 60.112 22.7676C59.9184 22.6159 59.8215 22.4146 59.8215 22.164C59.8215 21.8755 59.9241 21.6571 60.1288 21.509C60.3339 21.3609 60.6256 21.2869 61.0049 21.2869H62.5294V21.4919ZM69.5625 18.0519L69.4259 18.9632C69.2282 18.6595 68.9706 18.4204 68.6518 18.2456C68.3336 18.071 67.9544 17.9837 67.5146 17.9837C66.9912 17.9837 66.5209 18.1072 66.1036 18.3537C65.6869 18.6007 65.3589 18.948 65.1197 19.3959C64.8811 19.8441 64.7618 20.3605 64.7618 20.9452C64.7618 21.5528 64.8788 22.0786 65.1139 22.5228C65.3491 22.967 65.6753 23.3086 66.0927 23.548C66.5094 23.7872 66.9837 23.9067 67.5146 23.9067C68.3561 23.9067 68.9896 23.5878 69.4144 22.9499V23.5993C69.4144 24.685 68.857 25.228 67.7423 25.228C67.31 25.228 66.9572 25.1387 66.684 24.9604C66.4108 24.7818 66.2362 24.5294 66.1607 24.2028H64.9093C64.9623 24.8482 65.2356 25.3475 65.7284 25.7009C66.2212 26.0539 66.8621 26.2305 67.6512 26.2305C68.6674 26.2305 69.4184 26.0044 69.9037 25.5527C70.3891 25.1009 70.6317 24.4649 70.6317 23.6447V18.0519H69.5625ZM67.7192 22.8703C67.2108 22.8703 66.8016 22.6918 66.4903 22.3347C66.1797 21.978 66.0241 21.5148 66.0241 20.9452C66.0241 20.3756 66.1797 19.9124 66.4903 19.5555C66.8016 19.1985 67.2108 19.0201 67.7192 19.0201C68.2276 19.0201 68.6368 19.2006 68.9481 19.5611C69.2587 19.922 69.4144 20.3909 69.4144 20.968C69.4144 21.53 69.2587 21.9874 68.9481 22.3405C68.6368 22.6937 68.2276 22.8703 67.7192 22.8703ZM75.8987 18.0519V20.9452C75.8987 21.5451 75.7662 22.0178 75.5005 22.3633C75.2353 22.7089 74.8676 22.8816 74.3973 22.8816C73.9494 22.8816 73.6122 22.7334 73.3845 22.4372C73.1569 22.1412 73.0433 21.7083 73.0433 21.1388V18.0519H71.815V21.264C71.815 22.2057 72.0271 22.8892 72.4519 23.3144C72.8767 23.7398 73.4301 23.9523 74.1131 23.9523C74.871 23.9523 75.4705 23.6829 75.9103 23.1436L76.0469 23.884H77.1276V18.0519H75.8987ZM78.1173 20.9793C78.1173 21.5716 78.2406 22.0918 78.4867 22.5399C78.7334 22.988 79.0821 23.3354 79.5334 23.5821C79.9848 23.8289 80.5139 23.9523 81.1208 23.9523C81.8183 23.9523 82.4004 23.7626 82.8667 23.3828C83.333 23.003 83.6195 22.517 83.7255 21.9247H82.4972C82.4137 22.2513 82.2431 22.5039 81.9848 22.6822C81.7272 22.8608 81.409 22.9499 81.0298 22.9499C80.5514 22.9499 80.1686 22.8017 79.8804 22.5057C79.5922 22.2095 79.4332 21.807 79.4026 21.2982V21.2299H83.7941C83.8166 21.0704 83.8281 20.9149 83.8281 20.7629C83.8206 20.201 83.6932 19.7111 83.4471 19.2936C83.2004 18.8759 82.8627 18.5532 82.4344 18.3254C82.0056 18.0975 81.511 17.9837 80.9496 17.9837C80.3963 17.9837 79.9052 18.1072 79.4764 18.3537C79.0481 18.6007 78.7144 18.95 78.4758 19.4019C78.2366 19.8536 78.1173 20.3796 78.1173 20.9793ZM79.4481 20.3301C79.4937 19.9201 79.6626 19.5916 79.9548 19.3448C80.2464 19.0981 80.5934 18.9746 80.9952 18.9746C81.4275 18.9746 81.786 19.0941 82.0707 19.3333C82.3549 19.5726 82.5238 19.9049 82.5768 20.3301H79.4481Z" fill="#FF1950"/>
  <path fill-rule="evenodd" clip-rule="evenodd" d="M26.0946 8.86431C26.0869 9.86669 26.3334 10.6318 26.8341 11.1594C27.3346 11.6874 28.055 11.9511 28.9955 11.9511C29.9512 11.9511 30.6773 11.6931 31.1742 11.1766C31.6709 10.6602 31.9193 9.87806 31.9193 8.83009V3.90939H30.611V8.85288C30.611 9.52118 30.4762 10.013 30.2072 10.328C29.9378 10.6433 29.5339 10.8007 28.9955 10.8007C28.4723 10.8007 28.0759 10.6298 27.8067 10.2881C27.5374 9.94645 27.4029 9.47195 27.4029 8.86431H26.0946ZM37.2058 6.05072V8.94395C37.2058 9.54397 37.0729 10.0167 36.8076 10.3621C36.5421 10.7078 36.1744 10.8804 35.7042 10.8804C35.2566 10.8804 34.9192 10.7324 34.6916 10.4362C34.4641 10.14 34.3504 9.70718 34.3504 9.13763V6.05072H33.1217V9.26292C33.1217 10.2046 33.334 10.8881 33.7588 11.3132C34.1834 11.7387 34.7372 11.9511 35.4197 11.9511C36.178 11.9511 36.7773 11.6818 37.2172 11.1425L37.3538 11.8828H38.4344V6.05072H37.2058ZM42.7983 5.98239C42.002 5.98239 41.3687 6.29397 40.8985 6.91656L40.7506 6.05072H39.6811V14.1609H40.9098V11.0627C41.0993 11.3361 41.3535 11.5525 41.672 11.7119C41.9906 11.8715 42.3661 11.9511 42.7983 11.9511C43.3292 11.9511 43.8033 11.8278 44.2203 11.581C44.6374 11.3342 44.9635 10.985 45.1989 10.533C45.4337 10.0813 45.5514 9.55909 45.5514 8.96686C45.5514 8.3594 45.4337 7.82967 45.1989 7.37785C44.9635 6.92614 44.6374 6.58045 44.2203 6.3413C43.8033 6.10208 43.3292 5.98239 42.7983 5.98239ZM42.5936 10.9146C42.0853 10.9146 41.6758 10.7324 41.3649 10.3679C41.0539 10.0034 40.8985 9.52885 40.8985 8.94395C40.8985 8.37452 41.0539 7.91312 41.3649 7.56004C41.6758 7.20702 42.0853 7.03043 42.5936 7.03043C43.1016 7.03043 43.513 7.20892 43.8279 7.56575C44.1425 7.92275 44.3001 8.38981 44.3001 8.96686C44.3001 9.53641 44.1425 10.0034 43.8279 10.3679C43.513 10.7324 43.1016 10.9146 42.5936 10.9146ZM47.1406 3.71567C46.9282 3.71567 46.75 3.78601 46.606 3.92639C46.4617 4.06698 46.3899 4.24358 46.3899 4.45601C46.3899 4.66873 46.4617 4.84544 46.606 4.98582C46.75 5.1264 46.9282 5.19644 47.1406 5.19644C47.3528 5.19644 47.5312 5.1264 47.6754 4.98582C47.8193 4.84544 47.8916 4.66873 47.8916 4.45601C47.8916 4.24358 47.8193 4.06698 47.6754 3.92639C47.5312 3.78601 47.3528 3.71567 47.1406 3.71567ZM46.5264 11.8828H47.755V6.05072H46.5264V11.8828ZM49.0141 11.8828H50.2428V3.90929H49.0141V11.8828ZM51.2518 8.97817C51.2518 9.57052 51.375 10.0907 51.6214 10.5388C51.868 10.9868 52.2168 11.3342 52.6683 11.581C53.1194 11.8278 53.6483 11.9511 54.2552 11.9511C54.953 11.9511 55.535 11.7615 56.0015 11.3815C56.468 11.0019 56.7541 10.5159 56.8604 9.92359H55.6317C55.5483 10.2502 55.3776 10.5027 55.1197 10.6811C54.8619 10.8597 54.5433 10.9488 54.1642 10.9488C53.6864 10.9488 53.3034 10.8007 53.0153 10.5046C52.7269 10.2085 52.5675 9.80592 52.5374 9.29714V9.2287H56.9287C56.9513 9.06941 56.9629 8.91383 56.9629 8.76176C56.9551 8.19988 56.828 7.71009 56.5817 7.29238C56.3352 6.87484 55.9976 6.55194 55.5691 6.3241C55.1407 6.09626 54.6457 5.98239 54.0847 5.98239C53.5309 5.98239 53.0398 6.10595 52.6114 6.35261C52.1827 6.59944 51.8491 6.94888 51.6102 7.40053C51.3712 7.85252 51.2518 8.37838 51.2518 8.97817ZM52.5828 8.32898C52.6283 7.91883 52.7971 7.59057 53.0891 7.34362C53.3811 7.09697 53.728 6.97346 54.1301 6.97346C54.5623 6.97346 54.9208 7.09304 55.2052 7.33231C55.4896 7.57141 55.6583 7.90382 55.7115 8.32898H52.5828ZM60.8987 6.05072C60.4514 6.05072 60.0947 6.1288 59.8295 6.28439C59.5638 6.4401 59.3477 6.65449 59.1811 6.92793L59.0445 6.05072H57.9523V11.8828H59.1811V8.95543C59.1811 8.44683 59.2946 8.02698 59.5223 7.6967C59.75 7.36653 60.1177 7.20131 60.6261 7.20131H61.1719V6.05072H60.8987Z" fill="#FF1950"/>
</svg>