<svg xmlns="http://www.w3.org/2000/svg" width="74" height="19" viewBox="0 0 74 19" fill="none">
  <path d="M24.5162 0.230475C21.797 0.226918 19.9961 1.65833 19.7428 3.79866C19.6837 4.29331 19.6228 4.78776 19.5602 5.28199H54.941C54.941 5.28199 55.0075 4.76058 55.0592 4.34208C55.3252 2.18593 54.4079 0.230739 51.0711 0.230739C51.0711 0.230739 25.9498 0.232057 24.5162 0.230475ZM2.92376 0.231134L2.3028 5.28199H18.3481L18.9666 0.231266L2.92376 0.231134ZM56.7841 0.231134L56.1645 5.28199H73.5588C73.5588 5.28199 73.5799 5.09935 73.657 4.50481C74.0803 1.18949 71.9384 0.231134 69.8705 0.231134H56.7841ZM55.9248 7.20516L54.5694 18.2285L60.5706 18.2264L61.927 7.20727L55.9248 7.20516ZM67.3254 7.20516L65.9679 18.2285L71.969 18.2264L73.3255 7.20727L67.3254 7.20516ZM2.06871 7.20674L0.710938 18.229H16.7551L17.3463 13.4473L7.29979 13.4463L7.55392 11.3844H17.5965L18.1105 7.20701H2.06951L2.06871 7.20674ZM19.3248 7.20674C18.8846 10.0835 20.3265 11.384 22.3702 11.384C23.4817 11.384 30.4878 11.3808 30.4878 11.3808L30.2345 13.4459L18.5584 13.4469L17.9704 18.2286C17.9704 18.2286 30.6821 18.2328 31.1972 18.2286C31.6226 18.198 34.5963 18.1169 35.6086 15.6881C35.9369 14.8996 36.2272 12.0723 36.3085 11.4788C36.7761 8.03175 34.3862 7.2099 32.504 7.2099C31.4664 7.2099 21.3737 7.20674 19.3248 7.20674ZM38.0027 7.20674L36.6473 18.229H42.6453L43.4898 11.3844H51.0236C53.1602 11.3844 54.3087 10.2372 54.5219 8.69666C54.5901 8.20094 54.6517 7.70435 54.7067 7.20701L38.0027 7.20674Z" fill="#FF1919"/>
</svg>