<svg xmlns="http://www.w3.org/2000/svg" width="30" height="30" viewBox="0 0 30 30" fill="none">
  <path d="M29.0329 7.11072V13.4972L27.3003 15.2305L29.0329 16.9638V29.7305H0.0390625V16.97L1.77161 15.2367L0.0390625 13.5034V0.730469H29.0391V7.11072H29.0329ZM1.44249 12.8821L3.79602 15.2367L1.44249 17.5912V28.3389H27.6232V17.5912L25.2697 15.2367L27.6232 12.8821V2.1345H1.44249V12.8821Z" fill="#0B0B0B"/>
  <path d="M11.9494 6.3901L12.8623 7.30334V11.6521L11.0428 13.4724H6.1867V5.47065H11.0428L11.9494 6.3901ZM7.59634 12.0683H10.4404L10.9062 11.5651L11.3719 11.0681V7.8811L10.428 6.87467H7.59634V12.0683Z" fill="#0B0B0B"/>
  <path d="M21.8979 9.47149C22.8046 11.6583 23.5435 13.4475 23.5435 13.4599C23.5435 13.4723 23.202 13.4786 22.7797 13.4786H22.0159L21.6185 12.5343H17.5572L17.1846 13.4537L16.4084 13.4661C15.7936 13.4723 15.6322 13.4661 15.6508 13.4226C15.6632 13.3916 16.396 11.6148 17.284 9.4777C18.172 7.33439 18.9048 5.56382 18.9172 5.53276C18.9358 5.49548 19.0973 5.48306 19.6003 5.48927L20.2523 5.5017L21.8979 9.47149ZM18.8986 9.33482C18.5322 10.2232 18.2155 10.9811 18.2031 11.0246C18.1782 11.0992 18.259 11.1054 19.5941 11.1054C20.7305 11.1054 21.0037 11.093 20.9913 11.0495C20.9602 10.9252 19.6189 7.71956 19.5941 7.71956C19.5754 7.71956 19.2712 8.45264 18.8986 9.33482Z" fill="#0B0B0B"/>
  <path d="M12.2537 18.3926L10.161 20.9832L8.0807 23.5676L10.161 23.5801L12.2537 23.5863V24.9965H6.1867V24.2759L6.19291 23.5676L10.3908 18.4237L6.1867 18.3988V16.9948H12.2537V18.3926Z" fill="#0B0B0B"/>
  <path d="M19.4636 19.8401L21.457 22.6979L21.4694 19.8401L21.4756 16.9948H22.8852V24.9965H21.2831L19.5008 22.4059L17.7186 19.8215L17.7062 22.4121L17.7 24.9965H16.2034V16.9948H17.464L19.4636 19.8401Z" fill="#0B0B0B"/>
</svg>