<svg xmlns="http://www.w3.org/2000/svg" width="110" height="31" viewBox="0 0 110 31" fill="none">
  <path d="M48.6985 19.2317V22.5894H40.8914L39.3294 20.8396C39.0682 20.5529 38.9252 20.1516 38.9252 19.7776V5.91282H42.4231V19.2317H48.6985ZM75.3288 19.2317V22.5894H67.5218L65.9598 20.8396C65.6986 20.5529 65.5556 20.1516 65.5556 19.7776V5.91282H69.0535V19.2317H75.3288ZM77.295 5.91282H80.7929V22.5894H77.295V5.91282ZM60.9879 10.7064L60.0612 7.08938C59.888 6.40146 59.2527 5.91282 58.5295 5.91282H54.4541L53.2111 10.7064L50.5794 20.9542C50.5217 21.1835 50.4914 21.4128 50.4914 21.6421V22.5894H53.6153L54.2808 20.0643L59.4865 17.5965L60.7872 22.5894H63.7076V21.0689L60.9907 10.7064H60.9879ZM55.1196 16.8212L56.709 10.6791L57.2013 8.78461L57.6935 10.6791L59.283 16.8212H55.1196ZM107.308 10.7064L106.384 7.08938C106.211 6.40146 105.575 5.91282 104.852 5.91282H100.774L99.531 10.7064L96.8718 20.9542C96.8141 21.1835 96.7838 21.4128 96.7838 21.6421V22.5894H99.9077L100.573 20.0643L105.779 17.5965L107.08 22.5894H110V21.0689L107.311 10.7064H107.308ZM101.409 16.8212L102.999 10.6791L103.491 8.78461L103.983 10.6791L105.573 16.8212H101.409ZM95.6563 16.5619V17.3945C95.6563 20.3509 93.2557 22.7341 90.2775 22.7341H88.6578C87.9923 22.7341 87.357 22.6194 86.7796 22.3901C84.7281 21.6449 83.2816 19.663 83.2816 17.3972V11.2824C83.2816 11.0804 83.2816 10.8811 83.3119 10.7091C83.5429 8.66995 84.9014 6.97746 86.7823 6.28954C87.3598 6.06023 87.9978 5.94558 88.6605 5.94558H90.2802C93.0549 5.94558 95.3401 8.04209 95.6288 10.7091H92.2162V10.3079C92.2162 9.64723 91.6964 9.1313 91.031 9.1313H87.9675C87.302 9.1313 86.7823 9.64723 86.7823 10.3079V18.3145C86.7823 18.9751 87.302 19.491 87.9675 19.491H91.031C91.6964 19.491 92.2162 18.9751 92.2162 18.3145V16.1606H89.2655V12.8603H93.3134L93.3711 12.9176L94.8451 14.4954C95.3676 15.0414 95.6563 15.7866 95.6563 16.5619ZM6.88848 14.8694H13.8568L3.24482 20.209L3.15957 20.0643L0.846877 17.0205C-0.253097 15.5846 -0.280596 13.6055 0.758879 12.1396L9.49267 0H17.5582L6.88848 14.8694ZM15.9385 24.7432H24.0921L11.6596 31L11.6019 30.9126L8.85468 27.3256C7.75471 25.9198 7.72721 23.9679 8.76669 22.5048L24.5568 0H33.3181L15.9413 24.7432H15.9385Z" fill="#FF2D25"/>
</svg>