<svg width="99" height="29" viewBox="0 0 99 29" fill="none" xmlns="http://www.w3.org/2000/svg">
<path id="Logos 13" d="M44.3334 18.2426V21.2754H37.378L35.9865 19.6949C35.7537 19.436 35.6263 19.0735 35.6263 18.7358V6.21268H38.7427V18.2426H44.3334ZM68.0586 18.2426V21.2754H61.1033L59.7117 19.6949C59.479 19.436 59.3516 19.0735 59.3516 18.7358V6.21268H62.4679V18.2426H68.0586ZM69.8104 6.21268H72.9267V21.2754H69.8104V6.21268ZM55.2822 10.5424L54.4566 7.27538C54.3022 6.65404 53.7363 6.21268 53.092 6.21268H49.4611L48.3538 10.5424L46.0092 19.7985C45.9577 20.0056 45.9308 20.2127 45.9308 20.4198V21.2754H48.7139L49.3068 18.9946L53.9445 16.7657L55.1034 21.2754H57.7052V19.902L55.2847 10.5424H55.2822ZM50.054 16.0654L51.4701 10.5177L51.9086 8.80655L52.3472 10.5177L53.7632 16.0654H50.054ZM96.549 10.5424L95.7258 7.27538C95.5715 6.65404 95.0055 6.21268 94.3612 6.21268H90.728L89.6206 10.5424L87.2515 19.7985C87.2 20.0056 87.1731 20.2127 87.1731 20.4198V21.2754H89.9562L90.5491 18.9946L95.1868 16.7657L96.3457 21.2754H98.9475V19.902L96.5515 10.5424H96.549ZM91.2939 16.0654L92.71 10.5177L93.1485 8.80655L93.587 10.5177L95.0031 16.0654H91.2939ZM86.1686 15.8312V16.5832C86.1686 19.2535 84.0298 21.4061 81.3765 21.4061H79.9335C79.3406 21.4061 78.7747 21.3025 78.2602 21.0954C76.4325 20.4223 75.1439 18.6322 75.1439 16.5857V11.0626C75.1439 10.8802 75.1439 10.7002 75.1708 10.5448C75.3766 8.703 76.5869 7.17429 78.2627 6.55294C78.7771 6.34583 79.3455 6.24227 79.936 6.24227H81.379C83.851 6.24227 85.8869 8.1359 86.1441 10.5448H83.1037V10.1824C83.1037 9.5857 82.6407 9.11969 82.0478 9.11969H79.3186C78.7257 9.11969 78.2627 9.5857 78.2627 10.1824V17.4142C78.2627 18.0109 78.7257 18.4769 79.3186 18.4769H82.0478C82.6407 18.4769 83.1037 18.0109 83.1037 17.4142V15.4688H80.4749V12.4878H84.0813L84.1327 12.5396L85.4459 13.9647C85.9114 14.4578 86.1686 15.131 86.1686 15.8312ZM7.08452 14.3025H13.2927L3.83835 19.1253L3.7624 18.9946L1.702 16.2454C0.722023 14.9485 0.697524 13.1609 1.6236 11.8368L9.40461 0.87207H16.5903L7.08452 14.3025ZM15.1473 23.2208H22.4114L11.3352 28.8721L11.2837 28.7932L8.83623 25.5533C7.85625 24.2835 7.83175 22.5205 8.75783 21.1989L22.8254 0.87207H30.6309L15.1497 23.2208H15.1473Z" fill="#FF2D25"/>
</svg>
