<svg xmlns="http://www.w3.org/2000/svg" width="45" height="31" viewBox="0 0 45 31" fill="none">
<g clip-path="url(#clip0_421_5789)">
<path d="M44.06 4.8419C43.545 2.93762 42.02 1.43683 40.08 0.925079C36.57 0 22.5 0 22.5 0C22.5 0 8.43 0 4.92 0.925079C2.985 1.43683 1.46 2.9327 0.94 4.8419C0 8.29619 0 15.5 0 15.5C0 15.5 0 22.7038 0.94 26.1581C1.455 28.0624 2.98 29.5632 4.92 30.0749C8.43 31 22.5 31 22.5 31C22.5 31 36.57 31 40.08 30.0749C42.015 29.5632 43.54 28.0673 44.06 26.1581C45 22.7038 45 15.5 45 15.5C45 15.5 45 8.29619 44.06 4.8419ZM18 22.1429V8.85714L29.69 15.5L18 22.1429Z" fill="white"/>
</g>
<defs>
<clipPath id="clip0_421_5789">
<rect width="45" height="31" fill="white"/>
</clipPath>
</defs>
</svg>