<svg width="32" height="31" viewBox="0 0 32 31" fill="none" xmlns="http://www.w3.org/2000/svg">
<path d="M19.4857 31V27.3686C22.1429 26.601 24.2833 25.1248 25.9071 22.94C27.531 20.7552 28.3429 18.2752 28.3429 15.5C28.3429 12.7248 27.531 10.2448 25.9071 8.06C24.2833 5.87524 22.1429 4.39905 19.4857 3.63143V0C23.1467 0.826667 26.1286 2.67929 28.4314 5.55786C30.7343 8.43643 31.8857 11.7505 31.8857 15.5C31.8857 19.2495 30.7343 22.5636 28.4314 25.4421C26.1286 28.3207 23.1467 30.1733 19.4857 31ZM0 20.8586V10.23H7.08571L15.9429 1.37286V29.7157L7.08571 20.8586H0ZM19.4857 22.63V8.37C20.8733 9.01952 21.9583 9.99381 22.7407 11.2929C23.5231 12.5919 23.9143 14.009 23.9143 15.5443C23.9143 17.05 23.5231 18.445 22.7407 19.7293C21.9583 21.0136 20.8733 21.9805 19.4857 22.63Z" fill="#E5FF00"/>
</svg>
