<svg width="33" height="22" viewBox="0 0 33 22" fill="none" xmlns="http://www.w3.org/2000/svg">
<g id="Group 5758">
<g id="Group">
<g id="Group_2">
<path id="Vector" d="M27.5597 14.8499L22.348 8.72232L26.9771 6.08131C27.4294 5.82335 27.5869 5.24745 27.3289 4.79519C27.0709 4.34287 26.4949 4.18535 26.0427 4.44338C25.6557 4.6642 16.8836 9.6687 16.4528 9.91453C16.0198 9.6675 7.24574 4.66181 6.86288 4.44338C6.41056 4.18542 5.83485 4.34275 5.57669 4.79519C5.31873 5.24745 5.47612 5.82329 5.9285 6.08131L10.5576 8.72232L5.34588 14.8499C5.00853 15.2466 5.05655 15.8415 5.45324 16.1789C5.84987 16.5164 6.44513 16.4681 6.78229 16.0716L12.2243 9.67322L15.9856 11.8191C16.2752 11.9843 16.6305 11.9842 16.92 11.8191L20.6813 9.67322L26.1232 16.0716C26.4607 16.4684 27.0559 16.5162 27.4523 16.1789C27.849 15.8416 27.897 15.2466 27.5597 14.8499Z" fill="#0B0B0B"/>
</g>
</g>
<g id="Group_3">
<g id="Group_4">
<path id="Vector_2" d="M29.7128 0H3.18709C1.62742 0 0.358521 1.2689 0.358521 2.82857V19.1714C0.358521 20.7311 1.62742 22 3.18709 22H29.7128C31.2725 22 32.5414 20.7311 32.5414 19.1714V2.82857C32.5414 1.2689 31.2725 0 29.7128 0ZM30.6557 19.1714C30.6557 19.6913 30.2327 20.1143 29.7128 20.1143H3.18709C2.6672 20.1143 2.24423 19.6913 2.24423 19.1714V2.82857C2.24423 2.30868 2.6672 1.88571 3.18709 1.88571H29.7128C30.2327 1.88571 30.6557 2.30868 30.6557 2.82857V19.1714Z" fill="#0B0B0B"/>
</g>
</g>
</g>
</svg>
