<svg xmlns="http://www.w3.org/2000/svg" width="81" height="27" viewBox="0 0 81 27" fill="none">
  <path d="M51.6833 14.6701H48.5085V23.2491H49.8295V19.603H51.6811L52.9096 18.3569V15.8947L51.6833 14.6701ZM49.8295 15.9569H51.1351L51.5908 16.4266V17.8228L51.1351 18.314H49.8295V15.9569Z" fill="#0B0B0B"/>
  <path d="M43.3787 23.2491H47.3417V21.9622H44.6997V19.603H46.9013V18.3161H44.6997V15.9569H47.3417V14.6701H43.3787V23.2491Z" fill="#0B0B0B"/>
  <path d="M68.6975 15.9569V14.6701H64.9547V15.9569H66.1436V23.2491H67.4646V15.9569H68.6975Z" fill="#0B0B0B"/>
  <path d="M57.1367 14.6701H55.2698L53.9686 15.8947V22.003L55.2698 23.2491H57.1367L58.3719 22.003V15.8947L57.1367 14.6701ZM57.0509 21.4732L56.5929 21.9622H55.8158L55.2896 21.4711V16.4266L55.8158 15.9569H56.5929L57.0509 16.4245V21.4732Z" fill="#0B0B0B"/>
  <path d="M40.2414 19.603L40.9129 23.2491H42.2339L41.4721 19.099L42.2119 18.3676V15.9033L40.9657 14.6701H37.8086V23.2491H39.1296V19.603M39.1296 15.9569H40.4197L40.8909 16.4373V17.8336L40.4197 18.3161H39.1296V15.9569Z" fill="#0B0B0B"/>
  <path d="M61.9715 19.603L62.643 23.2491H63.964L63.2022 19.099L63.942 18.3676V15.9033L62.6959 14.6701H59.5387V23.2491H60.8597V19.603M60.8597 15.9569H62.1499L62.621 16.4373V17.8336L62.1499 18.3161H60.8597V15.9569Z" fill="#0B0B0B"/>
  <path d="M40.9657 3.94629H37.8086V12.5253H40.9657L42.2119 11.2792V8.81703L41.6042 8.22507L42.2119 7.63312V5.17094L40.9657 3.94629ZM39.1296 5.23314H40.4197L40.8909 5.70284V7.09908L40.4197 7.59023H39.1296V5.23314ZM39.1296 8.87922H40.4197L40.8909 9.34893V10.7452L40.4197 11.2363H39.1296V8.87922Z" fill="#0B0B0B"/>
  <path d="M65.1529 12.5253H66.4739V8.87922H68.2352V12.5253H69.5562V3.94629H68.2352V7.59237H66.4739V3.94629H65.1529V12.5253Z" fill="#0B0B0B"/>
  <path d="M48.2003 12.5253H52.1633V11.2385H49.5213V8.87922H51.7229V7.59237H49.5213V5.23314H52.1633V3.94629H48.2003V12.5253Z" fill="#0B0B0B"/>
  <path d="M70.745 12.5253H74.708V11.2385H72.066V8.87922H74.2677V7.59237H72.066V5.23314H74.708V3.94629H70.745V12.5253Z" fill="#0B0B0B"/>
  <path d="M47.1215 11.2385H44.6997V3.94629H43.3787V12.5253H47.1215V11.2385Z" fill="#0B0B0B"/>
  <path d="M59.5828 11.2792L60.8839 12.5253H62.7509L63.986 11.2792V9.73713H62.6651V10.7495L62.2071 11.2385H61.4299L60.9037 10.7473V5.70284L61.4299 5.23314H62.2071L62.6651 5.7007V6.73447H63.986V5.17094L62.7509 3.94629H60.8839L59.5828 5.17094V11.2792Z" fill="#0B0B0B"/>
  <path d="M57.271 12.5253H58.592L57.0399 3.94629H54.6401L53.0879 12.5253H54.4089L54.836 10.1661H56.8439L57.271 12.5253ZM55.0694 8.87922L55.7299 5.23314H55.9523L56.6128 8.87922H55.0694Z" fill="#0B0B0B"/>
  <path d="M78.2856 8.87922L78.9571 12.5253H80.2781L79.5164 8.37521L80.2561 7.64385V5.17952L79.01 3.94629H75.8528V12.5253H77.1738V8.87922M77.1738 5.23314H78.464L78.9351 5.71357V7.1098L78.464 7.59237H77.1738V5.23314Z" fill="#0B0B0B"/>
  <path d="M0.71875 0.460938H35.9438V26.198H0.71875V0.460938Z" fill="#0B0B0B"/>
  <path d="M11.2334 4.75049H4.96094V21.9085H11.2334L13.7675 19.4399V14.5134L12.5544 13.3316L13.7675 12.1499V7.2191L11.2334 4.75049ZM7.6029 12.0427V7.32419H10.137L11.1255 8.28719V11.0818L10.137 12.0427M10.137 14.6164L11.1255 15.5794V18.374L10.137 19.337H7.6029V14.6185" fill="#F8F8F8"/>
  <path d="M31.7108 21.9085L29.5224 13.9558L31.3806 12.1456V7.2191L28.8465 4.75049H22.574V21.9085H25.216V14.6164H27.0631L29.0688 21.9085H31.7108ZM25.216 7.32419H27.7501L28.7386 8.28719V11.0818L27.7501 12.0448H25.216V7.32419Z" fill="#F8F8F8"/>
  <path d="M15.9691 13.9579V16.9906L20.3724 12.7011V9.66841L15.9691 13.9579Z" fill="#F8F8F8"/>
  <mask id="mask0_421_7230" style="mask-type:alpha" maskUnits="userSpaceOnUse" x="0" y="0" width="36" height="27">
    <path d="M35.9449 0.460938H0.71875V26.198H35.9449V0.460938Z" fill="#F8F8F8"/>
    <path d="M11.3945 4.75044H5.12202V21.9085H11.3945L13.9286 19.4399V14.5134L12.7155 13.3316L13.9286 12.1498V7.21906L11.3945 4.75044ZM7.76398 12.0426V7.32415H10.2981L11.2866 8.28715V11.0818L10.2981 12.0426M10.2981 14.6163L11.2866 15.5793V18.3739L10.2981 19.3369H7.76398V14.6185" fill="#F8F8F8"/>
    <path d="M31.8719 21.9085L29.6835 13.9557L31.5416 12.1456V7.21906L29.0076 4.75044H22.7351V21.9085H25.3771V14.6163H27.2242L29.2299 21.9085H31.8719ZM25.3771 7.32415H27.9111L28.8997 8.28715V11.0818L27.9111 12.0448H25.3771V7.32415Z" fill="#F8F8F8"/>
    <path d="M16.1302 13.9579V16.9906L20.5335 12.701V9.66837L16.1302 13.9579Z" fill="#F8F8F8"/>
  </mask>
  <g mask="url(#mask0_421_7230)">
  </g>
</svg>