<svg width="155" height="48" viewBox="0 0 155 48" fill="none" xmlns="http://www.w3.org/2000/svg">
<g id="Logos 03">
<path fill-rule="evenodd" clip-rule="evenodd" d="M35.5334 20.8964C35.9385 18.5716 36.0796 16.3703 36.0796 14.4297C36.0792 9.98692 35.3409 6.91328 35.3267 6.85435C35.2671 6.61441 35.0533 6.44723 34.8094 6.44723C34.772 6.44723 34.7357 6.45148 34.7006 6.45868L34.703 6.45794C31.7997 7.03502 29.3741 7.26186 27.3556 7.26186C22.3141 7.2602 19.819 5.85463 18.7352 4.96168C18.4696 3.69817 18.9545 2.65781 19.9443 2.60109C19.9443 2.60109 20.1937 2.52739 22.4854 3.10742C24.9809 3.64128 25.4375 1.36603 25.5352 0C25.5352 0 24.6277 0.868568 21.9507 0.380343C19.2732 -0.107694 17.6322 2.78822 17.6404 4.31607C17.6406 4.34009 17.6363 4.49803 17.6584 4.74537C17.6529 4.75035 17.6486 4.75442 17.6426 4.75996C16.7063 5.62243 14.2293 7.25982 8.78835 7.26186C6.77081 7.26186 4.34627 7.03557 1.44521 6.45868L1.44188 6.45794C1.40535 6.45054 1.36974 6.44723 1.336 6.44723C1.09273 6.44778 0.878572 6.61348 0.818311 6.85306C0.8159 6.86304 0.802921 6.91513 0.781042 7.01525C0.627144 7.70888 0.0491943 10.5783 0.0491943 14.4982C0.0491943 16.4223 0.188258 18.599 0.586167 20.8963C1.32191 25.1422 2.79228 29.0112 4.95964 32.4044C4.93628 32.6992 4.90345 33.0013 4.85636 33.3087C4.77737 33.8244 4.66148 34.3527 4.49331 34.8812C4.35443 35.3873 4.16141 36.2239 3.56881 36.9066C2.95841 37.6097 2.88165 37.7338 2.50618 38.8319C2.50618 38.8319 0.947734 40.2969 1.01856 41.2754C1.02524 41.2959 1.03766 41.3203 1.06603 41.3302L1.069 41.3323C1.39923 41.4557 3.42622 42.1417 5.74711 41.2826C5.80014 41.2521 5.80589 41.2242 5.8146 41.1847C5.83334 40.8825 5.91992 39.7371 6.1797 39.2C6.48025 38.5784 6.64213 38.3256 6.54923 37.9112C6.4569 37.4969 6.42092 37.1472 6.64213 36.7456C6.71871 36.6055 6.89374 36.4313 7.13107 36.2412C7.26699 36.1323 7.42163 36.0167 7.58406 35.8964C10.308 39 13.7442 41.5881 17.8351 43.6129C17.9086 43.6489 17.9901 43.6685 18.0724 43.6685C18.1555 43.6685 18.2362 43.6491 18.3092 43.6132C18.6167 43.4604 18.9209 43.3042 19.2208 43.1452C22.4498 41.4341 25.2478 39.3552 27.5833 36.9329C28.7646 35.7083 29.8278 34.3959 30.7682 32.9988C33.1472 29.4661 34.7498 25.3923 35.5334 20.8964ZM34.7963 6.92418L34.7989 6.92345L34.8094 6.92234C34.8312 6.92234 34.8564 6.93878 34.8632 6.96815C34.8706 6.99604 35.6029 10.0405 35.6025 14.4297C35.6025 16.3474 35.4629 18.5219 35.0633 20.8154C34.7051 22.8703 34.1719 24.8324 33.4726 26.6929C33.6266 25.6236 33.6966 24.4251 33.7006 23.4875C33.7072 21.9839 33.4457 20.6072 32.025 19.0646C32.025 19.0646 32.6209 17.3816 32.5911 15.5866C32.4354 6.17752 23.2134 9.91703 20.5463 7.73788C19.7917 7.12147 19.2836 6.4221 18.9868 5.74047C20.3567 6.65818 22.9177 7.73844 27.3556 7.73715C29.4099 7.73715 31.8664 7.50661 34.7963 6.92418ZM0.526092 14.4982C0.526092 12.2851 0.712808 10.4097 0.900823 9.08397C0.99483 8.421 1.08902 7.89546 1.16004 7.53414C1.19582 7.35311 1.22568 7.21328 1.247 7.11777C1.26776 7.02264 1.28112 6.9687 1.28112 6.9687C1.28817 6.93951 1.31319 6.9227 1.336 6.9227L1.34472 6.92345L1.34824 6.92418C4.27785 7.50661 6.7341 7.7366 8.78835 7.7366C13.9546 7.73844 16.579 6.27469 17.7394 5.30766C17.9845 6.5503 18.8328 8.61496 21.7543 9.45582C25.0123 10.3935 32.2414 9.29437 30.38 17.5241C30.38 17.5241 28.9491 16.5078 27.2017 16.4499C26.7967 16.4365 26.351 16.4499 25.8676 16.5224C24.866 16.6732 24.1668 16.3739 23.6798 16.0532C24.1791 16.1301 24.6257 16.1634 25.0261 16.1634C26.1649 16.1646 26.9347 15.8945 27.4734 15.6584C27.5442 15.6274 27.6111 15.5964 27.6745 15.5652C27.8954 15.4577 28.0732 15.3536 28.2128 15.28C28.4309 15.1642 28.5786 15.0721 28.6851 14.986C28.7384 14.9427 28.7821 14.9004 28.8192 14.8486C28.8553 14.798 28.89 14.7306 28.8907 14.6429C28.8907 14.5988 28.8801 14.5525 28.8612 14.5141C28.8432 14.4755 28.8187 14.4448 28.7947 14.4216C28.7307 14.3621 28.6714 14.3399 28.6181 14.3212C28.5804 14.3093 28.5574 14.3065 28.5291 14.302C28.4487 14.2913 28.3424 14.2849 28.2236 14.2793C28.1715 14.2771 28.1172 14.2751 28.0639 14.2734C27.8746 14.267 27.6986 14.2647 27.6617 14.2643C27.358 14.2507 27.114 14.225 26.9086 14.1852C26.5996 14.1249 26.3768 14.0367 26.1415 13.9008C25.9064 13.7654 25.6589 13.5772 25.3303 13.3252C25.2392 13.2556 25.1419 13.1813 25.0375 13.1023C24.983 13.0612 24.9268 13.0189 24.8682 12.9754C24.4872 12.6914 24.0121 12.3528 23.3809 11.9511C22.7947 11.5781 22.2286 11.2716 21.679 11.0247C21.5415 10.963 20.3334 10.4489 19.8432 10.2769C19.7609 10.248 19.6769 10.2198 19.59 10.1929C18.2553 8.75554 16.6556 8.06984 15.0369 8.31109C11.9326 8.774 7.86311 11.9359 6.17265 16.9722C6.0106 17.6129 5.88135 18.6294 6.26943 19.6722L6.91043 21.3949C6.91043 21.3949 6.05417 20.6861 5.63438 19.9443C5.48363 20.1404 4.73046 21.2257 4.78924 23.3234C4.79184 23.4294 4.79573 23.5288 4.80018 23.628C4.84857 24.7185 4.98133 25.3882 5.09648 25.7806C5.13838 25.9236 5.17807 26.0281 5.21014 26.1031C5.1853 26.2977 5.16471 26.4927 5.13635 26.6842C5.11465 26.8327 5.09481 26.9909 5.07682 27.1499C5.00432 27.7863 4.96242 28.4363 4.95611 28.5559L4.95518 28.5742C4.95111 28.6192 4.94888 28.6689 4.94684 28.721C4.94629 28.736 4.94629 28.7526 4.9461 28.7683C4.94462 28.8086 4.94444 28.8503 4.94444 28.8942V28.9432C4.94517 28.9984 4.9461 29.0561 4.94759 29.1165V29.1272C4.96372 29.7325 5.02732 30.5881 5.00284 31.5692C3.06781 28.373 1.74058 24.7641 1.05639 20.8154C0.663857 18.5494 0.526092 16.3996 0.526092 14.4982ZM24.8854 31.1082C24.9257 31.1396 24.8985 31.2046 24.848 31.1969C24.1781 31.0954 23.5719 30.6284 24.0144 29.7089C24.3605 28.9888 24.4766 28.5352 24.5147 28.3338C24.5237 28.2865 24.5879 28.2786 24.6087 28.3222C24.693 28.4938 24.7859 28.8947 24.5328 29.7089C24.2888 30.493 24.6546 30.9244 24.8854 31.1082ZM21.2663 25.6943C21.2831 25.8654 21.2972 26.0399 21.3019 26.2071C21.3033 26.2633 21.304 26.3183 21.3033 26.3725C21.2992 26.696 21.2504 26.9805 21.1069 27.1503C21.0351 27.2352 20.9227 27.3351 20.7833 27.4399C20.6902 27.5094 20.5856 27.5814 20.4734 27.6529C20.2487 27.7963 19.9936 27.938 19.7411 28.0553C19.615 28.114 19.49 28.1672 19.3695 28.2112C19.2494 28.2553 19.134 28.2905 19.0278 28.3142C18.8684 28.3502 18.7296 28.3605 18.6261 28.335C18.0729 28.2009 18.0772 28.1317 17.8093 27.9027C17.781 27.8864 17.7574 27.8726 17.7366 27.8602C17.5885 27.7736 17.5617 27.7769 16.8802 27.7732C16.3742 27.7699 15.9164 27.7616 15.5491 27.6654C15.1821 27.5687 14.9052 27.384 14.7597 27.0275C14.6338 26.7735 14.5686 26.5503 14.5126 26.3546C14.3895 25.9231 14.3119 25.623 13.7366 25.4106C13.0535 25.1586 12.2472 25.0914 11.6253 24.3937C11.5853 24.3494 11.5463 24.3009 11.5081 24.2509C11.4937 24.2322 11.4801 24.2119 11.4658 24.1925C11.438 24.1541 11.4105 24.1138 11.3835 24.0719C11.3709 24.0522 11.3582 24.0325 11.3458 24.0124C11.3078 23.9494 11.2708 23.8848 11.2349 23.8148C10.594 22.5581 10.5422 21.4562 10.5422 21.4562C10.5422 21.4562 10.4616 21.5404 10.3557 21.7191C10.1558 22.0566 9.8673 22.7333 9.86823 23.8223C9.86915 24.2067 9.90513 24.6421 9.9945 25.1326C9.9945 25.1326 8.98137 23.2482 9.75679 21.2299C9.80333 21.1184 9.85024 21.0119 9.89715 20.9104C10.3657 19.8929 10.8334 19.3413 11.1065 19.0771C11.2431 18.9451 11.3314 18.8849 11.3464 18.8744C11.3438 18.8779 11.3399 18.888 11.335 18.9048C11.3017 19.0212 11.2251 19.4476 11.2304 20.081C11.2346 20.5331 11.2802 21.0915 11.4139 21.7185C11.4937 22.0944 11.6059 22.4949 11.759 22.9118C11.759 22.9118 11.7788 22.9532 11.8038 23.0049C11.8455 23.0908 11.902 23.2072 11.902 23.2072C11.9288 23.2532 11.9607 23.3029 11.9972 23.3556C12.1618 23.5933 12.4281 23.8918 12.8442 24.1607C13.0755 24.3104 13.3528 24.4507 13.685 24.5664C15.3295 25.1396 15.2044 25.4246 15.3183 25.8776C15.3679 26.0757 15.4442 26.3163 15.5728 26.5304C15.6466 26.653 15.7371 26.7668 15.85 26.8591C15.9066 26.9057 15.9683 26.9469 16.0365 26.9805C16.1386 27.0319 16.2543 27.0675 16.3862 27.0824C16.5802 27.1061 16.7788 27.1229 16.9649 27.1342C17.0267 27.1373 17.0874 27.1405 17.1459 27.1429C17.38 27.1526 17.5805 27.1529 17.706 27.1478C17.8003 27.1438 17.8735 27.139 17.9481 27.1526C18.0729 27.1748 18.2018 27.2484 18.4396 27.464C18.4396 27.464 18.7395 27.7193 19.4217 27.3485C19.7633 27.1632 20.0022 27.0016 20.1571 26.8863C20.176 26.8721 20.194 26.8584 20.2107 26.8455C20.2941 26.7806 20.3448 26.7356 20.367 26.7148L20.3804 26.7025C20.3804 26.7025 20.406 26.6872 20.4368 26.637C20.4858 26.5566 20.5485 26.3861 20.5404 26.0424C20.5372 25.9134 20.5247 25.7605 20.4972 25.5787C20.4812 25.4734 20.4752 25.3561 20.4773 25.2294C20.4825 24.9338 20.5326 24.5874 20.6096 24.2226C20.6644 23.9621 20.7329 23.6925 20.8088 23.4257C20.8389 23.3188 20.8708 23.2127 20.9028 23.1076C21.1443 22.3196 21.4266 21.6008 21.5721 21.2775C21.8822 20.5877 22.0061 19.7296 22.0061 19.7296C22.0061 19.7296 22.0396 19.8179 22.075 19.9542C22.1157 20.1103 22.1578 20.3292 22.1543 20.5509C22.1541 20.5786 22.153 20.6066 22.151 20.6342C22.151 20.6342 22.4782 20.5036 22.7272 20.2204C22.7552 20.189 22.7819 20.1555 22.8073 20.1207C22.9334 19.9443 23.0216 19.7202 23.0028 19.4451C22.999 19.39 22.9907 19.333 22.9779 19.2735C22.9263 19.038 22.6562 18.4956 22.5255 17.9769C22.4782 17.7886 22.4639 17.5757 22.4644 17.4204C22.4644 17.3816 22.4669 17.3443 22.4717 17.309C22.4988 17.0895 22.5023 16.6193 22.4189 16.0718C22.3686 15.7429 22.2896 15.3865 22.1745 15.0396C21.9206 14.2773 21.4899 13.562 20.7938 13.2921C20.215 13.0673 19.4025 12.9676 18.6204 13.0099C18.3771 13.0236 18.1373 13.0511 17.9082 13.0927C17.144 13.2316 16.5027 13.5299 16.2783 14.0065C16.2106 14.1497 16.1812 14.3086 16.1969 14.4845C16.3309 15.9884 19.5749 15.9171 19.5749 15.9171L21.1264 15.8935L21.1473 15.8938C21.1953 15.8912 21.2817 15.8945 21.3297 15.9383L21.3548 15.9643L21.3652 15.9982L21.3631 16.0038L21.3634 16.0056C21.3703 16.097 20.8181 16.4373 19.9674 16.7505C19.4576 16.9386 18.8399 17.1167 18.1712 17.2253C17.6145 17.3154 16.9421 17.368 16.2591 17.3269C16.1906 17.3224 16.1219 17.3176 16.0536 17.3114C15.917 17.2992 15.7801 17.2829 15.6443 17.2622C15.576 17.2519 15.5079 17.2403 15.4406 17.2278C15.3058 17.2026 15.1721 17.1723 15.0403 17.1374C13.9872 16.8557 13.0671 16.244 12.7096 15.067C12.6202 14.7727 12.5775 14.4873 12.5741 14.2121C12.5579 12.9735 13.3391 11.9468 14.2667 11.2998C14.7819 10.9403 15.3424 10.6979 15.8359 10.6015C16.5886 10.4546 17.3457 10.3737 18.1279 10.4005C18.8406 10.4653 19.2936 10.6059 19.7032 10.7309C20.1473 10.8665 21.3508 11.3987 21.4827 11.4576C22.0096 11.6945 22.5553 11.9898 23.1242 12.3518C23.744 12.7463 24.2084 13.077 24.5827 13.3559C24.64 13.399 24.6958 13.4406 24.749 13.4811C24.8523 13.5591 24.9485 13.6329 25.0393 13.7021C25.2586 13.8696 25.4468 14.0141 25.6292 14.1391C25.9022 14.3264 26.1667 14.471 26.4834 14.5684C26.7997 14.6663 27.1618 14.7181 27.6409 14.7391H27.6484C27.6484 14.7391 27.6965 14.7398 27.7706 14.7413C27.8451 14.7426 27.9454 14.7448 28.0483 14.7484C28.093 14.7496 28.1377 14.7513 28.1815 14.7534C28.1269 14.7854 28.0632 14.8213 27.9891 14.8604C27.8353 14.9419 27.6679 15.0396 27.4648 15.1386C27.4068 15.1665 27.346 15.1952 27.2814 15.2234C26.7727 15.4449 26.0918 15.6871 25.0261 15.6881C24.5132 15.6881 23.9118 15.631 23.2013 15.4841C23.1612 15.5008 23.0628 15.5944 23.0398 15.6125C23.0398 15.6125 23.167 16.2893 23.1051 17.552C23.0958 17.749 23.872 19.1423 23.7422 19.8726C23.7049 20.0407 23.6255 20.2023 23.5203 20.3541C23.0643 21.0119 22.1301 21.4845 22.1301 21.4845C22.1301 21.4845 21.8231 22.3159 21.5574 23.1608C21.4836 23.3952 21.4135 23.6311 21.3538 23.85C21.2462 24.2445 21.1736 24.5856 21.1795 24.7709C21.1871 25.0182 21.2327 25.3507 21.2663 25.6943ZM18.109 20.0166C17.6365 20.1381 17.5666 20.5581 17.3035 20.6273C17.0859 20.6848 17.0141 20.4657 17.1918 20.1772C17.3699 19.8894 17.6593 19.4652 18.3897 19.3613C19.1197 19.2575 19.3045 19.8633 19.6075 20.1185C19.683 20.1817 19.7542 20.233 19.8185 20.2741C19.9473 20.3573 20.049 20.4018 20.106 20.4324C20.1343 20.448 20.1515 20.46 20.1551 20.4719L19.9925 20.7715C19.9925 20.7715 19.8197 20.6756 19.6136 20.6056C19.5933 20.5988 19.5721 20.5918 19.5511 20.5854C19.5091 20.5727 19.4662 20.5614 19.4236 20.5523C19.3598 20.5392 19.2969 20.5316 19.2386 20.5329C19.1004 20.5357 19.0783 20.6159 19.0144 20.6869C18.9758 20.729 18.9219 20.768 18.8188 20.7849C18.557 20.8276 18.4646 20.7635 18.4012 20.6564C18.339 20.5512 18.4125 20.2406 18.4125 20.2406C18.4609 19.9697 18.109 20.0166 18.109 20.0166ZM18.0472 43.1869C14.018 41.1922 10.6427 38.6518 7.96713 35.6106C8.27456 35.3718 8.86956 34.8659 9.25264 34.2512C9.57471 33.7342 9.5291 33.3067 9.54968 33.3208C7.00054 31.5727 7.05699 25.3398 7.05699 25.3398L8.04464 29.2428C8.91295 32.7607 10.5643 33.1319 10.814 32.8542C11.3448 32.2653 12.1896 29.5462 12.2409 29.6124C12.2553 30.2529 11.4695 32.6595 11.4719 32.6607C11.39 32.9044 11.308 33.1378 11.2281 33.3533C11.2013 33.4254 11.1747 33.495 11.1483 33.563C11.0436 33.8336 10.9421 34.0692 10.8489 34.2524C10.6505 34.6424 10.5359 35.0318 10.5059 35.4056C10.4816 35.7048 10.5109 35.9942 10.594 36.2662C10.7395 36.7419 11.0492 37.1646 11.5222 37.4936C12.6968 38.3095 12.9277 38.3689 13.0287 38.4515C13.0897 38.5013 13.1152 38.5524 13.2469 38.7933C13.4503 39.1652 13.5177 39.3351 13.7285 39.5017C13.7585 39.5257 13.8876 39.6151 14.0268 39.66C14.0952 39.6825 14.1669 39.691 14.2324 39.691C14.6094 39.6905 15.5177 39.5412 15.5177 39.5412C15.5177 39.5412 15.8487 39.4775 16.0984 38.9767C16.2783 38.6152 16.4117 38.1446 16.4213 37.6276C16.4248 37.4553 16.415 37.2779 16.3905 37.0986C16.382 37.039 16.3729 36.98 16.3623 36.9216C16.2369 36.2206 15.9655 35.6252 15.8616 35.4154C15.8437 35.3794 15.8315 35.3554 15.8252 35.3433L15.8215 35.3369L15.8205 35.3354C15.8205 35.3354 15.4945 35.3075 14.7372 35.7357L14.7121 35.7435L14.7066 35.7418L14.6967 35.7348L14.6942 35.7277L14.6907 35.7108V35.7005L14.6935 35.6716L14.695 35.6615C14.7006 35.631 14.7101 35.5938 14.7233 35.5525L14.7264 35.5439C14.7319 35.5258 14.7382 35.5074 14.745 35.4878L14.7501 35.4737C14.7564 35.4557 14.7629 35.4379 14.77 35.4193L14.7757 35.4041C14.7831 35.3853 14.7903 35.3661 14.7976 35.347L14.8026 35.3352C14.8211 35.2892 14.8395 35.2443 14.8573 35.2033L14.8643 35.1867L14.881 35.1476L14.8921 35.1224L14.9011 35.1023C14.9252 35.0482 14.9413 35.0125 14.9413 35.0125C14.9413 35.0125 14.9613 34.9445 15.0525 34.8372C15.1692 34.6996 15.4037 34.4969 15.8643 34.2917C16.7291 33.9058 17.4945 33.6845 18.0918 33.4806C18.2624 33.4219 18.4194 33.365 18.5612 33.3055C19.0569 33.0988 19.3649 32.8662 19.4169 32.4606C19.4236 32.4089 19.4089 32.3499 19.3732 32.2839C19.3616 32.262 19.3472 32.2393 19.3307 32.2158C19.9792 32.0265 21.5024 31.5253 22.6748 30.5001C22.6748 30.5001 22.7848 30.5873 22.7118 30.7855C22.7042 30.8056 22.6936 30.828 22.6803 30.8524C22.5182 31.1433 21.9337 31.6975 21.1118 32.1683C20.9066 32.286 20.6859 32.3987 20.4538 32.5004C20.4538 32.5004 21.0412 34.2701 20.2213 35.4673C20.0676 35.6916 19.9378 35.8822 19.8265 36.0455C19.3815 36.6994 19.2365 36.9209 19.0544 37.157C19.0394 37.1766 19.0238 37.1965 19.0081 37.2167C18.9606 37.2772 18.8981 37.3648 18.8279 37.4719C18.5242 37.9356 18.0771 38.7594 18.0771 39.2739C18.0771 39.2739 18.6609 39.3884 19.1782 39.4174C19.2525 39.4214 19.3247 39.4235 19.3942 39.4235C19.9971 39.4235 20.5233 39.4099 20.9177 39.3325C21.2244 39.2721 21.4516 39.1727 21.5728 39.0116C21.5728 39.0116 21.6881 37.1704 22.1272 36.825C22.5114 36.523 22.6478 36.3091 22.6601 36.0368C22.6622 35.9978 22.6614 35.9575 22.6586 35.9162C22.6357 35.5824 22.5199 35.3289 23.1553 34.7997C23.7904 34.2701 24.0796 33.3039 25.5813 32.4752C25.5813 32.4752 26.1619 32.2758 26.0472 31.3992C26.349 31.4616 26.592 31.3255 26.7439 31.2001C25.1413 27.3003 26.3502 25.4944 26.5355 25.2513L26.5372 25.2532C25.6515 29.3116 28.1266 32.6116 29.3159 34.1975C28.5375 35.208 27.6884 36.1687 26.7704 37.0783C25.5042 38.3334 24.1066 39.4917 22.5814 40.5492C21.1919 41.5126 19.6971 42.393 18.099 43.1865L18.0724 43.1933L18.0472 43.1869Z" fill="#FF1950"/>
<path fill-rule="evenodd" clip-rule="evenodd" d="M47.7314 28.9478V43.668H50.1589V38.3267H53.5571C54.5704 38.3267 55.4639 38.1341 56.238 37.7484C57.0116 37.363 57.6099 36.8162 58.0322 36.108C58.4544 35.4005 58.6654 34.5767 58.6654 33.6373C58.6654 32.6982 58.4544 31.8743 58.0322 31.1662C57.6099 30.4585 57.0116 29.9118 56.238 29.5261C55.4639 29.1406 54.5704 28.9478 53.5571 28.9478H47.7314ZM50.1589 31.0506H53.3674C54.2396 31.0506 54.9292 31.2819 55.4358 31.7447C55.9425 32.2072 56.1958 32.838 56.1958 33.6373C56.1958 34.4224 55.9389 35.0497 55.4254 35.5193C54.9114 35.989 54.2185 36.2236 53.3461 36.2236H50.1589V31.0506ZM65.5337 32.9012C64.7031 32.9012 64.0418 33.0451 63.5495 33.3322C63.0566 33.6198 62.6558 34.0156 62.3465 34.5203L62.093 32.9012H60.0668V43.668H62.3465V38.2635C62.3465 37.3246 62.5575 36.5497 62.9797 35.9399C63.4019 35.3302 64.0842 35.025 65.0271 35.025H66.0404V32.9012H65.5337ZM72.2564 43.7942C73.3397 43.7942 74.3002 43.5664 75.1376 43.1107C75.9747 42.6553 76.6221 42.0103 77.0795 41.1761C77.5366 40.3423 77.7653 39.3782 77.7653 38.2846C77.7653 37.2051 77.5366 36.2483 77.0795 35.4142C76.6221 34.5802 75.9747 33.9316 75.1376 33.4691C74.3002 33.0065 73.3397 32.7752 72.2564 32.7752C71.1726 32.7752 70.2124 33.0065 69.3752 33.4691C68.5376 33.9316 67.8905 34.5802 67.4331 35.4142C66.9757 36.2483 66.7473 37.2051 66.7473 38.2846C66.7473 39.3782 66.9757 40.3423 67.4331 41.1761C67.8905 42.0103 68.5376 42.6553 69.3752 43.1107C70.2124 43.5664 71.1726 43.7942 72.2564 43.7942ZM72.2564 41.8594C71.2992 41.8594 70.5323 41.5268 69.9555 40.8606C69.3785 40.1948 69.0902 39.3359 69.0902 38.2846C69.0902 37.2331 69.3785 36.3744 69.9555 35.7086C70.5323 35.0427 71.2992 34.7097 72.2564 34.7097C73.2133 34.7097 73.9835 35.0427 74.5676 35.7086C75.1515 36.3744 75.4438 37.2331 75.4438 38.2846C75.4438 39.3359 75.1515 40.1948 74.5676 40.8606C73.9835 41.5268 73.2133 41.8594 72.2564 41.8594ZM94.4406 43.668V41.523H88.0871V28.9478H85.66V43.668H94.4406ZM95.3145 38.3055C95.3145 39.3991 95.5431 40.3594 96.0005 41.1867C96.4576 42.014 97.105 42.6553 97.9424 43.1107C98.7794 43.5664 99.7612 43.7942 100.887 43.7942C102.181 43.7942 103.262 43.444 104.127 42.7427C104.992 42.0417 105.524 41.1444 105.721 40.0509H103.441C103.286 40.6538 102.97 41.1202 102.491 41.4493C102.013 41.779 101.422 41.9436 100.718 41.9436C99.8317 41.9436 99.1209 41.67 98.5864 41.1235C98.0513 40.5767 97.7559 39.8336 97.6998 38.8944V38.7682H105.847C105.89 38.4737 105.911 38.1867 105.911 37.9061C105.897 36.8687 105.661 35.9643 105.204 35.1935C104.746 34.4224 104.12 33.8265 103.325 33.4061C102.53 32.9853 101.612 32.7752 100.571 32.7752C99.5432 32.7752 98.632 33.0032 97.837 33.4583C97.0417 33.9142 96.423 34.5591 95.9796 35.3933C95.5361 36.2274 95.3145 37.1984 95.3145 38.3055ZM97.7842 37.107C97.8686 36.35 98.1816 35.7436 98.7236 35.288C99.2652 34.8325 99.9088 34.6045 100.655 34.6045C101.457 34.6045 102.122 34.8253 102.65 35.2668C103.177 35.7086 103.491 36.3221 103.589 37.107H97.7842ZM117.507 41.6912C117.028 41.6912 116.79 41.4387 116.79 40.9341V36.6864C116.79 35.4246 116.395 34.4574 115.607 33.7843C114.82 33.1114 113.7 32.7752 112.251 32.7752C110.886 32.7752 109.782 33.073 108.938 33.6687C108.093 34.2648 107.615 35.1022 107.502 36.1818H109.74C109.824 35.7051 110.081 35.3231 110.51 35.0355C110.939 34.7482 111.484 34.6045 112.146 34.6045C112.892 34.6045 113.476 34.7763 113.898 35.1197C114.32 35.4633 114.531 35.9366 114.531 36.5391V37.1911H111.808C110.303 37.1911 109.155 37.4891 108.368 38.0847C107.58 38.6809 107.185 39.5326 107.185 40.6399C107.185 41.6211 107.551 42.3923 108.283 42.9529C109.015 43.514 109.986 43.7942 111.195 43.7942C112.758 43.7942 113.947 43.1772 114.763 41.9436C114.763 42.5046 114.918 42.932 115.227 43.2263C115.537 43.5208 116.043 43.668 116.748 43.668H117.95V41.6912H117.507ZM114.531 39.2518C114.517 40.0929 114.247 40.766 113.718 41.2707C113.191 41.7753 112.455 42.0278 111.512 42.0278C110.893 42.0278 110.404 41.8876 110.046 41.6071C109.687 41.327 109.507 40.9553 109.507 40.4926C109.507 39.96 109.697 39.5569 110.077 39.2835C110.458 39.0101 110.999 38.8734 111.702 38.8734H114.531V39.2518ZM127.58 32.9012L127.327 34.5835C126.96 34.0229 126.482 33.5814 125.891 33.2586C125.3 32.9365 124.597 32.7752 123.781 32.7752C122.81 32.7752 121.937 33.0032 121.163 33.4583C120.39 33.9142 119.781 34.5554 119.337 35.3824C118.894 36.2098 118.673 37.1631 118.673 38.2425C118.673 39.3643 118.89 40.335 119.326 41.155C119.763 41.9751 120.368 42.6058 121.142 43.0477C121.916 43.4894 122.796 43.7099 123.781 43.7099C125.342 43.7099 126.517 43.1213 127.306 41.9436V43.1425C127.306 45.1468 126.271 46.1492 124.203 46.1492C123.401 46.1492 122.747 45.9844 122.24 45.6553C121.733 45.3255 121.409 44.8595 121.269 44.2567H118.947C119.045 45.4482 119.552 46.37 120.467 47.0222C121.381 47.674 122.57 48 124.034 48C125.92 48 127.313 47.5827 128.214 46.7486C129.114 45.9146 129.564 44.7405 129.564 43.2263V32.9012H127.58ZM124.16 41.7966C123.217 41.7966 122.458 41.4671 121.88 40.8079C121.304 40.1492 121.015 39.2941 121.015 38.2425C121.015 37.1911 121.304 36.3359 121.88 35.6771C122.458 35.018 123.217 34.6886 124.16 34.6886C125.104 34.6886 125.863 35.0218 126.44 35.6874C127.017 36.3535 127.306 37.2193 127.306 38.2846C127.306 39.3222 127.017 40.1666 126.44 40.8184C125.863 41.4706 125.104 41.7966 124.16 41.7966ZM139.337 32.9012V38.2425C139.337 39.35 139.091 40.2227 138.598 40.8606C138.106 41.4986 137.424 41.8175 136.551 41.8175C135.72 41.8175 135.094 41.5439 134.672 40.9971C134.25 40.4505 134.039 39.6514 134.039 38.6V32.9012H131.76V38.8312C131.76 40.5697 132.153 41.8314 132.942 42.6166C133.73 43.4018 134.756 43.7942 136.024 43.7942C137.43 43.7942 138.542 43.2967 139.358 42.3012L139.612 43.668H141.617V32.9012H139.337ZM143.453 38.3055C143.453 39.3991 143.682 40.3594 144.139 41.1867C144.596 42.014 145.243 42.6553 146.081 43.1107C146.918 43.5664 147.9 43.7942 149.026 43.7942C150.32 43.7942 151.4 43.444 152.265 42.7427C153.131 42.0417 153.662 41.1444 153.859 40.0509H151.58C151.425 40.6538 151.108 41.1202 150.629 41.4493C150.151 41.779 149.561 41.9436 148.857 41.9436C147.969 41.9436 147.259 41.67 146.725 41.1235C146.19 40.5767 145.895 39.8336 145.838 38.8944V38.7682H153.986C154.028 38.4737 154.049 38.1867 154.049 37.9061C154.035 36.8687 153.799 35.9643 153.342 35.1935C152.885 34.4224 152.258 33.8265 151.463 33.4061C150.668 32.9853 149.75 32.7752 148.708 32.7752C147.682 32.7752 146.771 33.0032 145.975 33.4583C145.18 33.9142 144.561 34.5591 144.118 35.3933C143.675 36.2274 143.453 37.1984 143.453 38.3055ZM145.922 37.107C146.007 36.35 146.32 35.7436 146.863 35.288C147.404 34.8325 148.047 34.6045 148.793 34.6045C149.595 34.6045 150.26 34.8253 150.788 35.2668C151.316 35.7086 151.629 36.3221 151.727 37.107H145.922Z" fill="#FF1950"/>
<path fill-rule="evenodd" clip-rule="evenodd" d="M46.9291 15.9394C46.9148 17.79 47.3723 19.2025 48.3012 20.1765C49.2299 21.1513 50.5666 21.6381 52.3116 21.6381C54.0848 21.6381 55.4321 21.1617 56.3539 20.2083C57.2755 19.2549 57.7364 17.8109 57.7364 15.8762V6.79185H55.3091V15.9183C55.3091 17.1521 55.0589 18.06 54.5598 18.6416C54.06 19.2236 53.3106 19.5144 52.3116 19.5144C51.3408 19.5144 50.6052 19.1988 50.1059 18.5679C49.6061 17.9372 49.3565 17.0612 49.3565 15.9394H46.9291ZM67.5451 10.7451V16.0864C67.5451 17.1942 67.2986 18.067 66.8063 18.7045C66.3137 19.3427 65.6313 19.6615 64.759 19.6615C63.9285 19.6615 63.3025 19.3881 62.8803 18.8413C62.4581 18.2945 62.2471 17.4955 62.2471 16.444V10.7451H59.9674V16.6753C59.9674 18.4139 60.3612 19.6756 61.1494 20.4605C61.9373 21.2459 62.9649 21.6381 64.2312 21.6381C65.6382 21.6381 66.75 21.1409 67.5662 20.1452L67.8196 21.5119H69.8247V10.7451H67.5451ZM77.9215 10.6189C76.4441 10.6189 75.2691 11.1942 74.3966 12.3436L74.1222 10.7451H72.1378V25.7177H74.4176V19.998C74.7692 20.5028 75.2408 20.9022 75.8318 21.1965C76.4229 21.4911 77.1197 21.6381 77.9215 21.6381C78.9066 21.6381 79.7862 21.4105 80.5599 20.9548C81.3339 20.4992 81.939 19.8544 82.3756 19.02C82.8113 18.1862 83.0298 17.2221 83.0298 16.1287C83.0298 15.0072 82.8113 14.0293 82.3756 13.1952C81.939 12.3612 81.3339 11.723 80.5599 11.2815C79.7862 10.8399 78.9066 10.6189 77.9215 10.6189ZM77.5417 19.7246C76.5987 19.7246 75.8389 19.3881 75.262 18.7152C74.6849 18.0422 74.3966 17.1662 74.3966 16.0864C74.3966 15.0352 74.6849 14.1833 75.262 13.5315C75.8389 12.8798 76.5987 12.5538 77.5417 12.5538C78.4842 12.5538 79.2477 12.8833 79.8318 13.5421C80.4156 14.2011 80.7079 15.0634 80.7079 16.1287C80.7079 17.1802 80.4156 18.0422 79.8318 18.7152C79.2477 19.3881 78.4842 19.7246 77.5417 19.7246ZM85.9783 6.43423C85.5843 6.43423 85.2537 6.56408 84.9865 6.82325C84.7188 7.08279 84.5854 7.40882 84.5854 7.801C84.5854 8.19372 84.7188 8.51994 84.9865 8.77911C85.2537 9.03864 85.5843 9.16795 85.9783 9.16795C86.3721 9.16795 86.7031 9.03864 86.9706 8.77911C87.2376 8.51994 87.3717 8.19372 87.3717 7.801C87.3717 7.40882 87.2376 7.08279 86.9706 6.82325C86.7031 6.56408 86.3721 6.43423 85.9783 6.43423ZM84.8387 21.5119H87.1184V10.7451H84.8387V21.5119ZM89.4545 21.5119H91.7342V6.79167H89.4545V21.5119ZM93.6064 16.1496C93.6064 17.2432 93.835 18.2036 94.2922 19.0308C94.7497 19.8579 95.3969 20.4992 96.2346 20.9548C97.0715 21.4105 98.0529 21.6381 99.179 21.6381C100.474 21.6381 101.553 21.288 102.419 20.5866C103.285 19.8858 103.816 18.9885 104.013 17.895H101.733C101.578 18.4979 101.261 18.9642 100.783 19.2934C100.305 19.6231 99.7136 19.7877 99.0101 19.7877C98.1236 19.7877 97.4129 19.5144 96.8784 18.9676C96.3432 18.4209 96.0476 17.6778 95.9917 16.7385V16.6121H104.139C104.181 16.3181 104.203 16.0308 104.203 15.7501C104.188 14.7128 103.953 13.8085 103.496 13.0374C103.038 12.2665 102.412 11.6704 101.617 11.2498C100.822 10.8291 99.9034 10.6189 98.8625 10.6189C97.8351 10.6189 96.9239 10.847 96.129 11.3024C95.3336 11.7581 94.7147 12.4032 94.2714 13.237C93.828 14.0715 93.6064 15.0423 93.6064 16.1496ZM96.076 14.9511C96.1603 14.1939 96.4736 13.5879 97.0154 13.132C97.5571 12.6766 98.2007 12.4486 98.9469 12.4486C99.7488 12.4486 100.414 12.6694 100.942 13.1111C101.469 13.5525 101.782 14.1662 101.881 14.9511H96.076ZM111.505 10.7451C110.676 10.7451 110.014 10.8892 109.522 11.1765C109.029 11.4639 108.628 11.8597 108.319 12.3645L108.065 10.7451H106.039V21.5119H108.319V16.1076C108.319 15.1687 108.529 14.3936 108.952 13.7838C109.374 13.1743 110.056 12.8692 111 12.8692H112.012V10.7451H111.505Z" fill="#FF1950"/>
</g>
</svg>
