<svg width="45" height="52" viewBox="0 0 45 52" fill="none" xmlns="http://www.w3.org/2000/svg">
<g id="Logos 04">
<g id="g898">
<g id="g896">
<g id="g894">
<path id="polygon873" d="M0.0493164 37.7874H13.7566L22.4408 51.9857L0.0493164 37.7874Z" fill="#1A1659"/>
<path id="polygon875" d="M44.8547 37.7874H31.1252L22.4409 51.9857L44.8547 37.7874Z" fill="#1A1659"/>
<path id="polygon877" d="M13.7566 37.7876H22.4408H31.1251L22.4408 14.8604L13.7566 37.7876Z" fill="#1A1659"/>
<path id="polygon892" d="M22.4408 51.9857L31.1251 37.7874H13.7566L22.4408 51.9857Z" fill="url(#paint0_linear_1327_14842)"/>
</g>
</g>
</g>
<path id="path913" d="M22.4408 14.86L26.1913 24.7497H21.4585L18.2438 33.2777H29.4284L31.125 37.7872H44.8546L28.6247 0.0141602C24.4947 0.0141602 20.387 0.0141602 16.2569 0.0141602L0.0493164 37.7872H13.7789L22.4408 14.86Z" fill="url(#paint1_linear_1327_14842)"/>
</g>
<defs>
<linearGradient id="paint0_linear_1327_14842" x1="13.7656" y1="44.8776" x2="31.1256" y2="44.8776" gradientUnits="userSpaceOnUse">
<stop stop-color="#31ECFF"/>
<stop offset="0.049371" stop-color="#2DE2FF"/>
<stop offset="0.2964" stop-color="#1BB2FF"/>
<stop offset="0.5147" stop-color="#0E90FF"/>
<stop offset="0.694" stop-color="#067BFF"/>
<stop offset="0.8118" stop-color="#0373FF"/>
</linearGradient>
<linearGradient id="paint1_linear_1327_14842" x1="35.311" y1="2.45273" x2="19.832" y2="44.981" gradientUnits="userSpaceOnUse">
<stop stop-color="#31ECFF"/>
<stop offset="0.0488274" stop-color="#2DE2FF"/>
<stop offset="0.2932" stop-color="#1BB2FF"/>
<stop offset="0.5091" stop-color="#0E90FF"/>
<stop offset="0.6863" stop-color="#067BFF"/>
<stop offset="0.8028" stop-color="#0373FF"/>
</linearGradient>
</defs>
</svg>
