<svg width="35" height="39" viewBox="0 0 35 39" fill="none" xmlns="http://www.w3.org/2000/svg">
<g id="Logos 02">
<path id="path6" d="M2.36231 23.6779C2.36231 20.1685 4.01153 18.8471 4.33926 15.5064C3.88496 18.4349 1.9502 20.7924 1.9502 23.6779C1.9502 24.7877 2.11896 25.7815 2.36231 26.6908C3.55722 30.7397 7.19318 32.96 10.6611 33.8686C5.33301 32.5049 2.36231 27.9701 2.36231 23.6779ZM33.1143 23.6779C33.1143 21.86 32.6178 20.4217 32.0784 19.1002C31.4229 17.5354 30.7147 16.0873 30.7147 14.3115C30.7147 18.5615 32.7338 19.7979 32.7338 23.6779C32.7338 27.9701 29.8053 32.5049 24.435 33.8686C29.2772 32.6315 33.1143 29.0799 33.1143 23.6779Z" fill="#E4E5E6"/>
<path id="path8" d="M31.3369 6.68136C30.2271 6.35363 29.4338 5.5294 28.9478 4.20792L27.8803 1.15283L27.3408 3.08759C28.4084 7.83408 32.2885 8.16182 32.2885 8.16182L33.8533 7.42197L31.3369 6.68136ZM12.9318 23.9654L10.9127 20.8259L8.63965 22.5173C8.63965 22.5173 9.42169 22.5595 9.42169 23.3845V29.2829L11.0287 28.088V23.9232L12.8467 26.7244L14.5381 25.4451V18.1084L12.9311 19.3033V23.9654H12.9318ZM19.4549 17.1154L17.6369 18.479V15.7517L15.2056 17.5697C15.2056 17.5697 15.9877 17.6119 15.9877 18.4368V24.3353L17.6369 23.0982V20.413L19.4549 19.0494V21.7767L21.0197 20.6247V13.2353L19.4549 14.4302V17.1154ZM23.9896 16.4599V10.9735L21.5584 12.7915C21.5584 12.7915 22.3404 12.8337 22.3404 13.6587V19.5572L26.8752 16.1322C26.7908 14.9802 26.8752 14.272 26.8752 14.272L23.9896 16.4599Z" fill="#E4E5E6"/>
<path id="path19" d="M3.27422 14.3114C3.27422 18.4763 1.21289 19.3012 1.21289 23.6778C1.21289 24.9993 1.4246 26.2786 1.83671 27.3884C1.96329 27.145 2.16445 26.8489 2.37616 26.6907C2.08986 25.7813 1.96329 24.7876 1.96329 23.6778C1.96329 20.8344 3.89805 18.4348 4.35236 15.5063C4.39455 15.1364 4.39455 14.7243 4.39455 14.3114C4.43674 10.9708 2.82971 8.15904 2.82971 8.15904L1.26563 7.41919L2.33321 9.85045C2.86211 11.0875 3.27422 12.62 3.27422 14.3114Z" fill="#E4E5E6"/>
<path id="path30" d="M30.7144 14.3114C30.7144 16.0872 31.412 17.4931 32.078 19.1001L32.9452 19.0579C32.4058 17.7364 31.8776 16.4571 31.8776 14.3114C31.8776 12.62 32.2897 11.0981 32.8292 9.85045L33.8968 7.41919L32.2897 8.15904C32.2897 8.15904 30.7144 10.9708 30.7144 14.3114Z" fill="#E4E5E6"/>
<path id="path45" d="M16.3167 35.1462C15.0374 34.6919 13.2616 34.5224 10.703 33.867C7.19362 32.9998 3.60965 30.7275 2.40419 26.6892C2.19248 26.9009 1.99207 27.1435 1.86475 27.3869C3.22842 31.2662 6.69562 33.9943 10.4062 34.9767C12.7952 35.6006 13.9156 35.6322 15.6921 36.1287C15.9355 36.372 17.5523 38.1478 17.5523 38.1478V36.4564C17.5538 36.4677 16.4862 35.2728 16.3167 35.1462Z" fill="#E4E5E6"/>
<path id="path68" d="M10.9908 32.7178C13.8342 33.4154 15.6951 33.4998 16.9322 34.1236C16.9322 34.1236 17.3865 34.5357 17.556 34.7474C17.7248 34.5357 18.1799 34.1236 18.1799 34.1236C19.417 33.4998 21.2771 33.426 24.1213 32.7178C27.7158 31.8084 31.5951 28.6373 31.5951 23.6791C31.5951 20.1275 29.576 18.806 29.576 14.3127C29.576 11.2576 30.7279 8.91072 30.7279 8.91072C30.7279 8.91072 28.085 8.37128 26.8486 5.03141C26.8486 5.03141 25.0728 6.68063 22.6416 6.68063C19.5865 6.68063 17.5673 4.53491 17.5673 4.53491C17.5673 4.53491 15.5482 6.68063 12.4931 6.68063C10.0619 6.68063 8.28607 5.03141 8.28607 5.03141C7.04897 8.37203 4.40676 8.91072 4.40676 8.91072C4.40676 8.91072 5.55872 11.2681 5.55872 14.3127C5.55872 18.8158 3.53958 20.1268 3.53958 23.6791C3.52752 28.6689 7.40684 31.8084 10.9908 32.7178ZM30.3045 23.6791C30.3045 27.8861 26.9639 30.6564 23.8244 31.4807C21.5514 32.0623 18.8346 32.3478 17.9682 32.8443C17.7564 32.9709 17.556 33.2143 17.556 33.2143C17.556 33.2143 17.3127 32.9709 17.1439 32.8443C16.3197 32.39 13.5494 32.0623 11.2877 31.4807C11.2033 31.4385 11.1181 31.4385 11.0443 31.3963L28.7932 18.0662C29.3951 20.2119 30.3045 21.5756 30.3045 23.6791ZM29.0252 9.65133C28.6553 10.7189 28.2432 12.4209 28.2432 14.3134C28.2432 15.0955 28.2854 15.8353 28.4127 16.4591L9.38379 30.7408C6.99472 29.5037 4.92284 27.1463 4.80606 23.933L26.6783 7.50486C27.4604 8.57244 28.3276 9.23846 29.0252 9.65133ZM6.8674 14.3127C6.8674 12.3779 6.45528 10.7182 6.08536 9.65057C6.90959 9.19627 7.98847 8.37128 8.8127 6.96542C9.72207 7.46191 11.0006 8.00136 12.4811 8.00136C14.7541 8.00136 16.5299 7.00761 17.5553 6.26776C18.5912 7.00761 20.3565 8.00136 22.6295 8.00136C22.9994 8.00136 23.3272 7.95917 23.6655 7.91697L5.04941 21.8611C5.58886 19.7568 6.8674 18.0232 6.8674 14.3127Z" fill="#E4E5E6"/>
<path id="path83" d="M12.4801 5.5147C15.5352 5.5147 17.5543 2.91392 17.5543 2.91392V1.26546L15.9473 2.82954C15.1231 3.65377 13.8016 4.31979 12.4801 4.31979C11.4863 4.31979 10.5453 3.86548 9.75275 3.21001L7.2793 1.14868L7.81874 3.08344C7.77579 3.08344 10.1227 5.5147 12.4801 5.5147Z" fill="#E4E5E6"/>
<path id="path98" d="M33.1159 23.6778C33.1159 29.0797 29.2788 32.6313 24.405 33.8684C21.8464 34.5239 20.0706 34.6926 18.7913 35.1477C18.6225 35.3165 17.5542 36.4692 17.5542 36.4692V38.1606C17.5542 38.1606 19.2034 36.3848 19.4144 36.1414C21.1902 35.6449 22.3007 35.602 24.7003 34.9895C29.5312 33.7524 33.9077 29.5453 33.9077 23.6785C33.9077 21.575 33.4534 20.2957 32.9562 19.0586L32.089 19.1008C32.6187 20.4215 33.1159 21.8598 33.1159 23.6778Z" fill="#E4E5E6"/>
<path id="path113" d="M22.6267 5.5147C24.9841 5.5147 27.331 3.12563 27.331 3.12563L27.8704 1.14868L25.397 3.21001C24.5727 3.86548 23.6634 4.31979 22.6696 4.31979C21.3481 4.31979 20.0267 3.66432 19.2024 2.82954L17.5954 1.26471V2.88228C17.5525 2.91468 19.5716 5.5147 22.6267 5.5147Z" fill="#E4E5E6"/>
<path id="path128" d="M7.77491 3.08344L7.27842 1.14868L6.16864 4.20376C5.67214 5.52525 4.88935 6.34948 3.77958 6.67721L1.26318 7.41782L2.82802 8.15767C2.81672 8.15767 6.73897 7.82993 7.77491 3.08344Z" fill="#E4E5E6"/>
<path id="path130" d="M5.04796 21.8604L23.664 7.87484C23.3363 7.91703 22.9663 7.95922 22.6281 7.95922C20.355 7.95922 18.5792 6.96548 17.5538 6.22563C16.5179 6.96548 14.7527 7.95922 12.4796 7.95922C10.9894 7.95922 9.71007 7.46273 8.81125 6.92328C7.98702 8.32915 6.90813 9.15413 6.0839 9.60844C6.45383 10.676 6.86594 12.378 6.86594 14.2705C6.86594 18.0225 5.5874 19.7561 5.04796 21.8604ZM11.0316 31.3956C11.1159 31.4378 11.2011 31.4378 11.2749 31.48C13.5479 32.0616 16.2647 32.3471 17.1312 32.8436C17.3429 32.9702 17.5433 33.2136 17.5433 33.2136C17.5433 33.2136 17.7866 32.9702 17.9554 32.8436C18.7796 32.3893 21.5499 32.0616 23.8117 31.48C26.9511 30.6979 30.2918 27.9284 30.2918 23.6784C30.2918 21.5749 29.3824 20.2112 28.7699 18.0647L11.0316 31.3956ZM2.77492 14.312C2.77492 18.3186 0.713586 19.228 0.713586 23.6784C0.713586 30.0741 5.66124 34.2811 10.2909 35.4761C12.6062 36.0577 13.3038 36.0999 15.4074 36.5858C15.5769 36.7546 17.5531 38.9011 17.5531 38.9011C17.5531 38.9011 19.53 36.7975 19.6988 36.5858C21.8023 36.0464 22.5 36.0464 24.8152 35.4761C29.4351 34.2811 34.3926 30.0741 34.3926 23.6784C34.3926 19.2174 32.3312 18.3186 32.3312 14.312C32.3312 12.8639 32.6168 11.4257 33.2406 10.062L34.5621 7.09129L31.507 6.22412C30.5554 5.93858 29.9 5.23037 29.4457 4.0784L28.082 0.367854L25.0269 2.88349C24.2449 3.53896 23.4199 3.87724 22.5957 3.87724C21.5281 3.87724 20.2804 3.3378 19.4984 2.55576L17.5644 0.622507L15.6296 2.55727C14.8054 3.3815 13.6105 3.87875 12.5323 3.87875C11.7503 3.87875 10.9253 3.55102 10.1011 2.885L7.04601 0.326416L5.68233 4.03697C5.27022 5.18893 4.57256 5.94008 3.621 6.18268L0.565918 7.13424L1.8874 10.1049C2.44719 11.4264 2.77492 12.8639 2.77492 14.312ZM3.76867 6.67993C4.87844 6.3522 5.67179 5.52797 6.15774 4.20648L7.26751 1.1514L9.74096 3.21273C10.5652 3.8682 11.4746 4.32251 12.4683 4.32251C13.7898 4.32251 15.1113 3.66704 15.9355 2.83226L17.5425 1.26743L19.1496 2.83226C19.9738 3.65649 21.2953 4.32251 22.6168 4.32251C23.6105 4.32251 24.5515 3.8682 25.3441 3.21273L27.8176 1.1514L28.9273 4.20648C29.4238 5.52797 30.2066 6.3522 31.3164 6.67993L33.832 7.41978L32.7645 9.85104C32.225 11.0881 31.8129 12.5784 31.8129 14.312C31.8129 16.4577 32.3523 17.737 32.8805 19.0585C33.377 20.2956 33.832 21.5741 33.832 23.6784C33.8742 29.5347 29.4977 33.753 24.6668 34.9894C22.2777 35.6132 21.1574 35.6448 19.3809 36.1413C19.1375 36.3847 17.5207 38.1605 17.5207 38.1605C17.5207 38.1605 15.8715 36.3847 15.6605 36.1413C13.8847 35.6448 12.7742 35.6019 10.3746 34.9894C6.66403 34.0378 3.19683 31.321 1.83316 27.3995C1.42104 26.2475 1.20933 25.0104 1.20933 23.6889C1.16714 19.3124 3.22847 18.4881 3.22847 14.3225C3.22847 12.6311 2.81636 11.1092 2.27691 9.86159L1.21084 7.43033L3.76867 6.67993ZM9.38234 30.7401L28.4105 16.4585C28.3261 15.803 28.2417 15.0948 28.2417 14.3127C28.2417 12.378 28.6538 10.7182 29.0238 9.65063C28.3261 9.23852 27.4167 8.61469 26.6663 7.54711L4.79406 23.9745C4.92139 27.1878 7.03546 29.5347 9.38234 30.7401ZM23.9917 10.9714V16.4155L26.878 14.2276C26.878 14.2276 26.7937 14.9253 26.878 16.0878L22.3433 19.5128V13.6987C22.3433 12.8745 21.5612 12.8315 21.5612 12.8315L23.9917 10.9714ZM17.6382 15.7608V18.4881L19.4562 17.1245V14.3971L21.021 13.2022V20.5389L19.4562 21.776V19.0901L17.6382 20.4538V23.139L15.989 24.3761V18.4776C15.989 17.6534 15.207 17.6104 15.207 17.6104L17.6382 15.7608ZM10.9042 20.835L12.9234 23.9745V19.3124L14.5304 18.1175V25.4647L12.839 26.744L11.021 23.9428V28.1077L9.41398 29.3026V23.3936C9.41398 22.5694 8.63194 22.5264 8.63194 22.5264L10.9042 20.835ZM4.3503 15.5069C4.02257 18.8475 2.37335 20.169 2.37335 23.6784C2.37335 27.9706 5.34405 32.5054 10.7144 33.869C13.273 34.5245 15.0487 34.6933 16.328 35.1483C16.4968 35.3171 17.5651 36.4698 17.5651 36.4698C17.5651 36.4698 18.6327 35.3178 18.8022 35.1483C20.0815 34.694 21.8573 34.5245 24.4159 33.869C29.8179 32.5054 32.7569 27.9706 32.7569 23.6784C32.7569 19.7561 30.7378 18.562 30.7378 14.312C30.7378 10.9714 32.3026 8.15963 32.3026 8.15963C32.3026 8.15963 28.3803 7.8319 27.355 3.08541C27.355 3.08541 24.9975 5.47447 22.6507 5.47447C19.5956 5.47447 17.5764 2.8737 17.5764 2.8737C17.5764 2.8737 15.5573 5.47447 12.5022 5.47447C10.1448 5.47447 7.79791 3.08541 7.79791 3.08541C6.76197 7.8319 2.85026 8.15963 2.85026 8.15963C2.85026 8.15963 4.4151 10.9608 4.4151 14.312C4.43468 14.767 4.39249 15.137 4.3503 15.5069ZM4.43468 8.89948C4.43468 8.89948 7.07765 8.36004 8.314 5.02017C8.314 5.02017 10.0898 6.66938 12.521 6.66938C15.5761 6.66938 17.5953 4.52367 17.5953 4.52367C17.5953 4.52367 19.6144 6.66938 22.6695 6.66938C25.1007 6.66938 26.8765 5.02017 26.8765 5.02017C28.1136 8.36079 30.7559 8.89948 30.7559 8.89948C30.7559 8.89948 29.6039 11.2569 29.6039 14.3014C29.6039 18.8046 31.623 20.1155 31.623 23.6678C31.623 28.6155 27.7437 31.7972 24.1492 32.7065C21.3058 33.4042 19.4449 33.4886 18.2078 34.1124C18.2078 34.1124 17.7535 34.5245 17.584 34.7362C17.4144 34.5245 16.9601 34.1124 16.9601 34.1124C15.723 33.4886 13.8629 33.4147 11.0187 32.7065C7.42422 31.7972 3.54491 28.626 3.54491 23.6678C3.54491 20.1163 5.56405 18.7948 5.56405 14.3014C5.54446 11.2569 4.43468 8.89948 4.43468 8.89948Z" fill="#111111"/>
</g>
</svg>
