<svg xmlns="http://www.w3.org/2000/svg" width="60" height="37" viewBox="0 0 60 37" fill="none">
  <path d="M12.655 0.833982L0 29.0769H9.37879L14.8394 14.8269L20.492 29.0769H29.8068L17.2805 0.833982H12.655Z" fill="#0373FF"/>
  <path d="M60 14.8596C60 23.0664 53.3418 29.7191 45.1279 29.7191C36.9145 29.7191 30.2558 23.0662 30.2558 14.8596C30.2558 6.65264 36.914 0 45.1279 0C53.3412 0 60 6.65277 60 14.8596ZM45.1279 8.5369C41.6333 8.5369 38.8003 11.3675 38.8003 14.8594C38.8003 18.3512 41.6334 21.182 45.1279 21.182C48.6225 21.182 51.4554 18.3512 51.4554 14.8594C51.4554 11.3677 48.6225 8.5369 45.1279 8.5369Z" fill="#0373FF"/>
  <path d="M23.6073 33.2732V32.9959H24.3836V35.6749H23.6073V35.4074C23.4244 35.6353 23.102 35.7698 22.8449 35.7698C21.8131 35.7698 21.494 35.0261 21.4989 34.2884C21.5089 33.5555 21.9896 32.9514 22.8547 32.9514C23.1168 32.9513 23.4344 33.0503 23.6073 33.2732ZM23.6244 34.3786C23.6244 33.9764 23.3175 33.6467 22.9382 33.6467C22.4919 33.6467 22.2688 33.9986 22.2632 34.3675C22.2575 34.7307 22.4864 35.105 22.9382 35.105C23.3175 35.105 23.6244 34.7811 23.6244 34.3786ZM36.2773 33.2732V32.9959H37.0537V35.6749H36.2773V35.4074C36.0944 35.6353 35.772 35.7698 35.5149 35.7698C34.4831 35.7698 34.164 35.0261 34.1689 34.2884C34.1787 33.5555 34.6594 32.9514 35.5247 32.9514C35.7868 32.9513 36.1043 33.0503 36.2773 33.2732ZM36.2944 34.3786C36.2944 33.9764 35.9876 33.6467 35.6083 33.6467C35.1619 33.6467 34.9388 33.9986 34.9332 34.3675C34.9276 34.7307 35.1564 35.105 35.6083 35.105C35.9875 35.105 36.2944 34.7811 36.2944 34.3786ZM41.9186 33.2732V32.9959H42.6949V35.6749H41.9186V35.4074C41.7356 35.6353 41.4131 35.7698 41.1561 35.7698C40.1243 35.7698 39.8052 35.0261 39.8102 34.2884C39.82 33.5555 40.3007 32.9514 41.1659 32.9514C41.4281 32.9513 41.7455 33.0503 41.9186 33.2732ZM41.9355 34.3786C41.9355 33.9764 41.6288 33.6467 41.2494 33.6467C40.8031 33.6467 40.5799 33.9986 40.5744 34.3675C40.5688 34.7307 40.7976 35.105 41.2494 35.105C41.6288 35.105 41.9355 34.7811 41.9355 34.3786ZM26.5039 35.7654V35.4931C26.3159 35.7357 25.9933 35.805 25.7065 35.8001C24.9451 35.7952 24.7945 35.1351 24.7994 34.4716V32.9958H25.5889V34.557C25.5889 35.3438 26.544 35.3005 26.544 34.6029V32.9957H27.2995V35.7652L26.5039 35.7654ZM28.74 32.9315C29.3136 32.9315 29.7493 33.2237 29.7543 33.8478H29.0375C29.0326 33.6398 28.9031 33.5894 28.74 33.5894C28.4231 33.5894 28.4 33.9231 28.7113 33.9775C29.3043 34.0813 29.7618 34.3367 29.7618 34.843C29.7618 35.5165 29.4259 35.7936 28.6964 35.7936C27.9669 35.7936 27.6682 35.4923 27.6582 34.8089H28.3792C28.3841 34.9872 28.49 35.1003 28.7162 35.1003C28.9444 35.1003 29.0118 35.0011 28.9962 34.9043C28.9804 34.8052 28.8744 34.7357 28.6758 34.7085C28.0725 34.6256 27.6916 34.3519 27.6916 33.8577C27.6915 33.2088 28.1416 32.9315 28.74 32.9315ZM31.3456 35.7195C30.7473 35.7245 30.4405 35.4471 30.4405 34.7489V33.6941H29.988V33.0255H30.4405V32.4176L31.2248 31.9126V33.0255H31.7214V33.6941H31.2248V34.7489C31.2248 34.9866 31.3357 35.0609 31.5237 35.0609C31.5977 35.0609 31.6769 35.0509 31.7461 35.0362L31.7708 35.6799C31.6176 35.7047 31.4742 35.7195 31.3456 35.7195ZM32.9067 35.6749H32.2012V33.056H32.9034L32.933 33.3067C33.106 33.1432 33.3894 33.0015 33.6069 33.0015C33.701 33.0015 33.8047 33.0163 33.9086 33.0411L33.8987 33.7439C33.8195 33.7192 33.6291 33.7059 33.5402 33.7059C33.2583 33.711 32.9067 33.8277 32.9067 34.1891V35.6749ZM38.3099 31.7243V35.6749H37.5188V31.7243H38.3099ZM39.0693 31.8113C39.3067 31.8063 39.5539 31.955 39.5539 32.267C39.5539 32.5542 39.3315 32.6979 39.1039 32.7028C38.8666 32.7077 38.6193 32.564 38.6193 32.267C38.6193 31.9698 38.8419 31.8162 39.0693 31.8113ZM38.6936 32.9958V35.6748H39.4846V32.9958H38.6936ZM43.9752 32.9958V33.2632C44.1631 33.0255 44.4796 32.9562 44.7664 32.9562C45.5279 32.9662 45.7355 33.5306 45.7305 34.1992V35.6749H44.9394V34.1438C44.9394 33.7824 44.7367 33.619 44.524 33.619C44.2916 33.619 43.9702 33.7288 43.9702 34.1587V35.675H43.189V32.996L43.9752 32.9958ZM57.7468 32.9958V33.2632C57.9347 33.0255 58.2512 32.9562 58.538 32.9562C59.2994 32.9662 59.5071 33.5306 59.5021 34.1992V35.6749H58.711V34.1438C58.711 33.7824 58.5082 33.619 58.2956 33.619C58.0632 33.619 57.7418 33.7288 57.7418 34.1587V35.675H56.9606V32.996L57.7468 32.9958ZM47.3983 34.3379C47.3983 32.4263 50.2513 32.4312 50.2513 34.3379C50.2513 36.2445 47.3983 36.2346 47.3983 34.3379ZM49.4702 34.3379C49.4702 33.4267 48.1795 33.4317 48.1795 34.3379C48.1795 35.2342 49.4702 35.2391 49.4702 34.3379ZM51.3082 35.4274V37H50.6274V32.9959H51.3385V33.2633C51.5214 33.0355 51.9042 32.9613 52.1613 32.9613C53.0118 32.9613 53.482 33.6447 53.4771 34.3824C53.4672 35.1154 53.0168 35.7798 52.1514 35.7798C51.8893 35.7798 51.4863 35.6304 51.3082 35.4274ZM51.3837 34.3524C51.3837 34.7535 51.6896 35.0823 52.068 35.0823C52.5129 35.0823 52.7355 34.7257 52.741 34.3636C52.7466 34.0015 52.5185 33.6282 52.068 33.6282C51.6897 33.6282 51.3837 33.9514 51.3837 34.3524ZM56.5519 34.6351H54.543C54.6369 34.8826 54.8593 35.132 55.1768 35.132C55.4944 35.132 55.5749 35.0099 55.6569 34.8885H56.5024C56.2948 35.4827 55.731 35.7749 55.1674 35.7649C54.49 35.75 53.8176 35.2341 53.8176 34.3279C53.8176 33.4068 54.5147 32.9513 55.212 32.9562C55.8993 32.9612 56.5817 33.4167 56.5817 34.3279C56.5817 34.437 56.5717 34.536 56.5519 34.6351ZM55.8217 34.0259C55.7476 33.7585 55.4395 33.6346 55.1873 33.6346C54.9548 33.6346 54.6819 33.7635 54.6028 34.0259H55.8217Z" fill="#0373FF"/>
</svg>