<svg width="41" height="30" viewBox="0 0 41 30" fill="none" xmlns="http://www.w3.org/2000/svg">
<g id="Logos 01" clip-path="url(#clip0_1327_8289)">
<g id="IQoISc.tif">
<path id="Vector" d="M40.0586 29.7988V30H1.12426C1.26126 29.8932 1.44826 29.8149 1.52659 29.6748C1.90726 28.9945 2.42059 28.4436 3.08559 28.0572C3.77159 27.6588 4.48326 27.3047 5.18859 26.9412C5.51859 26.7712 5.85059 26.5949 6.19926 26.4733C7.67526 25.9583 9.15793 25.4614 10.6393 24.9618C10.7609 24.9208 10.8446 24.8742 10.8523 24.728C10.8546 24.6803 10.9106 24.6249 10.9556 24.5923C11.1756 24.4317 11.4109 24.2906 11.6213 24.1183C11.9863 23.8189 12.3393 23.5045 12.6923 23.1904C12.8279 23.0698 12.8846 22.9068 12.8809 22.7238C12.8633 21.8244 12.8506 20.9248 12.8253 20.0258C12.8143 19.6304 12.7776 19.2356 12.7519 18.8271C12.8496 18.8086 12.9399 18.7915 13.0453 18.7717C13.0453 18.7048 13.0516 18.6383 13.0443 18.5731C12.9616 17.8522 12.8736 17.1316 12.7959 16.4103C12.7809 16.2709 12.7153 16.193 12.6026 16.1258C12.4393 16.0287 12.2843 15.9178 12.1256 15.813C12.1306 15.7992 12.1353 15.7855 12.1403 15.772C12.2046 15.772 12.2689 15.772 12.3333 15.772C14.0596 15.774 15.7856 15.775 17.5119 15.7808C17.6303 15.7811 17.7173 15.7559 17.7686 15.6454C17.8133 15.5496 17.8903 15.5338 17.9879 15.5358C18.9479 15.5567 19.9083 15.601 20.8676 15.5829C21.5566 15.5698 22.1739 15.7236 22.7623 16.0804C23.2303 16.364 23.7503 16.4839 24.3056 16.4741C25.1989 16.4587 26.0933 16.4506 26.9859 16.4805C27.6106 16.5014 28.2329 16.5914 28.8569 16.6472C28.9909 16.6593 29.0709 16.7231 29.0963 16.8548C29.1446 17.1064 29.2089 17.3567 29.2319 17.6107C29.2496 17.8048 29.3296 17.9382 29.5013 17.9916C29.6899 18.0501 29.8879 18.0867 30.0846 18.1065C30.3286 18.1314 30.5906 18.1609 30.6356 17.8468H31.0373C31.0066 17.6348 31.1399 17.5616 31.2953 17.4904C31.8603 17.232 32.4219 16.9656 32.9843 16.7006C33.1173 16.6378 33.2423 16.5622 33.4033 16.6031C33.4679 16.6196 33.5436 16.5921 33.6183 16.584C33.6379 16.455 33.6373 16.3173 33.8163 16.3294C33.9249 16.3367 34.0339 16.3401 34.1056 16.3435C34.1693 16.2538 34.2046 16.1869 34.2553 16.1358C34.4396 15.9494 34.4286 15.7042 34.2029 15.5711C34.0939 15.507 33.9539 15.4724 33.8263 15.4676C33.2329 15.4468 32.6386 15.4509 32.0453 15.427C31.3999 15.4011 30.7553 15.4257 30.1219 15.2093C29.0789 14.8529 28.0026 14.6002 27.0006 14.1178C26.1009 13.6848 25.1846 13.2867 24.2749 12.8745C24.1439 12.815 24.0126 12.7505 23.8773 12.8768C23.8526 12.8997 23.7929 12.8906 23.7503 12.8862C23.3096 12.8429 22.8676 12.8093 22.4289 12.7495C22.0353 12.6961 21.6233 12.6722 21.2586 12.5321C20.4873 12.2362 19.6959 12.036 18.8919 11.871C18.5876 11.8085 18.5879 11.8075 18.5266 11.4894C18.5246 11.479 18.5169 11.4695 18.5029 11.4427C16.6426 11.1867 14.7719 10.9293 12.8966 10.6713C12.9066 10.6015 12.9093 10.5507 12.9209 10.5027C13.0729 9.87951 13.2306 9.25734 13.3786 8.63315C13.6049 7.67974 14.0756 6.82576 14.4519 5.93349C14.5316 5.74435 14.6566 5.67582 14.8649 5.70168C15.1116 5.73225 15.3629 5.73058 15.6123 5.73393C15.7943 5.73662 15.9333 5.6607 15.9993 5.47761C16.0543 5.32576 16.1189 5.17694 16.1673 5.02274C16.2563 4.73785 16.3729 4.48522 16.6743 4.35857C16.8456 4.28668 16.9119 4.14088 16.8656 3.94502C16.8363 3.82106 16.8239 3.69071 16.8209 3.56271C16.8103 3.0981 16.7483 2.63382 17.0079 2.19507C17.1913 1.88533 17.1323 1.56517 16.9003 1.27592C16.5989 0.900001 16.2423 0.595633 15.8156 0.37794C15.2679 0.0984323 14.6919 -0.0534155 14.0793 0.0893618C13.1713 0.301008 12.6589 0.911759 12.4543 1.80302C12.3949 2.0617 12.3736 2.32945 12.3349 2.59216C11.9049 2.54312 11.4769 2.48735 11.0469 2.4467C9.55959 2.30627 8.07659 2.36574 6.59659 2.55387C6.51659 2.56394 6.46659 2.58847 6.48793 2.67783C6.52093 2.81557 6.45259 2.85051 6.33093 2.86092C5.87226 2.9009 5.49693 3.10179 5.20126 3.46025C4.84659 3.88992 4.47193 4.30381 4.13093 4.7439C3.68393 5.32072 3.26593 5.92072 2.82593 6.50325C2.62226 6.77268 2.37459 7.0018 2.04959 7.11535C1.82059 7.1953 1.63059 7.32431 1.48426 7.51109C1.23326 7.83158 0.915594 8.0345 0.521927 8.12755C0.415594 8.15275 0.31026 8.19945 0.217927 8.2579C0.164594 8.29183 0.0999271 8.37683 0.109594 8.42487C0.121927 8.485 0.196594 8.55723 0.258927 8.57705C0.355594 8.60762 0.467594 8.6177 0.567927 8.60191C0.784927 8.56764 0.998927 8.5112 1.21393 8.46417L1.24159 8.50717C0.999927 8.67985 0.760927 8.85622 0.515594 9.02352C0.391927 9.10785 0.275594 9.30034 0.310594 9.41423C0.362594 9.58287 0.513594 9.58489 0.64126 9.56843C1.61093 9.44211 2.51726 9.2046 2.93293 8.1598C2.95126 8.11344 2.97326 8.06574 3.00393 8.02744C3.12126 7.88063 3.22726 7.71938 3.36559 7.59575C3.68493 7.3102 4.02226 7.04513 4.34959 6.76899C4.95759 6.256 5.56159 5.73797 6.17426 5.23069C6.24726 5.17022 6.36593 5.13427 6.46093 5.1383C7.04826 5.16451 7.63526 5.20112 8.22193 5.24345C8.52026 5.26495 8.81726 5.3056 9.13326 5.33953C9.10459 5.36809 9.09859 5.37917 9.08959 5.38287C8.85726 5.47358 8.62726 5.57167 8.39093 5.65062C8.24626 5.699 8.16893 5.7803 8.11893 5.92744C7.48426 7.78858 7.16026 9.71121 6.99193 11.6647C6.97526 11.8572 6.96759 12.0504 6.95493 12.2577H7.31593C7.31593 12.3034 7.31759 12.3356 7.31593 12.3679C7.29526 12.7193 7.26259 13.0703 7.25493 13.4221C7.21693 15.1858 7.44226 16.9105 8.02326 18.5819C8.06226 18.6944 8.11859 18.7545 8.23359 18.7458C8.36126 18.7361 8.41393 18.8019 8.45526 18.9155C8.68259 19.539 8.91659 20.1602 9.15026 20.7813C9.27893 21.124 9.41093 21.4653 9.53959 21.8033C9.52226 21.8187 9.51493 21.8298 9.50526 21.8325C8.57193 22.0905 7.79793 22.6233 7.09259 23.2673C6.48426 23.823 5.87693 24.381 5.28859 24.9581C4.85859 25.3801 4.00826 25.4506 3.50459 25.1342C3.24359 24.9702 2.95859 24.8906 2.66126 24.8453C2.33993 24.7965 1.91159 25.1056 1.86759 25.4214C1.84926 25.5528 1.82259 25.6606 1.71826 25.669C1.69659 25.9216 1.71826 26.1679 1.64793 26.3836C1.47726 26.9073 1.26393 27.4173 1.06793 27.9326C1.01426 28.0734 0.936594 28.1889 0.82826 28.1983C0.748594 28.3969 0.680594 28.5602 0.618927 28.7261C0.60226 28.7708 0.597594 28.8239 0.60226 28.8716C0.626927 29.1219 0.67026 29.3708 0.68026 29.6214C0.687594 29.8089 0.770927 29.9224 0.925927 30.0007H0.0585938V0H40.0586V28.0535C39.9923 28.0509 39.9259 28.0462 39.8593 28.0462C38.8936 28.0458 37.9279 28.0462 36.9623 28.0462H36.7513V21.9413H34.6516V29.8102H34.8153C36.5133 29.8102 38.2116 29.8102 39.9096 29.8099C39.9593 29.8099 40.0086 29.8028 40.0583 29.7991L40.0586 29.7988ZM19.6843 29.8011C19.7309 29.8052 19.7586 29.8095 19.7859 29.8095C20.6849 29.8092 21.5839 29.8196 22.4826 29.8025C22.9073 29.7944 23.3416 29.7803 23.7529 29.6866C25.0459 29.3916 25.9266 28.6287 26.2666 27.3004C26.4546 26.5653 26.4739 25.8192 26.3916 25.0707C26.3239 24.4535 26.1459 23.867 25.7843 23.355C25.1173 22.411 24.1519 22.0253 23.0526 21.9561C22.2839 21.9077 21.5106 21.9326 20.7396 21.9266C20.3913 21.9239 20.0429 21.9262 19.6843 21.9262V29.8018V29.8011ZM29.8099 25.0132V23.7128H33.3196V21.943H27.6846V29.7988H29.7873V26.7303H32.8866V25.0132H29.8099ZM37.1616 14.7786C38.5359 14.7726 39.6313 13.6619 39.6289 12.2768C39.6266 10.8937 38.5209 9.78545 37.1483 9.79049C35.7766 9.79553 34.6696 10.9139 34.6743 12.2899C34.6789 13.6663 35.7963 14.7843 37.1613 14.7783L37.1616 14.7786Z" fill="#F8F8F8"/>
<path id="Vector_2" d="M0.924722 29.9998C0.769722 29.9216 0.686389 29.808 0.679056 29.6206C0.669056 29.3699 0.626056 29.121 0.601056 28.8707C0.596389 28.823 0.601056 28.7699 0.617722 28.7253C0.679389 28.5596 0.747389 28.3964 0.827056 28.1975C0.935389 28.1881 1.01306 28.0725 1.06672 27.9317C1.26305 27.4164 1.47639 26.9068 1.64672 26.3827C1.71705 26.167 1.69505 25.9208 1.71705 25.6681C1.82139 25.6597 1.84839 25.5519 1.86639 25.4205C1.91005 25.1044 2.33872 24.7957 2.66005 24.8444C2.95772 24.8894 3.24239 24.9694 3.50339 25.1333C4.00705 25.4498 4.85738 25.3792 5.28738 24.9573C5.87572 24.3801 6.48305 23.8224 7.09138 23.2665C7.79671 22.6221 8.57071 22.0893 9.50404 21.8316C9.51371 21.8289 9.52071 21.8179 9.53838 21.8024C9.40938 21.4644 9.27771 21.1231 9.14905 20.7805C8.91571 20.1593 8.68171 19.5381 8.45405 18.9146C8.41271 18.8011 8.36005 18.7349 8.23238 18.7449C8.11705 18.7537 8.06105 18.6936 8.02205 18.581C7.44105 16.9097 7.21571 15.1853 7.25372 13.4212C7.26138 13.0695 7.29405 12.7184 7.31471 12.367C7.31671 12.3351 7.31471 12.3028 7.31471 12.2568H6.95371C6.96638 12.0492 6.97405 11.856 6.99072 11.6639C7.15938 9.71034 7.48305 7.78771 8.11771 5.92657C8.16805 5.77909 8.24505 5.69779 8.38971 5.64975C8.62605 5.57114 8.85605 5.47271 9.08838 5.382C9.09738 5.37864 9.10338 5.36755 9.13205 5.33866C8.81605 5.30473 8.51905 5.26408 8.22071 5.24258C7.63438 5.20025 7.04705 5.16363 6.45972 5.13743C6.36472 5.13306 6.24605 5.16935 6.17305 5.22982C5.56038 5.73709 4.95638 6.25513 4.34838 6.76812C4.02072 7.04426 3.68372 7.30966 3.36439 7.59488C3.22605 7.71851 3.12005 7.87976 3.00272 8.02657C2.97205 8.06521 2.95039 8.11257 2.93172 8.15893C2.51605 9.20373 1.60972 9.44124 0.640056 9.56756C0.512389 9.58436 0.361389 9.58234 0.309389 9.41336C0.27439 9.29947 0.390723 9.10698 0.514389 9.02265C0.759722 8.85535 0.998722 8.67898 1.24039 8.5063L1.21272 8.4633C0.997722 8.51067 0.783722 8.56677 0.566722 8.60104C0.466723 8.61683 0.354389 8.60675 0.257723 8.57618C0.19539 8.55636 0.120723 8.48447 0.10839 8.424C0.098723 8.37596 0.16339 8.29096 0.216723 8.25703C0.309056 8.19858 0.414723 8.15188 0.520723 8.12668C0.914389 8.03363 1.23206 7.83071 1.48305 7.51022C1.62939 7.3231 1.81939 7.1941 2.04839 7.11448C2.37339 7.00126 2.62105 6.77215 2.82472 6.50238C3.26472 5.91985 3.68272 5.31985 4.12972 4.74303C4.47072 4.30294 4.84572 3.88905 5.20005 3.45938C5.49572 3.10092 5.87105 2.90003 6.32972 2.86005C6.45138 2.84963 6.51972 2.8147 6.48672 2.67696C6.46538 2.5876 6.51572 2.56341 6.59538 2.55299C8.07538 2.36486 9.55838 2.3054 11.0457 2.44583C11.4754 2.48648 11.9037 2.54224 12.3337 2.59129C12.3724 2.32824 12.3937 2.06083 12.453 1.80215C12.6577 0.910886 13.17 0.300135 14.078 0.0884887C14.6907 -0.0542887 15.2667 0.0975592 15.8144 0.377067C16.241 0.59476 16.5977 0.899464 16.899 1.27505C17.131 1.5643 17.19 1.88446 17.0067 2.1942C16.747 2.63261 16.809 3.09689 16.8197 3.56184C16.8227 3.68984 16.835 3.82018 16.8644 3.94415C16.911 4.14001 16.8444 4.28547 16.673 4.3577C16.3717 4.48435 16.255 4.73698 16.166 5.02186C16.118 5.17606 16.053 5.32455 15.998 5.47674C15.932 5.65983 15.793 5.73575 15.611 5.73306C15.3617 5.72937 15.1104 5.73138 14.8637 5.70081C14.655 5.67494 14.5304 5.74381 14.4507 5.93262C14.074 6.82489 13.6037 7.67887 13.3774 8.63228C13.2294 9.25647 13.0717 9.87831 12.9197 10.5018C12.908 10.5502 12.905 10.6006 12.8954 10.6705C14.7707 10.9285 16.6417 11.1858 18.5017 11.4418C18.5154 11.4687 18.5234 11.4778 18.5254 11.4885C18.5867 11.8063 18.5864 11.8077 18.8907 11.8701C19.6947 12.0354 20.4864 12.2353 21.2574 12.5313C21.6224 12.6714 22.034 12.6952 22.4277 12.7486C22.8664 12.8081 23.3084 12.842 23.749 12.8854C23.7917 12.8894 23.8514 12.8988 23.876 12.876C24.0114 12.75 24.1427 12.8145 24.2737 12.8736C25.1834 13.2858 26.0997 13.6839 26.9994 14.1169C28.0014 14.5994 29.0777 14.852 30.1207 15.2084C30.754 15.4248 31.399 15.4003 32.044 15.4261C32.6374 15.45 33.2317 15.4456 33.825 15.4668C33.9524 15.4711 34.0927 15.5058 34.2017 15.5703C34.4274 15.7033 34.4384 15.9482 34.254 16.135C34.2034 16.1864 34.168 16.2529 34.1044 16.3426C34.0327 16.3392 33.9237 16.3359 33.815 16.3285C33.636 16.3164 33.6367 16.4541 33.617 16.5831C33.5424 16.5912 33.4667 16.6187 33.402 16.6023C33.241 16.561 33.1164 16.6369 32.983 16.6997C32.421 16.9648 31.8594 17.2312 31.294 17.4895C31.1384 17.5607 31.0054 17.6336 31.036 17.846H30.6344C30.5894 18.1597 30.327 18.1302 30.0834 18.1056C29.8867 18.0858 29.6887 18.0492 29.5 17.9908C29.3284 17.9377 29.2484 17.804 29.2307 17.6098C29.2074 17.3558 29.1434 17.1055 29.095 16.8539C29.0697 16.7226 28.9897 16.6584 28.8557 16.6463C28.232 16.5905 27.6097 16.5005 26.9847 16.4797C26.092 16.4501 25.1977 16.4582 24.3044 16.4733C23.749 16.4827 23.2294 16.3631 22.761 16.0795C22.1724 15.7228 21.5554 15.5689 20.8664 15.582C19.907 15.6002 18.9467 15.5558 17.9867 15.535C17.8894 15.533 17.812 15.5488 17.7674 15.6445C17.716 15.7547 17.629 15.7802 17.5107 15.7799C15.7844 15.7742 14.0584 15.7732 12.332 15.7711C12.2677 15.7711 12.2034 15.7711 12.139 15.7711C12.134 15.7849 12.1294 15.7987 12.1244 15.8121C12.283 15.917 12.438 16.0278 12.6014 16.1249C12.714 16.1918 12.7797 16.27 12.7947 16.4094C12.8727 17.1311 12.9607 17.8513 13.043 18.5723C13.0504 18.6371 13.044 18.7036 13.044 18.7708C12.9387 18.7906 12.8487 18.8078 12.7507 18.8263C12.7764 19.2348 12.813 19.6295 12.824 20.0249C12.849 20.9239 12.8617 21.8236 12.8797 22.7229C12.8834 22.9056 12.8267 23.0689 12.691 23.1895C12.338 23.5033 11.985 23.8181 11.62 24.1174C11.4097 24.2898 11.1744 24.4308 10.9544 24.5914C10.9094 24.6244 10.8534 24.6798 10.851 24.7272C10.8437 24.8733 10.7597 24.92 10.638 24.961C9.15671 25.4605 7.67405 25.9574 6.19805 26.4724C5.84938 26.594 5.51738 26.7704 5.18738 26.9404C4.48205 27.3039 3.77039 27.6583 3.08439 28.0564C2.41939 28.4424 1.90605 28.9933 1.52539 29.674C1.44705 29.8141 1.26006 29.8923 1.12306 29.9992H0.923389L0.924722 29.9998Z" fill="#FF1919"/>
<path id="Vector_3" d="M40.059 29.7987C40.0093 29.8024 39.96 29.8095 39.9103 29.8095C38.2123 29.8101 36.514 29.8098 34.816 29.8098H34.6523V21.9409H36.752V28.0457H36.963C37.9287 28.0457 38.8943 28.0457 39.86 28.0457C39.9263 28.0457 39.9927 28.0504 40.0593 28.0531V29.798L40.059 29.7987Z" fill="#0B0B0B"/>
<path id="Vector_4" d="M19.6836 29.8011V21.9255C20.0419 21.9255 20.3906 21.9232 20.7389 21.9258C21.5103 21.9319 22.2833 21.907 23.0519 21.9554C24.1513 22.0246 25.1166 22.4103 25.7836 23.3543C26.1453 23.8666 26.3233 24.4528 26.3909 25.07C26.4729 25.8185 26.4539 26.5646 26.2659 27.2997C25.9259 28.628 25.0453 29.3909 23.7523 29.6859C23.3409 29.7796 22.9066 29.7937 22.4819 29.8018C21.5833 29.8189 20.6843 29.8085 19.7853 29.8088C19.7579 29.8088 19.7303 29.8045 19.6836 29.8004V29.8011ZM21.8119 23.7054V27.946C22.1176 27.946 22.4126 27.9675 22.7036 27.942C23.4756 27.8734 23.8759 27.5533 24.0516 26.8475C24.2213 26.1652 24.2246 25.4734 24.0346 24.7938C23.8779 24.2335 23.5219 23.8495 22.9333 23.7645C22.5686 23.7117 22.1949 23.7235 21.8119 23.7057V23.7054Z" fill="#0B0B0B"/>
<path id="Vector_5" d="M29.8109 25.0133H32.8875V26.7304H29.7882V29.7989H27.6855V21.9431H33.3205V23.7129H29.8109V25.0133Z" fill="#0B0B0B"/>
<path id="Vector_6" d="M37.1628 14.7788C35.7978 14.7849 34.6805 13.6668 34.6758 12.2905C34.6711 10.9144 35.7778 9.79607 37.1498 9.79103C38.5225 9.78599 39.6281 10.8939 39.6305 12.2774C39.6328 13.6625 38.5375 14.7731 37.1631 14.7792L37.1628 14.7788Z" fill="#FF1919"/>
<path id="Vector_7" d="M21.8145 23.7054C22.1975 23.7232 22.5711 23.7111 22.9358 23.7642C23.5245 23.8495 23.8805 24.2332 24.0371 24.7935C24.2271 25.4732 24.2238 26.1649 24.0541 26.8472C23.8785 27.5533 23.4785 27.8735 22.7061 27.9417C22.4151 27.9676 22.1201 27.9457 21.8145 27.9457V23.7051V23.7054Z" fill="#F8F8F8"/>
</g>
</g>
<defs>
<clipPath id="clip0_1327_8289">
<rect width="40" height="30" fill="white" transform="translate(0.0585938)"/>
</clipPath>
</defs>
</svg>
