<svg xmlns="http://www.w3.org/2000/svg" width="33" height="37" viewBox="0 0 33 37" fill="none">
  <path d="M1.73719 22.0719C1.73719 18.7548 3.29603 17.5057 3.60581 14.3482C3.17639 17.1162 1.34766 19.3445 1.34766 22.0719C1.34766 23.1209 1.50717 24.0601 1.73719 24.9197C2.86662 28.7466 6.30334 30.8453 9.58125 31.7041C4.5451 30.4152 1.73719 26.1289 1.73719 22.0719ZM30.804 22.0719C30.804 20.3535 30.3347 18.9941 29.8248 17.745C29.2053 16.2659 28.5359 14.8972 28.5359 13.2188C28.5359 17.2358 30.4444 18.4044 30.4444 22.0719C30.4444 26.1289 27.6764 30.4152 22.6003 31.7041C27.1772 30.5348 30.804 27.1778 30.804 22.0719Z" fill="#E4E5E6"/>
  <path d="M29.1254 6.00683C28.0764 5.69705 27.3265 4.91799 26.8672 3.66892L25.8581 0.78125L25.3483 2.60999C26.3573 7.09638 30.0248 7.40615 30.0248 7.40615L31.5039 6.70685L29.1254 6.00683ZM11.7289 22.3437L9.82036 19.3763L7.67188 20.975C7.67188 20.975 8.41106 21.0149 8.41106 21.7946V27.3699L9.93003 26.2404V22.3038L11.6484 24.9515L13.2471 23.7423V16.8076L11.7281 17.9371V22.3437H11.7289ZM17.8944 15.8691L16.1761 17.158V14.5801L13.878 16.2985C13.878 16.2985 14.6172 16.3383 14.6172 17.1181V22.6934L16.1761 21.524V18.986L17.8944 17.6971V20.275L19.3735 19.1861V12.2016L17.8944 13.331V15.8691ZM22.1807 15.2495V10.0638L19.8827 11.7822C19.8827 11.7822 20.6219 11.822 20.6219 12.6018V18.177L24.9082 14.9397C24.8284 13.8509 24.9082 13.1815 24.9082 13.1815L22.1807 15.2495Z" fill="#E4E5E6"/>
  <path d="M2.60072 13.2186C2.60072 17.1553 0.652344 17.935 0.652344 22.0718C0.652344 23.3208 0.852451 24.53 1.24198 25.579C1.36162 25.349 1.55176 25.0691 1.75187 24.9196C1.48126 24.06 1.36162 23.1207 1.36162 22.0718C1.36162 19.3842 3.19036 17.1161 3.61977 14.3481C3.65965 13.9984 3.65965 13.6089 3.65965 13.2186C3.69953 10.0611 2.18056 7.40341 2.18056 7.40341L0.702193 6.7041L1.71127 9.00213C2.21119 10.1714 2.60072 11.6199 2.60072 13.2186Z" fill="#E4E5E6"/>
  <path d="M28.5352 13.2186C28.5352 14.8971 29.1946 16.2259 29.8241 17.7449L30.6438 17.705C30.1339 16.4559 29.6347 15.2468 29.6347 13.2186C29.6347 11.6199 30.0242 10.1814 30.5341 9.00213L31.5432 6.7041L30.0242 7.40341C30.0242 7.40341 28.5352 10.0611 28.5352 13.2186Z" fill="#E4E5E6"/>
  <path d="M14.9256 32.9121C13.7164 32.4827 12.0379 32.3224 9.61957 31.7029C6.30249 30.8832 2.91491 28.7354 1.77551 24.9185C1.5754 25.1186 1.38597 25.3479 1.26562 25.5779C2.55457 29.2446 5.83177 31.8232 9.33899 32.7518C11.5971 33.3415 12.6561 33.3714 14.3353 33.8407C14.5653 34.0707 16.0935 35.7492 16.0935 35.7492V34.1504C16.0949 34.1611 15.0858 33.0317 14.9256 32.9121Z" fill="#E4E5E6"/>
  <path d="M9.8906 30.6165C12.5782 31.2759 14.3371 31.3557 15.5064 31.9453C15.5064 31.9453 15.9358 32.3349 16.0961 32.535C16.2556 32.3349 16.6857 31.9453 16.6857 31.9453C17.855 31.3557 19.6132 31.2859 22.3015 30.6165C25.6991 29.757 29.3658 26.7596 29.3658 22.0731C29.3658 18.7162 27.4573 17.4671 27.4573 13.22C27.4573 10.3323 28.5462 8.11405 28.5462 8.11405C28.5462 8.11405 26.048 7.60417 24.8794 4.44732C24.8794 4.44732 23.2009 6.00616 20.9029 6.00616C18.0152 6.00616 16.1067 3.97803 16.1067 3.97803C16.1067 3.97803 14.1982 6.00616 11.3106 6.00616C9.01255 6.00616 7.33407 4.44732 7.33407 4.44732C6.16476 7.60488 3.66734 8.11405 3.66734 8.11405C3.66734 8.11405 4.75618 10.3423 4.75618 13.22C4.75618 17.4764 2.84768 18.7155 2.84768 22.0731C2.83629 26.7895 6.50302 29.757 9.8906 30.6165ZM28.1459 22.0731C28.1459 26.0496 24.9884 28.6681 22.0209 29.4472C19.8725 29.9969 17.3045 30.2668 16.4856 30.7361C16.2855 30.8558 16.0961 31.0858 16.0961 31.0858C16.0961 31.0858 15.866 30.8558 15.7065 30.7361C14.9275 30.3067 12.309 29.9969 10.1712 29.4472C10.0914 29.4073 10.011 29.4073 9.94116 29.3674L26.7174 16.7678C27.2864 18.7959 28.1459 20.0849 28.1459 22.0731ZM26.9368 8.81407C26.5871 9.82315 26.1976 11.4318 26.1976 13.2207C26.1976 13.9599 26.2374 14.6592 26.3578 15.2488L8.37164 28.7479C6.11349 27.5786 4.15514 25.3503 4.04477 22.3131L24.7185 6.78523C25.4577 7.79431 26.2773 8.42383 26.9368 8.81407ZM5.99314 13.22C5.99314 11.3913 5.60361 9.82244 5.25395 8.81336C6.03302 8.38395 7.05278 7.60417 7.83185 6.27534C8.69138 6.74463 9.89986 7.25452 11.2992 7.25452C13.4477 7.25452 15.1261 6.31522 16.0954 5.61592C17.0745 6.31522 18.743 7.25452 20.8915 7.25452C21.2412 7.25452 21.5509 7.21464 21.8707 7.17476L4.27478 20.3548C4.78466 18.3658 5.99314 16.7272 5.99314 13.22Z" fill="#E4E5E6"/>
  <path d="M11.3025 4.90411C14.1902 4.90411 16.0987 2.44585 16.0987 2.44585V0.887723L14.5797 2.3661C13.8007 3.14516 12.5516 3.77468 11.3025 3.77468C10.3632 3.77468 9.47378 3.34527 8.72463 2.72572L6.38672 0.777344L6.8966 2.60608C6.85601 2.60608 9.07428 4.90411 11.3025 4.90411Z" fill="#E4E5E6"/>
  <path d="M30.8066 22.0716C30.8066 27.1775 27.1798 30.5345 22.573 31.7038C20.1546 32.3234 18.4762 32.4829 17.267 32.913C17.1075 33.0725 16.0977 34.1621 16.0977 34.1621V35.7608C16.0977 35.7608 17.6565 34.0823 17.8559 33.8523C19.5344 33.383 20.584 33.3424 22.8522 32.7635C27.4183 31.5941 31.5551 27.6176 31.5551 22.0723C31.5551 20.0841 31.1256 18.8749 30.6556 17.7056L29.836 17.7454C30.3366 18.9938 30.8066 20.3532 30.8066 22.0716Z" fill="#E4E5E6"/>
  <path d="M20.889 4.90411C23.1173 4.90411 25.3355 2.64596 25.3355 2.64596L25.8454 0.777344L23.5075 2.72572C22.7284 3.34527 21.8689 3.77468 20.9296 3.77468C19.6805 3.77468 18.4315 3.15513 17.6524 2.3661L16.1334 0.887011V2.41594C16.0929 2.44657 18.0014 4.90411 20.889 4.90411Z" fill="#E4E5E6"/>
  <path d="M6.85412 2.60608L6.38483 0.777344L5.33587 3.66501C4.86658 4.91408 4.12668 5.69315 3.07772 6.00292L0.699219 6.70294L2.1783 7.40225C2.16762 7.40225 5.87494 7.09247 6.85412 2.60608Z" fill="#E4E5E6"/>
  <path d="M4.2755 20.354L21.8714 7.13478C21.5616 7.17466 21.212 7.21454 20.8922 7.21454C18.7437 7.21454 17.0653 6.27525 16.0961 5.57594C15.1169 6.27525 13.4484 7.21454 11.2999 7.21454C9.89132 7.21454 8.68213 6.74525 7.83256 6.23537C7.0535 7.5642 6.03373 8.34397 5.25467 8.77339C5.60432 9.78247 5.99385 11.3912 5.99385 13.18C5.99385 16.7264 4.78538 18.365 4.2755 20.354ZM9.9312 29.3666C10.011 29.4065 10.0914 29.4065 10.1612 29.4464C12.3097 29.9961 14.8776 30.266 15.6966 30.7353C15.8967 30.855 16.0861 31.085 16.0861 31.085C16.0861 31.085 16.3161 30.855 16.4756 30.7353C17.2547 30.3059 19.8732 29.9961 22.011 29.4464C24.9784 28.7072 28.136 26.0894 28.136 22.0723C28.136 20.0841 27.2764 18.7951 26.6975 16.7663L9.9312 29.3666ZM2.12701 13.2192C2.12701 17.0063 0.178639 17.8658 0.178639 22.0723C0.178639 28.1176 4.85517 32.0941 9.23118 33.2235C11.4195 33.7733 12.079 33.8131 14.0672 34.2725C14.2274 34.432 16.0954 36.4608 16.0954 36.4608C16.0954 36.4608 17.964 34.4726 18.1235 34.2725C20.1117 33.7626 20.7712 33.7626 22.9595 33.2235C27.3263 32.0941 32.0121 28.1176 32.0121 22.0723C32.0121 17.8558 30.0637 17.0063 30.0637 13.2192C30.0637 11.8505 30.3336 10.491 30.9232 9.20208L32.1723 6.39417L29.2846 5.57452C28.3852 5.30462 27.7657 4.63522 27.3363 3.54638L26.0473 0.0391669L23.1596 2.41695C22.4205 3.0365 21.6407 3.35625 20.8616 3.35625C19.8525 3.35625 18.6732 2.84637 17.9341 2.10718L16.106 0.279865L14.2773 2.1086C13.4982 2.88767 12.3688 3.35767 11.3498 3.35767C10.6106 3.35767 9.83079 3.0479 9.05172 2.41838L6.16405 0L4.87511 3.50722C4.48557 4.59606 3.82615 5.30605 2.92673 5.53535L0.0390625 6.43477L1.28813 9.24268C1.81724 10.4917 2.12701 11.8505 2.12701 13.2192ZM3.06631 6.00535C4.11527 5.69558 4.86514 4.91651 5.32446 3.66745L6.37342 0.779777L8.71133 2.72815C9.49039 3.3477 10.3499 3.77711 11.2892 3.77711C12.5383 3.77711 13.7874 3.15756 14.5664 2.36853L16.0854 0.889445L17.6043 2.36853C18.3834 3.14759 19.6325 3.77711 20.8815 3.77711C21.8208 3.77711 22.7103 3.3477 23.4594 2.72815L25.7973 0.779777L26.8463 3.66745C27.3156 4.91651 28.0555 5.69558 29.1045 6.00535L31.4822 6.70466L30.4732 9.00269C29.9633 10.172 29.5738 11.5806 29.5738 13.2192C29.5738 15.2473 30.0836 16.4565 30.5828 17.7056C31.0521 18.8749 31.4822 20.0834 31.4822 22.0723C31.5221 27.6077 27.3854 31.5949 22.8192 32.7635C20.5611 33.3531 19.5022 33.383 17.823 33.8523C17.593 34.0823 16.0647 35.7608 16.0647 35.7608C16.0647 35.7608 14.5059 34.0823 14.3065 33.8523C12.628 33.383 11.5783 33.3424 9.31022 32.7635C5.80301 31.864 2.5258 29.2961 1.23686 25.5895C0.847325 24.5007 0.647218 23.3314 0.647218 22.0823C0.607339 17.9456 2.55571 17.1665 2.55571 13.2292C2.55571 11.6304 2.16618 10.1919 1.6563 9.01266L0.648642 6.71463L3.06631 6.00535ZM8.37235 28.7471L26.3578 15.248C26.278 14.6285 26.1983 13.9591 26.1983 13.2199C26.1983 11.3912 26.5878 9.82235 26.9375 8.81326C26.278 8.42373 25.4185 7.83409 24.7092 6.82501L4.03551 22.3522C4.15586 25.3894 6.15408 27.6077 8.37235 28.7471ZM22.1812 10.0616V15.2074L24.9093 13.1394C24.9093 13.1394 24.8296 13.7989 24.9093 14.8977L20.623 18.135V12.6395C20.623 11.8604 19.8839 11.8199 19.8839 11.8199L22.1812 10.0616ZM16.1758 14.5886V17.1665L17.8942 15.8775V13.2997L19.3733 12.1702V19.1049L17.8942 20.2742V17.7355L16.1758 19.0244V21.5624L14.617 22.7318V17.1565C14.617 16.3775 13.8778 16.3369 13.8778 16.3369L16.1758 14.5886ZM9.81085 19.3848L11.7193 22.3522V17.9456L13.2383 16.8161V23.7608L11.6396 24.97L9.92123 22.3223V26.2589L8.40226 27.3883V21.8031C8.40226 21.0241 7.66308 20.9835 7.66308 20.9835L9.81085 19.3848ZM3.61607 14.3486C3.30629 17.5062 1.74745 18.7552 1.74745 22.0723C1.74745 26.1293 4.55536 30.4156 9.63139 31.7045C12.0498 32.3241 13.7282 32.4836 14.9374 32.9137C15.097 33.0732 16.1067 34.1628 16.1067 34.1628C16.1067 34.1628 17.1158 33.074 17.2761 32.9137C18.4852 32.4843 20.1637 32.3241 22.5821 31.7045C27.688 30.4156 30.466 26.1293 30.466 22.0723C30.466 18.365 28.5576 17.2363 28.5576 13.2192C28.5576 10.0616 30.0366 7.40397 30.0366 7.40397C30.0366 7.40397 26.3293 7.09419 25.3601 2.6078C25.3601 2.6078 23.1319 4.86595 20.9136 4.86595C18.0259 4.86595 16.1174 2.4077 16.1174 2.4077C16.1174 2.4077 14.2089 4.86595 11.3213 4.86595C9.09303 4.86595 6.87475 2.6078 6.87475 2.6078C5.89558 7.09419 2.19823 7.40397 2.19823 7.40397C2.19823 7.40397 3.67731 10.0517 3.67731 13.2192C3.69583 13.6493 3.65595 13.999 3.61607 14.3486ZM3.69583 8.10328C3.69583 8.10328 6.19396 7.59339 7.36256 4.43654C7.36256 4.43654 9.04104 5.99538 11.3391 5.99538C14.2267 5.99538 16.1352 3.96725 16.1352 3.96725C16.1352 3.96725 18.0437 5.99538 20.9314 5.99538C23.2294 5.99538 24.9079 4.43654 24.9079 4.43654C26.0772 7.59411 28.5746 8.10328 28.5746 8.10328C28.5746 8.10328 27.4858 10.3315 27.4858 13.2092C27.4858 17.4656 29.3943 18.7047 29.3943 22.0624C29.3943 26.7389 25.7276 29.7462 22.33 30.6057C19.6425 31.2652 17.8835 31.3449 16.7142 31.9346C16.7142 31.9346 16.2848 32.3241 16.1245 32.5242C15.9643 32.3241 15.5349 31.9346 15.5349 31.9346C14.3656 31.3449 12.6074 31.2751 9.91909 30.6057C6.52154 29.7462 2.85481 26.7489 2.85481 22.0624C2.85481 18.7054 4.7633 17.4563 4.7633 13.2092C4.74479 10.3315 3.69583 8.10328 3.69583 8.10328Z" fill="#111111"/>
</svg>