<svg width="77" height="46" viewBox="0 0 77 46" fill="none" xmlns="http://www.w3.org/2000/svg">
<g id="Logos 14">
<path d="M16.9804 1.03684L0.950684 36.1497H12.8305L19.7473 18.4334L26.9073 36.1497H38.706L22.8393 1.03684H16.9804Z" fill="#0373FF"/>
<path d="M76.9507 18.4741C76.9507 28.6771 68.5169 36.9481 58.1127 36.9481C47.7091 36.9481 39.2747 28.6769 39.2747 18.4741C39.2747 8.27085 47.7084 0 58.1127 0C68.5162 0 76.9507 8.27102 76.9507 18.4741ZM58.1127 10.6134C53.6862 10.6134 50.0978 14.1326 50.0978 18.4739C50.0978 22.815 53.6863 26.3343 58.1127 26.3343C62.5392 26.3343 66.1276 22.815 66.1276 18.4739C66.1276 14.1328 62.5392 10.6134 58.1127 10.6134Z" fill="#0373FF"/>
<path d="M30.8533 41.3666V41.0219H31.8366V44.3526H30.8533V44.0201C30.6216 44.3033 30.2133 44.4706 29.8876 44.4706C28.5806 44.4706 28.1764 43.5459 28.1827 42.6288C28.1953 41.7176 28.8041 40.9666 29.9 40.9666C30.2319 40.9665 30.6342 41.0896 30.8533 41.3666ZM30.875 42.7409C30.875 42.2409 30.4862 41.8311 30.0058 41.8311C29.4404 41.8311 29.1579 42.2685 29.1508 42.7271C29.1436 43.1787 29.4334 43.6441 30.0058 43.6441C30.4862 43.6441 30.875 43.2413 30.875 42.7409ZM46.9019 41.3666V41.0219H47.8853V44.3526H46.9019V44.0201C46.6702 44.3033 46.2618 44.4706 45.9362 44.4706C44.6293 44.4706 44.225 43.5459 44.2313 42.6288C44.2437 41.7176 44.8526 40.9666 45.9486 40.9666C46.2806 40.9665 46.6828 41.0896 46.9019 41.3666ZM46.9236 42.7409C46.9236 42.2409 46.535 41.8311 46.0545 41.8311C45.4891 41.8311 45.2064 42.2685 45.1994 42.7271C45.1923 43.1787 45.4822 43.6441 46.0545 43.6441C46.5349 43.6441 46.9236 43.2413 46.9236 42.7409ZM54.0475 41.3666V41.0219H55.0309V44.3526H54.0475V44.0201C53.8158 44.3033 53.4073 44.4706 53.0817 44.4706C51.7748 44.4706 51.3706 43.5459 51.3769 42.6288C51.3894 41.7176 51.9982 40.9666 53.0941 40.9666C53.4262 40.9665 53.8283 41.0896 54.0475 41.3666ZM54.069 42.7409C54.069 42.2409 53.6805 41.8311 53.1999 41.8311C52.6347 41.8311 52.3519 42.2685 52.3449 42.7271C52.3379 43.1787 52.6276 43.6441 53.1999 43.6441C53.6805 43.6441 54.069 43.2413 54.069 42.7409ZM34.5222 44.465V44.1265C34.2842 44.4281 33.8755 44.5143 33.5123 44.5082C32.5478 44.5021 32.357 43.6815 32.3632 42.8566V41.0218H33.3633V42.9627C33.3633 43.941 34.5731 43.8871 34.5731 43.0198V41.0217H35.5301V44.4648L34.5222 44.465ZM37.3546 40.9419C38.0812 40.9419 38.6332 41.3051 38.6394 42.081H37.7316C37.7254 41.8224 37.5612 41.7598 37.3546 41.7598C36.9532 41.7598 36.9241 42.1747 37.3183 42.2423C38.0695 42.3714 38.6489 42.6889 38.6489 43.3184C38.6489 44.1557 38.2235 44.5002 37.2995 44.5002C36.3754 44.5002 35.997 44.1255 35.9844 43.276H36.8976C36.9039 43.4976 37.038 43.6382 37.3245 43.6382C37.6136 43.6382 37.699 43.5149 37.6793 43.3946C37.6593 43.2714 37.5249 43.1849 37.2733 43.1511C36.5092 43.0481 36.0267 42.7078 36.0267 42.0934C36.0266 41.2866 36.5967 40.9419 37.3546 40.9419ZM40.6552 44.4081C39.8972 44.4142 39.5087 44.0694 39.5087 43.2013V41.8899H38.9355V41.0588H39.5087V40.303L40.5021 39.6751V41.0588H41.1311V41.8899H40.5021V43.2013C40.5021 43.4968 40.6426 43.5892 40.8807 43.5892C40.9744 43.5892 41.0747 43.5768 41.1624 43.5585L41.1936 44.3588C40.9996 44.3897 40.818 44.4081 40.6552 44.4081ZM42.6325 44.3526H41.7388V41.0967H42.6283L42.6658 41.4083C42.885 41.205 43.2439 41.0289 43.5194 41.0289C43.6386 41.0289 43.77 41.0473 43.9016 41.0781L43.889 41.9519C43.7887 41.9211 43.5476 41.9046 43.4349 41.9046C43.0778 41.9109 42.6325 42.0561 42.6325 42.5054V44.3526ZM49.4766 39.4411V44.3526H48.4745V39.4411H49.4766ZM50.4384 39.5492C50.7392 39.543 51.0523 39.7278 51.0523 40.1157C51.0523 40.4728 50.7705 40.6514 50.4823 40.6575C50.1817 40.6637 49.8685 40.4849 49.8685 40.1157C49.8685 39.7462 50.1504 39.5553 50.4384 39.5492ZM49.9626 41.0218V44.3525H50.9646V41.0218H49.9626ZM56.6526 41.0218V41.3543C56.8906 41.0587 57.2915 40.9726 57.6548 40.9726C58.6193 40.985 58.8823 41.6867 58.876 42.5179V44.3526H57.8739V42.4491C57.8739 41.9998 57.6172 41.7966 57.3477 41.7966C57.0534 41.7966 56.6463 41.9331 56.6463 42.4676V44.3527H55.6568V41.022L56.6526 41.0218ZM74.0966 41.0218V41.3543C74.3347 41.0587 74.7355 40.9726 75.0988 40.9726C76.0633 40.985 76.3264 41.6867 76.32 42.5179V44.3526H75.318V42.4491C75.318 41.9998 75.0611 41.7966 74.7918 41.7966C74.4974 41.7966 74.0903 41.9331 74.0903 42.4676V44.3527H73.1008V41.022L74.0966 41.0218ZM60.9886 42.6903C60.9886 40.3138 64.6023 40.3199 64.6023 42.6903C64.6023 45.0607 60.9886 45.0484 60.9886 42.6903ZM63.6129 42.6903C63.6129 41.5576 61.9781 41.5637 61.9781 42.6903C61.9781 43.8047 63.6129 43.8108 63.6129 42.6903ZM65.9411 44.0449V46H65.0787V41.0219H65.9794V41.3544C66.2111 41.0712 66.696 40.9789 67.0217 40.9789C68.099 40.9789 68.6945 41.8285 68.6884 42.7457C68.6758 43.6569 68.1053 44.4829 67.0091 44.4829C66.6771 44.483 66.1666 44.2973 65.9411 44.0449ZM66.0367 42.7084C66.0367 43.2071 66.4242 43.6158 66.9035 43.6158C67.4671 43.6158 67.7489 43.1725 67.756 42.7223C67.763 42.2721 67.4741 41.808 66.9035 41.808C66.4243 41.808 66.0367 42.2098 66.0367 42.7084ZM72.5831 43.0599H70.0384C70.1574 43.3675 70.4391 43.6776 70.8414 43.6776C71.2436 43.6776 71.3456 43.5258 71.4494 43.3749H72.5204C72.2575 44.1136 71.5433 44.4769 70.8294 44.4644C69.9714 44.446 69.1196 43.8046 69.1196 42.6779C69.1196 41.5328 70.0027 40.9665 70.8859 40.9726C71.7565 40.9788 72.6209 41.545 72.6209 42.6779C72.6209 42.8136 72.6082 42.9366 72.5831 43.0599ZM71.6582 42.3025C71.5643 41.9701 71.1741 41.816 70.8546 41.816C70.5601 41.816 70.2144 41.9762 70.1143 42.3025H71.6582Z" fill="#0373FF"/>
</g>
</svg>
