<svg xmlns="http://www.w3.org/2000/svg" width="43" height="43" viewBox="0 0 43 43" fill="none">
  <path d="M42.9908 9.46037V18.9299L40.4218 21.5L42.9908 24.0701V43H0V24.0793L2.56895 21.5092L0 18.9392V0H43V9.46037H42.9908ZM2.08094 18.018L5.57066 21.5092L2.08094 25.0004V40.9366H40.9006V25.0004L37.4109 21.5092L40.9006 18.018V2.08183H2.08094V18.018Z" fill="#0B0B0B"/>
  <path d="M17.6602 8.39186L19.0137 9.74598V16.1941L16.3159 18.8931H9.11546V7.02854H16.3159L17.6602 8.39186ZM11.2056 16.8113H15.4227L16.1133 16.0652L16.8039 15.3282V10.6027L15.4043 9.11037H11.2056V16.8113Z" fill="#0B0B0B"/>
  <path d="M32.4114 12.9608C33.7557 16.2033 34.8515 18.8563 34.8515 18.8747C34.8515 18.8931 34.345 18.9023 33.7189 18.9023H32.5864L31.9971 17.5022H25.9752L25.4228 18.8655L24.2718 18.8839C23.3602 18.8931 23.1208 18.8839 23.1485 18.8194C23.1669 18.7734 24.2534 16.1388 25.5701 12.97C26.8868 9.79202 27.9733 7.1667 27.9917 7.12064C28.0193 7.06537 28.2587 7.04694 29.0046 7.05615L29.9714 7.07458L32.4114 12.9608ZM27.9641 12.7582C27.4208 14.0754 26.9512 15.1993 26.9328 15.2637C26.896 15.3743 27.0157 15.3835 28.9954 15.3835C30.6804 15.3835 31.0855 15.3651 31.0671 15.3006C31.0211 15.1164 29.0322 10.3631 28.9954 10.3631C28.9677 10.3631 28.5166 11.4501 27.9641 12.7582Z" fill="#0B0B0B"/>
  <path d="M18.1114 26.1887L15.0084 30.03L11.9238 33.862L15.0084 33.8804L18.1114 33.8897V35.9807H9.11546V34.9122L9.12467 33.862L15.3491 26.2348L9.11546 26.1979V24.1161H18.1114V26.1887Z" fill="#0B0B0B"/>
  <path d="M28.8019 28.335L31.7576 32.5724L31.776 28.335L31.7852 24.1161H33.8753V35.9807H31.4997L28.8571 32.1394L26.2145 28.3074L26.1961 32.1487L26.1869 35.9807H23.9678V24.1161H25.837L28.8019 28.335Z" fill="#0B0B0B"/>
</svg>