<svg width="90" height="52" viewBox="0 0 90 52" fill="none" xmlns="http://www.w3.org/2000/svg">
<g id="Logos 08">
<g id="g3122">
<g id="g3029">
<path id="rect2987" d="M6.20279 0.0141602H18.4109C21.3738 0.0141602 23.7591 2.3995 23.7591 5.36246V46.6373C23.7591 49.6003 21.3738 51.9856 18.4109 51.9856H6.20279C3.23983 51.9856 0.854492 49.6003 0.854492 46.6373V5.36246C0.854492 2.3995 3.23983 0.0141602 6.20279 0.0141602Z" fill="white"/>
<path id="path2989" d="M15.3784 9.54043L15.3954 9.71622C15.7637 9.93387 15.9562 10.1097 16.3328 10.3524C17.3206 10.9803 18.5347 12.0937 18.3839 15.9193C18.6684 16.7564 18.7941 18.3888 19.0452 18.9079C19.556 19.9375 19.9075 20.6072 20.0581 21.5699C20.0581 21.5699 20.2089 23.0767 20.4014 23.1856C21.4225 23.42 21.1298 23.5204 21.272 23.7046C21.4309 23.9055 22.0253 23.8971 22.0253 24.4496C22.2347 24.7259 22.3937 25.0021 22.5024 25.3035V5.40503C22.5024 3.12805 20.6608 1.28638 18.392 1.28638H14.4658C15.0936 1.5124 15.4536 1.78028 15.663 2.19884C16.165 2.2407 16.7598 3.37082 15.8303 5.05344C16.2404 5.33806 15.9223 5.75662 15.6293 6.23378C15.5372 6.38447 15.4451 6.66072 15.1689 6.64397C14.8005 7.40576 14.3735 8.12569 14.0472 8.16754C13.9553 8.28474 13.8881 8.61122 14.0304 8.7619C14.5079 8.97955 15.0853 9.26417 15.3784 9.54043Z" fill="#C80F2E"/>
<path id="path2991" d="M19.0447 50.6601L19.003 50.6685C20.8027 49.5718 19.6893 47.4959 19.3462 46.2737L19.4131 46.0642C19.5051 45.8968 19.3127 45.5034 19.3127 45.5034C19.0868 45.3193 19.0365 44.2981 18.9191 43.8293C18.7268 43.0675 19.2624 41.7365 19.2624 41.2844C19.2624 40.8322 18.9191 40.2128 18.2998 39.426C18.149 39.2502 17.6969 35.3911 17.2951 34.4116C16.7343 33.0638 16.5667 33.2813 15.8972 31.6659C15.3865 30.5356 15.7883 28.8699 14.6332 25.0024L14.8926 24.7596C14.8926 24.7596 13.9717 21.3944 13.6703 20.4735C13.3772 19.5527 12.8333 19.4941 12.8333 19.4941L12.8666 19.0169C12.9086 18.8746 13.9884 16.0702 14.0805 15.9782C14.0887 15.9196 15.6375 14.8564 15.6625 15.0155C15.788 15.7019 16.3908 19.1927 16.6502 19.7452C16.9097 20.3061 17.8057 22.0138 18.2157 23.077C16.6168 23.4704 15.4196 24.9186 15.4196 26.6349C15.4196 28.6607 17.0605 30.3097 19.0863 30.3097C20.6348 30.3097 21.9744 29.3472 22.5101 27.991L22.5017 46.6004C22.502 48.6595 21.0203 50.3587 19.0447 50.6601Z" fill="#C80F2E"/>
<path id="path2993" d="M13.1765 1.28638C11.8371 1.80539 11.6529 2.38301 11.6028 4.24143C11.3768 4.26654 10.9079 4.04889 11.067 5.17901C11.067 5.17901 11.1507 5.93242 11.4521 5.80685C11.2177 7.44761 11.404 7.85827 10.3137 7.975C10.0793 8.00011 9.7946 8.01686 9.44312 8.0336L9.33429 8.18428C7.84421 8.32659 7.10615 8.23137 6.14473 9.49857C5.7764 9.9841 5.38295 10.6705 4.89742 11.65C4.89742 11.65 4.45374 12.7466 4.31969 13.1987C3.89275 14.0944 2.84635 16.0784 2.53661 17.3508C2.43627 17.7861 2.24362 17.92 2.51987 18.5479C2.93006 19.452 2.25199 19.6864 4.57919 19.6194V20.1552C4.57919 20.1552 3.95972 20.6909 3.82578 21.009C3.70021 21.3355 3.34025 22.9344 3.35711 23.6962C3.39885 25.6802 5.01462 27.3376 5.49166 29.3133L6.57155 29.4641C7.15754 30.8119 9.71914 34.4448 10.3136 35.0309C10.322 35.0392 10.3304 35.0477 10.3387 35.0561C10.4726 35.3992 11.134 35.8262 11.519 36.2532C11.7535 36.4792 12.8335 37.6512 14.2732 38.7647C14.8018 39.1734 15.3701 39.5766 15.9642 39.9199C15.9475 39.9114 16.3158 40.6482 16.5 41.2508C15.7633 41.8451 17.1948 42.9336 17.6301 44.7334C17.6552 44.9759 17.2114 45.2189 17.8729 45.8131C17.831 48.5336 17.0024 49.957 18.3919 50.7102H6.14473C3.9181 50.66 2.11816 48.8352 2.11816 46.5999V5.40503C2.11816 3.15316 3.91798 1.3366 6.14473 1.28638H13.1765Z" fill="#1D4289"/>
</g>
<g id="g3102">
<path id="rect3035" fill-rule="evenodd" clip-rule="evenodd" d="M29.9192 1.26318V50.6531H35.2572C35.2712 37.9339 35.5596 25.1634 34.777 12.593L40.9311 50.6531H48.5904V1.26318H43.3047C43.197 14.3585 43.662 27.2709 44.55 40.048L38.1552 1.26318H29.9192Z" fill="#0B0B0B"/>
<path id="rect3043" fill-rule="evenodd" clip-rule="evenodd" d="M76.1937 1.22852L70.947 50.6599H77.4748L78.329 40.6645H82.5995L83.4536 50.6599H89.9509L84.8568 1.22852H76.1937ZM80.4642 15.1812L82.1114 34.8651H78.817L80.4642 15.1812Z" fill="#0B0B0B"/>
<path id="path3059" d="M52.7058 1.26248V50.6256H62.2535C63.8185 50.6256 69.1474 49.258 69.1474 42.4041V32.5451C69.1474 31.5064 69.1562 28.2498 66.3105 26.3364C68.0886 26.3364 69.1474 22.8868 69.1474 19.7523V9.17696C69.1474 5.05647 66.5827 1.25126 61.4299 1.26248H52.7058ZM58.5931 7.57359H61.4909C62.8184 7.57359 63.2601 9.03913 63.2601 10.1663V21.6627C63.2601 23.6292 62.6137 23.7778 61.2774 23.7778H58.5931V7.57359ZM58.5931 29.1678H61.4909C62.8184 29.1678 63.2601 30.6334 63.2601 31.7605V42.0289C63.2601 43.3668 62.5931 44.3828 61.2774 44.3828L58.5931 44.4168V29.1678Z" fill="#0B0B0B"/>
</g>
</g>
</g>
</svg>
