<svg xmlns="http://www.w3.org/2000/svg" width="88" height="15" viewBox="0 0 88 15" fill="none">
  <path d="M25.8447 -0.00830078L21.8281 14.4535H24.6167L26.9167 6.26256L28.272 14.4535H30.9978L34.9991 -0.00830078H32.2106L29.9428 8.15213L28.6045 -0.00830078H25.8447ZM38.6375 -0.00830078L36.0389 1.97626L32.5736 14.4535H35.3621L36.5596 10.1214H40.0725L38.875 14.4535H41.6483L45.1136 1.99322L43.6481 -0.00830078H38.6375ZM49.3015 -0.00830078L46.686 1.99322L45.4104 6.49833L46.876 8.57788H51.13L50.2633 11.6972H46.7504L47.1762 10.2164H44.3859L43.7872 12.3909L45.3002 14.4552H50.231L52.8619 12.4232L54.1069 7.87056L52.6261 5.80628H48.389L49.2405 2.71919H52.738L52.3123 4.23221H55.1161L55.7454 1.99491L54.2951 -0.00660551H49.3015V-0.00830078ZM59.9503 -0.00830078L57.3195 1.99322L54.4207 12.4062L55.9489 14.4535H60.8798L63.5106 12.4062L64.3299 9.4599H61.5413L60.912 11.6972H57.4162L59.9215 2.70223H63.4038L62.7897 4.97005H65.563L66.3976 1.99322L64.9643 -0.00830078H59.9503ZM70.5838 -0.00830078L67.9682 1.99322L64.5182 14.4535H67.3067L68.5042 10.1214H72.0171L70.8043 14.4535H73.5928L77.0429 1.97626L75.5774 -0.00830078H70.5838ZM79.2158 -0.00830078L75.1992 14.4535H77.9877L79.1852 10.1214H81.4531L81.9738 14.4535H84.6996L84.1008 9.52266L86.0549 7.93163L87.7086 1.99322L86.2431 -0.00830078H79.2158ZM38.6053 2.70054H42.1181L40.8273 7.37866H37.3145L38.6053 2.70054ZM70.5516 2.70054H74.0644L72.7719 7.37866H69.259L70.5516 2.70054ZM81.2325 2.70054H84.7301L83.4223 7.37866H79.9417L81.2325 2.70054Z" fill="black"/>
  <path d="M24.3171 -0.00830078H18.7705L14.7539 14.4518H20.2988L24.3171 -0.00830078Z" fill="#007AC2"/>
  <path d="M10.8031 -0.00830078L6.76953 14.4688H9.4631L13.4644 -0.00830078H10.8031ZM14.5687 -0.00830078L10.5368 14.4688H13.2287L17.23 -0.00830078H14.5687Z" fill="#E4002B"/>
  <path d="M4.87819 -0.00830078L0.863281 14.4688H2.53234L6.53369 -0.00830078H4.87819ZM7.61926 -0.00830078L3.60265 14.4688H5.27171L9.27306 -0.00830078H7.61926Z" fill="#FFD659"/>
</svg>