<svg xmlns="http://www.w3.org/2000/svg" width="48" height="52" viewBox="0 0 48 52" fill="none">
  <path d="M2.48912 31.177C2.48912 26.4916 4.77478 24.7273 5.22899 20.2672C4.59936 24.1771 1.91797 27.3245 1.91797 31.177C1.91797 32.6586 2.15186 33.9854 2.48912 35.1995C4.14516 40.6051 9.18426 43.5694 13.9905 44.7825C6.60623 42.9619 2.48912 36.9075 2.48912 31.177ZM45.1085 31.177C45.1085 28.7498 44.4204 26.8296 43.6728 25.0652C42.7643 22.976 41.7828 21.0427 41.7828 18.6719C41.7828 24.346 44.5812 25.9967 44.5812 31.177C44.5812 36.9075 40.5225 42.9619 33.0798 44.7825C39.7906 43.1309 45.1085 38.3891 45.1085 31.177Z" fill="#E4E5E6"/>
  <path d="M42.6477 8.48466C41.1096 8.0471 40.0101 6.94667 39.3366 5.18236L37.8571 1.10352L37.1095 3.68662C38.589 10.0237 43.9664 10.4612 43.9664 10.4612L46.1352 9.47344L42.6477 8.48466ZM17.14 31.5606L14.3416 27.3691L11.1914 29.6273C11.1914 29.6273 12.2752 29.6836 12.2752 30.785V38.6601L14.5024 37.0647V31.5042L17.022 35.2441L19.3661 33.5361V23.7408L17.1389 25.3362V31.5606H17.14ZM26.1803 22.4151L23.6607 24.2357V20.5944L20.2912 23.0216C20.2912 23.0216 21.3751 23.078 21.3751 24.1794V32.0544L23.6607 30.4028V26.8178L26.1803 24.9972V28.6385L28.349 27.1005V17.2348L26.1803 18.8301V22.4151ZM32.4651 21.54V14.2152L29.0956 16.6423C29.0956 16.6423 30.1794 16.6987 30.1794 17.8001V25.6751L36.4642 21.1024C36.3472 19.5644 36.4642 18.6189 36.4642 18.6189L32.4651 21.54Z" fill="#E4E5E6"/>
  <path d="M3.75134 18.6715C3.75134 24.232 0.894531 25.3335 0.894531 31.1766C0.894531 32.9409 1.18794 34.6489 1.75909 36.1306C1.93451 35.8057 2.2133 35.4104 2.50671 35.1991C2.10993 33.985 1.93451 32.6583 1.93451 31.1766C1.93451 27.3804 4.61591 24.1767 5.24553 20.2668C5.30401 19.773 5.30401 19.2227 5.30401 18.6715C5.36248 14.2114 3.13529 10.4575 3.13529 10.4575L0.967622 9.46973L2.44719 12.7157C3.18019 14.3674 3.75134 16.4133 3.75134 18.6715Z" fill="#E4E5E6"/>
  <path d="M41.7812 18.6715C41.7812 21.0424 42.7481 22.9193 43.6712 25.0649L44.873 25.0086C44.1254 23.2442 43.3934 21.5363 43.3934 18.6715C43.3934 16.4133 43.9646 14.3814 44.7122 12.7157L46.1918 9.46973L43.9646 10.4575C43.9646 10.4575 41.7812 14.2114 41.7812 18.6715Z" fill="#E4E5E6"/>
  <path d="M21.8298 46.4883C20.0568 45.8817 17.5957 45.6554 14.0498 44.7803C9.1861 43.6225 4.21905 40.5888 2.5484 35.1973C2.25499 35.4799 1.97724 35.8038 1.80078 36.1287C3.6907 41.308 8.49591 44.9503 13.6384 46.2619C16.9494 47.0948 18.5021 47.1371 20.9642 47.7999C21.3014 48.1248 23.5422 50.4957 23.5422 50.4957V48.2375C23.5443 48.2526 22.0647 46.6573 21.8298 46.4883Z" fill="#E4E5E6"/>
  <path d="M14.4478 43.2461C18.3885 44.1775 20.9676 44.2902 22.6821 45.1231C22.6821 45.1231 23.3117 45.6733 23.5466 45.9559C23.7805 45.6733 24.4112 45.1231 24.4112 45.1231C26.1257 44.2902 28.7037 44.1916 32.6454 43.2461C37.6271 42.032 43.0034 37.7982 43.0034 31.1785C43.0034 26.4368 40.2051 24.6725 40.2051 18.6734C40.2051 14.5946 41.8016 11.4613 41.8016 11.4613C41.8016 11.4613 38.1387 10.7411 36.4253 6.28202C36.4253 6.28202 33.9642 8.48389 30.5947 8.48389C26.3606 8.48389 23.5623 5.61914 23.5623 5.61914C23.5623 5.61914 20.7639 8.48389 16.5299 8.48389C13.1604 8.48389 10.6993 6.28202 10.6993 6.28202C8.98481 10.7421 5.32296 11.4613 5.32296 11.4613C5.32296 11.4613 6.91947 14.6087 6.91947 18.6734C6.91947 24.6856 4.12113 26.4358 4.12113 31.1785C4.10443 37.8405 9.48079 42.032 14.4478 43.2461ZM41.2148 31.1785C41.2148 36.7954 36.585 40.494 32.234 41.5944C29.0838 42.371 25.3186 42.7522 24.1178 43.4151C23.8244 43.5841 23.5466 43.909 23.5466 43.909C23.5466 43.909 23.2094 43.5841 22.9755 43.4151C21.8332 42.8085 17.9938 42.371 14.8592 41.5944C14.7423 41.5381 14.6243 41.5381 14.522 41.4818L39.1202 23.6847C39.9545 26.5495 41.2148 28.3701 41.2148 31.1785ZM39.4418 12.4501C38.9291 13.8754 38.358 16.1477 38.358 18.6745C38.358 19.7186 38.4165 20.7063 38.5929 21.5392L12.2207 40.6067C8.90963 38.955 6.0382 35.8076 5.87636 31.5175L36.1893 9.58432C37.2731 11.0096 38.4749 11.8988 39.4418 12.4501ZM8.73317 18.6734C8.73317 16.0903 8.16202 13.8744 7.64934 12.4491C8.79165 11.8425 10.2869 10.7411 11.4292 8.86411C12.6895 9.52698 14.4614 10.2472 16.5132 10.2472C19.6634 10.2472 22.1245 8.92044 23.5456 7.93266C24.9813 8.92044 27.4278 10.2472 30.578 10.2472C31.0907 10.2472 31.5449 10.1909 32.0137 10.1345L6.21362 28.7514C6.96124 25.9419 8.73317 23.6274 8.73317 18.6734Z" fill="#E4E5E6"/>
  <path d="M16.5125 6.92673C20.7466 6.92673 23.5449 3.45443 23.5449 3.45443V1.25357L21.3177 3.34177C20.1754 4.44221 18.344 5.33141 16.5125 5.33141C15.1353 5.33141 13.8311 4.72486 12.7327 3.84974L9.30469 1.09766L10.0523 3.68076C9.99279 3.68076 13.2453 6.92673 16.5125 6.92673Z" fill="#E4E5E6"/>
  <path d="M45.11 31.1758C45.11 38.388 39.7921 43.1297 33.0375 44.7814C29.4915 45.6565 27.0305 45.8818 25.2575 46.4894C25.0236 46.7147 23.543 48.2537 23.543 48.2537V50.5119C23.543 50.5119 25.8286 48.141 26.121 47.8161C28.5821 47.1532 30.1212 47.0959 33.4468 46.2781C40.1419 44.6265 46.2074 39.0096 46.2074 31.1768C46.2074 28.3684 45.5778 26.6604 44.8887 25.0088L43.6868 25.0651C44.4209 26.8284 45.11 28.7487 45.11 31.1758Z" fill="#E4E5E6"/>
  <path d="M30.5754 6.92673C33.8425 6.92673 37.0951 3.73709 37.0951 3.73709L37.8427 1.09766L34.4147 3.84974C33.2724 4.72486 32.0121 5.33141 30.6349 5.33141C28.8034 5.33141 26.972 4.45629 25.8297 3.34177L23.6025 1.25256V3.41219C23.543 3.45544 26.3413 6.92673 30.5754 6.92673Z" fill="#E4E5E6"/>
  <path d="M9.98949 3.68076L9.30139 1.09766L7.76335 5.1765C7.07525 6.94081 5.99037 8.04124 4.45233 8.4788L0.964844 9.46758L3.13356 10.4554C3.11789 10.4554 8.55377 10.0178 9.98949 3.68076Z" fill="#E4E5E6"/>
  <path d="M6.21169 28.7501L32.0118 10.0779C31.5575 10.1342 31.0449 10.1906 30.576 10.1906C27.4258 10.1906 24.9647 8.86381 23.5436 7.87604C22.1079 8.86381 19.6615 10.1906 16.5112 10.1906C14.4459 10.1906 12.6729 9.52769 11.4272 8.80748C10.2849 10.6845 8.78971 11.7859 7.6474 12.3924C8.16008 13.8178 8.73124 16.0901 8.73124 18.6168C8.73124 23.6261 6.9593 25.9406 6.21169 28.7501ZM14.5044 41.4805C14.6213 41.5368 14.7393 41.5368 14.8416 41.5931C17.9919 42.3697 21.7571 42.7509 22.9579 43.4138C23.2513 43.5828 23.529 43.9077 23.529 43.9077C23.529 43.9077 23.8663 43.5828 24.1002 43.4138C25.2425 42.8072 29.0819 42.3697 32.2164 41.5931C36.5674 40.549 41.1972 36.8514 41.1972 31.1772C41.1972 28.3688 39.9369 26.5482 39.088 23.6824L14.5044 41.4805ZM3.06147 18.6721C3.06147 24.0214 0.204655 25.2355 0.204655 31.1772C0.204655 39.7162 7.06163 45.333 13.478 46.9283C16.6867 47.7049 17.6536 47.7612 20.5688 48.41C20.8038 48.6353 23.5426 51.501 23.5426 51.501C23.5426 51.501 26.2825 48.6926 26.5164 48.41C29.4316 47.6898 30.3985 47.6898 33.6072 46.9283C40.01 45.333 46.8805 39.7162 46.8805 31.1772C46.8805 25.2214 44.0237 24.0214 44.0237 18.6721C44.0237 16.7388 44.4195 14.8186 45.284 12.998L47.1155 9.0318L42.8814 7.87403C41.5627 7.4928 40.6542 6.54727 40.0246 5.00928L38.1347 0.0553234L33.9006 3.41396C32.8168 4.28907 31.6734 4.74071 30.5311 4.74071C29.0516 4.74071 27.3224 4.0205 26.2386 2.9764L23.5583 0.395311L20.8769 2.97841C19.7346 4.07884 18.0785 4.74272 16.5843 4.74272C15.5005 4.74272 14.3572 4.30517 13.2148 3.41597L8.98079 0L7.09087 4.95396C6.51971 6.49195 5.55282 7.49481 4.23406 7.8187L0 9.08913L1.83145 13.0553C2.60726 14.8196 3.06147 16.7388 3.06147 18.6721ZM4.43871 8.48258C5.97675 8.04503 7.07625 6.94459 7.74973 5.18028L9.28777 1.10144L12.7157 3.85353C13.858 4.72864 15.1183 5.33519 16.4956 5.33519C18.327 5.33519 20.1585 4.46007 21.3008 3.34556L23.528 1.25634L25.7552 3.34556C26.8975 4.44599 28.7289 5.33519 30.5604 5.33519C31.9376 5.33519 33.2418 4.72864 34.3402 3.85353L37.7682 1.10144L39.3062 5.18028C39.9943 6.94459 41.0792 8.04503 42.6173 8.48258L46.1037 9.47036L44.6241 12.7163C43.8765 14.368 43.3054 16.3576 43.3054 18.6721C43.3054 21.5369 44.053 23.2449 44.7849 25.0092C45.473 26.6608 46.1037 28.3678 46.1037 31.1772C46.1622 38.9959 40.0967 44.6279 33.4015 46.2785C30.0905 47.1114 28.5378 47.1536 26.0757 47.8165C25.7385 48.1414 23.4977 50.5123 23.4977 50.5123C23.4977 50.5123 21.212 48.1414 20.9197 47.8165C18.4586 47.1536 16.9195 47.0963 13.5939 46.2785C8.4514 45.0081 3.6462 41.3809 1.75627 36.1453C1.18512 34.6073 0.89171 32.9556 0.89171 31.1913C0.833237 25.3482 3.69005 24.2477 3.69005 18.6862C3.69005 16.428 3.1189 14.3962 2.37128 12.7304L0.893798 9.48444L4.43871 8.48258ZM12.2187 40.6054L38.5899 21.5379C38.473 20.6628 38.356 19.7173 38.356 18.6732C38.356 16.0901 38.9272 13.8741 39.4399 12.4488C38.473 11.8986 37.2127 11.0657 36.1727 9.64035L5.85981 31.5726C6.03627 35.8626 8.96617 38.9959 12.2187 40.6054ZM32.466 14.2121V21.4806L36.4661 18.5595C36.4661 18.5595 36.3492 19.4909 36.4661 21.043L30.1813 25.6157V17.8534C30.1813 16.7529 29.0975 16.6956 29.0975 16.6956L32.466 14.2121ZM23.6606 20.6065V24.2477L26.1801 22.4271V18.7858L28.3489 17.1905V26.9857L26.1801 28.6374V25.0514L23.6606 26.8721V30.457L21.3749 32.1087V24.2337C21.3749 23.1332 20.2911 23.0759 20.2911 23.0759L23.6606 20.6065ZM14.3279 27.3811L17.1263 31.5726V25.3482L19.3534 23.7528V33.5622L17.0093 35.2702L14.4898 31.5303V37.0908L12.2626 38.6861V30.797C12.2626 29.6966 11.1787 29.6393 11.1787 29.6393L14.3279 27.3811ZM5.2448 20.2675C4.79059 24.7275 2.50493 26.4919 2.50493 31.1772C2.50493 36.9077 6.62204 42.9621 14.0648 44.7828C17.6107 45.6579 20.0718 45.8832 21.8448 46.4908C22.0787 46.7161 23.5593 48.2551 23.5593 48.2551C23.5593 48.2551 25.0389 46.7171 25.2738 46.4908C27.0468 45.8842 29.5079 45.6579 33.0538 44.7828C40.5404 42.9621 44.6137 36.9077 44.6137 31.1772C44.6137 25.9406 41.8153 24.3463 41.8153 18.6721C41.8153 14.2121 43.9841 10.4581 43.9841 10.4581C43.9841 10.4581 38.5482 10.0206 37.1271 3.68353C37.1271 3.68353 33.8599 6.87318 30.6074 6.87318C26.3733 6.87318 23.575 3.40088 23.575 3.40088C23.575 3.40088 20.7766 6.87318 16.5426 6.87318C13.2754 6.87318 10.0229 3.68353 10.0229 3.68353C8.58714 10.0206 3.16588 10.4581 3.16588 10.4581C3.16588 10.4581 5.3346 14.198 5.3346 18.6721C5.36174 19.2797 5.30327 19.7736 5.2448 20.2675ZM5.36174 11.4459C5.36174 11.4459 9.02465 10.7257 10.7381 6.26663C10.7381 6.26663 13.1992 8.4685 16.5687 8.4685C20.8027 8.4685 23.6011 5.60376 23.6011 5.60376C23.6011 5.60376 26.3994 8.4685 30.6335 8.4685C34.003 8.4685 36.464 6.26663 36.464 6.26663C38.1785 10.7267 41.8404 11.4459 41.8404 11.4459C41.8404 11.4459 40.2439 14.5933 40.2439 18.6581C40.2439 24.6702 43.0422 26.4204 43.0422 31.1632C43.0422 37.7688 37.6659 42.0166 32.6842 43.2307C28.7435 44.1621 26.1645 44.2748 24.45 45.1077C24.45 45.1077 23.8203 45.6579 23.5854 45.9405C23.3505 45.6579 22.7208 45.1077 22.7208 45.1077C21.0063 44.2748 18.4283 44.1762 14.4866 43.2307C9.50496 42.0166 4.12859 37.7829 4.12859 31.1632C4.12859 26.4214 6.92693 24.6571 6.92693 18.6581C6.89979 14.5933 5.36174 11.4459 5.36174 11.4459Z" fill="#111111"/>
</svg>