<svg xmlns="http://www.w3.org/2000/svg" width="41" height="31" viewBox="0 0 41 31" fill="none">
  <g clip-path="url(#clip0_421_7173)">
    <path d="M40.8281 30.0293V30.2305H1.89379C2.03079 30.1237 2.21779 30.0454 2.29613 29.9053C2.67679 29.225 3.19012 28.674 3.85512 28.2877C4.54113 27.8893 5.25279 27.5352 5.95813 27.1717C6.28813 27.0017 6.62013 26.8253 6.96879 26.7037C8.44479 26.1887 9.92746 25.6919 11.4088 25.1923C11.5305 25.1513 11.6141 25.1046 11.6218 24.9585C11.6241 24.9108 11.6801 24.8553 11.7251 24.8228C11.9451 24.6622 12.1805 24.5211 12.3908 24.3487C12.7558 24.0494 13.1088 23.735 13.4618 23.4209C13.5975 23.3002 13.6541 23.1373 13.6505 22.9542C13.6328 22.0549 13.6201 21.1552 13.5948 20.2562C13.5838 19.8608 13.5471 19.4661 13.5215 19.0576C13.6191 19.0391 13.7095 19.022 13.8148 19.0022C13.8148 18.9353 13.8211 18.8688 13.8138 18.8036C13.7311 18.0827 13.6431 17.3621 13.5655 16.6408C13.5505 16.5014 13.4848 16.4234 13.3721 16.3562C13.2088 16.2591 13.0538 16.1483 12.8951 16.0435C12.9001 16.0297 12.9048 16.0159 12.9098 16.0025C12.9741 16.0025 13.0385 16.0025 13.1028 16.0025C14.8291 16.0045 16.5551 16.0055 18.2815 16.0112C18.3998 16.0116 18.4868 15.9864 18.5381 15.8758C18.5828 15.7801 18.6598 15.7643 18.7575 15.7663C19.7175 15.7871 20.6778 15.8315 21.6371 15.8133C22.3261 15.8002 22.9435 15.9541 23.5318 16.3109C23.9998 16.5944 24.5198 16.7144 25.0751 16.7046C25.9685 16.6892 26.8628 16.6811 27.7555 16.711C28.3801 16.7318 29.0025 16.8219 29.6265 16.8776C29.7605 16.8897 29.8405 16.9535 29.8658 17.0852C29.9141 17.3369 29.9785 17.5871 30.0015 17.8411C30.0191 18.0353 30.0991 18.1687 30.2708 18.2221C30.4595 18.2805 30.6575 18.3172 30.8541 18.337C31.0981 18.3618 31.3601 18.3914 31.4051 18.0773H31.8068C31.7761 17.8653 31.9095 17.7921 32.0648 17.7209C32.6298 17.4625 33.1915 17.1961 33.7538 16.931C33.8868 16.8682 34.0118 16.7926 34.1728 16.8336C34.2375 16.8501 34.3131 16.8225 34.3878 16.8145C34.4075 16.6855 34.4068 16.5477 34.5858 16.5598C34.6945 16.5672 34.8035 16.5706 34.8751 16.5739C34.9388 16.4842 34.9741 16.4174 35.0248 16.3663C35.2091 16.1799 35.1981 15.9346 34.9725 15.8016C34.8635 15.7374 34.7235 15.7028 34.5958 15.6981C34.0025 15.6773 33.4081 15.6813 32.8148 15.6575C32.1695 15.6316 31.5248 15.6561 30.8915 15.4398C29.8485 15.0833 28.7721 14.8307 27.7701 14.3483C26.8705 13.9152 25.9541 13.5172 25.0445 13.1049C24.9135 13.0455 24.7821 12.981 24.6468 13.1073C24.6221 13.1301 24.5625 13.1211 24.5198 13.1167C24.0791 13.0734 23.6371 13.0398 23.1985 12.98C22.8048 12.9266 22.3928 12.9027 22.0281 12.7626C21.2568 12.4666 20.4655 12.2664 19.6615 12.1015C19.3571 12.039 19.3575 12.038 19.2961 11.7198C19.2941 11.7094 19.2865 11.7 19.2725 11.6731C17.4121 11.4172 15.5415 11.1598 13.6661 10.9018C13.6761 10.8319 13.6788 10.7812 13.6905 10.7332C13.8425 10.11 14.0001 9.48781 14.1481 8.86362C14.3745 7.91021 14.8451 7.05623 15.2215 6.16396C15.3011 5.97482 15.4261 5.90628 15.6345 5.93215C15.8811 5.96272 16.1325 5.96104 16.3818 5.9644C16.5638 5.96709 16.7028 5.89117 16.7688 5.70808C16.8238 5.55623 16.8885 5.4074 16.9368 5.2532C17.0258 4.96832 17.1425 4.71569 17.4438 4.58904C17.6151 4.51715 17.6815 4.37135 17.6351 4.17549C17.6058 4.05152 17.5935 3.92118 17.5905 3.79318C17.5798 3.32857 17.5178 2.86429 17.7775 2.42554C17.9608 2.1158 17.9018 1.79564 17.6698 1.50639C17.3685 1.13047 17.0118 0.826102 16.5851 0.608409C16.0375 0.328901 15.4615 0.177053 14.8488 0.319831C13.9408 0.531477 13.4285 1.14223 13.2238 2.03349C13.1645 2.29217 13.1431 2.55992 13.1045 2.82263C12.6745 2.77358 12.2465 2.71782 11.8165 2.67717C10.3291 2.53674 8.84613 2.5962 7.36613 2.78433C7.28613 2.79441 7.23613 2.81894 7.25746 2.9083C7.29046 3.04604 7.22213 3.08097 7.10046 3.09139C6.64179 3.13137 6.26646 3.33226 5.97079 3.69072C5.61613 4.12039 5.24146 4.53428 4.90046 4.97437C4.45346 5.55119 4.03546 6.15119 3.59546 6.73372C3.39179 7.00315 3.14412 7.23227 2.81912 7.34582C2.59012 7.42577 2.40013 7.55477 2.25379 7.74156C2.00279 8.06205 1.68513 8.26497 1.29146 8.35802C1.18512 8.38322 1.07979 8.42991 0.987458 8.48837C0.934125 8.5223 0.869458 8.60729 0.879125 8.65533C0.891458 8.71547 0.966125 8.7877 1.02846 8.80752C1.12513 8.83809 1.23713 8.84817 1.33746 8.83238C1.55446 8.79811 1.76846 8.74167 1.98346 8.69464L2.01113 8.73764C1.76946 8.91032 1.53046 9.08669 1.28513 9.25399C1.16146 9.33831 1.04513 9.53081 1.08013 9.6447C1.13213 9.81334 1.28313 9.81536 1.41079 9.7989C2.38046 9.67258 3.28679 9.43507 3.70246 8.39027C3.72079 8.34391 3.74279 8.29621 3.77346 8.25791C3.89079 8.1111 3.99679 7.94985 4.13513 7.82622C4.45446 7.54066 4.79179 7.2756 5.11912 6.99945C5.72713 6.48646 6.33113 5.96843 6.94379 5.46116C7.01679 5.40068 7.13546 5.36474 7.23046 5.36877C7.81779 5.39497 8.40479 5.43159 8.99146 5.47392C9.28979 5.49542 9.58679 5.53607 9.90279 5.57C9.87412 5.59856 9.86812 5.60964 9.85913 5.61334C9.62679 5.70404 9.39679 5.80214 9.16046 5.88109C9.01579 5.92946 8.93846 6.01076 8.88846 6.15791C8.25379 8.01905 7.92979 9.94167 7.76146 11.8952C7.74479 12.0877 7.73712 12.2809 7.72446 12.4881H8.08546C8.08546 12.5338 8.08712 12.5661 8.08546 12.5983C8.06479 12.9497 8.03212 13.3008 8.02446 13.6525C7.98646 15.4163 8.21179 17.141 8.79279 18.8123C8.83179 18.9249 8.88813 18.985 9.00313 18.9763C9.13079 18.9665 9.18346 19.0324 9.22479 19.1459C9.45212 19.7695 9.68612 20.3906 9.91979 21.0118C10.0485 21.3545 10.1805 21.6958 10.3091 22.0337C10.2918 22.0492 10.2845 22.0603 10.2748 22.063C9.34146 22.321 8.56746 22.8538 7.86213 23.4978C7.25379 24.0534 6.64646 24.6114 6.05813 25.1886C5.62812 25.6106 4.77779 25.6811 4.27412 25.3646C4.01312 25.2007 3.72813 25.1211 3.43079 25.0757C3.10946 25.027 2.68113 25.3361 2.63713 25.6519C2.61879 25.7832 2.59213 25.8911 2.48779 25.8995C2.46613 26.1521 2.48779 26.3983 2.41746 26.614C2.24679 27.1378 2.03346 27.6477 1.83746 28.1631C1.78379 28.3038 1.70613 28.4194 1.59779 28.4288C1.51813 28.6274 1.45012 28.7906 1.38846 28.9566C1.37179 29.0013 1.36712 29.0543 1.37179 29.102C1.39646 29.3523 1.43979 29.6013 1.44979 29.8519C1.45713 30.0393 1.54046 30.1529 1.69546 30.2312H0.828125V0.230469H40.8281V28.284C40.7618 28.2813 40.6955 28.2766 40.6288 28.2766C39.6631 28.2763 38.6975 28.2766 37.7318 28.2766H37.5208V22.1718H35.4211V30.0407H35.5848C37.2828 30.0407 38.9811 30.0407 40.6791 30.0403C40.7288 30.0403 40.7781 30.0333 40.8278 30.0296L40.8281 30.0293ZM20.4538 30.0316C20.5005 30.0356 20.5281 30.04 20.5555 30.04C21.4545 30.0397 22.3535 30.0501 23.2521 30.033C23.6768 30.0249 24.1111 30.0108 24.5225 29.9171C25.8155 29.6221 26.6961 28.8592 27.0361 27.5308C27.2241 26.7958 27.2435 26.0496 27.1611 25.3011C27.0935 24.684 26.9155 24.0975 26.5538 23.5855C25.8868 22.6415 24.9215 22.2558 23.8221 22.1866C23.0535 22.1382 22.2801 22.1631 21.5091 22.157C21.1608 22.1543 20.8125 22.1567 20.4538 22.1567V30.0323V30.0316ZM30.5795 25.2437V23.9433H34.0891V22.1735H28.4541V30.0293H30.5568V26.9607H33.6561V25.2437H30.5795ZM37.9311 15.0091C39.3055 15.003 40.4008 13.8924 40.3985 12.5073C40.3961 11.1242 39.2905 10.0159 37.9178 10.021C36.5461 10.026 35.4391 11.1444 35.4438 12.5204C35.4485 13.8968 36.5658 15.0148 37.9308 15.0088L37.9311 15.0091Z" fill="#F8F8F8"/>
    <path d="M1.69621 30.2305C1.54121 30.1523 1.45787 30.0387 1.45054 29.8513C1.44054 29.6006 1.39754 29.3517 1.37254 29.1014C1.36787 29.0537 1.37254 29.0006 1.38921 28.956C1.45087 28.7903 1.51887 28.6271 1.59854 28.4282C1.70687 28.4188 1.78454 28.3032 1.83821 28.1625C2.03454 27.6471 2.24787 27.1375 2.41821 26.6134C2.48854 26.3977 2.46654 26.1515 2.48854 25.8989C2.59287 25.8905 2.61987 25.7826 2.63787 25.6513C2.68154 25.3351 3.1102 25.0264 3.43154 25.0751C3.7292 25.1201 4.01387 25.2001 4.27487 25.364C4.77854 25.6805 5.62887 25.6099 6.05887 25.188C6.6472 24.6108 7.25453 24.0532 7.86287 23.4972C8.5682 22.8528 9.3422 22.32 10.2755 22.0623C10.2852 22.0597 10.2922 22.0486 10.3099 22.0331C10.1809 21.6952 10.0492 21.3538 9.92053 21.0112C9.6872 20.39 9.4532 19.7688 9.22553 19.1453C9.1842 19.0318 9.13153 18.9656 9.00387 18.9757C8.88853 18.9844 8.83253 18.9243 8.79353 18.8117C8.21253 17.1404 7.9872 15.416 8.0252 13.6519C8.03287 13.3002 8.06553 12.9491 8.0862 12.5977C8.0882 12.5658 8.0862 12.5336 8.0862 12.4875H7.7252C7.73787 12.2799 7.74553 12.0867 7.7622 11.8946C7.93087 9.94105 8.25453 8.01843 8.8892 6.15728C8.93953 6.0098 9.01653 5.9285 9.1612 5.88046C9.39753 5.80185 9.62753 5.70342 9.85986 5.61271C9.86886 5.60935 9.87486 5.59827 9.90353 5.56938C9.58753 5.53544 9.29053 5.4948 8.9922 5.47329C8.40587 5.43097 7.81853 5.39435 7.2312 5.36814C7.1362 5.36378 7.01753 5.40006 6.94453 5.46053C6.33187 5.96781 5.72787 6.48584 5.11987 6.99883C4.7922 7.27498 4.4552 7.54037 4.13587 7.82559C3.99754 7.94922 3.89154 8.11048 3.7742 8.25728C3.74354 8.29592 3.72187 8.34329 3.7032 8.38965C3.28754 9.43444 2.38121 9.67196 1.41154 9.79827C1.28387 9.81507 1.13287 9.81305 1.08087 9.64407C1.04587 9.53019 1.16221 9.33769 1.28587 9.25337C1.53121 9.08606 1.77021 8.90969 2.01187 8.73702L1.98421 8.69401C1.76921 8.74138 1.55521 8.79749 1.33821 8.83175C1.23821 8.84754 1.12587 8.83746 1.02921 8.80689C0.966874 8.78707 0.892207 8.71518 0.879874 8.65471C0.870207 8.60667 0.934874 8.52167 0.988207 8.48774C1.08054 8.42929 1.18621 8.38259 1.29221 8.3574C1.68587 8.26434 2.00354 8.06143 2.25454 7.74093C2.40087 7.55381 2.59087 7.42481 2.81987 7.34519C3.14487 7.23198 3.39254 7.00286 3.5962 6.73309C4.0362 6.15056 4.4542 5.55056 4.9012 4.97374C5.2422 4.53365 5.6172 4.11977 5.97153 3.69009C6.2672 3.33164 6.64253 3.13074 7.1012 3.09076C7.22287 3.08035 7.2912 3.04541 7.2582 2.90767C7.23687 2.81831 7.2872 2.79412 7.36687 2.78371C8.84687 2.59558 10.3299 2.53611 11.8172 2.67654C12.2469 2.71719 12.6752 2.77296 13.1052 2.822C13.1439 2.55896 13.1652 2.29154 13.2245 2.03287C13.4292 1.1416 13.9415 0.530848 14.8495 0.319202C15.4622 0.176424 16.0382 0.328272 16.5859 0.60778C17.0125 0.825473 17.3692 1.13018 17.6705 1.50577C17.9025 1.79502 17.9615 2.11517 17.7782 2.42492C17.5185 2.86333 17.5805 3.3276 17.5912 3.79255C17.5942 3.92055 17.6065 4.0509 17.6359 4.17486C17.6825 4.37072 17.6159 4.51618 17.4445 4.58841C17.1432 4.71506 17.0265 4.9677 16.9375 5.25258C16.8895 5.40678 16.8245 5.55527 16.7695 5.70745C16.7035 5.89054 16.5645 5.96646 16.3825 5.96378C16.1332 5.96008 15.8819 5.9621 15.6352 5.93153C15.4265 5.90566 15.3019 5.97453 15.2222 6.16333C14.8455 7.0556 14.3752 7.90958 14.1489 8.863C14.0009 9.48719 13.8432 10.109 13.6912 10.7325C13.6795 10.7809 13.6765 10.8313 13.6669 10.9012C15.5422 11.1592 17.4132 11.4165 19.2732 11.6725C19.2869 11.6994 19.2949 11.7085 19.2969 11.7192C19.3582 12.037 19.3579 12.0384 19.6622 12.1009C20.4662 12.2661 21.2579 12.466 22.0289 12.762C22.3939 12.9021 22.8055 12.9259 23.1992 12.9794C23.6378 13.0388 24.0798 13.0727 24.5205 13.1161C24.5632 13.1201 24.6228 13.1295 24.6475 13.1067C24.7828 12.9807 24.9142 13.0452 25.0452 13.1043C25.9548 13.5165 26.8712 13.9146 27.7708 14.3477C28.7728 14.8301 29.8492 15.0827 30.8922 15.4392C31.5255 15.6555 32.1705 15.631 32.8155 15.6568C33.4088 15.6807 34.0032 15.6763 34.5965 15.6975C34.7238 15.7019 34.8642 15.7365 34.9732 15.801C35.1988 15.934 35.2098 16.1789 35.0255 16.3657C34.9748 16.4171 34.9395 16.4836 34.8758 16.5733C34.8042 16.5699 34.6952 16.5666 34.5865 16.5592C34.4075 16.5471 34.4082 16.6848 34.3885 16.8138C34.3138 16.8219 34.2382 16.8495 34.1735 16.833C34.0125 16.7917 33.8878 16.8676 33.7545 16.9304C33.1925 17.1955 32.6308 17.4619 32.0655 17.7202C31.9098 17.7915 31.7768 17.8643 31.8075 18.0767H31.4058C31.3608 18.3904 31.0985 18.3609 30.8548 18.3364C30.6582 18.3165 30.4602 18.2799 30.2715 18.2215C30.0998 18.1684 30.0198 18.0347 30.0022 17.8405C29.9788 17.5865 29.9148 17.3362 29.8665 17.0846C29.8412 16.9533 29.7612 16.8891 29.6272 16.877C29.0035 16.8212 28.3812 16.7312 27.7562 16.7104C26.8635 16.6808 25.9692 16.6889 25.0758 16.704C24.5205 16.7134 24.0008 16.5938 23.5325 16.3103C22.9438 15.9535 22.3269 15.7996 21.6379 15.8127C20.6785 15.8309 19.7182 15.7865 18.7582 15.7657C18.6609 15.7637 18.5835 15.7795 18.5389 15.8752C18.4875 15.9854 18.4005 16.0109 18.2822 16.0106C16.5559 16.0049 14.8299 16.0039 13.1035 16.0019C13.0392 16.0019 12.9749 16.0019 12.9105 16.0019C12.9055 16.0156 12.9009 16.0294 12.8959 16.0428C13.0545 16.1477 13.2095 16.2585 13.3729 16.3556C13.4855 16.4225 13.5512 16.5007 13.5662 16.6402C13.6442 17.3618 13.7322 18.082 13.8145 18.803C13.8219 18.8678 13.8155 18.9343 13.8155 19.0015C13.7102 19.0214 13.6202 19.0385 13.5222 19.057C13.5479 19.4655 13.5845 19.8602 13.5955 20.2556C13.6205 21.1546 13.6332 22.0543 13.6512 22.9536C13.6549 23.1364 13.5982 23.2996 13.4625 23.4202C13.1095 23.734 12.7565 24.0488 12.3915 24.3481C12.1812 24.5205 11.9459 24.6616 11.7259 24.8221C11.6809 24.8551 11.6249 24.9105 11.6225 24.9579C11.6152 25.104 11.5312 25.1507 11.4095 25.1917C9.9282 25.6912 8.44553 26.1881 6.96953 26.7031C6.62087 26.8247 6.28887 27.0011 5.95887 27.1711C5.25354 27.5346 4.54187 27.889 3.85587 28.2871C3.19087 28.6731 2.67754 29.2241 2.29687 29.9047C2.21854 30.0448 2.03154 30.123 1.89454 30.2299H1.69487L1.69621 30.2305Z" fill="#FF1919"/>
    <path d="M40.8285 30.0292C40.7789 30.0329 40.7295 30.0399 40.6799 30.0399C38.9819 30.0406 37.2835 30.0403 35.5855 30.0403H35.4219V22.1714H37.5215V28.2762H37.7325C38.6982 28.2762 39.6639 28.2762 40.6295 28.2762C40.6959 28.2762 40.7622 28.2809 40.8289 28.2836V30.0285L40.8285 30.0292Z" fill="#0B0B0B"/>
    <path d="M20.4531 30.0318V22.1562C20.8115 22.1562 21.1601 22.1539 21.5085 22.1566C22.2798 22.1626 23.0528 22.1377 23.8215 22.1861C24.9208 22.2553 25.8861 22.641 26.5531 23.585C26.9148 24.0973 27.0928 24.6836 27.1605 25.3007C27.2425 26.0492 27.2235 26.7953 27.0355 27.5304C26.6955 28.8587 25.8148 29.6216 24.5218 29.9166C24.1105 30.0103 23.6761 30.0244 23.2515 30.0325C22.3528 30.0496 21.4538 30.0392 20.5548 30.0395C20.5275 30.0395 20.4998 30.0352 20.4531 30.0312V30.0318ZM22.5815 23.9361V28.1767C22.8871 28.1767 23.1821 28.1982 23.4731 28.1727C24.2451 28.1042 24.6455 27.784 24.8211 27.0782C24.9908 26.3959 24.9941 25.7042 24.8041 25.0245C24.6475 24.4642 24.2915 24.0802 23.7028 23.9952C23.3381 23.9425 22.9645 23.9542 22.5815 23.9364V23.9361Z" fill="#0B0B0B"/>
    <path d="M30.5824 25.2436H33.659V26.9606H30.5597V30.0291H28.457V22.1733H34.092V23.9431H30.5824V25.2436Z" fill="#0B0B0B"/>
    <path d="M37.9323 15.0093C36.5673 15.0153 35.45 13.8973 35.4453 12.5209C35.4407 11.1449 36.5473 10.0265 37.9193 10.0215C39.292 10.0165 40.3977 11.1244 40.4 12.5078C40.4023 13.8929 39.307 15.0036 37.9327 15.0096L37.9323 15.0093Z" fill="#FF1919"/>
    <path d="M22.582 23.9359C22.965 23.9537 23.3387 23.9416 23.7034 23.9947C24.292 24.08 24.648 24.4637 24.8047 25.024C24.9947 25.7036 24.9914 26.3953 24.8217 27.0777C24.646 27.7838 24.246 28.104 23.4737 28.1722C23.1827 28.198 22.8877 28.1762 22.582 28.1762V23.9355V23.9359Z" fill="#F8F8F8"/>
  </g>
  <defs>
    <clipPath id="clip0_421_7173">
      <rect width="40" height="30" fill="white" transform="translate(0.828125 0.230469)"/>
    </clipPath>
  </defs>
</svg>