<svg xmlns="http://www.w3.org/2000/svg" width="119" height="31" viewBox="0 0 119 31" fill="none">
  <path d="M24.3351 29.0547L24.5264 27.9219H26.1471L25.9558 28.9852C25.8869 29.3715 25.9971 29.5106 26.3677 29.5106H28.8901C29.2472 29.5106 29.4117 29.3715 29.4665 28.9852L29.6725 27.7964C29.7688 27.3132 29.6036 27.1765 29.1777 27.0784L26.7284 26.5256C25.6304 26.2909 24.9005 25.9182 25.132 24.5754L25.366 23.2462C25.3795 22.969 25.4481 22.6975 25.5677 22.4481C25.6873 22.1988 25.8552 21.9768 26.0615 21.7956C26.2677 21.6144 26.5079 21.4777 26.7675 21.394C27.0271 21.3103 27.3007 21.2811 27.5716 21.3084H30.4109C31.6904 21.3084 32.1779 21.9307 31.9585 23.2462L31.7672 24.2822H30.1587L30.3232 23.3145C30.392 22.927 30.2819 22.7891 29.9247 22.7891H27.5728C27.2158 22.7891 27.0513 22.927 26.9818 23.3145L26.8039 24.3642C26.7223 24.8636 26.8728 25.0002 27.2987 25.0834L29.7602 25.6362C30.8447 25.8847 31.5759 26.2586 31.3443 27.5865L31.097 29.0523C31.0803 29.3306 31.0087 29.6026 30.8865 29.8521C30.7644 30.1015 30.5941 30.3234 30.3859 30.5042C30.1778 30.6851 29.936 30.8214 29.675 30.9049C29.414 30.9883 29.1392 31.0173 28.867 30.9901H25.8449C24.5654 30.9901 24.0779 30.3702 24.3095 29.0523" fill="#0B0B0B"/>
  <path d="M43.5885 29.4864L43.3448 30.977H37.13L38.7142 21.2879H45.0508L44.6852 22.9027H40.1765L39.6891 25.2629H43.4667L43.2229 26.7536H39.4453L38.9579 29.4864H43.5885Z" fill="#0B0B0B"/>
  <path d="M57.6024 23.2168L57.2319 25.3782C57.2046 25.8627 57.0076 26.3212 56.6765 26.67C56.3455 27.0189 55.9026 27.2349 55.4284 27.2787L56.541 30.9556H54.835L53.7224 27.3533H51.7727L51.1414 30.9556H49.4964L51.1902 21.2789H56.0523C57.3318 21.2789 57.8193 21.9013 57.5999 23.2168M55.5405 22.7882H52.5915L52.0432 25.8689H55.0043C55.3614 25.8689 55.5125 25.731 55.5807 25.3434L55.9378 23.2938C56.0066 22.9199 55.8965 22.7832 55.5393 22.7832" fill="#0B0B0B"/>
  <path d="M66.0106 21.2879L64.3046 30.977H62.7204L64.3046 21.2879H66.0106Z" fill="#0B0B0B"/>
  <path d="M77.4654 29.4864L77.2217 30.977H71.0069L72.5911 21.2879H78.9277L78.5621 22.9027H74.0534L73.5659 25.2629H77.3436L77.0998 26.7536H73.3222L72.8348 29.4864H77.4654Z" fill="#0B0B0B"/>
  <path d="M83.3144 29.0547L83.5057 27.9219H85.1264L84.9351 28.9852C84.8663 29.3715 84.9764 29.5106 85.347 29.5106H87.8695C88.2265 29.5106 88.391 29.3715 88.4459 28.9852L88.6518 27.7964C88.7482 27.3132 88.583 27.1765 88.1571 27.0784L85.7077 26.5256C84.6098 26.2909 83.8798 25.9182 84.1114 24.5754L84.3453 23.2462C84.3589 22.969 84.4275 22.6975 84.5471 22.4481C84.6666 22.1988 84.8346 21.9768 85.0408 21.7956C85.2471 21.6144 85.4873 21.4777 85.7469 21.394C86.0064 21.3103 86.28 21.2811 86.551 21.3084H89.3903C90.6698 21.3084 91.1572 21.9307 90.9379 23.2462L90.7465 24.2822H89.138L89.3025 23.3145C89.3705 22.927 89.2612 22.7891 88.904 22.7891H86.5522C86.1951 22.7891 86.0306 22.927 85.9624 23.3145L85.7833 24.3642C85.7016 24.8636 85.8521 25.0002 86.278 25.0834L88.7395 25.6362C89.8241 25.8847 90.5552 26.2586 90.3237 27.5865L90.0763 29.0523C90.0596 29.3306 89.988 29.6026 89.8659 29.8521C89.7437 30.1015 89.5734 30.3234 89.3653 30.5042C89.1571 30.6851 88.9153 30.8214 88.6543 30.9049C88.3934 30.9883 88.1185 31.0173 87.8463 30.9901H84.8242C83.5447 30.9901 83.0573 30.3702 83.2888 29.0523" fill="#0B0B0B"/>
  <path d="M8.34728 0.0456402L5.04493 18.4302H0L3.30235 0.0456402H8.34728Z" fill="#0B0B0B"/>
  <path d="M23.3602 0.0456402H28.3564L24.9443 18.4302H20.8012L15.9268 7.87148L14.099 18.4302H9.10278L12.5148 0.0456402H17.2673L21.6542 9.859L23.3602 0.0456402Z" fill="#0B0B0B"/>
  <path d="M32.3777 0.111655H43.3937C45.8065 0.111655 46.7813 1.2669 46.3183 3.67676L44.3076 14.9062C44.2682 15.4255 44.1268 15.9315 43.8918 16.394C43.6569 16.8565 43.3332 17.2662 42.9399 17.5987C42.5466 17.9313 42.0918 18.1799 41.6025 18.3298C41.1132 18.4797 40.5993 18.5278 40.0913 18.4713H29.0753L32.3777 0.111655ZM38.9093 14.3969C39.2846 14.3969 39.365 14.2921 39.4467 13.9249L41.1161 4.69537C41.1703 4.32768 41.1161 4.22333 40.7408 4.22333H36.7073L34.8794 14.3969H38.9093Z" fill="#0B0B0B"/>
  <path d="M57.6021 12.7161L56.5054 18.4302H51.5092L52.4841 12.7161L48.9502 0.0456402H54.3119L55.7742 7.87148L60.1611 0.0456402H65.7666L57.6021 12.7161Z" fill="#0B0B0B"/>
  <path d="M65.0357 14.8942L67.0463 3.66471C67.0951 3.1445 67.2443 2.63925 67.4854 2.17807C67.7265 1.71688 68.0547 1.30886 68.4511 0.977505C68.8476 0.646145 69.3044 0.397991 69.7952 0.247323C70.2861 0.0966557 70.8014 0.0464527 71.3114 0.0996066H78.4279C80.8407 0.0996066 81.7546 1.25485 81.3037 3.66471L80.6859 7.1056H75.641L76.0967 4.67089C76.1508 4.3032 76.0701 4.19886 75.6946 4.19886H72.4654C72.1169 4.19886 71.9828 4.3037 71.928 4.67089L70.2585 13.9004C70.1777 14.2681 70.2851 14.3725 70.6339 14.3725H73.8631C74.2396 14.3725 74.3469 14.2676 74.4273 13.9004L74.8575 11.4657H79.9024L79.2833 14.9066C79.2423 15.4253 79.0998 15.9303 78.8643 16.392C78.6289 16.8537 78.3052 17.2627 77.9123 17.595C77.5193 17.9272 77.0652 18.1759 76.5766 18.3265C76.0879 18.477 75.5747 18.5264 75.067 18.4717H67.9505C65.5377 18.4717 64.5872 17.3165 65.0259 14.9066" fill="#0B0B0B"/>
  <path d="M92.5755 14.6449H87.2259L85.593 18.4212H80.3044L89.1635 0.0366752H95.7682L98.0835 18.4212H92.8436L92.5755 14.6449ZM92.2794 10.7072L91.7968 4.07382L88.921 10.7072H92.2794Z" fill="#0B0B0B"/>
  <path d="M117.8 3.58995L116.94 8.35999C116.887 9.20826 116.554 10.0131 115.993 10.6428C115.433 11.2724 114.68 11.6895 113.857 11.8257L115.904 18.3845H111.018L108.983 12.2481H106.862L105.761 18.3845H100.716L104.018 0H114.9C117.313 0 118.288 1.15525 117.825 3.56511M111.464 8.33514C111.812 8.33514 111.946 8.23031 112.028 7.86311L112.619 4.44707C112.7 4.08062 112.619 3.97503 112.27 3.97503H108.371L107.565 8.33514H111.464Z" fill="#0B0B0B"/>
  <path d="M117.922 18.3721C117.634 18.3723 117.358 18.2582 117.152 18.0541C117.052 17.954 116.974 17.8344 116.921 17.7026C116.81 17.417 116.81 17.0987 116.921 16.8132C116.974 16.6813 117.052 16.5617 117.152 16.4616C117.358 16.2576 117.634 16.1436 117.922 16.1436C118.067 16.1427 118.21 16.172 118.343 16.2297C118.471 16.2842 118.588 16.3631 118.687 16.462C118.786 16.5621 118.865 16.6817 118.917 16.8135C119.028 17.0993 119.028 17.4171 118.917 17.7029C118.865 17.8348 118.786 17.9543 118.687 18.0545C118.588 18.1534 118.471 18.2322 118.343 18.2868C118.21 18.3444 118.067 18.373 117.922 18.3721ZM117.922 18.1927C118.041 18.1945 118.159 18.1702 118.269 18.1217C118.373 18.0753 118.466 18.0091 118.546 17.9267C118.625 17.8419 118.687 17.7418 118.728 17.6323C118.773 17.513 118.795 17.3861 118.794 17.2584C118.795 17.1327 118.773 17.0079 118.728 16.8907C118.687 16.7814 118.625 16.6814 118.546 16.5963C118.467 16.5135 118.373 16.4472 118.269 16.4012C118.16 16.3519 118.041 16.3273 117.922 16.3292C117.805 16.3284 117.689 16.3516 117.582 16.3975C117.474 16.4434 117.377 16.511 117.295 16.5963C117.215 16.6808 117.153 16.781 117.111 16.8907C117.067 17.0079 117.045 17.1327 117.046 17.2584C117.044 17.3861 117.066 17.513 117.111 17.6323C117.152 17.7422 117.215 17.8424 117.295 17.9267C117.376 18.0124 117.474 18.0803 117.581 18.1263C117.689 18.1722 117.805 18.1941 117.922 18.1927ZM117.443 16.6658H118.013C118.122 16.6633 118.228 16.6936 118.32 16.7529C118.363 16.7812 118.397 16.8205 118.42 16.8667C118.443 16.913 118.453 16.9645 118.451 17.0163C118.455 17.0786 118.438 17.1406 118.403 17.1917C118.367 17.2428 118.316 17.28 118.257 17.297V17.3063C118.301 17.3174 118.341 17.3434 118.37 17.3802C118.396 17.4189 118.414 17.4623 118.424 17.5082C118.436 17.5738 118.442 17.6403 118.442 17.7069C118.442 17.7687 118.453 17.8052 118.478 17.8173V17.8444H118.144C118.129 17.8361 118.119 17.8023 118.115 17.7443C118.11 17.6854 118.104 17.6293 118.095 17.5729C118.094 17.5521 118.088 17.5317 118.079 17.5131C118.07 17.4945 118.057 17.478 118.042 17.4647C118.026 17.4514 118.008 17.4415 117.988 17.4358C117.968 17.43 117.948 17.4285 117.928 17.4313H117.788V17.8449H117.444L117.443 16.6658ZM117.958 17.1863C118.061 17.1863 118.112 17.1452 118.112 17.0621C118.112 16.9797 118.061 16.9379 117.958 16.9379H117.786V17.1863H117.958Z" fill="#0B0B0B"/>
</svg>