<svg xmlns="http://www.w3.org/2000/svg" width="49" height="29" viewBox="0 0 49 29" fill="none">
  <path d="M3.58021 0.289551H10.1296C11.7192 0.289551 12.9989 1.56924 12.9989 3.15882V25.3021C12.9989 26.8917 11.7192 28.1714 10.1296 28.1714H3.58021C1.99063 28.1714 0.710938 26.8917 0.710938 25.3021V3.15882C0.710938 1.56924 1.99063 0.289551 3.58021 0.289551Z" fill="white"/>
  <path d="M8.50162 5.40032L8.51072 5.49463C8.70833 5.6114 8.81162 5.70571 9.01366 5.83595C9.5436 6.17278 10.1949 6.77009 10.114 8.82249C10.2667 9.27159 10.3341 10.1473 10.4688 10.4258C10.7428 10.9782 10.9314 11.3375 11.0122 11.8539C11.0122 11.8539 11.0931 12.6623 11.1964 12.7207C11.7442 12.8464 11.5871 12.9003 11.6634 12.9991C11.7487 13.1069 12.0676 13.1024 12.0676 13.3988C12.1799 13.5471 12.2652 13.6953 12.3235 13.8569V3.18175C12.3235 1.96019 11.3355 0.972168 10.1184 0.972168H8.01203C8.34886 1.09343 8.54197 1.23714 8.65431 1.46169C8.92365 1.48415 9.2427 2.09043 8.74407 2.99313C8.96407 3.14583 8.79341 3.37038 8.63622 3.62637C8.58682 3.7072 8.53742 3.85541 8.38922 3.84643C8.19161 4.25511 7.96251 4.64134 7.78748 4.66379C7.73814 4.72667 7.70209 4.90182 7.77844 4.98266C8.03461 5.09942 8.34437 5.25212 8.50162 5.40032Z" fill="#C80F2E"/>
  <path d="M10.4691 27.46L10.4467 27.4645C11.4122 26.8762 10.8149 25.7625 10.6308 25.1068L10.6667 24.9944C10.7161 24.9046 10.6128 24.6936 10.6128 24.6936C10.4916 24.5948 10.4646 24.0469 10.4017 23.7954C10.2985 23.3867 10.5858 22.6727 10.5858 22.4302C10.5858 22.1875 10.4017 21.8552 10.0694 21.4331C9.98852 21.3388 9.74601 19.2685 9.53044 18.743C9.22954 18.0199 9.13965 18.1366 8.7805 17.27C8.50648 16.6636 8.72205 15.77 8.10235 13.6951L8.24151 13.5649C8.24151 13.5649 7.7475 11.7595 7.58576 11.2655C7.42851 10.7714 7.13672 10.74 7.13672 10.74L7.15462 10.484C7.17714 10.4077 7.75642 8.90317 7.80582 8.85377C7.81025 8.82234 8.64115 8.25197 8.65456 8.3373C8.72186 8.70557 9.04528 10.5783 9.18444 10.8747C9.32366 11.1756 9.80433 12.0918 10.0243 12.6622C9.16654 12.8732 8.52426 13.6502 8.52426 14.5709C8.52426 15.6577 9.40456 16.5424 10.4914 16.5424C11.3221 16.5424 12.0408 16.026 12.3282 15.2985L12.3237 25.2821C12.3239 26.3867 11.5289 27.2984 10.4691 27.46Z" fill="#C80F2E"/>
  <path d="M7.32321 0.972168C6.60465 1.25061 6.50584 1.56049 6.47896 2.5575C6.3577 2.57097 6.10614 2.45421 6.19153 3.0605C6.19153 3.0605 6.23644 3.46469 6.39812 3.39732C6.27237 4.27757 6.3723 4.49787 5.7874 4.5605C5.66166 4.57397 5.5089 4.58295 5.32034 4.59194L5.26195 4.67278C4.46255 4.74912 4.06659 4.69804 3.55081 5.37787C3.3532 5.63835 3.14213 6.00661 2.88165 6.53206C2.88165 6.53206 2.64362 7.12039 2.5717 7.3629C2.34266 7.84344 1.78128 8.90781 1.61511 9.59045C1.56128 9.82399 1.45793 9.89584 1.60613 10.2327C1.82619 10.7177 1.46242 10.8434 2.71093 10.8075V11.0949C2.71093 11.0949 2.37859 11.3824 2.30673 11.553C2.23937 11.7282 2.04625 12.586 2.0553 12.9947C2.07769 14.059 2.94452 14.9482 3.20045 16.0081L3.77979 16.089C4.09416 16.8121 5.46842 18.7611 5.78734 19.0755C5.79183 19.08 5.79632 19.0845 5.80081 19.089C5.87261 19.2731 6.22746 19.5022 6.43399 19.7313C6.5598 19.8525 7.1392 20.4813 7.9116 21.0786C8.19516 21.2979 8.50005 21.5142 8.81879 21.6984C8.8098 21.6938 9.00741 22.0891 9.10621 22.4124C8.711 22.7312 9.47897 23.3152 9.7125 24.2807C9.72598 24.4108 9.48789 24.5412 9.84274 24.86C9.82029 26.3195 9.37574 27.0831 10.1212 27.4872H3.55081C2.35626 27.4603 1.39062 26.4813 1.39062 25.2821V3.18175C1.39062 1.97367 2.3562 0.999114 3.55081 0.972168H7.32321Z" fill="#1D4289"/>
  <path fill-rule="evenodd" clip-rule="evenodd" d="M16.3047 0.959473V27.4563H19.1685C19.176 20.6327 19.3307 13.7815 18.9108 7.03773L22.2124 27.4563H26.3215V0.959473H23.4858C23.428 7.98489 23.6775 14.9121 24.1539 21.7669L20.7232 0.959473H16.3047Z" fill="#0B0B0B"/>
  <path fill-rule="evenodd" clip-rule="evenodd" d="M41.1311 0.940918L38.3164 27.46H41.8185L42.2767 22.0976H44.5678L45.026 27.46H48.5117L45.7787 0.940918H41.1311ZM43.4222 8.42629L44.3059 18.9863H42.5385L43.4222 8.42629Z" fill="#0B0B0B"/>
  <path d="M28.5273 0.958998V27.4415H33.6495C34.4891 27.4415 37.348 26.7078 37.348 23.0308V17.7416C37.348 17.1843 37.3527 15.4372 35.826 14.4107C36.78 14.4107 37.348 12.5601 37.348 10.8785V5.20498C37.348 2.99441 35.972 0.952983 33.2077 0.958998H28.5273ZM31.6857 4.3448H33.2404C33.9526 4.3448 34.1896 5.13104 34.1896 5.73573V11.9034C34.1896 12.9584 33.8427 13.0381 33.1258 13.0381H31.6857V4.3448ZM31.6857 15.9297H33.2404C33.9526 15.9297 34.1896 16.716 34.1896 17.3207V22.8295C34.1896 23.5472 33.8317 24.0923 33.1258 24.0923L31.6857 24.1105V15.9297Z" fill="#0B0B0B"/>
</svg>