<svg xmlns="http://www.w3.org/2000/svg" width="103" height="19" viewBox="0 0 103 19" fill="none">
  <path d="M25.0537 15.0514H27.0397C27.1224 15.0514 27.1948 14.9798 27.1948 14.898V10.3259H30.7531C30.8151 10.3259 30.8772 10.285 30.8979 10.2236L31.5288 8.50525C31.5599 8.42343 31.5185 8.3416 31.4357 8.31091C31.4151 8.30068 31.4047 8.30068 31.384 8.30068H27.1948V5.43673H32.5425C32.6046 5.43673 32.6667 5.39582 32.6873 5.33445L33.3287 3.61608C33.3597 3.53425 33.3183 3.45242 33.2356 3.42174C33.2149 3.41151 33.2045 3.41151 33.1838 3.41151H25.0537C24.9709 3.41151 24.8985 3.48311 24.8985 3.56494V14.898C24.8985 14.9901 24.9709 15.0514 25.0537 15.0514Z" fill="#0373FF"/>
  <path d="M37.7765 3.51379L33.6079 14.8469C33.5769 14.9287 33.6183 15.0105 33.701 15.0412C33.7217 15.0514 33.732 15.0514 33.7527 15.0514H35.8215C35.8835 15.0514 35.9456 15.0105 35.9663 14.9491L36.6386 12.9955H40.8278L41.4898 14.9491C41.5105 15.0105 41.5726 15.0514 41.6347 15.0514H43.6931C43.7758 15.0514 43.8482 14.9798 43.8482 14.898C43.8482 14.8775 43.8482 14.8673 43.8379 14.8469L39.659 3.51379C39.6383 3.45242 39.5763 3.41151 39.5142 3.41151H37.9316C37.8592 3.41151 37.8075 3.45242 37.7765 3.51379ZM37.2903 11.0828L38.7798 6.84825L40.2176 11.0828H37.2903Z" fill="#0373FF"/>
  <path d="M53.2507 10.5407L48.627 3.48311C48.596 3.44219 48.5443 3.41151 48.4925 3.41151H46.6824C46.5996 3.41151 46.5272 3.48311 46.5272 3.56494V14.898C46.5272 14.9798 46.5996 15.0514 46.6824 15.0514H48.6684C48.7511 15.0514 48.8235 14.9798 48.8235 14.898V7.90178L53.4472 14.9798C53.4782 15.0207 53.5299 15.0514 53.5817 15.0514H55.3918C55.4746 15.0514 55.547 14.9798 55.547 14.898V3.56494C55.547 3.48311 55.4746 3.41151 55.3918 3.41151H53.4058C53.3231 3.41151 53.2507 3.48311 53.2507 3.56494V10.5407Z" fill="#0373FF"/>
  <path d="M77.7136 10.9805C77.7136 12.3204 76.9067 13.1285 75.6655 13.1285C74.4243 13.1285 73.6278 12.3307 73.6278 10.9805V3.56494C73.6278 3.48311 73.5554 3.41151 73.4726 3.41151H71.4866C71.4039 3.41151 71.3315 3.48311 71.3315 3.56494V11.0624C71.3315 13.5376 73.2554 15.1537 75.6655 15.1537C78.0756 15.1537 79.9995 13.5376 79.9995 11.0624V3.56494C79.9995 3.48311 79.9271 3.41151 79.8444 3.41151H77.8791C77.7963 3.41151 77.7239 3.48311 77.7239 3.56494L77.7136 10.9805Z" fill="#0373FF"/>
  <path d="M91.5121 5.33445L92.1431 3.61608C92.1741 3.53425 92.1327 3.45242 92.05 3.42174C92.0293 3.41151 92.0189 3.41151 91.9983 3.41151H83.8784C83.7957 3.41151 83.7233 3.48311 83.7233 3.56494V14.898C83.7233 14.9798 83.7957 15.0514 83.8784 15.0514H91.9983C92.081 15.0514 92.1534 14.9798 92.1534 14.898C92.1534 14.8775 92.1534 14.8673 92.1431 14.8469L91.5121 13.1285C91.4914 13.0671 91.4293 13.0262 91.3673 13.0262H86.0196V10.1929H90.3226C90.4053 10.1929 90.4777 10.1213 90.4777 10.0395V8.32114C90.4777 8.23932 90.4053 8.16772 90.3226 8.16772H86.0196V5.43673H91.3673C91.4293 5.43673 91.4914 5.39582 91.5121 5.33445Z" fill="#0373FF"/>
  <path d="M102.052 13.0262H97.1908V3.56494C97.1908 3.48311 97.1184 3.41151 97.0356 3.41151C97.0356 3.41151 97.0356 3.41151 97.0253 3.41151H95.0393C94.9565 3.41151 94.8841 3.48311 94.8841 3.56494V14.898C94.8841 14.9798 94.9565 15.0514 95.0393 15.0514H102.673C102.756 15.0514 102.828 14.9798 102.828 14.898C102.828 14.8775 102.828 14.8673 102.818 14.8469L102.187 13.1285C102.176 13.0671 102.114 13.0262 102.052 13.0262Z" fill="#0373FF"/>
  <path d="M66.8113 4.52641C66.0355 3.75928 64.9287 3.41151 63.6978 3.41151H59.0224C58.9397 3.41151 58.8673 3.48311 58.8673 3.56494C58.8673 3.57516 58.8673 3.58539 58.8673 3.59562L59.2086 5.31399C59.2293 5.38559 59.281 5.43673 59.3535 5.43673H63.4599C64.2564 5.43673 64.7839 5.68221 65.177 6.15272C65.6114 6.67437 65.6735 7.41081 65.6735 9.18033C65.6735 10.9498 65.6114 11.7783 65.177 12.3C64.7839 12.7705 64.246 13.016 63.4599 13.016H61.7532V6.97099C61.7532 6.88917 61.6808 6.81757 61.598 6.81757H59.612C59.5293 6.81757 59.4569 6.88917 59.4569 6.97099V14.9082C59.4569 14.9901 59.5293 15.0617 59.612 15.0617H63.7082C64.9287 15.0617 66.0458 14.7139 66.8216 13.9468C68.1456 12.6375 68.0111 10.9396 68.0111 9.19056C68.0008 7.43127 68.1353 5.82541 66.8113 4.52641Z" fill="#0373FF"/>
  <path d="M8.35887 3.20693C8.71056 2.46026 9.11397 1.7545 9.57943 1.09988C9.76562 0.833944 9.96215 0.588463 10.1587 0.35321C10.1897 0.302068 10.1587 0.230469 10.0966 0.230469C10.0449 0.230469 9.99318 0.230469 9.94146 0.230469C7.86238 0.230469 5.85569 0.578234 3.99382 1.2124C3.03186 1.5397 2.10092 1.94884 1.21136 2.42957C0.963113 2.56254 0.8183 2.81825 0.828644 3.09442C0.849332 4.11726 0.963113 5.10942 1.15964 6.08111C1.33549 6.99144 1.58374 7.88131 1.89405 8.7405C2.26642 9.77357 2.73189 10.7657 3.29045 11.6965C4.30413 13.4251 5.5971 14.9696 7.11763 16.2686C7.37622 16.4936 7.64516 16.7084 7.91409 16.913C7.97616 16.9539 8.05891 16.8925 8.02787 16.8312C7.91409 16.555 7.81066 16.2686 7.71756 15.9822C7.2521 14.6014 6.96247 13.1183 6.86938 11.584C6.86938 11.5124 6.83835 11.451 6.80732 11.3999C6.4246 10.8782 6.08325 10.3464 5.77294 9.77357C6.05222 9.62014 6.35219 9.48717 6.65216 9.37466C6.78663 9.32352 6.86938 9.20078 6.87972 9.05758C6.95213 8.03474 7.10728 7.02213 7.35553 6.06066C7.36588 6.00952 7.3245 5.95837 7.27278 5.9686C6.3315 6.1834 5.42126 6.50048 4.58342 6.91984C4.34551 6.12203 4.16967 5.30376 4.06623 4.46503C5.32816 3.93315 6.68319 3.57516 8.08994 3.40127C8.19337 3.40127 8.29681 3.31945 8.35887 3.20693Z" fill="#0373FF"/>
  <path d="M18.6716 2.42958C17.782 1.94885 16.8614 1.54994 15.8891 1.2124C14.5962 0.772582 13.2515 0.475959 11.8447 0.332761C11.731 0.322533 11.6275 0.363446 11.5448 0.435045C10.7897 1.20218 10.1173 2.13296 9.56912 3.19671C9.54843 3.24786 9.57946 3.299 9.63118 3.299C9.73462 3.299 9.82771 3.299 9.93115 3.299C12.0206 3.299 14.0169 3.71836 15.8374 4.47526C15.734 5.31399 15.5581 6.14249 15.3202 6.93008C15.0203 7.92223 14.6169 8.87348 14.1204 9.77357C13.086 11.6556 11.6482 13.3024 9.93115 14.5809C9.33121 14.1309 8.77265 13.6501 8.25546 13.1183C8.20374 13.0671 8.12099 13.108 8.13134 13.1796C8.26581 13.957 8.44165 14.7139 8.66921 15.4299C8.98987 16.4323 9.40361 17.3528 9.90011 18.1915C9.9208 18.2222 9.96218 18.2427 10.0036 18.2222C10.9862 17.6494 11.9171 16.9948 12.7757 16.2584C14.2859 14.9594 15.5892 13.4149 16.6028 11.6863C17.1511 10.7453 17.6165 9.76335 17.9993 8.73028C18.3096 7.87109 18.5578 6.98122 18.7337 6.07089C18.9198 5.0992 19.0336 4.09681 19.0647 3.0842C19.0647 2.80803 18.9198 2.55232 18.6716 2.42958Z" fill="#0373FF"/>
</svg>