<svg width="43" height="48" viewBox="0 0 43 48" fill="none" xmlns="http://www.w3.org/2000/svg">
<g id="Logos 11">
<path id="path6" d="M3.09382 28.9025C3.09382 24.5589 5.13507 22.9233 5.54071 18.7886C4.97841 22.4132 2.58374 25.331 2.58374 28.9025C2.58374 30.2761 2.79262 31.5061 3.09382 32.6316C4.57277 37.6429 9.07303 40.3909 13.3653 41.5155C6.77068 39.8277 3.09382 34.215 3.09382 28.9025ZM41.1558 28.9025C41.1558 26.6524 40.5413 24.8722 39.8736 23.2366C39.0623 21.2998 38.1858 19.5075 38.1858 17.3096C38.1858 22.5699 40.6849 24.1001 40.6849 28.9025C40.6849 34.215 37.0602 39.8277 30.4134 41.5155C36.4066 39.9844 41.1558 35.5885 41.1558 28.9025Z" fill="#E4E5E6"/>
<path id="path8" d="M38.9561 7.86559C37.5825 7.45995 36.6006 6.4398 35.9991 4.80419L34.6778 1.02289L34.0101 3.41756C35.3315 9.29232 40.1339 9.69796 40.1339 9.69796L42.0707 8.78224L38.9561 7.86559ZM16.176 29.2581L13.6769 25.3724L10.8635 27.4659C10.8635 27.4659 11.8315 27.5181 11.8315 28.5392V35.8397L13.8205 34.3608V29.2059L16.0706 32.673L18.1641 31.0896V22.0089L16.1751 23.4878V29.2581H16.176ZM24.2496 20.7798L21.9995 22.4677V19.092L18.9903 21.3421C18.9903 21.3421 19.9582 21.3943 19.9582 22.4154V29.716L21.9995 28.1848V24.8614L24.2496 23.1736V26.5492L26.1864 25.1234V15.9774L24.2496 17.4564V20.7798ZM29.8623 19.9685V13.1781L26.8532 15.4282C26.8532 15.4282 27.8211 15.4804 27.8211 16.5015V23.8021L33.4338 19.5629C33.3294 18.1371 33.4338 17.2606 33.4338 17.2606L29.8623 19.9685Z" fill="#E4E5E6"/>
<path id="path19" d="M4.22198 17.3092C4.22198 22.464 1.67065 23.4851 1.67065 28.902C1.67065 30.5376 1.93269 32.121 2.44277 33.4946C2.59943 33.1934 2.84841 32.8269 3.11044 32.6311C2.75609 31.5056 2.59943 30.2756 2.59943 28.902C2.59943 25.3828 4.99409 22.4127 5.55639 18.7881C5.60861 18.3303 5.60861 17.8202 5.60861 17.3092C5.66083 13.1744 3.67181 9.69434 3.67181 9.69434L1.73593 8.77863L3.05729 11.7878C3.7119 13.319 4.22198 15.2157 4.22198 17.3092Z" fill="#E4E5E6"/>
<path id="path30" d="M38.1851 17.3092C38.1851 19.5071 39.0486 21.2471 39.8729 23.2361L40.9462 23.1839C40.2785 21.5483 39.6248 19.9649 39.6248 17.3092C39.6248 15.2157 40.1349 13.332 40.8026 11.7878L42.124 8.77863L40.1349 9.69434C40.1349 9.69434 38.1851 13.1744 38.1851 17.3092Z" fill="#E4E5E6"/>
<path id="path45" d="M20.365 43.097C18.7817 42.5347 16.5837 42.3249 13.417 41.5136C9.07337 40.4403 4.63746 37.6279 3.14546 32.6296C2.88342 32.8917 2.63538 33.1919 2.47778 33.4931C4.16561 38.2946 8.45699 41.6712 13.0496 42.8872C16.0065 43.6593 17.3932 43.6984 19.592 44.313C19.8932 44.6142 21.8944 46.8121 21.8944 46.8121V44.7186C21.8962 44.7326 20.5749 43.2536 20.365 43.097Z" fill="#E4E5E6"/>
<path id="path68" d="M13.773 40.091C17.2923 40.9545 19.5956 41.059 21.1267 41.8311C21.1267 41.8311 21.689 42.3412 21.8989 42.6032C22.1077 42.3412 22.671 41.8311 22.671 41.8311C24.2021 41.059 26.5045 40.9676 30.0247 40.091C34.4736 38.9655 39.2751 35.0406 39.2751 28.9038C39.2751 24.508 36.776 22.8724 36.776 17.3109C36.776 13.5296 38.2018 10.6249 38.2018 10.6249C38.2018 10.6249 34.9306 9.95723 33.4003 5.82344C33.4003 5.82344 31.2024 7.86469 28.1932 7.86469C24.4119 7.86469 21.9128 5.20892 21.9128 5.20892C21.9128 5.20892 19.4137 7.86469 15.6324 7.86469C12.6232 7.86469 10.4253 5.82344 10.4253 5.82344C8.89417 9.95816 5.62388 10.6249 5.62388 10.6249C5.62388 10.6249 7.04968 13.5427 7.04968 17.3109C7.04968 22.8845 4.55057 24.5071 4.55057 28.9038C4.53565 35.0798 9.33711 38.9655 13.773 40.091ZM37.6777 28.9038C37.6777 34.1109 33.543 37.5397 29.6573 38.5599C26.8439 39.2798 23.4813 39.6332 22.4089 40.2477C22.1469 40.4044 21.8989 40.7056 21.8989 40.7056C21.8989 40.7056 21.5977 40.4044 21.3888 40.2477C20.3686 39.6854 16.9398 39.2798 14.1404 38.5599C14.036 38.5077 13.9306 38.5077 13.8392 38.4554L35.8071 21.9567C36.5522 24.6124 37.6777 26.3003 37.6777 28.9038ZM36.0943 11.5415C35.6365 12.8629 35.1264 14.9694 35.1264 17.3119C35.1264 18.2798 35.1786 19.1955 35.3362 19.9676L11.784 37.6442C8.82703 36.113 6.26265 33.1952 6.11811 29.2181L33.1896 8.88485C34.1575 10.2062 35.2308 11.0305 36.0943 11.5415ZM8.66944 17.3109C8.66944 14.9163 8.15936 12.862 7.7015 11.5406C8.72166 10.9783 10.057 9.95723 11.0772 8.21718C12.2027 8.8317 13.7851 9.49937 15.6175 9.49937C18.4309 9.49937 20.6288 8.2694 21.8979 7.35368C23.1801 8.2694 25.365 9.49937 28.1783 9.49937C28.6362 9.49937 29.0418 9.44715 29.4605 9.39493L6.41931 26.6537C7.08698 24.0492 8.66944 21.9035 8.66944 17.3109Z" fill="#E4E5E6"/>
<path id="path83" d="M15.6168 6.42161C19.3981 6.42161 21.8972 3.20262 21.8972 3.20262V1.1623L19.9081 3.09818C18.888 4.11833 17.2524 4.94267 15.6168 4.94267C14.3868 4.94267 13.2221 4.38037 12.2411 3.56909L9.17969 1.01776L9.84736 3.41243C9.79421 3.41243 12.699 6.42161 15.6168 6.42161Z" fill="#E4E5E6"/>
<path id="path98" d="M41.1576 28.9023C41.1576 35.5883 36.4083 39.9842 30.376 41.5153C27.2092 42.3266 25.0113 42.5355 23.4279 43.0987C23.219 43.3076 21.8967 44.7343 21.8967 44.7343V46.8278C21.8967 46.8278 23.938 44.6299 24.1991 44.3287C26.397 43.7142 27.7715 43.661 30.7415 42.9029C36.7207 41.3717 42.1376 36.1646 42.1376 28.9032C42.1376 26.2997 41.5753 24.7163 40.9599 23.1851L39.8866 23.2373C40.5421 24.872 41.1576 26.6522 41.1576 28.9023Z" fill="#E4E5E6"/>
<path id="path113" d="M28.1749 6.42161C31.0927 6.42161 33.9974 3.46465 33.9974 3.46465L34.6651 1.01776L31.6037 3.56909C30.5835 4.38037 29.458 4.94267 28.228 4.94267C26.5924 4.94267 24.9568 4.13139 23.9366 3.09818L21.9476 1.16137V3.16345C21.8945 3.20355 24.3936 6.42161 28.1749 6.42161Z" fill="#E4E5E6"/>
<path id="path128" d="M9.79302 3.41243L9.1785 1.01776L7.80492 4.79906C7.1904 6.43467 6.22153 7.45483 4.84796 7.86047L1.7334 8.77712L3.67021 9.69283C3.65622 9.69283 8.51083 9.2872 9.79302 3.41243Z" fill="#E4E5E6"/>
<path id="path130" d="M6.41758 26.6528L29.4588 9.34274C29.0531 9.39496 28.5953 9.44718 28.1766 9.44718C25.3632 9.44718 23.1653 8.21721 21.8962 7.3015C20.614 8.21721 18.4291 9.44718 15.6158 9.44718C13.7713 9.44718 12.1879 8.83267 11.0754 8.16499C10.0553 9.90504 8.71992 10.9261 7.69977 11.4884C8.15763 12.8098 8.6677 14.9163 8.6677 17.2588C8.6677 21.9026 7.08525 24.0483 6.41758 26.6528ZM13.8235 38.4545C13.928 38.5068 14.0333 38.5068 14.1247 38.559C16.9381 39.2789 20.3007 39.6323 21.3731 40.2468C21.6351 40.4035 21.8831 40.7047 21.8831 40.7047C21.8831 40.7047 22.1843 40.4035 22.3932 40.2468C23.4134 39.6845 26.8422 39.2789 29.6416 38.559C33.5273 37.591 37.662 34.1632 37.662 28.9029C37.662 26.2994 36.5365 24.6115 35.7784 21.9548L13.8235 38.4545ZM3.60421 17.31C3.60421 22.2691 1.05289 23.3946 1.05289 28.9029C1.05289 36.8189 7.17663 42.026 12.9069 43.505C15.7724 44.2249 16.6359 44.2771 19.2395 44.8786C19.4493 45.0874 21.8953 47.7441 21.8953 47.7441C21.8953 47.7441 24.3421 45.1406 24.551 44.8786C27.1546 44.2109 28.0181 44.2109 30.8836 43.505C36.6017 42.026 42.7376 36.8189 42.7376 28.9029C42.7376 23.3816 40.1863 22.2691 40.1863 17.31C40.1863 15.5178 40.5397 13.7376 41.3118 12.0498L42.9474 8.37294L39.1661 7.29963C37.9884 6.94621 37.1771 6.06966 36.6148 4.64386L34.927 0.0512876L31.1457 3.16491C30.1777 3.97619 29.1566 4.39488 28.1365 4.39488C26.8151 4.39488 25.2709 3.72721 24.303 2.75928L21.9092 0.366473L19.5146 2.76114C18.4944 3.7813 17.0155 4.39675 15.6811 4.39675C14.7131 4.39675 13.692 3.99111 12.6719 3.16678L8.89057 0L7.20274 4.59258C6.69266 6.01837 5.82917 6.94808 4.65142 7.24834L0.870117 8.42609L2.50573 12.103C3.19858 13.7386 3.60421 15.5178 3.60421 17.31ZM4.83419 7.86379C6.20776 7.45816 7.18969 6.438 7.79115 4.80239L9.16473 1.02109L12.2261 3.57242C13.2463 4.38369 14.3718 4.94599 15.6018 4.94599C17.2374 4.94599 18.873 4.13472 19.8932 3.1015L21.8822 1.1647L23.8712 3.1015C24.8914 4.12166 26.527 4.94599 28.1626 4.94599C29.3926 4.94599 30.5573 4.38369 31.5383 3.57242L34.5997 1.02109L35.9732 4.80239C36.5878 6.438 37.5566 7.45816 38.9302 7.86379L42.0438 8.77951L40.7225 11.7887C40.0548 13.3199 39.5447 15.1644 39.5447 17.31C39.5447 19.9658 40.2124 21.5492 40.8661 23.1848C41.4806 24.716 42.0438 26.2984 42.0438 28.9029C42.0961 36.1513 36.6791 41.3723 30.6999 42.9026C27.743 43.6747 26.3563 43.7139 24.1575 44.3284C23.8563 44.6296 21.8552 46.8275 21.8552 46.8275C21.8552 46.8275 19.8139 44.6296 19.5528 44.3284C17.3549 43.7139 15.9804 43.6607 13.0104 42.9026C8.41779 41.7248 4.12642 38.3622 2.43859 33.5085C1.92851 32.0827 1.66647 30.5516 1.66647 28.916C1.61425 23.4991 4.16558 22.4789 4.16558 17.3231C4.16558 15.2296 3.6555 13.346 2.98783 11.8018L1.66834 8.79257L4.83419 7.86379ZM11.7823 37.6433L35.3335 19.9667C35.2291 19.1555 35.1247 18.2789 35.1247 17.311C35.1247 14.9163 35.6347 12.862 36.0926 11.5407C35.2291 11.0306 34.1036 10.2585 33.1748 8.93711L6.10332 29.2694C6.26091 33.2465 8.87752 36.1513 11.7823 37.6433ZM29.8644 13.1753V19.9136L33.4368 17.2056C33.4368 17.2056 33.3324 18.0691 33.4368 19.508L27.8241 23.7471V16.551C27.8241 15.5308 26.8562 15.4777 26.8562 15.4777L29.8644 13.1753ZM22.0006 19.1032V22.4789L24.2508 20.7911V17.4154L26.1876 15.9365V25.0172L24.2508 26.5483V23.224L22.0006 24.9118V28.2352L19.9594 29.7664V22.4659C19.9594 21.4457 18.9914 21.3925 18.9914 21.3925L22.0006 19.1032ZM13.6659 25.3837L16.165 29.2694V23.4991L18.1541 22.0201V31.1139L16.0606 32.6973L13.8105 29.2302V34.3851L11.8214 35.864V28.5504C11.8214 27.5303 10.8535 27.4771 10.8535 27.4771L13.6659 25.3837ZM5.55408 18.789C5.14844 22.9237 3.10719 24.5593 3.10719 28.9029C3.10719 34.2154 6.78405 39.8281 13.4309 41.5159C16.5977 42.3272 18.7956 42.5361 20.379 43.0993C20.5879 43.3082 21.9102 44.7349 21.9102 44.7349C21.9102 44.7349 23.2315 43.3092 23.4413 43.0993C25.0247 42.537 27.2226 42.3272 30.3894 41.5159C37.0755 39.8281 40.7132 34.2154 40.7132 28.9029C40.7132 24.0483 38.2141 22.5703 38.2141 17.31C38.2141 13.1753 40.1509 9.69523 40.1509 9.69523C40.1509 9.69523 35.2962 9.28959 34.0271 3.41482C34.0271 3.41482 31.1093 6.37179 28.2046 6.37179C24.4233 6.37179 21.9242 3.15279 21.9242 3.15279C21.9242 3.15279 19.4251 6.37179 15.6438 6.37179C12.726 6.37179 9.82121 3.41482 9.82121 3.41482C8.53902 9.28959 3.69746 9.69523 3.69746 9.69523C3.69746 9.69523 5.63427 13.1623 5.63427 17.31C5.65852 17.8733 5.6063 18.3311 5.55408 18.789ZM5.65852 10.6109C5.65852 10.6109 8.92974 9.94328 10.46 5.80949C10.46 5.80949 12.6579 7.85074 15.6671 7.85074C19.4484 7.85074 21.9475 5.19497 21.9475 5.19497C21.9475 5.19497 24.4466 7.85074 28.2279 7.85074C31.2371 7.85074 33.435 5.80949 33.435 5.80949C34.9661 9.94421 38.2364 10.6109 38.2364 10.6109C38.2364 10.6109 36.8106 13.5287 36.8106 17.297C36.8106 22.8706 39.3097 24.4931 39.3097 28.8899C39.3097 35.0136 34.5083 38.9516 30.0593 40.0771C26.54 40.9406 24.2368 41.045 22.7056 41.8171C22.7056 41.8171 22.1433 42.3272 21.9335 42.5893C21.7237 42.3272 21.1614 41.8171 21.1614 41.8171C19.6302 41.045 17.3279 40.9536 13.8077 40.0771C9.35869 38.9516 4.55723 35.0267 4.55723 28.8899C4.55723 24.494 7.05634 22.8584 7.05634 17.297C7.03209 13.5287 5.65852 10.6109 5.65852 10.6109Z" fill="#111111"/>
</g>
</svg>
