<svg width="64" height="38" viewBox="0 0 64 38" fill="none" xmlns="http://www.w3.org/2000/svg">
<g id="Logos 08">
<g id="g3122">
<g id="g3029">
<path id="rect2987" d="M4.69983 0.744873H13.2761C15.3575 0.744873 17.0333 2.42059 17.0333 4.50208V33.4979C17.0333 35.5794 15.3575 37.2551 13.2761 37.2551H4.69983C2.61834 37.2551 0.942627 35.5794 0.942627 33.4979V4.50208C0.942627 2.42059 2.61834 0.744873 4.69983 0.744873Z" fill="white"/>
<path id="path2989" d="M11.1458 7.43724L11.1577 7.56074C11.4165 7.71364 11.5517 7.83714 11.8163 8.00768C12.5102 8.44875 13.3631 9.2309 13.2572 11.9184C13.457 12.5065 13.5453 13.6533 13.7218 14.0179C14.0806 14.7412 14.3275 15.2117 14.4333 15.888C14.4333 15.888 14.5393 16.9466 14.6745 17.023C15.3918 17.1877 15.1862 17.2582 15.2861 17.3876C15.3977 17.5288 15.8153 17.5229 15.8153 17.911C15.9624 18.1051 16.0741 18.2992 16.1505 18.5109V4.53211C16.1505 2.93252 14.8567 1.63873 13.2629 1.63873H10.5047C10.9458 1.79752 11.1986 1.9857 11.3457 2.27974C11.6984 2.30915 12.1162 3.10306 11.4633 4.28511C11.7514 4.48506 11.5279 4.7791 11.3221 5.11431C11.2574 5.22017 11.1927 5.41423 10.9986 5.40247C10.7398 5.93763 10.4398 6.44338 10.2107 6.47278C10.146 6.55512 10.0988 6.78447 10.1988 6.89032C10.5343 7.04323 10.9399 7.24317 11.1458 7.43724Z" fill="#C80F2E"/>
<path id="path2991" d="M13.7215 36.3238L13.6922 36.3297C14.9565 35.5593 14.1743 34.101 13.9333 33.2423L13.9803 33.0952C14.0449 32.9775 13.9098 32.7012 13.9098 32.7012C13.7511 32.5719 13.7157 31.8545 13.6333 31.5251C13.4982 30.99 13.8744 30.0549 13.8744 29.7374C13.8744 29.4196 13.6333 28.9845 13.1982 28.4318C13.0922 28.3083 12.7747 25.5973 12.4924 24.9092C12.0984 23.9623 11.9807 24.1151 11.5104 22.9803C11.1516 22.1863 11.4338 21.0161 10.6224 18.2991L10.8046 18.1286C10.8046 18.1286 10.1577 15.7645 9.94591 15.1176C9.74 14.4707 9.35791 14.4295 9.35791 14.4295L9.38135 14.0943C9.41084 13.9944 10.1694 12.0243 10.2341 11.9596C10.2399 11.9184 11.3279 11.1716 11.3455 11.2833C11.4336 11.7655 11.8571 14.2178 12.0393 14.606C12.2216 15 12.851 16.1997 13.1391 16.9465C12.0159 17.2229 11.1748 18.2403 11.1748 19.446C11.1748 20.8691 12.3276 22.0276 13.7507 22.0276C14.8385 22.0276 15.7796 21.3514 16.1559 20.3987L16.15 33.4719C16.1503 34.9184 15.1094 36.1121 13.7215 36.3238Z" fill="#C80F2E"/>
<path id="path2993" d="M9.59883 1.63873C8.6579 2.00335 8.52852 2.40912 8.49332 3.71467C8.33453 3.73231 8.00512 3.57941 8.11694 4.37332C8.11694 4.37332 8.17575 4.9026 8.38746 4.81439C8.2228 5.96703 8.35364 6.25552 7.58775 6.33752C7.42308 6.35517 7.22305 6.36693 6.97614 6.37869L6.89969 6.48455C5.8529 6.58452 5.33441 6.51762 4.65901 7.40784C4.40025 7.74893 4.12385 8.23115 3.78276 8.91921C3.78276 8.91921 3.47108 9.6896 3.3769 10.0072C3.07698 10.6364 2.34187 12.0302 2.12428 12.9241C2.05379 13.2299 1.91845 13.324 2.11252 13.765C2.40068 14.4002 1.92433 14.5648 3.55921 14.5178V14.8941C3.55921 14.8941 3.12403 15.2705 3.02993 15.494C2.94172 15.7233 2.68884 16.8466 2.70069 17.3817C2.73001 18.7755 3.86509 19.9398 4.20022 21.3278L4.95885 21.4337C5.37051 22.3805 7.17004 24.9327 7.58767 25.3444C7.59355 25.3503 7.59943 25.3562 7.60531 25.3621C7.69932 25.6032 8.16399 25.9032 8.43442 26.2031C8.59917 26.3619 9.35788 27.1852 10.3693 27.9674C10.7406 28.2545 11.1399 28.5378 11.5572 28.779C11.5455 28.773 11.8042 29.2906 11.9336 29.7139C11.4161 30.1314 12.4217 30.8961 12.7275 32.1605C12.7452 32.3308 12.4334 32.5015 12.8981 32.919C12.8687 34.8301 12.2865 35.8301 13.2627 36.3592H4.65901C3.09479 36.3239 1.83032 35.042 1.83032 33.4717V4.53211C1.83032 2.95016 3.0947 1.67402 4.65901 1.63873H9.59883Z" fill="#1D4289"/>
</g>
<g id="g3102">
<path id="rect3035" fill-rule="evenodd" clip-rule="evenodd" d="M21.3608 1.62213V36.3188H25.1108C25.1207 27.3835 25.3233 18.4122 24.7734 9.58139L29.0967 36.3188H34.4774V1.62213H30.7642C30.6886 10.8217 31.0152 19.8927 31.6391 28.8687L27.1467 1.62213H21.3608Z" fill="#0B0B0B"/>
<path id="rect3043" fill-rule="evenodd" clip-rule="evenodd" d="M53.8689 1.59784L50.1831 36.3236H54.7689L55.3689 29.3018H58.369L58.969 36.3236H63.5334L59.9548 1.59784H53.8689ZM56.869 11.3997L58.0262 25.2277H55.7118L56.869 11.3997Z" fill="#0B0B0B"/>
<path id="path3059" d="M37.3684 1.62166V36.2995H44.0757C45.1751 36.2995 48.9187 35.3388 48.9187 30.5239V23.5979C48.9187 22.8681 48.9249 20.5804 46.9258 19.2362C48.1749 19.2362 48.9187 16.8129 48.9187 14.6109V7.18162C48.9187 4.28696 47.117 1.61378 43.4971 1.62166H37.3684ZM41.5042 6.05525H43.54C44.4725 6.05525 44.7829 7.0848 44.7829 7.87662V15.9529C44.7829 17.3344 44.3287 17.4388 43.39 17.4388H41.5042V6.05525ZM41.5042 21.2253H43.54C44.4725 21.2253 44.7829 22.2549 44.7829 23.0467V30.2603C44.7829 31.2002 44.3143 31.9139 43.39 31.9139L41.5042 31.9378V21.2253Z" fill="#0B0B0B"/>
</g>
</g>
</g>
</svg>
