<svg width="96" height="24" viewBox="0 0 96 24" fill="none" xmlns="http://www.w3.org/2000/svg">
<path id="Logos 07" d="M31.9221 0.500008C28.3834 0.495462 26.0398 2.32449 25.7101 5.05935C25.6332 5.69141 25.5539 6.32321 25.4724 6.95472H71.516C71.516 6.95472 71.6026 6.28847 71.6699 5.75372C72.016 2.99865 70.8223 0.500345 66.4799 0.500345C66.4799 0.500345 33.7877 0.502029 31.9221 0.500008ZM3.82233 0.50085L3.01422 6.95472H23.895L24.7 0.501019L3.82233 0.50085ZM73.9146 0.50085L73.1082 6.95472H95.7446C95.7446 6.95472 95.7721 6.72135 95.8724 5.96166C96.4233 1.72542 93.6359 0.50085 90.9448 0.50085H73.9146ZM72.7963 9.41211L71.0325 23.4974L78.8422 23.4947L80.6074 9.4148L72.7963 9.41211ZM87.6327 9.41211L85.8661 23.4974L93.6758 23.4947L95.441 9.4148L87.6327 9.41211ZM2.7096 9.41413L0.942627 23.4981H21.8221L22.5914 17.3882L9.51716 17.3869L9.84788 14.7522H22.9169L23.5859 9.41446H2.71063L2.7096 9.41413ZM25.1661 9.41413C24.5932 13.09 26.4698 14.7517 29.1293 14.7517C30.5759 14.7517 39.6934 14.7476 39.6934 14.7476L39.3637 17.3864L24.1688 17.3877L23.4036 23.4976C23.4036 23.4976 39.9461 23.503 40.6165 23.4976C41.1701 23.4585 45.04 23.3548 46.3574 20.2514C46.7846 19.2439 47.1624 15.6313 47.2682 14.8729C47.8767 10.4683 44.7666 9.41817 42.3172 9.41817C40.9668 9.41817 27.8325 9.41413 25.1661 9.41413ZM49.473 9.41413L47.7091 23.4981H55.5147L56.6137 14.7522H66.4181C69.1985 14.7522 70.6931 13.2863 70.9706 11.3179C71.0593 10.6845 71.1395 10.05 71.211 9.41446L49.473 9.41413Z" fill="#FF1919"/>
</svg>
