<svg width="56" height="24" viewBox="0 0 56 24" fill="none" xmlns="http://www.w3.org/2000/svg">
<path id="Logos 06" d="M12.5242 16.872C12.01 17.28 11.3978 17.496 10.8101 17.448C10.1244 17.376 9.68361 17.088 9.04693 16.296L5.71656 12.264L4.2228 13.464L7.8715 17.856C8.63063 18.768 9.5122 19.272 10.5162 19.344C11.6671 19.44 12.6711 19.104 13.6996 18.312C14.7036 17.52 15.2424 16.608 15.3893 15.48C15.4873 14.496 15.1934 13.56 14.4343 12.648L10.7856 8.232L9.31629 9.408L12.6467 13.44C13.3078 14.232 13.4793 14.688 13.4303 15.384C13.3813 15.912 13.0385 16.464 12.5242 16.872ZM47.1257 21.12L49.8929 11.688C49.9908 11.352 50.0398 11.016 49.5745 10.68L49.2072 10.392C48.7664 10.056 48.4236 10.176 48.1297 10.368L39.7549 15.696L41.518 16.68L47.5665 12.84L46.6115 16.08L45.8279 15.48L44.2362 16.512L46.0972 17.904L45.5585 19.728L47.1257 21.12ZM28.4414 1.464C38.7998 1.464 48.1787 5.64 54.8639 12.384L55.9414 11.352C48.9623 4.344 39.2161 0 28.4414 0C17.6667 0 7.92048 4.344 0.941406 11.352L1.99439 12.384C8.7041 5.64 18.083 1.464 28.4414 1.464ZM28.4414 16.92C34.7838 16.92 40.4895 19.656 44.3831 24L45.5095 23.04C41.3466 18.408 35.2491 15.456 28.4659 15.456C21.6827 15.456 15.5852 18.384 11.4223 23.04L12.5487 24C16.3933 19.656 22.099 16.92 28.4414 16.92ZM36.5714 6.528L39.9997 7.416L40.4405 5.712L36.9387 4.824C35.298 4.416 33.7798 4.8 33.241 6.768L31.6738 12.624C31.5759 13.056 31.7963 13.368 32.1881 13.488L33.339 13.776L34.3675 9.984L38.6284 11.088L39.0692 9.408L34.8083 8.304L35.0532 7.416C35.2736 6.48 35.6898 6.312 36.5714 6.528ZM24.8417 3.792L18.9401 4.968C18.5238 5.04 18.3034 5.376 18.3768 5.808L19.6257 11.736C20.042 13.752 21.5358 14.232 23.201 13.896L26.8007 13.176L26.4334 11.448L22.9561 12.144C22.05 12.336 21.6582 12.144 21.4378 11.16L21.2664 10.296L25.6008 9.432L25.2335 7.728L20.8991 8.592L20.4828 6.48L25.209 5.52L24.8417 3.792Z" fill="#0B0B0B"/>
</svg>
