<svg width="18" height="36" viewBox="0 0 18 36" fill="none" xmlns="http://www.w3.org/2000/svg">
<g id="Logos 05">
<path id="Vector" d="M17.623 0.103271H0.575684V35.1238H17.623V0.103271Z" fill="white"/>
<path id="Vector_2" d="M12.7269 31.1033C12.7575 30.6091 12.7473 30.4461 12.6805 30.3657C12.6297 30.3045 12.5939 30.1138 12.5924 29.8973C12.5902 29.5695 12.5462 29.4471 12.1613 28.6996C11.7505 27.9017 11.7357 27.8582 11.8087 27.6563C11.8768 27.468 11.8671 27.4047 11.7183 27.0615C11.5699 26.7192 11.5031 26.6446 11.1055 26.3763C10.3342 25.8558 9.7143 25.3252 8.68208 24.3019C7.52965 23.1592 6.57282 21.9028 5.68553 20.367C5.37744 19.8338 5.35331 19.8116 5.08116 19.8102C4.87683 19.8092 4.63145 19.6309 4.63238 19.484C4.63262 19.4414 4.38257 18.8906 4.07669 18.2602C3.28289 16.6239 3.215 16.2755 3.45773 15.084C3.60181 14.3776 3.62889 14.3141 3.92935 13.9814C4.24834 13.6285 4.1983 13.5291 3.67585 13.4775C2.97787 13.4083 2.98501 13.4127 2.84032 12.9648C2.76917 12.7446 2.71095 12.495 2.71095 12.4101C2.71095 12.1291 3.03012 11.2396 3.46894 10.2976C3.70699 9.78644 4.01225 9.08932 4.14722 8.74849C4.62745 7.53556 5.28998 6.56574 5.82493 6.29279C6.03879 6.18367 6.45447 6.10164 7.69145 5.9242C8.38001 5.82542 8.42851 5.77539 8.52741 5.06172C8.58496 4.64666 8.57923 4.58161 8.47055 4.40559C8.39214 4.27881 8.3498 4.09934 8.3498 3.89391C8.3498 3.60501 8.36598 3.56913 8.53572 3.48137C8.6998 3.39656 8.72165 3.35305 8.72165 3.11106C8.72165 2.53217 8.83846 2.20986 9.16336 1.89389C9.2534 1.80613 9.33365 1.72323 9.38916 1.66187H5.13446C3.68927 1.66187 2.51758 2.83349 2.51758 4.27874V30.9637C2.51758 32.4089 3.6892 33.5806 5.13446 33.5806H12.9189C12.8927 33.5227 12.8378 33.4289 12.7741 33.3361C12.5969 33.0782 12.5988 33.1687 12.7269 31.1033Z" fill="#0E499D"/>
<path id="Vector_3" d="M13.0832 1.66187H10.8297C10.8518 1.68814 10.8837 1.71639 10.9224 1.74181C11.2011 1.92435 11.6238 2.36409 11.6913 2.54152C11.7928 2.80869 11.77 3.16355 11.6266 3.54673C11.5443 3.76669 11.5096 3.96351 11.5329 4.07946C11.5767 4.29862 11.3614 4.76322 11.1066 4.99956C11.0148 5.08473 10.8845 5.26174 10.8173 5.39295C10.75 5.5241 10.5831 5.75286 10.4463 5.90118C10.3097 6.04951 10.2071 6.21826 10.2184 6.27618C10.2298 6.33415 10.3924 6.46407 10.5798 6.56494C10.7674 6.66581 11.0479 6.86374 11.2035 7.0048C11.3591 7.14586 11.6731 7.39327 11.9014 7.55458C12.7216 8.13439 13.1152 9.12582 13.1192 10.6225C13.1211 11.2857 13.4445 12.8401 13.6762 13.2992C13.9936 13.9279 14.1085 14.2745 14.2078 14.902C14.3353 15.7083 14.3392 15.7174 14.5956 15.8245C14.8406 15.9269 15.4752 16.4421 15.4752 16.5386C15.4752 16.5719 15.538 16.6869 15.6146 16.7945L15.7002 16.9144V4.27868C15.7 2.83343 14.5284 1.66187 13.0832 1.66187ZM15.661 19.1846C15.661 19.216 15.523 19.3926 15.3545 19.5771C14.1787 20.8634 12.1665 20.5768 11.4279 19.0176C11.2491 18.6403 11.2305 18.5455 11.2305 18.0123C11.2305 17.5033 11.253 17.3756 11.3965 17.0693C11.626 16.5796 12.0641 16.1311 12.543 15.8952C12.7608 15.788 12.952 15.6796 12.9675 15.6542C12.9831 15.6289 12.7865 15.1851 12.5305 14.6677C11.9407 13.4759 11.8708 13.2628 11.6032 11.8392C11.4822 11.1957 11.3707 10.6345 11.3552 10.5919C11.3057 10.4547 11.1326 10.5082 10.7044 10.7928L10.2856 11.0712L9.90597 12.0327C9.69722 12.5614 9.52637 13.0727 9.52637 13.1686C9.52637 13.2766 9.58773 13.4005 9.68718 13.4934C9.93527 13.7252 10.0022 13.8955 10.4227 15.3642C10.7325 16.4462 10.8016 16.7623 10.7522 16.8709C10.7047 16.9748 10.7355 17.2028 10.8781 17.8046C11.0879 18.6901 11.1661 19.1594 11.2639 20.119C11.363 21.0933 11.4679 21.4019 12.0323 22.3808C12.4076 23.0315 12.5228 23.4236 12.7863 24.9469C12.9071 25.6458 13.0292 26.2611 13.0576 26.314C13.086 26.3669 13.2088 26.5584 13.3305 26.7393C13.6652 27.2367 13.7157 27.4656 13.5953 27.9443C13.5404 28.163 13.4782 28.4924 13.4572 28.6765C13.4149 29.0447 13.5482 29.9367 13.6995 30.2991C13.7507 30.4214 13.7784 30.5749 13.7614 30.6404C13.7442 30.7059 13.8158 31.0332 13.9203 31.3677C14.2473 32.4138 14.2329 32.8576 13.8563 33.3331C13.7888 33.4183 13.7526 33.4667 13.7309 33.4994C14.8628 33.2111 15.7 32.1852 15.7 30.9635V19.132C15.6773 19.1404 15.661 19.1607 15.661 19.1846Z" fill="#D30529"/>
<path id="Vector_4" d="M3.44824 27.6904H4.50613L5.11641 30.3882H5.12663V27.6904H6.01158V32.0682H4.97406L4.34341 29.3643H4.33319V32.0682H3.44824V27.6904Z" fill="white"/>
<path id="Vector_5" d="M6.47021 27.6904H7.89947C8.5759 27.6904 8.89126 28.1257 8.89126 28.7818C8.89126 29.2478 8.72336 29.6647 8.3216 29.7628V29.775C8.79968 29.8302 8.99299 30.3207 8.99299 30.7744C8.99299 31.5348 8.68785 32.0682 7.89947 32.0682H6.47021V27.6904ZM7.41622 29.4072H7.64516C7.83841 29.4072 7.94526 29.1988 7.94526 28.9658C7.94526 28.7205 7.83841 28.5121 7.64516 28.5121H7.41622V29.4072ZM7.41622 31.2466H7.68074C7.85368 31.2466 8.0164 31.0626 8.0164 30.707C8.0164 30.3698 7.85362 30.1797 7.68074 30.1797H7.41622V31.2466Z" fill="white"/>
<path id="Vector_6" d="M9.93396 27.6904H11.1241L12.0091 32.0682H11.002L10.9054 31.3018H10.1526L10.0561 32.0682H9.04883L9.93396 27.6904ZM10.5341 28.5856H10.5239L10.2645 30.4434H10.7935L10.5341 28.5856Z" fill="white"/>
</g>
</svg>
