<svg xmlns="http://www.w3.org/2000/svg" width="82" height="22" viewBox="0 0 82 22" fill="none">
  <path d="M17.283 20.5113L17.4132 19.7439H18.5164L18.3861 20.4642C18.3393 20.7259 18.4143 20.8202 18.6665 20.8202H20.3835C20.6265 20.8202 20.7385 20.7259 20.7758 20.4642L20.916 19.6589C20.9816 19.3316 20.8691 19.239 20.5792 19.1725L18.912 18.7981C18.1647 18.639 17.6678 18.3866 17.8254 17.4769L17.9847 16.5765C17.9939 16.3888 18.0406 16.2048 18.122 16.0359C18.2034 15.867 18.3177 15.7166 18.4581 15.5938C18.5985 15.4711 18.762 15.3785 18.9387 15.3218C19.1153 15.2651 19.3016 15.2454 19.486 15.2638H21.4186C22.2895 15.2638 22.6213 15.6854 22.472 16.5765L22.3418 17.2783H21.2469L21.3589 16.6228C21.4058 16.3603 21.3308 16.2669 21.0877 16.2669H19.4868C19.2438 16.2669 19.1318 16.3603 19.0845 16.6228L18.9634 17.3339C18.9079 17.6722 19.0103 17.7647 19.3002 17.8211L20.9757 18.1956C21.7139 18.3639 22.2116 18.6172 22.054 19.5167L21.8856 20.5097C21.8742 20.6982 21.8255 20.8825 21.7423 21.0515C21.6592 21.2205 21.5433 21.3707 21.4016 21.4933C21.2599 21.6158 21.0953 21.7081 20.9177 21.7646C20.7401 21.8212 20.553 21.8408 20.3677 21.8224H18.3107C17.4397 21.8224 17.1079 21.4025 17.2655 20.5097" fill="#0B0B0B"/>
  <path d="M30.3883 20.8038L30.2224 21.8135H25.9921L27.0704 15.2499H31.3836L31.1348 16.3439H28.0658L27.734 17.9427H30.3053L30.1394 18.9525H27.5681L27.2363 20.8038H30.3883Z" fill="#0B0B0B"/>
  <path d="M39.9271 16.5566L39.6749 18.0208C39.6564 18.349 39.5222 18.6596 39.2969 18.8959C39.0716 19.1322 38.7701 19.2785 38.4473 19.3082L39.2046 21.7991H38.0434L37.2861 19.3587H35.959L35.5293 21.7991H34.4095L35.5625 15.2439H38.872C39.7429 15.2439 40.0747 15.6654 39.9254 16.5566M38.5236 16.2663H36.5164L36.1431 18.3532H38.1587C38.4017 18.3532 38.5046 18.2598 38.551 17.9972L38.794 16.6088C38.8409 16.3555 38.7659 16.2629 38.5228 16.2629" fill="#0B0B0B"/>
  <path d="M45.6503 15.2499L44.4891 21.8135H43.4108L44.4891 15.2499H45.6503Z" fill="#0B0B0B"/>
  <path d="M53.4473 20.8038L53.2814 21.8135H49.0512L50.1295 15.2499H54.4427L54.1938 16.3439H51.1248L50.7931 17.9427H53.3644L53.1985 18.9525H50.6272L50.2954 20.8038H53.4473Z" fill="#0B0B0B"/>
  <path d="M57.4286 20.5113L57.5588 19.7439H58.662L58.5317 20.4642C58.4849 20.7259 58.5599 20.8202 58.8121 20.8202H60.5291C60.7721 20.8202 60.8841 20.7259 60.9214 20.4642L61.0616 19.6589C61.1272 19.3316 61.0147 19.239 60.7248 19.1725L59.0576 18.7981C58.3103 18.639 57.8134 18.3866 57.971 17.4769L58.1303 16.5765C58.1395 16.3888 58.1862 16.2048 58.2676 16.0359C58.349 15.867 58.4633 15.7166 58.6037 15.5938C58.7441 15.4711 58.9076 15.3785 59.0843 15.3218C59.261 15.2651 59.4472 15.2454 59.6316 15.2638H61.5642C62.4352 15.2638 62.7669 15.6854 62.6176 16.5765L62.4874 17.2783H61.3925L61.5045 16.6228C61.5508 16.3603 61.4764 16.2669 61.2333 16.2669H59.6324C59.3894 16.2669 59.2774 16.3603 59.231 16.6228L59.109 17.3339C59.0535 17.6722 59.1559 17.7647 59.4458 17.8211L61.1213 18.1956C61.8595 18.3639 62.3572 18.6172 62.1996 19.5167L62.0312 20.5097C62.0198 20.6982 61.9711 20.8825 61.888 21.0515C61.8048 21.2205 61.6889 21.3707 61.5472 21.4933C61.4055 21.6158 61.241 21.7081 61.0633 21.7646C60.8857 21.8212 60.6986 21.8408 60.5133 21.8224H58.4563C57.5853 21.8224 57.2536 21.4025 57.4111 20.5097" fill="#0B0B0B"/>
  <path d="M6.40051 0.860019L4.15269 13.314H0.71875L2.96657 0.860019H6.40051Z" fill="#0B0B0B"/>
  <path d="M16.6194 0.860019H20.0201L17.6977 13.314H14.8775L11.5597 6.1614L10.3155 13.314H6.91476L9.23723 0.860019H12.4721L15.4581 7.50778L16.6194 0.860019Z" fill="#0B0B0B"/>
  <path d="M22.7574 0.904739H30.2556C31.8979 0.904739 32.5615 1.68732 32.2463 3.31981L30.8777 10.9269C30.8509 11.2787 30.7546 11.6214 30.5947 11.9347C30.4348 12.248 30.2144 12.5256 29.9468 12.7508C29.6791 12.9761 29.3695 13.1445 29.0364 13.246C28.7033 13.3476 28.3535 13.3802 28.0078 13.3419H20.5095L22.7574 0.904739ZM27.2032 10.5819C27.4587 10.5819 27.5134 10.5108 27.569 10.2621L28.7054 4.00983C28.7422 3.76075 28.7054 3.69007 28.4499 3.69007H25.7044L24.4602 10.5819H27.2032Z" fill="#0B0B0B"/>
  <path d="M39.9269 9.4432L39.1804 13.314H35.7796L36.4432 9.4432L34.0378 0.860019H37.6874L38.6827 6.1614L41.6688 0.860019H45.4842L39.9269 9.4432Z" fill="#0B0B0B"/>
  <path d="M44.9867 10.9187L46.3553 3.31165C46.3885 2.95924 46.4901 2.61698 46.6542 2.30457C46.8183 1.99215 47.0417 1.71575 47.3116 1.49128C47.5814 1.26681 47.8923 1.09871 48.2264 0.996643C48.5606 0.894578 48.9113 0.86057 49.2584 0.896577H54.1024C55.7448 0.896577 56.3669 1.67916 56.06 3.31165L55.6394 5.64257H52.2055L52.5157 3.99325C52.5525 3.74417 52.4975 3.67349 52.242 3.67349H50.0439C49.8067 3.67349 49.7155 3.74451 49.6781 3.99325L48.5418 10.2455C48.4868 10.4946 48.5599 10.5653 48.7973 10.5653H50.9953C51.2516 10.5653 51.3246 10.4943 51.3794 10.2455L51.6721 8.59619H55.1061L54.6847 10.9271C54.6568 11.2785 54.5598 11.6206 54.3995 11.9334C54.2392 12.2461 54.0189 12.5232 53.7515 12.7483C53.484 12.9733 53.1749 13.1418 52.8423 13.2438C52.5097 13.3458 52.1603 13.3793 51.8148 13.3422H46.9708C45.3285 13.3422 44.6815 12.5596 44.9801 10.9271" fill="#0B0B0B"/>
  <path d="M63.7323 10.7498H60.091L58.9796 13.308H55.3797L61.4099 0.853946H65.9055L67.4815 13.308H63.9148L63.7323 10.7498ZM63.5308 8.08233L63.2023 3.58878L61.2448 8.08233H63.5308Z" fill="#0B0B0B"/>
  <path d="M80.9022 3.261L80.3166 6.49232C80.2807 7.06696 80.0535 7.6122 79.6723 8.03873C79.291 8.46526 78.7783 8.7478 78.2181 8.84007L79.6116 13.2831H76.2854L74.9003 9.12618H73.457L72.7072 13.2831H69.2732L71.5211 0.829102H78.9281C80.5704 0.829102 81.234 1.61169 80.9188 3.24418M76.589 6.47549C76.8262 6.47549 76.9175 6.40447 76.9731 6.15573L77.3753 3.84163C77.4303 3.59339 77.3753 3.52187 77.1381 3.52187H74.4839L73.9356 6.47549H76.589Z" fill="#0B0B0B"/>
  <path d="M80.9848 13.2747C80.7891 13.2748 80.601 13.1976 80.4606 13.0593C80.393 12.9915 80.3397 12.9104 80.3038 12.8212C80.2279 12.6277 80.2279 12.4121 80.3038 12.2187C80.3397 12.1294 80.393 12.0483 80.4606 11.9805C80.6011 11.8423 80.7891 11.7651 80.9848 11.7651C81.0834 11.7645 81.181 11.7844 81.2718 11.8234C81.3589 11.8603 81.4383 11.9138 81.5057 11.9808C81.5732 12.0486 81.6266 12.1296 81.6625 12.2189C81.7375 12.4125 81.7375 12.6278 81.6625 12.8214C81.6265 12.9107 81.5732 12.9917 81.5057 13.0596C81.4383 13.1266 81.3589 13.18 81.2718 13.2169C81.181 13.256 81.0834 13.2753 80.9848 13.2747ZM80.9848 13.1532C81.0661 13.1544 81.1466 13.138 81.2212 13.1051C81.2917 13.0737 81.3556 13.0288 81.4095 12.973C81.4636 12.9155 81.5058 12.8477 81.5339 12.7735C81.5644 12.6927 81.5795 12.6068 81.5783 12.5202C81.5792 12.4351 81.5641 12.3506 81.5339 12.2712C81.5055 12.1971 81.4633 12.1294 81.4095 12.0717C81.3558 12.0156 81.2918 11.9708 81.2212 11.9396C81.1468 11.9062 81.0661 11.8895 80.9848 11.8908C80.9054 11.8902 80.8267 11.906 80.7534 11.9371C80.6801 11.9682 80.6138 12.014 80.5584 12.0717C80.5039 12.129 80.4613 12.1968 80.4332 12.2712C80.403 12.3506 80.3879 12.4351 80.3888 12.5202C80.3876 12.6068 80.4027 12.6927 80.4332 12.7735C80.461 12.848 80.5037 12.9159 80.5584 12.973C80.6136 13.031 80.6798 13.0771 80.7532 13.1082C80.8265 13.1393 80.9053 13.1542 80.9848 13.1532ZM80.6588 12.1189H81.047C81.1209 12.1171 81.1936 12.1377 81.256 12.1778C81.285 12.197 81.3084 12.2236 81.324 12.2549C81.3396 12.2863 81.3467 12.3212 81.3448 12.3562C81.3477 12.3985 81.3361 12.4405 81.3121 12.4751C81.2881 12.5097 81.2531 12.5349 81.2129 12.5464V12.5527C81.2433 12.5602 81.2704 12.5779 81.2898 12.6028C81.3075 12.629 81.32 12.6584 81.3266 12.6895C81.3345 12.7339 81.3387 12.7789 81.3391 12.8241C81.3391 12.8659 81.3466 12.8907 81.3635 12.8989V12.9173H81.1362C81.1262 12.9116 81.1194 12.8887 81.1163 12.8494C81.1131 12.8095 81.1088 12.7715 81.1025 12.7333C81.1018 12.7192 81.0983 12.7054 81.092 12.6928C81.0858 12.6802 81.0771 12.669 81.0664 12.66C81.0558 12.651 81.0433 12.6443 81.03 12.6404C81.0166 12.6365 81.0026 12.6355 80.9889 12.6374H80.8935V12.9176H80.6596L80.6588 12.1189ZM81.0097 12.4714C81.0797 12.4714 81.1142 12.4436 81.1142 12.3873C81.1142 12.3315 81.0798 12.3031 81.0097 12.3031H80.8927V12.4714H81.0097Z" fill="#0B0B0B"/>
</svg>