<svg xmlns="http://www.w3.org/2000/svg" width="76" height="31" viewBox="0 0 76 31" fill="none">
  <path d="M12.6396 24.5548C12.0348 24.3549 11.6214 24.0837 11.1166 23.557C10.0565 22.4503 9.99821 22.12 9.99821 17.2055C9.99821 12.4702 10.0737 12.0243 11.0614 10.9124C12.4462 9.35398 15.6483 9.40008 17.0158 10.998C17.9239 12.0595 17.9977 12.532 17.9977 17.2782C17.9977 21.0345 17.9639 21.6606 17.7261 22.3178C17.3614 23.3243 16.2869 24.2981 15.1967 24.61C14.1685 24.9041 13.6621 24.8933 12.6396 24.5547V24.5548ZM14.5195 22.277C15.1368 22.0487 15.2055 21.5491 15.2055 17.2923C15.2055 14.5759 15.1487 13.1007 15.0349 12.8602C14.653 12.0526 13.3429 12.0526 12.9611 12.8602C12.8472 13.1007 12.7905 14.5759 12.7905 17.2923C12.7905 22.0419 12.8534 22.3174 13.9479 22.3559C14.1279 22.3622 14.3851 22.3266 14.5195 22.277ZM21.225 24.4752C21.0077 24.3615 20.7019 24.0204 20.5458 23.7176C20.2824 23.207 20.2586 22.6847 20.2169 16.5149L20.1721 9.86274H23.054V15.9517C23.054 21.1634 23.0863 22.0669 23.2785 22.2203C23.613 22.4877 24.1563 22.292 24.7708 21.6827L25.3181 21.1399V9.86289H28.1858V24.5485H25.3181V23.0697L24.6011 23.6829C24.2069 24.0201 23.6656 24.3855 23.3985 24.4949C22.7757 24.7498 21.7317 24.7402 21.225 24.4752ZM3.73246 20.5133L3.7302 16.4784L1.8651 10.735L0 4.99165L1.51538 4.94992C2.40243 4.92549 3.06895 4.96795 3.12299 5.05228C3.17385 5.13152 3.65488 6.80219 4.19191 8.76482C4.72923 10.7274 5.20287 12.3336 5.24498 12.3338C5.28724 12.3341 5.68299 11.0095 6.12462 9.39004C6.56641 7.77071 7.02902 6.10222 7.15294 5.6823L7.37829 4.91895H8.96853C10.2642 4.91895 10.544 4.95646 10.4783 5.12105C10.4341 5.23214 9.57771 7.84661 8.5755 10.9309L6.75327 16.5386V24.5482H3.73457L3.73246 20.5133Z" fill="#010101"/>
  <path d="M42.9971 30.2119C35.6232 29.9748 33.6265 29.4692 32.269 27.4946C31.7205 26.697 31.1048 24.9117 30.9088 23.5502C30.2205 18.7714 30.3895 8.80646 31.2168 5.37193C31.966 2.26165 33.7279 0.737984 36.9419 0.420572C40.0992 0.108686 48.3296 -0.0611431 56.3352 0.0202818C64.978 0.108104 69.047 0.286221 70.5193 0.641147C73.3991 1.33515 74.7961 3.37877 75.2832 7.60879C75.3753 8.4085 75.4885 11.2005 75.5347 13.8131C75.7209 24.3598 74.8973 27.7149 71.7583 29.1964C70.573 29.7559 69.7976 29.8845 66.4477 30.0771C62.8092 30.2862 47.9612 30.3716 42.9971 30.2119ZM46.6247 24.4633C46.8791 24.3364 47.3851 23.9684 47.7491 23.6447L48.4111 23.0573V24.5482H51.2789V10.0081H48.4111V21.097L47.7518 21.7319C47.0443 22.4137 46.7581 22.4988 46.3844 22.1388C46.1764 21.9384 46.1471 21.1753 46.1471 15.9592V10.0079H43.2793V16.3066C43.2793 23.2549 43.3387 23.8046 44.1499 24.388C44.6636 24.7572 45.9557 24.7964 46.6247 24.4633ZM60.4276 24.4163C60.691 24.2616 61.056 23.8304 61.2578 23.4355C61.6119 22.7428 61.619 22.6474 61.6686 17.9352C61.7229 12.7688 61.6366 11.8359 61.0066 10.7887C60.6566 10.2068 59.8219 9.71712 59.1797 9.71712C58.5612 9.71712 57.6749 10.118 56.9991 10.7032L56.2599 11.3434V5.06426H53.543V24.5481H56.2599V23.2057L56.8795 23.745C57.2203 24.0415 57.7128 24.3737 57.9737 24.4831C58.6745 24.7771 59.869 24.7447 60.4276 24.4163ZM56.8257 22.0446L56.2597 21.7284V12.811L56.9296 12.4687C57.4731 12.191 57.6794 12.1536 58.0238 12.2701C58.7681 12.5219 58.8482 13.0773 58.7966 17.6179L58.7501 21.6656L58.3266 22.0163C57.8082 22.4459 57.5534 22.4507 56.8257 22.0446ZM69.542 24.3906C71.0006 23.7536 71.6575 22.6763 71.7723 20.7326L71.8478 19.4592H68.9381V20.3223C68.9381 21.3793 68.768 21.8411 68.2608 22.1613C67.6892 22.5219 66.9788 22.2928 66.6368 21.6371C66.4301 21.2415 66.3726 20.7593 66.3726 19.4227L66.3722 17.7142H71.8058V15.5793C71.8058 12.8922 71.5877 12.0358 70.6473 11.0282C69.8162 10.1379 68.9258 9.78342 67.5797 9.80726C66.4638 9.82689 65.7182 10.0949 64.935 10.7573C63.6551 11.8401 63.461 12.8049 63.5375 17.7143C63.5873 20.9043 63.6421 21.6815 63.857 22.2301C64.2241 23.1668 64.8871 23.88 65.7977 24.3172C66.8241 24.8095 68.507 24.8427 69.542 24.3906ZM66.3723 14.4379C66.3723 12.6294 66.854 12.0123 68.066 12.2688C68.6744 12.3976 68.9384 13.0536 68.9384 14.438V15.5332H66.3725V14.438L66.3723 14.4379ZM40.4116 16.1876V7.82704H43.7322V5.06441H34.2233V7.82704H37.3929V24.5482H40.4116V16.1876Z" fill="#D02726"/>
</svg>