<svg xmlns="http://www.w3.org/2000/svg" width="54" height="40" viewBox="0 0 54 40" fill="none">
  <g clip-path="url(#clip0_421_4889)">
    <path d="M54 39.7317V40H1.43865C1.6236 39.8576 1.87605 39.7532 1.9818 39.5664C2.4957 38.6594 3.1887 37.9248 4.08645 37.4097C5.01255 36.8784 5.9733 36.4063 6.9255 35.9216C7.371 35.695 7.8192 35.4598 8.2899 35.2977C10.2825 34.611 12.2841 33.9485 14.2839 33.2824C14.4481 33.2278 14.5611 33.1655 14.5714 32.9707C14.5746 32.9071 14.6502 32.8332 14.7109 32.7897C15.0079 32.5756 15.3256 32.3875 15.6096 32.1577C16.1024 31.7586 16.5789 31.3393 17.0555 30.9205C17.2386 30.7597 17.3151 30.5425 17.3102 30.2983C17.2863 29.0992 17.2692 27.8997 17.235 26.701C17.2201 26.1738 17.1706 25.6475 17.136 25.1028C17.2678 25.0782 17.3898 25.0553 17.532 25.0289C17.532 24.9398 17.5406 24.8511 17.5306 24.7642C17.4191 23.8029 17.3002 22.8421 17.1954 21.8804C17.1751 21.6945 17.0865 21.5906 16.9344 21.501C16.7139 21.3716 16.5046 21.2238 16.2904 21.084C16.2972 21.0656 16.3035 21.0473 16.3102 21.0294C16.3971 21.0294 16.4839 21.0294 16.5708 21.0294C18.9013 21.032 21.2314 21.0334 23.562 21.041C23.7217 21.0415 23.8392 21.0079 23.9085 20.8605C23.9688 20.7328 24.0728 20.7118 24.2046 20.7145C25.5006 20.7422 26.7971 20.8014 28.0921 20.7772C29.0223 20.7597 29.8557 20.9649 30.6499 21.4406C31.2817 21.8186 31.9837 21.9785 32.7334 21.9655C33.9394 21.9449 35.1468 21.9342 36.3519 21.974C37.1952 22.0018 38.0354 22.1219 38.8778 22.1962C39.0587 22.2123 39.1666 22.2974 39.2008 22.473C39.2661 22.8085 39.3529 23.1422 39.384 23.4809C39.4078 23.7398 39.5159 23.9176 39.7476 23.9888C40.0023 24.0668 40.2696 24.1156 40.5351 24.142C40.8645 24.1752 41.2182 24.2146 41.2789 23.7958H41.8212C41.7798 23.5131 41.9598 23.4155 42.1695 23.3205C42.9322 22.9761 43.6905 22.6208 44.4496 22.2674C44.6292 22.1837 44.7979 22.0829 45.0153 22.1375C45.1026 22.1595 45.2047 22.1227 45.3055 22.112C45.3321 21.94 45.3312 21.7563 45.5728 21.7725C45.7195 21.7823 45.8667 21.7868 45.9634 21.7913C46.0494 21.6717 46.0971 21.5825 46.1655 21.5145C46.4144 21.2659 46.3995 20.9389 46.0948 20.7615C45.9477 20.6759 45.7587 20.6298 45.5863 20.6235C44.7854 20.5958 43.983 20.6011 43.182 20.5693C42.3108 20.5348 41.4405 20.5675 40.5855 20.2791C39.1774 19.8038 37.7244 19.467 36.3717 18.8238C35.1572 18.2464 33.9201 17.7156 32.692 17.166C32.5152 17.0867 32.3379 17.0007 32.1552 17.1691C32.1219 17.1996 32.0414 17.1875 31.9837 17.1816C31.3888 17.1239 30.7921 17.0791 30.1999 16.9993C29.6685 16.9281 29.1123 16.8963 28.62 16.7095C27.5787 16.3149 26.5104 16.0479 25.425 15.828C25.0141 15.7447 25.0146 15.7433 24.9318 15.3192C24.9291 15.3053 24.9188 15.2927 24.8999 15.2569C22.3884 14.9156 19.863 14.5725 17.3313 14.2285C17.3448 14.1353 17.3484 14.0676 17.3641 14.0036C17.5693 13.1727 17.7822 12.3431 17.982 11.5109C18.2875 10.2396 18.9229 9.10101 19.431 7.91132C19.5385 7.65913 19.7073 7.56775 19.9885 7.60225C20.3215 7.64301 20.6608 7.64077 20.9974 7.64525C21.2431 7.64883 21.4308 7.5476 21.5199 7.30348C21.5941 7.10101 21.6814 6.90258 21.7467 6.69698C21.8668 6.31714 22.0243 5.9803 22.4311 5.81143C22.6624 5.71557 22.752 5.52117 22.6894 5.26003C22.6498 5.09474 22.6332 4.92094 22.6291 4.75028C22.6147 4.1308 22.531 3.51176 22.8816 2.92677C23.1291 2.51378 23.0494 2.0869 22.7362 1.70123C22.3294 1.2 21.8479 0.794178 21.2719 0.50392C20.5326 0.131243 19.755 -0.0712207 18.9279 0.119149C17.7021 0.401344 17.0104 1.21568 16.7341 2.40403C16.654 2.74894 16.6252 3.10594 16.573 3.45622C15.9925 3.39082 15.4147 3.31646 14.8342 3.26226C12.8263 3.07503 10.8243 3.15431 8.8263 3.40515C8.7183 3.41859 8.6508 3.45129 8.6796 3.57044C8.72415 3.75409 8.6319 3.80068 8.46765 3.81456C7.84845 3.86786 7.34175 4.13573 6.9426 4.61367C6.4638 5.18657 5.958 5.73841 5.49765 6.3252C4.8942 7.0943 4.3299 7.89429 3.7359 8.671C3.46095 9.03024 3.1266 9.33573 2.68785 9.48713C2.3787 9.59374 2.1222 9.76574 1.92465 10.0148C1.5858 10.4421 1.15695 10.7127 0.6255 10.8367C0.48195 10.8703 0.33975 10.9326 0.2151 11.0105C0.1431 11.0558 0.0558 11.1691 0.06885 11.2332C0.0855 11.3133 0.1863 11.4096 0.27045 11.4361C0.40095 11.4768 0.55215 11.4903 0.6876 11.4692C0.98055 11.4235 1.26945 11.3483 1.5597 11.2856L1.59705 11.3429C1.2708 11.5731 0.94815 11.8083 0.61695 12.0314C0.45 12.1438 0.29295 12.4005 0.3402 12.5523C0.4104 12.7772 0.61425 12.7799 0.7866 12.7579C2.09565 12.5895 3.3192 12.2728 3.88035 10.8797C3.9051 10.8179 3.9348 10.7543 3.9762 10.7033C4.1346 10.5075 4.2777 10.2925 4.46445 10.1277C4.89555 9.74693 5.35095 9.39351 5.79285 9.02532C6.61365 8.34133 7.42905 7.65062 8.25615 6.97425C8.3547 6.89362 8.5149 6.84569 8.64315 6.85107C9.43605 6.88601 10.2285 6.93483 11.0205 6.99127C11.4232 7.01994 11.8242 7.07414 12.2508 7.11938C12.2121 7.15745 12.204 7.17223 12.1918 7.17716C11.8782 7.2981 11.5677 7.4289 11.2486 7.53416C11.0533 7.59866 10.9489 7.70706 10.8814 7.90325C10.0246 10.3848 9.58725 12.9483 9.36 15.553C9.3375 15.8096 9.32715 16.0672 9.31005 16.3436H9.7974C9.7974 16.4045 9.79965 16.4475 9.7974 16.4905C9.7695 16.959 9.7254 17.4271 9.71505 17.8961C9.66375 20.2477 9.96795 22.5474 10.7523 24.7758C10.8049 24.9259 10.881 25.0061 11.0363 24.9944C11.2086 24.9814 11.2797 25.0692 11.3355 25.2206C11.6424 26.052 11.9583 26.8802 12.2737 27.7084C12.4474 28.1653 12.6256 28.6204 12.7993 29.071C12.7759 29.0916 12.766 29.1064 12.753 29.11C11.493 29.454 10.4481 30.1644 9.4959 31.0231C8.67465 31.764 7.85475 32.508 7.0605 33.2775C6.48 33.8401 5.33205 33.9342 4.6521 33.5122C4.29975 33.2936 3.915 33.1875 3.5136 33.127C3.0798 33.0621 2.50155 33.4742 2.44215 33.8952C2.4174 34.0704 2.3814 34.2141 2.24055 34.2253C2.2113 34.5622 2.24055 34.8905 2.1456 35.1781C1.9152 35.8764 1.6272 36.5564 1.3626 37.2435C1.29015 37.4312 1.1853 37.5852 1.03905 37.5978C0.9315 37.8625 0.8397 38.0802 0.75645 38.3015C0.73395 38.3611 0.72765 38.4318 0.73395 38.4954C0.76725 38.8291 0.82575 39.1611 0.83925 39.4952C0.84915 39.7452 0.96165 39.8966 1.1709 40.0009H0V0H54V37.4047C53.9104 37.4011 53.8209 37.3949 53.7309 37.3949C52.4272 37.3944 51.1236 37.3949 49.8199 37.3949H49.5351V29.2551H46.7005V39.7469H46.9215C49.2138 39.7469 51.5065 39.747 53.7989 39.7465C53.8659 39.7465 53.9325 39.7371 53.9995 39.7322L54 39.7317ZM26.4946 39.7349C26.5576 39.7402 26.595 39.7461 26.6319 39.7461C27.8455 39.7456 29.0592 39.7595 30.2724 39.7366C30.8457 39.7259 31.432 39.7071 31.9873 39.5821C33.7329 39.1888 34.9218 38.1716 35.3808 36.4005C35.6346 35.4204 35.6607 34.4256 35.5495 33.4276C35.4582 32.6047 35.2179 31.8226 34.7296 31.14C33.8292 29.8813 32.526 29.3671 31.0419 29.2748C30.0042 29.2103 28.9602 29.2435 27.9193 29.2354C27.4491 29.2318 26.9789 29.235 26.4946 29.235V39.7358V39.7349ZM40.1643 33.351V31.617H44.9023V29.2574H37.2951V39.7317H40.1337V35.6403H44.3178V33.351H40.1643ZM50.089 19.7048C51.9444 19.6968 53.4231 18.2159 53.4199 16.3691C53.4168 14.525 51.9241 13.0473 50.071 13.054C48.2193 13.0607 46.7248 14.5519 46.7311 16.3866C46.7374 18.2217 48.2458 19.7124 50.0886 19.7044L50.089 19.7048Z" fill="#F8F8F8"/>
    <path d="M1.16976 39.9999C0.960512 39.8956 0.848012 39.7442 0.838112 39.4942C0.824612 39.1601 0.766562 38.8282 0.732812 38.4945C0.726512 38.4308 0.732812 38.3601 0.755312 38.3005C0.838562 38.0797 0.930362 37.862 1.03791 37.5968C1.18416 37.5843 1.28901 37.4302 1.36146 37.2425C1.62651 36.5554 1.91451 35.8759 2.14446 35.1771C2.23941 34.8895 2.20971 34.5612 2.23941 34.2243C2.38026 34.2132 2.41671 34.0694 2.44101 33.8942C2.49996 33.4727 3.07866 33.0611 3.51246 33.126C3.91431 33.186 4.29861 33.2927 4.65096 33.5112C5.33091 33.9332 6.47886 33.8391 7.05935 33.2765C7.8536 32.507 8.6735 31.7634 9.49475 31.0221C10.447 30.163 11.4918 29.4526 12.7518 29.109C12.7649 29.1054 12.7743 29.0906 12.7982 29.07C12.624 28.6194 12.4463 28.1643 12.2726 27.7074C11.9576 26.8792 11.6417 26.051 11.3343 25.2196C11.2786 25.0682 11.2074 24.98 11.0351 24.9934C10.8794 25.0051 10.8038 24.9249 10.7512 24.7748C9.9668 22.5464 9.6626 20.2472 9.7139 17.8951C9.72425 17.4261 9.76835 16.958 9.79625 16.4895C9.79895 16.4469 9.79625 16.4039 9.79625 16.3426H9.3089C9.326 16.0658 9.33635 15.8082 9.35885 15.552C9.58655 12.9473 10.0235 10.3838 10.8803 7.90225C10.9482 7.70561 11.0522 7.59721 11.2475 7.53316C11.5665 7.42835 11.8771 7.2971 12.1907 7.17616C12.2028 7.17168 12.2109 7.1569 12.2496 7.11838C11.823 7.07314 11.4221 7.01894 11.0194 6.99027C10.2278 6.93383 9.4349 6.88501 8.642 6.85007C8.51375 6.84425 8.35355 6.89262 8.255 6.97325C7.4279 7.64962 6.6125 8.34033 5.79171 9.02432C5.34936 9.39251 4.89441 9.74638 4.46331 10.1267C4.27656 10.2915 4.13346 10.5065 3.97506 10.7023C3.93366 10.7538 3.90441 10.8169 3.87921 10.8787C3.31806 12.2718 2.09451 12.5885 0.785462 12.7569C0.613112 12.7793 0.409262 12.7766 0.339062 12.5513C0.291813 12.3995 0.448862 12.1428 0.615812 12.0304C0.947012 11.8073 1.26966 11.5721 1.59591 11.3419L1.55856 11.2846C1.26831 11.3477 0.979412 11.4225 0.686462 11.4682C0.551462 11.4893 0.399812 11.4758 0.269313 11.4351C0.185163 11.4086 0.0843628 11.3128 0.0677128 11.2322C0.0546628 11.1681 0.141963 11.0548 0.213963 11.0095C0.338612 10.9316 0.481262 10.8693 0.624362 10.8357C1.15581 10.7117 1.58466 10.4411 1.92351 10.0138C2.12106 9.76429 2.37756 9.59229 2.68671 9.48613C3.12546 9.33518 3.45981 9.02969 3.73476 8.67C4.32876 7.8933 4.89306 7.0933 5.49651 6.3242C5.95686 5.73741 6.46311 5.18557 6.94145 4.61267C7.3406 4.13473 7.8473 3.86686 8.4665 3.81356C8.63075 3.79967 8.723 3.75309 8.67845 3.56944C8.64965 3.45029 8.7176 3.41804 8.82515 3.40415C10.8232 3.15331 12.8252 3.07403 14.8331 3.26126C15.4131 3.31546 15.9914 3.38982 16.5719 3.45522C16.6241 3.10449 16.6529 2.74794 16.733 2.40303C17.0093 1.21468 17.7009 0.400343 18.9267 0.118148C19.7538 -0.0722221 20.5314 0.130242 21.2708 0.502918C21.8468 0.793176 22.3283 1.19945 22.7351 1.70023C23.0483 2.0859 23.1279 2.51278 22.8804 2.92577C22.5299 3.51031 22.6136 4.12935 22.628 4.74928C22.632 4.91994 22.6487 5.09374 22.6883 5.25903C22.7513 5.52017 22.6613 5.71412 22.43 5.81043C22.0232 5.9793 21.8657 6.31614 21.7455 6.69598C21.6807 6.90158 21.593 7.09957 21.5187 7.30248C21.4296 7.5466 21.242 7.64783 20.9963 7.64425C20.6597 7.63932 20.3204 7.64201 19.9874 7.60125C19.7057 7.56676 19.5374 7.65858 19.4298 7.91032C18.9213 9.10002 18.2864 10.2387 17.9808 11.5099C17.781 12.3421 17.5682 13.1712 17.363 14.0026C17.3472 14.0671 17.3432 14.1343 17.3301 14.2275C19.8618 14.5715 22.3877 14.9146 24.8987 15.2559C24.9171 15.2917 24.9279 15.3038 24.9306 15.3182C25.0134 15.7419 25.013 15.7437 25.4238 15.827C26.5092 16.0474 27.578 16.3139 28.6188 16.7085C29.1116 16.8953 29.6673 16.9271 30.1988 16.9983C30.791 17.0776 31.3877 17.1229 31.9826 17.1807C32.0402 17.186 32.1207 17.1986 32.154 17.1681C32.3367 17.0001 32.514 17.0861 32.6909 17.165C33.9189 17.7146 35.156 18.2454 36.3705 18.8228C37.7232 19.466 39.1763 19.8028 40.5843 20.2781C41.4393 20.5665 42.3101 20.5338 43.1808 20.5683C43.9818 20.6001 44.7842 20.5943 45.5852 20.6225C45.7571 20.6284 45.9465 20.6745 46.0937 20.7605C46.3983 20.9379 46.4132 21.2644 46.1643 21.5135C46.0959 21.582 46.0482 21.6707 45.9623 21.7903C45.8655 21.7858 45.7184 21.7813 45.5717 21.7715C45.33 21.7554 45.3309 21.939 45.3044 22.111C45.2036 22.1218 45.1014 22.1585 45.0141 22.1365C44.7968 22.0814 44.6285 22.1827 44.4485 22.2664C43.6898 22.6199 42.9315 22.9751 42.1683 23.3195C41.9582 23.4145 41.7786 23.5117 41.82 23.7948H41.2778C41.217 24.2131 40.8629 24.1737 40.5339 24.141C40.2684 24.1146 40.0011 24.0658 39.7464 23.9878C39.5147 23.9171 39.4067 23.7388 39.3828 23.4799C39.3513 23.1412 39.2649 22.8075 39.1997 22.472C39.1655 22.2969 39.0575 22.2113 38.8766 22.1952C38.0346 22.1209 37.1945 22.0008 36.3507 21.973C35.1456 21.9336 33.9383 21.9444 32.7323 21.9645C31.9826 21.9771 31.281 21.8176 30.6488 21.4396C29.8541 20.9639 29.0211 20.7587 28.091 20.7762C26.7959 20.8004 25.4994 20.7412 24.2034 20.7135C24.072 20.7108 23.9676 20.7318 23.9073 20.8595C23.838 21.0064 23.7206 21.0405 23.5608 21.04C21.2303 21.0324 18.9002 21.031 16.5696 21.0284C16.4828 21.0284 16.3959 21.0284 16.3091 21.0284C16.3023 21.0467 16.296 21.0651 16.2893 21.083C16.5035 21.2228 16.7127 21.3706 16.9332 21.5C17.0853 21.5892 17.174 21.6935 17.1942 21.8794C17.2995 22.8416 17.4183 23.8019 17.5295 24.7632C17.5394 24.8496 17.5308 24.9383 17.5308 25.0279C17.3886 25.0543 17.2671 25.0772 17.1348 25.1018C17.1695 25.6465 17.219 26.1728 17.2338 26.7C17.2676 27.8987 17.2847 29.0982 17.309 30.2974C17.3139 30.541 17.2374 30.7587 17.0543 30.9195C16.5777 31.3379 16.1012 31.7576 15.6084 32.1567C15.3245 32.3865 15.0068 32.5746 14.7098 32.7887C14.649 32.8326 14.5734 32.9065 14.5703 32.9697C14.5604 33.1645 14.447 33.2268 14.2827 33.2815C12.2829 33.9475 10.2814 34.61 8.28875 35.2967C7.81805 35.4588 7.36985 35.694 6.92435 35.9207C5.97216 36.4053 5.01141 36.8779 4.08531 37.4087C3.18756 37.9233 2.49456 38.6579 1.98066 39.5654C1.87491 39.7522 1.62246 39.8566 1.43751 39.999H1.16796L1.16976 39.9999Z" fill="#FF1919"/>
    <path d="M53.9982 39.7314C53.9312 39.7364 53.8646 39.7458 53.7975 39.7458C51.5052 39.7467 49.2125 39.7462 46.9202 39.7462H46.6992V29.2544H49.5338V37.3942H49.8186C51.1223 37.3942 52.4259 37.3942 53.7296 37.3942C53.8191 37.3942 53.9087 37.4004 53.9987 37.404V39.7305L53.9982 39.7314Z" fill="#0B0B0B"/>
    <path d="M26.4961 39.735V29.2342C26.9798 29.2342 27.4505 29.231 27.9208 29.2346C28.9621 29.2427 30.0056 29.2095 31.0433 29.274C32.5274 29.3663 33.8306 29.8805 34.7311 31.1392C35.2193 31.8223 35.4596 32.6039 35.551 33.4268C35.6617 34.4248 35.636 35.4196 35.3822 36.3997C34.9232 38.1708 33.7343 39.1881 31.9888 39.5813C31.4335 39.7063 30.8471 39.7251 30.2738 39.7359C29.0606 39.7587 27.847 39.7448 26.6333 39.7453C26.5964 39.7453 26.5591 39.7395 26.4961 39.7341V39.735ZM29.3693 31.6073V37.2615C29.782 37.2615 30.1802 37.2902 30.5731 37.2561C31.6153 37.1648 32.1557 36.7379 32.3929 35.7968C32.6219 34.887 32.6264 33.9648 32.3699 33.0586C32.1584 32.3115 31.6778 31.7995 30.8831 31.6861C30.3908 31.6158 29.8864 31.6315 29.3693 31.6078V31.6073Z" fill="#0B0B0B"/>
    <path d="M40.1661 33.3509H44.3196V35.6403H40.1355V39.7317H37.2969V29.2573H44.9041V31.617H40.1661V33.3509Z" fill="#0B0B0B"/>
    <path d="M50.0918 19.7051C48.2491 19.7132 46.7407 18.2225 46.7344 16.3873C46.7281 14.5526 48.2221 13.0614 50.0743 13.0547C51.9274 13.048 53.42 14.5253 53.4232 16.3698C53.4263 18.2166 51.9476 19.6975 50.0923 19.7055L50.0918 19.7051Z" fill="#FF1919"/>
    <path d="M29.3711 31.6074C29.8881 31.6311 30.3926 31.615 30.8849 31.6858C31.6796 31.7995 32.1602 32.3111 32.3717 33.0582C32.6282 33.9644 32.6237 34.8867 32.3946 35.7964C32.1575 36.738 31.6175 37.1648 30.5748 37.2558C30.182 37.2902 29.7837 37.2611 29.3711 37.2611V31.6069V31.6074Z" fill="#F8F8F8"/>
  </g>
  <defs>
    <clipPath id="clip0_421_4889">
      <rect width="54" height="40" fill="white"/>
    </clipPath>
  </defs>
</svg>