<svg width="61" height="68" viewBox="0 0 61 68" fill="none" xmlns="http://www.w3.org/2000/svg">
<g id="Logos 11">
<path id="path6" d="M3.56666 41.1421C3.56666 34.9591 6.47233 32.6308 7.04975 26.7451C6.24933 31.9047 2.84058 36.0582 2.84058 41.1421C2.84058 43.0973 3.13791 44.8482 3.56666 46.4504C5.67191 53.5838 12.0779 57.4956 18.1879 59.0965C8.80059 56.6939 3.56666 48.7043 3.56666 41.1421ZM57.747 41.1421C57.747 37.9391 56.8723 35.4051 55.9219 33.0768C54.767 30.3198 53.5193 27.7686 53.5193 24.6399C53.5193 32.1277 57.0767 34.306 57.0767 41.1421C57.0767 48.7043 51.9171 56.6939 42.4554 59.0965C50.9866 56.9169 57.747 50.6595 57.747 41.1421Z" fill="#E4E5E6"/>
<path id="path8" d="M54.6159 11.1965C52.6606 10.6191 51.2629 9.1669 50.4067 6.83865L48.5258 1.45605L47.5754 4.86481C49.4563 13.2274 56.2924 13.8048 56.2924 13.8048L59.0494 12.5013L54.6159 11.1965ZM22.1889 41.6483L18.6315 36.117L14.6267 39.097C14.6267 39.097 16.0045 39.1714 16.0045 40.6249V51.0171L18.8359 48.9118V41.574L22.0389 46.5092L25.0189 44.2553V31.3291L22.1876 33.4344V41.6483H22.1889ZM33.6815 29.5796L30.4785 31.9822V27.177L26.195 30.38C26.195 30.38 27.5728 30.4544 27.5728 31.9079V42.3001L30.4785 40.1205V35.3896L33.6815 32.987V37.7922L36.4385 35.7626V22.7435L33.6815 24.8488V29.5796ZM41.6711 28.4248V18.7587L37.3876 21.9617C37.3876 21.9617 38.7654 22.036 38.7654 23.4895V33.8817L46.755 27.8474C46.6063 25.8178 46.755 24.57 46.755 24.57L41.6711 28.4248Z" fill="#E4E5E6"/>
<path id="path19" d="M5.17253 24.6391C5.17253 31.977 1.54077 33.4305 1.54077 41.1413C1.54077 43.4696 1.91377 45.7235 2.63986 47.6787C2.86286 47.25 3.21727 46.7283 3.59027 46.4496C3.08586 44.8474 2.86286 43.0966 2.86286 41.1413C2.86286 36.1317 6.27161 31.904 7.07203 26.7444C7.14637 26.0926 7.14637 25.3665 7.14637 24.6391C7.2207 18.7534 4.38936 13.7996 4.38936 13.7996L1.63369 12.4961L3.51461 16.7796C4.44644 18.9592 5.17253 21.6591 5.17253 24.6391Z" fill="#E4E5E6"/>
<path id="path30" d="M53.5183 24.6391C53.5183 27.7678 54.7475 30.2447 55.9209 33.0761L57.4487 33.0017C56.4983 30.6735 55.5678 28.4195 55.5678 24.6391C55.5678 21.6591 56.2939 18.9778 57.2443 16.7796L59.1252 12.4961L56.2939 13.7996C56.2939 13.7996 53.5183 18.7534 53.5183 24.6391Z" fill="#E4E5E6"/>
<path id="path45" d="M28.1521 61.3475C25.8981 60.5471 22.7695 60.2485 18.2616 59.0936C12.0786 57.5658 5.76419 53.5624 3.64036 46.4475C3.26736 46.8205 2.91427 47.2479 2.68994 47.6767C5.09253 54.5114 11.2012 59.3179 17.7386 61.0489C21.9478 62.148 23.9216 62.2037 27.0517 63.0785C27.4804 63.5072 30.329 66.6359 30.329 66.6359V63.6559C30.3316 63.6758 28.4507 61.5705 28.1521 61.3475Z" fill="#E4E5E6"/>
<path id="path68" d="M18.7681 57.0687C23.7777 58.2979 27.0564 58.4466 29.236 59.5456C29.236 59.5456 30.0364 60.2717 30.3351 60.6447C30.6324 60.2717 31.4342 59.5456 31.4342 59.5456C33.6137 58.4466 36.8911 58.3165 41.902 57.0687C48.235 55.4665 55.0698 49.8795 55.0698 41.1439C55.0698 34.8866 51.5124 32.5583 51.5124 24.6417C51.5124 19.2592 53.542 15.1243 53.542 15.1243C53.542 15.1243 48.8854 14.1739 46.7072 8.28955C46.7072 8.28955 43.5785 11.1952 39.295 11.1952C33.9124 11.1952 30.355 7.41479 30.355 7.41479C30.355 7.41479 26.7976 11.1952 21.415 11.1952C17.1315 11.1952 14.0028 8.28955 14.0028 8.28955C11.8232 14.1752 7.16802 15.1243 7.16802 15.1243C7.16802 15.1243 9.19761 19.2777 9.19761 24.6417C9.19761 32.5756 5.64019 34.8853 5.64019 41.1439C5.61895 49.9353 12.4537 55.4665 18.7681 57.0687ZM52.796 41.1439C52.796 48.5561 46.9103 53.437 41.379 54.8891C37.3743 55.9139 32.5877 56.417 31.0612 57.2917C30.6882 57.5147 30.3351 57.9435 30.3351 57.9435C30.3351 57.9435 29.9063 57.5147 29.609 57.2917C28.1568 56.4913 23.276 55.9139 19.2911 54.8891C19.1425 54.8148 18.9925 54.8148 18.8624 54.7405L50.1332 31.2548C51.1938 35.0353 52.796 37.4378 52.796 41.1439ZM50.542 16.4291C49.8903 18.3101 49.1642 21.3087 49.1642 24.6431C49.1642 26.0209 49.2385 27.3244 49.4629 28.4235L15.9368 53.5856C11.7276 51.406 8.07729 47.2526 7.87154 41.5913L46.4072 12.6474C47.785 14.5283 49.3129 15.7017 50.542 16.4291ZM11.5033 24.6417C11.5033 21.233 10.7772 18.3087 10.1255 16.4278C11.5776 15.6274 13.4785 14.1739 14.9306 11.697C16.5328 12.5717 18.7854 13.5221 21.3937 13.5221C25.3985 13.5221 28.5272 11.7713 30.3337 10.4678C32.1589 11.7713 35.269 13.5221 39.2738 13.5221C39.9255 13.5221 40.5029 13.4478 41.0989 13.3735L8.30029 37.9409C9.25071 34.2335 11.5033 31.1792 11.5033 24.6417Z" fill="#E4E5E6"/>
<path id="path83" d="M21.3928 9.141C26.7754 9.141 30.3328 4.55882 30.3328 4.55882V1.65448L27.5014 4.41015C26.0493 5.86233 23.721 7.03574 21.3928 7.03574C19.6419 7.03574 17.984 6.23532 16.5876 5.08049L12.2297 1.44873L13.1802 4.85749C13.1045 4.85749 17.2393 9.141 21.3928 9.141Z" fill="#E4E5E6"/>
<path id="path98" d="M57.7497 41.1417C57.7497 50.6591 50.9892 56.9165 42.4023 59.0961C37.8945 60.2509 34.7658 60.5482 32.5119 61.35C32.2145 61.6473 30.3323 63.6782 30.3323 63.6782V66.6582C30.3323 66.6582 33.2379 63.5296 33.6096 63.1008C36.7383 62.2261 38.6949 62.1504 42.9226 61.0712C51.4339 58.8916 59.1448 51.4795 59.1448 41.143C59.1448 37.4369 58.3443 35.183 57.4683 33.0034L55.9404 33.0778C56.8736 35.4047 57.7497 37.9387 57.7497 41.1417Z" fill="#E4E5E6"/>
<path id="path113" d="M39.2691 9.141C43.4225 9.141 47.5574 4.93182 47.5574 4.93182L48.5078 1.44873L44.1499 5.08049C42.6978 6.23532 41.0956 7.03574 39.3448 7.03574C37.0165 7.03574 34.6883 5.88091 33.2361 4.41015L30.4047 1.65315V4.50307C30.3291 4.56015 33.8865 9.141 39.2691 9.141Z" fill="#E4E5E6"/>
<path id="path128" d="M13.1028 4.85749L12.2281 1.44873L10.2728 6.83132C9.39805 9.15958 8.01889 10.6118 6.06363 11.1892L1.63013 12.494L4.38713 13.7975C4.36722 13.7975 11.2776 13.2201 13.1028 4.85749Z" fill="#E4E5E6"/>
<path id="path130" d="M8.29805 37.9396L41.0967 13.2992C40.5193 13.3735 39.8675 13.4479 39.2715 13.4479C35.2668 13.4479 32.1381 11.697 30.3315 10.3935C28.5063 11.697 25.3962 13.4479 21.3915 13.4479C18.7659 13.4479 16.512 12.5731 14.9284 11.6227C13.4762 14.0996 11.5754 15.5531 10.1232 16.3535C10.775 18.2344 11.5011 21.233 11.5011 24.5675C11.5011 31.1779 9.24847 34.2322 8.29805 37.9396ZM18.8402 54.7392C18.9889 54.8135 19.1389 54.8135 19.269 54.8879C23.2737 55.9126 28.0603 56.4157 29.5868 57.2904C29.9598 57.5134 30.3129 57.9422 30.3129 57.9422C30.3129 57.9422 30.7417 57.5134 31.039 57.2904C32.4912 56.49 37.372 55.9126 41.3569 54.8879C46.8881 53.51 52.7738 48.6305 52.7738 41.1427C52.7738 37.4366 51.1716 35.034 50.0925 31.2522L18.8402 54.7392ZM4.29329 24.6405C4.29329 31.6996 0.661537 33.3017 0.661537 41.1427C0.661537 52.4109 9.37855 59.8231 17.5354 61.9284C21.6145 62.9531 22.8437 63.0274 26.5498 63.8836C26.8484 64.181 30.3302 67.9627 30.3302 67.9627C30.3302 67.9627 33.8133 64.2566 34.1106 63.8836C37.8167 62.9332 39.0459 62.9332 43.125 61.9284C51.2645 59.8231 59.9988 52.4109 59.9988 41.1427C59.9988 33.2831 56.3671 31.6996 56.3671 24.6405C56.3671 22.0892 56.8702 19.5552 57.9692 17.1526L60.2975 11.9187L54.9149 10.3909C53.2384 9.88778 52.0836 8.64002 51.2831 6.61044L48.8806 0.0730068L43.498 4.50518C42.1201 5.66002 40.6666 6.25602 39.2144 6.25602C37.3335 6.25602 35.1354 5.3056 33.7575 3.92777L30.3501 0.521667L26.9413 3.93042C25.4892 5.38259 23.3839 6.25868 21.4844 6.25868C20.1066 6.25868 18.6531 5.68126 17.2009 4.50784L11.8183 0L9.41572 6.53743C8.68963 8.56702 7.46046 9.89043 5.78396 10.3179L0.401367 11.9944L2.72962 17.2283C3.71588 19.5565 4.29329 22.0892 4.29329 24.6405ZM6.04413 11.1939C7.99939 10.6165 9.39713 9.16435 10.2533 6.83609L12.2086 1.4535L16.5664 5.08526C18.0186 6.24009 19.6207 7.04051 21.3716 7.04051C23.6998 7.04051 26.0281 5.88568 27.4803 4.41492L30.3116 1.65792L33.1429 4.41492C34.5951 5.86709 36.9234 7.04051 39.2516 7.04051C41.0024 7.04051 42.6604 6.24009 44.0568 5.08526L48.4146 1.4535L50.3699 6.83609C51.2446 9.16435 52.6238 10.6165 54.5791 11.1939L59.0112 12.4974L57.1303 16.7809C56.1799 18.9605 55.4538 21.5861 55.4538 24.6405C55.4538 28.4209 56.4042 30.6748 57.3347 33.0031C58.2095 35.1826 59.0112 37.4352 59.0112 41.1427C59.0856 51.4605 51.3747 58.8926 42.8635 61.0709C38.6543 62.1699 36.6804 62.2257 33.5504 63.1005C33.1217 63.5292 30.2731 66.6579 30.2731 66.6579C30.2731 66.6579 27.3674 63.5292 26.9958 63.1005C23.8671 62.2257 21.9105 62.15 17.6827 61.0709C11.1453 59.3944 5.03664 54.6078 2.63405 47.6987C1.90796 45.6691 1.53496 43.4895 1.53496 41.1612C1.46063 33.4504 5.09239 31.9982 5.09239 24.659C5.09239 21.679 4.3663 18.9977 3.41588 16.7995L1.53762 12.516L6.04413 11.1939ZM15.9346 53.5843L49.4593 28.4222C49.3106 27.2674 49.162 26.0196 49.162 24.6418C49.162 21.233 49.888 18.3088 50.5398 16.4279C49.3106 15.7018 47.7085 14.6027 46.3864 12.7218L7.85072 41.6643C8.07505 47.3257 11.7997 51.4605 15.9346 53.5843ZM41.6741 18.7548V28.3466L46.7594 24.4918C46.7594 24.4918 46.6107 25.721 46.7594 27.7691L38.7698 33.8035V23.56C38.7698 22.1078 37.3919 22.0321 37.3919 22.0321L41.6741 18.7548ZM30.4802 27.193V31.9982L33.6832 29.5956V24.7905L36.4402 22.6852V35.6114L33.6832 37.791V33.0588L30.4802 35.4614V40.1922L27.5745 42.3718V31.9796C27.5745 30.5275 26.1967 30.4518 26.1967 30.4518L30.4802 27.193ZM18.6159 36.1331L22.1733 41.6643V33.4504L25.0047 31.3451V44.2899L22.0247 46.5438L18.8217 41.6086V48.9464L15.9903 51.0517V40.6409C15.9903 39.1887 14.6125 39.1131 14.6125 39.1131L18.6159 36.1331ZM7.06888 26.7457C6.49146 32.6314 3.58579 34.9596 3.58579 41.1427C3.58579 48.7048 8.81972 56.6944 18.2814 59.097C22.7892 60.2519 25.9179 60.5492 28.1718 61.3509C28.4692 61.6483 30.3514 63.6792 30.3514 63.6792C30.3514 63.6792 32.2323 61.6496 32.531 61.3509C34.7849 60.5505 37.9136 60.2519 42.4214 59.097C51.9389 56.6944 57.117 48.7048 57.117 41.1427C57.117 34.2322 53.5596 32.1283 53.5596 24.6405C53.5596 18.7548 56.3166 13.8009 56.3166 13.8009C56.3166 13.8009 49.4062 13.2235 47.5996 4.86093C47.5996 4.86093 43.4462 9.0701 39.3113 9.0701C33.9287 9.0701 30.3713 4.48793 30.3713 4.48793C30.3713 4.48793 26.8139 9.0701 21.4313 9.0701C17.2779 9.0701 13.143 4.86093 13.143 4.86093C11.3179 13.2235 4.42603 13.8009 4.42603 13.8009C4.42603 13.8009 7.18304 18.7362 7.18304 24.6405C7.21755 25.4422 7.14321 26.094 7.06888 26.7457ZM7.21755 15.1044C7.21755 15.1044 11.8741 14.154 14.0523 8.26968C14.0523 8.26968 17.181 11.1754 21.4645 11.1754C26.8471 11.1754 30.4045 7.39493 30.4045 7.39493C30.4045 7.39493 33.9619 11.1754 39.3445 11.1754C43.628 11.1754 46.7567 8.26968 46.7567 8.26968C48.9363 14.1554 53.5915 15.1044 53.5915 15.1044C53.5915 15.1044 51.5619 19.2579 51.5619 24.6219C51.5619 32.5557 55.1193 34.8654 55.1193 41.1241C55.1193 49.8411 48.2845 55.4467 41.9515 57.0489C36.9419 58.278 33.6633 58.4267 31.4837 59.5258C31.4837 59.5258 30.6833 60.2519 30.3846 60.6249C30.0859 60.2519 29.2855 59.5258 29.2855 59.5258C27.1059 58.4267 23.8286 58.2966 18.8177 57.0489C12.4847 55.4467 5.64989 49.8597 5.64989 41.1241C5.64989 34.8667 9.20732 32.5385 9.20732 24.6219C9.1728 19.2579 7.21755 15.1044 7.21755 15.1044Z" fill="#111111"/>
</g>
</svg>
