<svg width="136" height="32" viewBox="0 0 136 32" fill="none" xmlns="http://www.w3.org/2000/svg">
<path id="Logos 07" d="M44.878 1.17637e-05C39.8492 -0.00631317 36.5189 2.53842 36.0504 6.34345C35.941 7.22284 35.8285 8.10185 35.7126 8.98048H101.143C101.143 8.98048 101.266 8.05352 101.362 7.30952C101.854 3.47638 100.157 0.000480278 93.9864 0.000480278C93.9864 0.000480278 47.529 0.00282284 44.878 1.17637e-05ZM4.94669 0.00118305L3.79834 8.98048H33.4711L34.615 0.00141731L4.94669 0.00118305ZM104.551 0.00118305L103.406 8.98048H135.573C135.573 8.98048 135.612 8.6558 135.755 7.59883C136.537 1.70493 132.577 0.00118305 128.752 0.00118305H104.551ZM102.962 12.3995L100.456 31.9964L111.554 31.9927L114.062 12.4032L102.962 12.3995ZM124.046 12.3995L121.535 31.9964L132.633 31.9927L135.142 12.4032L124.046 12.3995ZM3.36545 12.4023L0.854492 31.9974H30.5253L31.6185 23.4967L13.0393 23.4948L13.5093 19.8291H32.0811L33.0318 12.4027H3.36691L3.36545 12.4023ZM35.2773 12.4023C34.4633 17.5166 37.1299 19.8284 40.9093 19.8284C42.9649 19.8284 55.9213 19.8228 55.9213 19.8228L55.4528 23.4941L33.86 23.496L32.7727 31.9967C32.7727 31.9967 56.2805 32.0042 57.2332 31.9967C58.0199 31.9423 63.5191 31.798 65.3912 27.4802C65.9984 26.0784 66.5352 21.0522 66.6855 19.9971C67.5503 13.8689 63.1306 12.4079 59.6499 12.4079C57.731 12.4079 39.0664 12.4023 35.2773 12.4023ZM69.8187 12.4023L67.3122 31.9974H78.4043L79.966 19.8291H93.8985C97.8497 19.8291 99.9736 17.7897 100.368 15.051C100.494 14.1697 100.608 13.2869 100.71 12.4027L69.8187 12.4023Z" fill="#FF1919"/>
</svg>
