<svg xmlns="http://www.w3.org/2000/svg" width="71" height="30" viewBox="0 0 71 30" fill="none">
  <path d="M12.5629 23.7631C12.0065 23.5768 11.6261 23.3241 11.1617 22.8332C10.1863 21.8019 10.1327 21.494 10.1327 16.9144C10.1327 12.5017 10.2021 12.0861 11.1109 11.05C12.3851 9.59775 15.3312 9.6407 16.5894 11.1298C17.425 12.1189 17.4929 12.5593 17.4929 16.9822C17.4929 20.4826 17.4618 21.066 17.2429 21.6785C16.9074 22.6164 15.9188 23.5238 14.9157 23.8144C13.9697 24.0885 13.5038 24.0785 12.5629 23.7629V23.7631ZM14.2926 21.6404C14.8606 21.4277 14.9238 20.9621 14.9238 16.9953C14.9238 14.464 14.8715 13.0892 14.7668 12.8651C14.4155 12.1126 13.2101 12.1126 12.8587 12.8651C12.754 13.0892 12.7018 14.464 12.7018 16.9953C12.7018 21.4213 12.7597 21.6781 13.7667 21.714C13.9324 21.7198 14.169 21.6866 14.2926 21.6404ZM20.4622 23.6888C20.2622 23.5829 19.9809 23.265 19.8373 22.9829C19.595 22.507 19.573 22.0203 19.5347 16.2708L19.4934 10.0719H22.1451V15.746C22.1451 20.6026 22.1748 21.4446 22.3516 21.5875C22.6593 21.8367 23.1592 21.6543 23.7246 21.0866L24.2281 20.5808V10.072H26.8667V23.7571H24.2281V22.3791L23.5685 22.9505C23.2058 23.2647 22.7078 23.6052 22.462 23.7072C21.889 23.9448 20.9284 23.9358 20.4622 23.6888ZM4.36774 19.9968L4.36566 16.2368L2.64962 10.8847L0.933594 5.53259L2.32786 5.4937C3.14401 5.47094 3.75726 5.51051 3.80698 5.58909C3.85378 5.66294 4.29636 7.21979 4.79046 9.04872C5.28484 10.8776 5.72062 12.3743 5.75937 12.3746C5.79825 12.3749 6.16237 11.1405 6.56871 9.63135C6.97518 8.12233 7.40082 6.56751 7.51484 6.1762L7.72217 5.46484H9.18532C10.3774 5.46484 10.6349 5.4998 10.5744 5.65318C10.5338 5.7567 9.7458 8.19306 8.8237 11.0672L7.14711 16.2929V23.7568H4.36968L4.36774 19.9968Z" fill="#010101"/>
  <path d="M40.4928 29.0346C33.7083 28.8136 31.8711 28.3425 30.6221 26.5025C30.1175 25.7591 29.551 24.0955 29.3706 22.8267C28.7374 18.3735 28.8929 9.08739 29.6541 5.88683C30.3434 2.98843 31.9644 1.56857 34.9216 1.27278C37.8265 0.982141 45.3991 0.823882 52.7649 0.899759C60.7169 0.981599 64.4607 1.14758 65.8153 1.47833C68.4649 2.12505 69.7503 4.02945 70.1985 7.97131C70.2832 8.71654 70.3873 11.3183 70.4298 13.7529C70.6012 23.5812 69.8434 26.7077 66.9553 28.0883C65.8647 28.6097 65.1513 28.7295 62.0691 28.909C58.7215 29.1038 45.0601 29.1834 40.4928 29.0346ZM43.8304 23.6776C44.0646 23.5593 44.5301 23.2164 44.865 22.9148L45.4741 22.3674V23.7568H48.1127V10.2071H45.4741V20.5406L44.8675 21.1323C44.2165 21.7677 43.9532 21.8469 43.6094 21.5114C43.418 21.3247 43.391 20.6137 43.391 15.7529V10.207H40.7525V16.0766C40.7525 22.5515 40.8071 23.0638 41.5535 23.6074C42.0261 23.9515 43.215 23.988 43.8304 23.6776ZM56.5302 23.6339C56.7725 23.4897 57.1083 23.0878 57.294 22.7198C57.6198 22.0743 57.6263 21.9854 57.672 17.5943C57.722 12.7798 57.6426 11.9105 57.0629 10.9346C56.7409 10.3924 55.9729 9.936 55.382 9.936C54.8129 9.936 53.9975 10.3096 53.3757 10.8549L52.6956 11.4515V5.60012H50.1959V23.7566H52.6956V22.5057L53.2656 23.0083C53.5792 23.2846 54.0323 23.5942 54.2724 23.6961C54.9172 23.97 56.0162 23.9398 56.5302 23.6339ZM53.2162 21.4236L52.6954 21.1291V12.8191L53.3117 12.5001C53.8118 12.2413 54.0016 12.2065 54.3185 12.315C55.0033 12.5497 55.0771 13.0673 55.0296 17.2986L54.9868 21.0705L54.5971 21.3974C54.1201 21.7976 53.8857 21.8021 53.2162 21.4236ZM64.9161 23.6099C66.2581 23.0163 66.8625 22.0124 66.9682 20.2011L67.0376 19.0144H64.3605V19.8187C64.3605 20.8038 64.204 21.2341 63.7373 21.5324C63.2114 21.8685 62.5578 21.6549 62.2431 21.044C62.053 20.6753 62.0001 20.226 62.0001 18.9804L61.9996 17.3883H66.999V15.3988C66.999 12.8948 66.7983 12.0968 65.933 11.1578C65.1684 10.3281 64.3492 9.99779 63.1106 10.02C62.0839 10.0383 61.3979 10.288 60.6773 10.9053C59.4997 11.9144 59.3211 12.8134 59.3915 17.3884C59.4373 20.3611 59.4877 21.0853 59.6855 21.5965C60.0232 22.4694 60.6333 23.134 61.4711 23.5415C62.4154 24.0002 63.9638 24.0311 64.9161 23.6099ZM61.9998 14.3352C61.9998 12.6499 62.4429 12.0748 63.5581 12.3138C64.1179 12.4339 64.3607 13.0452 64.3607 14.3353V15.3559H61.9999V14.3353L61.9998 14.3352ZM38.1139 15.9657V8.17469H41.1691V5.60026H32.4202V8.17469H35.3365V23.7568H38.1139V15.9657Z" fill="#D02726"/>
</svg>