<svg width="103" height="18" viewBox="0 0 103 18" fill="none" xmlns="http://www.w3.org/2000/svg">
<g id="Logos 02">
<path d="M24.2841 14.821H26.2701C26.3529 14.821 26.4253 14.7494 26.4253 14.6675V10.0954H29.9835C30.0456 10.0954 30.1077 10.0545 30.1283 9.99316L30.7593 8.27479C30.7903 8.19296 30.749 8.11113 30.6662 8.08045C30.6455 8.07022 30.6352 8.07022 30.6145 8.07022H26.4253V5.20626H31.773C31.8351 5.20626 31.8971 5.16535 31.9178 5.10398L32.5591 3.38561C32.5902 3.30378 32.5488 3.22195 32.466 3.19127C32.4453 3.18104 32.435 3.18104 32.4143 3.18104H24.2841C24.2014 3.18104 24.129 3.25264 24.129 3.33447V14.6675C24.129 14.7596 24.2014 14.821 24.2841 14.821Z" fill="#0373FF"/>
<path d="M37.0069 3.28332L32.8384 14.6164C32.8074 14.6982 32.8487 14.78 32.9315 14.8107C32.9522 14.821 32.9625 14.821 32.9832 14.821H35.052C35.114 14.821 35.1761 14.78 35.1968 14.7187L35.8691 12.7651H40.0583L40.7203 14.7187C40.741 14.78 40.8031 14.821 40.8651 14.821H42.9235C43.0063 14.821 43.0787 14.7494 43.0787 14.6675C43.0787 14.6471 43.0787 14.6368 43.0683 14.6164L38.8895 3.28332C38.8688 3.22195 38.8067 3.18104 38.7447 3.18104H37.1621C37.0897 3.18104 37.038 3.22195 37.0069 3.28332ZM36.5208 10.8523L38.0103 6.61778L39.448 10.8523H36.5208Z" fill="#0373FF"/>
<path d="M52.4811 10.3102L47.8575 3.25264C47.8265 3.21173 47.7747 3.18104 47.723 3.18104H45.9129C45.8301 3.18104 45.7577 3.25264 45.7577 3.33447V14.6675C45.7577 14.7494 45.8301 14.821 45.9129 14.821H47.8989C47.9816 14.821 48.054 14.7494 48.054 14.6675V7.67131L52.6777 14.7494C52.7087 14.7903 52.7604 14.821 52.8121 14.821H54.6223C54.705 14.821 54.7774 14.7494 54.7774 14.6675V3.33447C54.7774 3.25264 54.705 3.18104 54.6223 3.18104H52.6363C52.5535 3.18104 52.4811 3.25264 52.4811 3.33447V10.3102Z" fill="#0373FF"/>
<path d="M76.944 10.7501C76.944 12.09 76.1372 12.898 74.896 12.898C73.6547 12.898 72.8583 12.1002 72.8583 10.7501V3.33447C72.8583 3.25264 72.7859 3.18104 72.7031 3.18104H70.7171C70.6344 3.18104 70.562 3.25264 70.562 3.33447V10.8319C70.562 13.3072 72.4859 14.9232 74.896 14.9232C77.3061 14.9232 79.23 13.3072 79.23 10.8319V3.33447C79.23 3.25264 79.1576 3.18104 79.0748 3.18104H77.1095C77.0268 3.18104 76.9544 3.25264 76.9544 3.33447L76.944 10.7501Z" fill="#0373FF"/>
<path d="M90.7426 5.10398L91.3735 3.38561C91.4046 3.30378 91.3632 3.22195 91.2804 3.19127C91.2597 3.18104 91.2494 3.18104 91.2287 3.18104H83.1089C83.0261 3.18104 82.9537 3.25264 82.9537 3.33447V14.6675C82.9537 14.7494 83.0261 14.821 83.1089 14.821H91.2287C91.3115 14.821 91.3839 14.7494 91.3839 14.6675C91.3839 14.6471 91.3839 14.6368 91.3735 14.6164L90.7426 12.898C90.7219 12.8367 90.6598 12.7957 90.5977 12.7957H85.25V9.96247H89.553C89.6358 9.96247 89.7082 9.89087 89.7082 9.80904V8.09067C89.7082 8.00885 89.6358 7.93725 89.553 7.93725H85.25V5.20626H90.5977C90.6598 5.20626 90.7219 5.16535 90.7426 5.10398Z" fill="#0373FF"/>
<path d="M101.283 12.7957H96.4213V3.33447C96.4213 3.25264 96.3489 3.18104 96.2661 3.18104C96.2661 3.18104 96.2661 3.18104 96.2558 3.18104H94.2698C94.187 3.18104 94.1146 3.25264 94.1146 3.33447V14.6675C94.1146 14.7494 94.187 14.821 94.2698 14.821H101.903C101.986 14.821 102.059 14.7494 102.059 14.6675C102.059 14.6471 102.059 14.6368 102.048 14.6164L101.417 12.898C101.407 12.8367 101.345 12.7957 101.283 12.7957Z" fill="#0373FF"/>
<path d="M66.0417 4.29594C65.266 3.52881 64.1592 3.18104 62.9283 3.18104H58.2529C58.1702 3.18104 58.0978 3.25264 58.0978 3.33447C58.0978 3.3447 58.0978 3.35492 58.0978 3.36515L58.4391 5.08352C58.4598 5.15512 58.5115 5.20626 58.5839 5.20626H62.6904C63.4868 5.20626 64.0144 5.45175 64.4074 5.92225C64.8419 6.4439 64.9039 7.18035 64.9039 8.94986C64.9039 10.7194 64.8419 11.5479 64.4074 12.0695C64.0144 12.54 63.4765 12.7855 62.6904 12.7855H60.9837V6.74053C60.9837 6.6587 60.9113 6.5871 60.8285 6.5871H58.8425C58.7598 6.5871 58.6874 6.6587 58.6874 6.74053V14.6778C58.6874 14.7596 58.7598 14.8312 58.8425 14.8312H62.9386C64.1592 14.8312 65.2763 14.4834 66.0521 13.7163C67.3761 12.4071 67.2416 10.7091 67.2416 8.96009C67.2313 7.2008 67.3657 5.59494 66.0417 4.29594Z" fill="#0373FF"/>
<path d="M7.58934 2.97646C7.94103 2.22979 8.34443 1.52403 8.8099 0.869414C8.99609 0.603476 9.19262 0.357994 9.38915 0.122741C9.42018 0.0715988 9.38915 0 9.32709 0C9.27537 0 9.22365 0 9.17193 0C7.09284 0 5.08616 0.347766 3.22429 0.981927C2.26233 1.30924 1.33139 1.71837 0.441831 2.19911C0.193581 2.33208 0.0487691 2.58779 0.0591129 2.86395C0.0798003 3.88679 0.193581 4.87895 0.390112 5.85065C0.565955 6.76097 0.814205 7.65084 1.12452 8.51003C1.49689 9.5431 1.96236 10.5353 2.52092 11.466C3.5346 13.1946 4.82757 14.7391 6.3481 16.0381C6.60669 16.2632 6.87563 16.478 7.14456 16.6825C7.20663 16.7234 7.28937 16.6621 7.25834 16.6007C7.14456 16.3245 7.04113 16.0381 6.94803 15.7517C6.48256 14.3709 6.19294 12.8878 6.09985 11.3535C6.09985 11.2819 6.06882 11.2206 6.03779 11.1694C5.65507 10.6478 5.31372 10.1159 5.00341 9.5431C5.28269 9.38967 5.58266 9.2567 5.88263 9.14419C6.0171 9.09305 6.09985 8.97031 6.11019 8.82711C6.1826 7.80427 6.33775 6.79166 6.586 5.83019C6.59635 5.77905 6.55497 5.7279 6.50325 5.73813C5.56197 5.95293 4.65173 6.27001 3.81388 6.68937C3.57598 5.89156 3.40014 5.07329 3.2967 4.23456C4.55863 3.70268 5.91366 3.34469 7.32041 3.1708C7.42384 3.1708 7.52728 3.08898 7.58934 2.97646Z" fill="#0373FF"/>
<path d="M17.9021 2.19911C17.0125 1.71838 16.0919 1.31947 15.1196 0.981935C13.8266 0.542114 12.4819 0.24549 11.0752 0.102292C10.9614 0.0920639 10.858 0.132978 10.7752 0.204576C10.0201 0.971706 9.3478 1.90249 8.79958 2.96624C8.7789 3.01739 8.80993 3.06853 8.86165 3.06853C8.96508 3.06853 9.05818 3.06853 9.16161 3.06853C11.251 3.06853 13.2474 3.48789 15.0679 4.24479C14.9644 5.08352 14.7886 5.91202 14.5507 6.69961C14.2507 7.69177 13.8473 8.64301 13.3508 9.54311C12.3165 11.4251 10.8787 13.0719 9.16161 14.3505C8.56168 13.9004 8.00312 13.4197 7.48593 12.8878C7.43421 12.8367 7.35146 12.8776 7.36181 12.9492C7.49627 13.7265 7.67212 14.4834 7.89968 15.1994C8.22034 16.2018 8.63408 17.1224 9.13058 17.9611C9.15127 17.9918 9.19265 18.0122 9.23402 17.9918C10.2167 17.419 11.1476 16.7644 12.0061 16.0279C13.5163 14.7289 14.8196 13.1844 15.8333 11.4558C16.3815 10.5148 16.847 9.53288 17.2297 8.49981C17.54 7.64062 17.7883 6.75075 17.9641 5.84043C18.1503 4.86873 18.2641 3.86634 18.2951 2.85373C18.2951 2.57756 18.1503 2.32186 17.9021 2.19911Z" fill="#0373FF"/>
</g>
</svg>
