<svg width="140" height="41" viewBox="0 0 140 41" fill="none" xmlns="http://www.w3.org/2000/svg">
<path id="Logos 13" d="M61.8345 25.7965V30.129H51.9692L49.9955 27.8712C49.6654 27.5013 49.4847 26.9836 49.4847 26.501V8.61089H53.9048V25.7965H61.8345ZM95.4856 25.7965V30.129H85.6203L83.6466 27.8712C83.3165 27.5013 83.1358 26.9836 83.1358 26.501V8.61089H87.5558V25.7965H95.4856ZM97.9702 8.61089H102.39V30.129H97.9702V8.61089ZM77.3639 14.7962L76.1929 10.129C75.974 9.2414 75.1712 8.61089 74.2573 8.61089H69.1075L67.5369 14.7962L64.2114 28.0191C64.1384 28.315 64.1002 28.6109 64.1002 28.9068V30.129H68.0477L68.8886 26.8708L75.4666 23.6866L77.1103 30.129H80.8006V28.1671L77.3674 14.7962H77.3639ZM69.9485 22.6863L71.9569 14.7609L72.579 12.3164L73.201 14.7609L75.2095 22.6863H69.9485ZM135.895 14.7962L134.728 10.129C134.509 9.2414 133.706 8.61089 132.792 8.61089H127.639L126.068 14.7962L122.708 28.0191C122.635 28.315 122.597 28.6109 122.597 28.9068V30.129H126.544L127.385 26.8708L133.963 23.6866L135.607 30.129H139.297V28.1671L135.899 14.7962H135.895ZM128.442 22.6863L130.45 14.7609L131.072 12.3164L131.694 14.7609L133.703 22.6863H128.442ZM121.172 22.3516V23.426C121.172 27.2407 118.139 30.3157 114.375 30.3157H112.329C111.488 30.3157 110.685 30.1678 109.955 29.8719C107.363 28.9103 105.535 26.3531 105.535 23.4295V15.5394C105.535 15.2787 105.535 15.0216 105.573 14.7997C105.865 12.1685 107.582 9.98462 109.959 9.09698C110.688 8.8011 111.495 8.65316 112.332 8.65316H114.379C117.885 8.65316 120.773 11.3583 121.137 14.7997H116.825V14.2819C116.825 13.4295 116.168 12.7638 115.327 12.7638H111.456C110.615 12.7638 109.959 13.4295 109.959 14.2819V24.613C109.959 25.4654 110.615 26.1311 111.456 26.1311H115.327C116.168 26.1311 116.825 25.4654 116.825 24.613V21.8339H113.096V17.5753H118.212L118.285 17.6493L120.147 19.6852C120.807 20.3897 121.172 21.3513 121.172 22.3516ZM9.0019 20.1678H17.8073L4.39763 27.0575L4.28991 26.8708L1.36751 22.9434C-0.0224591 21.0906 -0.0572082 18.5369 1.25631 16.6454L12.2926 0.981445H22.4846L9.0019 20.1678ZM20.4378 32.9082H30.741L15.0309 40.9814L14.9579 40.8687L11.4865 36.2403C10.0965 34.4263 10.0617 31.9078 11.3753 30.0198L31.3282 0.981445H42.3993L20.4413 32.9082H20.4378Z" fill="#FF2D25"/>
</svg>
