<svg xmlns="http://www.w3.org/2000/svg" width="53" height="22" viewBox="0 0 53 22" fill="none">
  <path d="M9.12812 17.8907C8.71565 17.7492 8.4337 17.5572 8.08947 17.1843C7.36643 16.4008 7.32669 16.1669 7.32669 12.6877C7.32669 9.33529 7.37816 9.01957 8.05179 8.2324C8.99626 7.1291 11.1801 7.16173 12.1127 8.29303C12.7321 9.04448 12.7825 9.37904 12.7825 12.7392C12.7825 15.3985 12.7594 15.8417 12.5972 16.307C12.3485 17.0196 11.6156 17.709 10.8721 17.9298C10.1709 18.138 9.82553 18.1304 9.12812 17.8906V17.8907ZM10.4102 16.2781C10.8312 16.1165 10.8781 15.7628 10.8781 12.7492C10.8781 10.826 10.8394 9.78163 10.7618 9.61137C10.5013 9.03965 9.60782 9.03965 9.34738 9.61137C9.26977 9.78163 9.23106 10.826 9.23106 12.7492C9.23106 16.1117 9.27399 16.3067 10.0204 16.334C10.1432 16.3384 10.3186 16.3132 10.4102 16.2781ZM14.9835 17.8343C14.8353 17.7538 14.6267 17.5123 14.5203 17.298C14.3406 16.9365 14.3244 16.5667 14.296 12.1987L14.2654 7.48928H16.2309V11.8001C16.2309 15.4897 16.2529 16.1294 16.384 16.238C16.6121 16.4273 16.9827 16.2887 17.4017 15.8574L17.775 15.4731V7.48939H19.7308V17.8862H17.775V16.8393L17.286 17.2734C17.0172 17.5121 16.648 17.7708 16.4658 17.8483C16.0411 18.0288 15.3291 18.022 14.9835 17.8343ZM3.05339 15.0295L3.05184 12.1729L1.77983 8.10681L0.507812 4.04073L1.54132 4.01118C2.14629 3.99389 2.60087 4.02395 2.63772 4.08365C2.67241 4.13975 3.00048 5.32252 3.36673 6.71199C3.7332 8.10146 4.05622 9.23852 4.08494 9.23873C4.11376 9.23894 4.38367 8.30116 4.68487 7.15463C4.98617 6.0082 5.30168 4.82697 5.38619 4.52969L5.53988 3.98926H6.62444C7.50807 3.98926 7.69892 4.01582 7.65414 4.13234C7.62398 4.21099 7.0399 6.06193 6.35639 8.24547L5.11361 12.2155V17.886H3.05483L3.05339 15.0295Z" fill="#010101"/>
  <path d="M29.8333 21.8957C24.8043 21.7278 23.4425 21.3699 22.5167 19.972C22.1426 19.4073 21.7227 18.1434 21.589 17.1795C21.1196 13.7963 21.2349 6.74148 21.7991 4.30996C22.3101 2.108 23.5117 1.0293 25.7036 0.804585C27.8569 0.583782 33.4702 0.463549 38.9301 0.521195C44.8245 0.58337 47.5997 0.70947 48.6037 0.960744C50.5678 1.45207 51.5206 2.89888 51.8528 5.89358C51.9156 6.45974 51.9928 8.43637 52.0243 10.286C52.1513 17.7527 51.5896 20.128 49.4488 21.1768C48.6404 21.5729 48.1116 21.6639 45.8269 21.8003C43.3454 21.9483 33.2189 22.0088 29.8333 21.8957ZM32.3074 17.8259C32.4809 17.7361 32.826 17.4755 33.0743 17.2464L33.5258 16.8305V17.8861H35.4816V7.59217H33.5258V15.4427L33.0761 15.8922C32.5935 16.3749 32.3984 16.4351 32.1435 16.1803C32.0016 16.0384 31.9817 15.4982 31.9817 11.8054V7.59207H30.0258V12.0513C30.0258 16.9704 30.0663 17.3596 30.6196 17.7726C30.9699 18.034 31.8512 18.0618 32.3074 17.8259ZM41.7211 17.7927C41.9008 17.6832 42.1497 17.3779 42.2873 17.0983C42.5288 16.6079 42.5336 16.5403 42.5675 13.2043C42.6046 9.54667 42.5457 8.88622 42.116 8.14485C41.8773 7.73289 41.308 7.38619 40.87 7.38619C40.4482 7.38619 39.8437 7.66999 39.3829 8.08432L38.8787 8.53756V4.09215H37.0258V17.886H38.8787V16.9356L39.3013 17.3174C39.5337 17.5273 39.8696 17.7625 40.0476 17.8399C40.5255 18.0481 41.3402 18.0251 41.7211 17.7927ZM39.2646 16.1136L38.8786 15.8898V9.57652L39.3354 9.33421C39.7061 9.13759 39.8468 9.11114 40.0817 9.19359C40.5893 9.37188 40.644 9.76511 40.6088 12.9797L40.5771 15.8453L40.2882 16.0936C39.9346 16.3977 39.7609 16.4011 39.2646 16.1136ZM47.9372 17.7745C48.932 17.3235 49.38 16.5608 49.4583 15.1847L49.5098 14.2832H47.5254V14.8942C47.5254 15.6426 47.4093 15.9695 47.0635 16.1962C46.6736 16.4515 46.1891 16.2893 45.9558 15.8251C45.8149 15.545 45.7757 15.2037 45.7757 14.2574L45.7754 13.0478H49.4812V11.5364C49.4812 9.63407 49.3324 9.02776 48.691 8.31439C48.1243 7.6841 47.517 7.43313 46.5989 7.45001C45.8379 7.46391 45.3294 7.65363 44.7952 8.12262C43.9223 8.8892 43.7899 9.5722 43.8421 13.0479C43.8761 15.3063 43.9134 15.8565 44.06 16.2449C44.3104 16.908 44.7626 17.413 45.3836 17.7225C46.0836 18.071 47.2314 18.0945 47.9372 17.7745ZM45.7755 10.7283C45.7755 9.44795 46.104 9.01108 46.9306 9.19267C47.3455 9.28387 47.5256 9.74833 47.5256 10.7284V11.5037H45.7756V10.7284L45.7755 10.7283ZM28.07 11.9671V6.04809H30.3347V4.09225H23.8495V6.04809H26.0112V17.8861H28.07V11.9671Z" fill="#D02726"/>
</svg>