<svg width="104" height="44" viewBox="0 0 104 44" fill="none" xmlns="http://www.w3.org/2000/svg">
<path id="Logos 06" d="M22.5459 30.932C21.5829 31.68 20.4364 32.076 19.3358 31.988C18.0517 31.856 17.2263 31.328 16.0339 29.876L9.79706 22.484L6.99964 24.684L13.8327 32.736C15.2543 34.408 16.9052 35.332 18.7855 35.464C20.9409 35.64 22.8211 35.024 24.7472 33.572C26.6274 32.12 27.6363 30.448 27.9115 28.38C28.0949 26.576 27.5446 24.86 26.123 23.188L19.2899 15.092L16.5384 17.248L22.7752 24.64C24.0134 26.092 24.3345 26.928 24.2427 28.204C24.151 29.172 23.509 30.184 22.5459 30.932ZM87.3451 38.72L92.5272 21.428C92.7107 20.812 92.8024 20.196 91.9311 19.58L91.2432 19.052C90.4177 18.436 89.7757 18.656 89.2254 19.008L73.5415 28.776L76.8434 30.58L88.1706 23.54L86.3821 29.48L84.9146 28.38L81.9337 30.272L85.419 32.824L84.4101 36.168L87.3451 38.72ZM52.3545 2.684C71.753 2.684 89.3171 10.34 101.837 22.704L103.854 20.812C90.7846 7.964 72.5326 0 52.3545 0C32.1764 0 13.9244 7.964 0.854492 20.812L2.82644 22.704C15.3919 10.34 32.956 2.684 52.3545 2.684ZM52.3545 31.02C64.2321 31.02 74.9173 36.036 82.2089 44L84.3184 42.24C76.5223 33.748 65.1034 28.336 52.4004 28.336C39.6973 28.336 28.2784 33.704 20.4823 42.24L22.5918 44C29.7917 36.036 40.4769 31.02 52.3545 31.02ZM67.5798 11.968L74.0001 13.596L74.8256 10.472L68.2677 8.844C65.1951 8.096 62.3518 8.8 61.3429 12.408L58.4079 23.144C58.2245 23.936 58.6372 24.508 59.371 24.728L61.5264 25.256L63.4524 18.304L71.432 20.328L72.2574 17.248L64.2779 15.224L64.7365 13.596C65.1492 11.88 65.9288 11.572 67.5798 11.968ZM45.6132 6.952L34.5611 9.108C33.7815 9.24 33.3687 9.856 33.5063 10.648L35.8451 21.516C36.6248 25.212 39.4222 26.092 42.5406 25.476L49.2819 24.156L48.594 20.988L42.082 22.264C40.3852 22.616 39.6515 22.264 39.2387 20.46L38.9177 18.876L47.0348 17.292L46.3469 14.168L38.2298 15.752L37.4502 11.88L46.3011 10.12L45.6132 6.952Z" fill="#0B0B0B"/>
</svg>
