<svg width="107" height="29" viewBox="0 0 107 29" fill="none" xmlns="http://www.w3.org/2000/svg">
<g id="Logos 12">
<path d="M22.6241 27.1151L22.7945 26.0918H24.2382L24.0678 27.0522C24.0065 27.4012 24.1046 27.5268 24.4347 27.5268H26.6816C26.9996 27.5268 27.1461 27.4012 27.195 27.0522L27.3784 25.9785C27.4643 25.542 27.3171 25.4186 26.9377 25.33L24.756 24.8307C23.778 24.6186 23.1278 24.2821 23.334 23.0692L23.5424 21.8687C23.5545 21.6183 23.6156 21.373 23.7221 21.1478C23.8286 20.9226 23.9782 20.722 24.1619 20.5584C24.3457 20.3947 24.5596 20.2713 24.7908 20.1957C25.0221 20.12 25.2657 20.0937 25.5071 20.1184H28.0362C29.176 20.1184 29.6101 20.6805 29.4148 21.8687L29.2443 22.8044H27.8115L27.9581 21.9304C28.0194 21.5803 27.9213 21.4558 27.6031 21.4558H25.5082C25.1901 21.4558 25.0436 21.5803 24.9817 21.9304L24.8233 22.8784C24.7505 23.3295 24.8846 23.4529 25.264 23.5281L27.4566 24.0274C28.4226 24.2518 29.0739 24.5895 28.8677 25.7889L28.6473 27.1128C28.6325 27.3642 28.5687 27.6099 28.4599 27.8352C28.3511 28.0606 28.1994 28.2609 28.014 28.4243C27.8286 28.5877 27.6132 28.7107 27.3807 28.7861C27.1482 28.8615 26.9034 28.8877 26.6609 28.8631H23.969C22.8293 28.8631 22.3951 28.3032 22.6013 27.1128" fill="#0B0B0B"/>
<path d="M39.7743 27.5049L39.5572 28.8513H34.0213L35.4324 20.0998H41.0768L40.7512 21.5584H36.735L36.3008 23.6902H39.6657L39.4486 25.0366H36.0837L35.6495 27.5049H39.7743Z" fill="#0B0B0B"/>
<path d="M52.2572 21.842L51.9272 23.7943C51.9029 24.232 51.7273 24.646 51.4325 24.9611C51.1376 25.2762 50.7431 25.4713 50.3207 25.5109L51.3117 28.832H49.7921L48.8011 25.5783H47.0643L46.5021 28.832H45.0367L46.5455 20.0917H50.8765C52.0162 20.0917 52.4504 20.6539 52.255 21.842M50.4206 21.455H47.7938L47.3053 24.2375H49.943C50.261 24.2375 50.3956 24.1129 50.4564 23.7629L50.7744 21.9116C50.8358 21.5739 50.7376 21.4505 50.4195 21.4505" fill="#0B0B0B"/>
<path d="M59.7469 20.0998L58.2272 28.8513H56.8161L58.2272 20.0998H59.7469Z" fill="#0B0B0B"/>
<path d="M69.9503 27.5049L69.7332 28.8513H64.1974L65.6085 20.0998H71.2529L70.9272 21.5584H66.911L66.4768 23.6902H69.8418L69.6247 25.0366H66.2598L65.8256 27.5049H69.9503Z" fill="#0B0B0B"/>
<path d="M75.1604 27.1151L75.3308 26.0918H76.7744L76.604 27.0522C76.5427 27.4012 76.6408 27.5268 76.9709 27.5268H79.2178C79.5358 27.5268 79.6824 27.4012 79.7312 27.0522L79.9147 25.9785C80.0005 25.542 79.8533 25.4186 79.474 25.33L77.2922 24.8307C76.3142 24.6186 75.664 24.2821 75.8702 23.0692L76.0787 21.8687C76.0907 21.6183 76.1518 21.373 76.2583 21.1478C76.3648 20.9226 76.5145 20.722 76.6982 20.5584C76.8819 20.3947 77.0958 20.2713 77.3271 20.1957C77.5583 20.12 77.802 20.0937 78.0433 20.1184H80.5725C81.7122 20.1184 82.1464 20.6805 81.951 21.8687L81.7806 22.8044H80.3478L80.4943 21.9304C80.5549 21.5803 80.4575 21.4558 80.1394 21.4558H78.0444C77.7264 21.4558 77.5798 21.5803 77.5191 21.9304L77.3595 22.8784C77.2868 23.3295 77.4208 23.4529 77.8002 23.5281L79.9928 24.0274C80.9589 24.2518 81.6102 24.5895 81.4039 25.7889L81.1836 27.1128C81.1687 27.3642 81.1049 27.6099 80.9961 27.8352C80.8873 28.0606 80.7356 28.2609 80.5502 28.4243C80.3648 28.5877 80.1494 28.7107 79.9169 28.7861C79.6844 28.8615 79.4397 28.8877 79.1972 28.8631H76.5052C75.3655 28.8631 74.9313 28.3032 75.1376 27.1128" fill="#0B0B0B"/>
<path d="M8.3829 0.913294L5.44131 17.5187H0.94751L3.8891 0.913294H8.3829Z" fill="#0B0B0B"/>
<path d="M21.7557 0.913294H26.2061L23.1668 17.5187H19.4763L15.1344 7.9818L13.5062 17.5187H9.05587L12.0952 0.913294H16.3284L20.2361 9.77697L21.7557 0.913294Z" fill="#0B0B0B"/>
<path d="M29.7882 0.97292H39.6007C41.7499 0.97292 42.6183 2.01636 42.2058 4.19302L40.4148 14.3358C40.3797 14.8048 40.2537 15.2618 40.0444 15.6795C39.8352 16.0973 39.5468 16.4674 39.1965 16.7677C38.8462 17.0681 38.4411 17.2926 38.0052 17.428C37.5693 17.5634 37.1116 17.6069 36.6591 17.5559H26.8466L29.7882 0.97292ZM35.6062 13.8757C35.9405 13.8757 36.0122 13.781 36.0849 13.4494L37.572 5.11305C37.6202 4.78094 37.572 4.68669 37.2377 4.68669H33.6448L32.0166 13.8757H35.6062Z" fill="#0B0B0B"/>
<path d="M52.2569 12.3575L51.28 17.5187H46.8297L47.698 12.3575L44.5502 0.913294H49.3262L50.6288 7.9818L54.5364 0.913294H59.5295L52.2569 12.3575Z" fill="#0B0B0B"/>
<path d="M58.8785 14.3249L60.6695 4.18213C60.7129 3.71226 60.8458 3.25591 61.0606 2.83936C61.2754 2.4228 61.5677 2.05427 61.9208 1.75498C62.2739 1.45568 62.6808 1.23155 63.1181 1.09546C63.5553 0.959372 64.0143 0.914028 64.4686 0.962038H70.8076C72.9569 0.962038 73.771 2.00548 73.3693 4.18213L72.819 7.29003H68.3252L68.7312 5.09094C68.7794 4.75883 68.7074 4.66459 68.373 4.66459H65.4965C65.1861 4.66459 65.0667 4.75928 65.0178 5.09094L63.5307 13.4273C63.4588 13.7594 63.5544 13.8536 63.8651 13.8536H66.7415C67.0769 13.8536 67.1725 13.7589 67.2441 13.4273L67.6273 11.2282H72.1211L71.5696 14.3361C71.5331 14.8046 71.4062 15.2608 71.1964 15.6778C70.9867 16.0948 70.6983 16.4642 70.3483 16.7643C69.9984 17.0644 69.5938 17.289 69.1586 17.425C68.7233 17.561 68.2661 17.6056 67.8139 17.5562H61.4749C59.3257 17.5562 58.479 16.5127 58.8698 14.3361" fill="#0B0B0B"/>
<path d="M83.4097 14.0997H78.6446L77.1901 17.5106H72.4792L80.3704 0.905196H86.2536L88.316 17.5106H83.6485L83.4097 14.0997ZM83.146 10.543L82.7161 4.55165L80.1544 10.543H83.146Z" fill="#0B0B0B"/>
<path d="M105.879 4.11461L105.113 8.42303C105.066 9.18921 104.768 9.9162 104.269 10.4849C103.77 11.0536 103.099 11.4303 102.366 11.5534L104.19 17.4774H99.8372L98.0245 11.9348H96.1358L95.1546 17.4774H90.6608L93.6024 0.87207H103.296C105.445 0.87207 106.313 1.91552 105.901 4.09217M100.235 8.40059C100.545 8.40059 100.664 8.30589 100.737 7.97424L101.264 4.88878C101.336 4.55779 101.264 4.46242 100.953 4.46242H97.4796L96.7621 8.40059H100.235Z" fill="#0B0B0B"/>
<path d="M105.987 17.4662C105.731 17.4664 105.485 17.3633 105.301 17.179C105.213 17.0885 105.143 16.9805 105.096 16.8615C104.997 16.6035 104.997 16.3161 105.096 16.0581C105.143 15.9391 105.213 15.8311 105.301 15.7406C105.485 15.5564 105.731 15.4534 105.987 15.4534C106.116 15.4526 106.244 15.4791 106.363 15.5311C106.477 15.5804 106.58 15.6516 106.669 15.741C106.757 15.8314 106.827 15.9394 106.874 16.0585C106.972 16.3166 106.972 16.6037 106.874 16.8618C106.827 16.9809 106.757 17.0889 106.669 17.1793C106.58 17.2687 106.477 17.3399 106.363 17.3891C106.244 17.4412 106.116 17.467 105.987 17.4662ZM105.987 17.3042C106.093 17.3058 106.199 17.2839 106.296 17.24C106.389 17.1982 106.472 17.1384 106.543 17.0639C106.614 16.9873 106.669 16.8969 106.706 16.798C106.746 16.6903 106.765 16.5756 106.764 16.4603C106.765 16.3468 106.745 16.2341 106.706 16.1282C106.668 16.0294 106.613 15.9391 106.543 15.8622C106.473 15.7874 106.389 15.7276 106.296 15.6861C106.199 15.6415 106.093 15.6193 105.987 15.621C105.883 15.6203 105.78 15.6412 105.684 15.6827C105.588 15.7242 105.502 15.7852 105.429 15.8622C105.358 15.9386 105.302 16.0291 105.265 16.1282C105.226 16.2341 105.206 16.3468 105.207 16.4603C105.205 16.5756 105.225 16.6903 105.265 16.798C105.302 16.8973 105.357 16.9878 105.429 17.0639C105.501 17.1413 105.588 17.2027 105.684 17.2442C105.78 17.2857 105.883 17.3055 105.987 17.3042ZM105.56 15.9251H106.068C106.165 15.9228 106.26 15.9502 106.342 16.0037C106.38 16.0293 106.411 16.0648 106.431 16.1065C106.451 16.1483 106.461 16.1949 106.458 16.2416C106.462 16.2979 106.447 16.3539 106.415 16.4001C106.384 16.4462 106.338 16.4798 106.286 16.4952V16.5036C106.325 16.5136 106.361 16.5371 106.386 16.5703C106.409 16.6052 106.426 16.6445 106.434 16.6859C106.445 16.7451 106.45 16.8052 106.451 16.8654C106.451 16.9212 106.46 16.9542 106.483 16.9652V16.9896H106.185C106.172 16.9821 106.163 16.9516 106.159 16.8992C106.155 16.846 106.149 16.7953 106.141 16.7443C106.14 16.7256 106.135 16.7072 106.127 16.6904C106.119 16.6736 106.108 16.6587 106.094 16.6466C106.08 16.6346 106.064 16.6257 106.046 16.6205C106.029 16.6153 106.01 16.6139 105.992 16.6164H105.868V16.9901H105.561L105.56 15.9251ZM106.02 16.3952C106.111 16.3952 106.156 16.358 106.156 16.283C106.156 16.2086 106.111 16.1708 106.02 16.1708H105.867V16.3952H106.02Z" fill="#0B0B0B"/>
</g>
</svg>
