<svg width="65" height="17" viewBox="0 0 65 17" fill="none" xmlns="http://www.w3.org/2000/svg">
<g id="Logos 07">
<g id="Group">
<path id="Vector" d="M44.5925 0.43729H21.1657C18.769 0.429649 17.1813 1.69674 16.9523 3.58965C16.8683 4.28426 16.792 4.90253 16.792 4.90253H48.0035C48.0035 4.90253 48.057 4.43691 48.1104 4.07052C48.3475 2.16237 47.5383 0.437363 44.5919 0.437363" fill="#EF2E31"/>
<path id="Vector_2" d="M2.11815 0.435791H16.2774L15.7202 4.90096H1.56836L2.11795 0.435791H2.11815Z" fill="#EF2E31"/>
<path id="Vector_3" d="M1.35653 6.6001H15.5084L15.058 10.2946H6.1883L5.9593 12.1113H14.8214L14.3023 16.3399H0.143066L1.35673 6.60027L1.35653 6.6001Z" fill="#EF2E31"/>
<path id="Vector_4" d="M49.6327 0.437256H61.1738C63.0057 0.437256 64.8986 1.28453 64.5247 4.21562C64.456 4.7423 64.4407 4.90261 64.4407 4.90261H49.083L49.6326 0.437434L49.6327 0.437256Z" fill="#EF2E31"/>
<path id="Vector_5" d="M47.7925 6.6001C47.7925 6.6001 47.7238 7.23364 47.6322 7.91298C47.4414 9.27931 46.4262 10.2947 44.5409 10.2947H37.8924L37.1444 16.3402H31.8472L33.0532 6.60052H47.7927L47.7925 6.6001Z" fill="#EF2E31"/>
<path id="Vector_6" d="M48.8688 6.59839H54.166L52.9523 16.3304L47.6626 16.3381L48.8686 6.59841L48.8688 6.59839Z" fill="#EF2E31"/>
<path id="Vector_7" d="M28.2075 6.60198H16.5829C16.186 9.14376 17.4607 10.2889 19.2621 10.2889H26.422L26.2007 12.1132H15.896L15.377 16.3342C15.377 16.3342 26.5899 16.3418 27.0402 16.3342C27.4142 16.3113 30.0401 16.235 30.9331 14.0899C31.2308 13.3953 31.4827 10.8993 31.559 10.3727C31.9712 7.32709 29.8721 6.60181 28.2081 6.60181" fill="#EF2E31"/>
<path id="Vector_8" d="M58.9243 6.59839H64.214L63.008 16.3304L57.7183 16.3381L58.9243 6.59839Z" fill="#EF2E31"/>
</g>
</g>
</svg>
