<svg xmlns="http://www.w3.org/2000/svg" width="56" height="25" viewBox="0 0 56 25" fill="none">
  <path d="M12.2938 17.1025C11.7795 17.5105 11.1673 17.7265 10.5796 17.6785C9.89393 17.6065 9.45315 17.3185 8.81646 16.5265L5.48609 12.4945L3.99233 13.6945L7.64104 18.0865C8.40016 18.9985 9.28173 19.5025 10.2857 19.5745C11.4367 19.6705 12.4407 19.3345 13.4692 18.5425C14.4732 17.7505 15.0119 16.8385 15.1588 15.7105C15.2568 14.7265 14.9629 13.7905 14.2038 12.8785L10.5551 8.46247L9.08583 9.63847L12.4162 13.6705C13.0774 14.4625 13.2488 14.9185 13.1998 15.6145C13.1508 16.1425 12.808 16.6945 12.2938 17.1025ZM46.8953 21.3505L49.6624 11.9185C49.7604 11.5825 49.8093 11.2465 49.3441 10.9105L48.9767 10.6225C48.536 10.2865 48.1931 10.4065 47.8993 10.5985L39.5244 15.9265L41.2875 16.9105L47.336 13.0705L46.381 16.3105L45.5974 15.7105L44.0057 16.7425L45.8668 18.1345L45.328 19.9585L46.8953 21.3505ZM28.2109 1.69447C38.5694 1.69447 47.9482 5.87047 54.6335 12.6145L55.7109 11.5825C48.7319 4.57447 38.9856 0.230469 28.2109 0.230469C17.4362 0.230469 7.69001 4.57447 0.710938 11.5825L1.76392 12.6145C8.47363 5.87047 17.8525 1.69447 28.2109 1.69447ZM28.2109 17.1505C34.5533 17.1505 40.259 19.8865 44.1526 24.2305L45.2791 23.2705C41.1161 18.6385 35.0186 15.6865 28.2354 15.6865C21.4523 15.6865 15.3547 18.6145 11.1918 23.2705L12.3182 24.2305C16.1629 19.8865 21.8686 17.1505 28.2109 17.1505ZM36.341 6.75847L39.7693 7.64647L40.21 5.94247L36.7083 5.05447C35.0676 4.64647 33.5493 5.03047 33.0106 6.99847L31.4434 12.8545C31.3454 13.2865 31.5658 13.5985 31.9576 13.7185L33.1085 14.0065L34.137 10.2145L38.3979 11.3185L38.8387 9.63847L34.5778 8.53447L34.8227 7.64647C35.0431 6.71047 35.4594 6.54247 36.341 6.75847ZM24.6112 4.02247L18.7096 5.19847C18.2933 5.27047 18.0729 5.60647 18.1464 6.03847L19.3953 11.9665C19.8116 13.9825 21.3053 14.4625 22.9705 14.1265L26.5702 13.4065L26.2029 11.6785L22.7256 12.3745C21.8196 12.5665 21.4278 12.3745 21.2074 11.3905L21.036 10.5265L25.3703 9.66247L25.003 7.95847L20.6686 8.82247L20.2523 6.71047L24.9785 5.75047L24.6112 4.02247Z" fill="#0B0B0B"/>
</svg>