<svg xmlns="http://www.w3.org/2000/svg" width="48" height="36" viewBox="0 0 48 36" fill="none">
<g clip-path="url(#clip0_421_5791)">
<path d="M39.2967 30.1981C38.833 31.181 37.6594 31.5978 36.6783 31.1358C28.8247 27.4358 19.4378 27.4172 8.77629 31.0802C7.75114 31.4342 6.62941 30.8888 6.27506 29.8672C5.92071 28.8456 6.46392 27.7275 7.49372 27.3731C19.1576 23.3633 29.5427 23.4341 38.3573 27.5842C39.3384 28.0461 39.7603 29.2152 39.2967 30.1981Z" fill="white"/>
<path d="M42.2195 21.2656C41.6314 22.4916 40.1676 23.0098 38.9386 22.4291C29.9473 18.1668 16.923 18.0512 7.26701 22.1408C6.01597 22.669 4.57053 22.0881 4.03682 20.8419C3.50776 19.5952 4.09153 18.154 5.34256 17.6258C16.3754 12.9522 30.7249 13.099 41.0545 17.9959C42.2789 18.5771 42.8029 20.0401 42.219 21.2609L42.2195 21.2656Z" fill="white"/>
<path d="M41.5988 12.3574C30.8359 7.45543 14.0857 8.69656 4.74014 12.6543C3.23713 13.2894 1.50653 12.5937 0.870529 11.096C0.234529 9.59818 0.933583 7.87261 2.43609 7.23297C13.159 2.69587 31.6635 1.36477 44.0531 7.00171C45.5369 7.67696 46.1858 9.42654 45.5115 10.9009C44.8331 12.3805 43.078 13.0332 41.5988 12.3574Z" fill="white"/>
</g>
<defs>
<clipPath id="clip0_421_5791">
<rect width="44.9491" height="29.6834" fill="white" transform="translate(0.140625 5.49658) rotate(-6.13053)"/>
</clipPath>
</defs>
</svg>