<svg xmlns="http://www.w3.org/2000/svg" width="36" height="36" viewBox="0 0 36 36" fill="none">
<g clip-path="url(#clip0_421_5785)">
<path d="M19.8804 15.2023C20.3799 14.6383 20.7894 14.0697 21.3024 13.5869C22.8774 12.0978 24.7404 11.3487 26.9184 11.3668C28.1154 11.3758 29.2944 11.4615 30.4464 11.7955C33.0834 12.558 34.6134 14.3811 35.3469 16.9622C35.8959 18.898 35.9949 20.888 35.9994 22.8824C36.0084 27.088 35.9859 31.2981 35.9994 35.5037C35.9994 35.8962 35.8914 36 35.5044 36C33.3444 35.982 31.1799 35.982 29.0199 36C28.6374 36 28.5564 35.8872 28.5564 35.5262C28.5699 31.5237 28.5699 27.5212 28.5564 23.5142C28.5564 22.5124 28.4889 21.5062 28.2099 20.5315C27.6924 18.7355 26.4099 17.8195 24.5334 17.9188C21.9684 18.0542 20.6364 19.3267 20.3124 21.9393C20.2359 22.5621 20.1954 23.1893 20.1999 23.8165C20.1999 27.7107 20.1999 31.6049 20.2089 35.4991C20.2089 35.8872 20.1144 36 19.7184 36C17.5404 35.982 15.3624 35.982 13.1844 36C12.8334 36 12.7344 35.9098 12.7344 35.5533C12.7434 27.8461 12.7434 20.1344 12.7344 12.4272C12.7344 12.0436 12.8604 11.9579 13.2204 11.9579C15.2859 11.9714 17.3559 11.9759 19.4214 11.9579C19.8039 11.9579 19.8984 12.0797 19.8939 12.4407C19.8714 13.3613 19.8849 14.2818 19.8849 15.2068L19.8804 15.2023Z" fill="#FEFEFE"/>
<path d="M8.03581 24.0105C8.03581 27.8235 8.03131 31.6365 8.04481 35.4495C8.04481 35.8737 7.94131 36 7.50481 35.9955C5.34481 35.9729 3.18481 35.9774 1.02031 35.9955C0.673813 35.9955 0.570312 35.9098 0.570312 35.5533C0.579312 27.8325 0.579312 20.1118 0.570312 12.3866C0.570312 12.0662 0.646813 11.9534 0.984313 11.9534C3.17581 11.9669 5.36731 11.9714 7.55881 11.9534C7.98181 11.9534 8.03581 12.1113 8.03581 12.4768C8.02681 16.3214 8.03131 20.166 8.03131 24.0105H8.03581Z" fill="#FEFEFE"/>
<path d="M8.63103 4.30484C8.63103 6.70093 6.69603 8.65029 4.31103 8.65029C1.96203 8.6548 0.00903098 6.70093 3.09818e-05 4.34545C-0.00896902 1.95839 1.94403 0 4.32453 0C6.68703 0 8.63103 1.94485 8.63553 4.30484H8.63103Z" fill="#FEFEFE"/>
</g>
<defs>
<clipPath id="clip0_421_5785">
<rect width="36" height="36" fill="white"/>
</clipPath>
</defs>
</svg>