<svg xmlns="http://www.w3.org/2000/svg" width="41" height="41" viewBox="0 0 41 41" fill="none">
<g clip-path="url(#clip0_421_5781)">
<path d="M28.4468 41H12.5532C5.63289 41 0 35.3671 0 28.4468V12.5532C0 5.63289 5.63289 0 12.5532 0H28.4468C35.3671 0 41 5.63289 41 12.5532V28.4468C41 35.3671 35.3671 41 28.4468 41ZM12.5532 3.0677C7.32228 3.0677 3.0677 7.32228 3.0677 12.5532V28.4468C3.0677 33.6729 7.32228 37.9275 12.5484 37.9275H28.442C33.6729 37.9275 37.9227 33.6729 37.9227 28.4468V12.5532C37.9227 7.32707 33.6681 3.07249 28.442 3.07249H12.5532V3.0677Z" fill="white"/>
<path d="M20.4958 30.8684C14.7768 30.8684 10.125 26.2166 10.125 20.4976C10.125 14.7785 14.7768 10.1267 20.4958 10.1267C26.2149 10.1267 30.8667 14.7785 30.8667 20.4976C30.8667 26.2166 26.2149 30.8684 20.4958 30.8684ZM20.4958 13.271C16.5093 13.271 13.2693 16.511 13.2693 20.4976C13.2693 24.4841 16.5093 27.7241 20.4958 27.7241C24.4824 27.7241 27.7224 24.4841 27.7224 20.4976C27.7224 16.511 24.4824 13.271 20.4958 13.271Z" fill="white"/>
<path d="M34.6953 9.00217C34.6953 10.4953 33.4845 11.7014 31.9961 11.7014C30.5077 11.7014 29.2969 10.4906 29.2969 9.00217C29.2969 7.51379 30.5077 6.30298 31.9961 6.30298C33.4845 6.30298 34.6953 7.51379 34.6953 9.00217Z" fill="white"/>
</g>
<defs>
<clipPath id="clip0_421_5781">
<rect width="41" height="41" fill="white"/>
</clipPath>
</defs>
</svg>