<svg width="31" height="31" viewBox="0 0 31 31" fill="none" xmlns="http://www.w3.org/2000/svg">
<path d="M28.8081 31L24.072 26.2639C23.4196 26.6814 22.7281 27.0402 21.9975 27.3403C21.2668 27.6404 20.5101 27.8817 19.7273 28.0644V24.8548C20.0926 24.7243 20.4514 24.5939 20.8037 24.4634C21.1559 24.3329 21.4886 24.1763 21.8018 23.9937L16.596 18.7879V26.9293L8.76768 19.101H2.50505V9.70707H7.51515L0 2.19192L2.19192 0L31 28.8081L28.8081 31ZM28.4949 21.9192L26.2247 19.649C26.6684 18.8401 27.0011 17.992 27.2229 17.1048C27.4447 16.2176 27.5556 15.3043 27.5556 14.3649C27.5556 11.912 26.838 9.72012 25.4028 7.78914C23.9676 5.85816 22.0758 4.55345 19.7273 3.875V0.665404C22.963 1.39604 25.5985 3.03346 27.6338 5.57765C29.6692 8.12184 30.6869 11.0509 30.6869 14.3649C30.6869 15.7479 30.4977 17.0787 30.1193 18.3573C29.7409 19.6359 29.1995 20.8232 28.4949 21.9192ZM23.25 16.6742L19.7273 13.1515V8.06313C20.9537 8.63721 21.9127 9.49832 22.6042 10.6465C23.2957 11.7946 23.6414 13.0471 23.6414 14.404C23.6414 14.7955 23.6088 15.1803 23.5436 15.5587C23.4783 15.9371 23.3805 16.3089 23.25 16.6742ZM16.596 10.0202L12.5253 5.9495L16.596 1.87879V10.0202Z" fill="#E5FF00"/>
</svg>
