<svg width="23" height="22" viewBox="0 0 23 22" fill="none" xmlns="http://www.w3.org/2000/svg">
<g id="Group">
<path id="Vector" d="M10.6165 0.0127228C4.80636 0.28937 0.221316 5.12812 0.238942 10.9449C0.244309 12.7165 0.672013 14.3887 1.42651 15.8662L0.268091 21.4893C0.205427 21.7935 0.479759 22.0598 0.781925 21.9883L6.29188 20.6828C7.70748 21.388 9.29749 21.7953 10.9803 21.8209C16.9188 21.9116 21.8705 17.1963 22.0556 11.2599C22.254 4.89657 17.0022 -0.291389 10.6165 0.0127228ZM17.1911 16.9522C15.5775 18.5659 13.432 19.4545 11.15 19.4545C9.8138 19.4545 8.53452 19.1547 7.34759 18.5635L6.58026 18.1813L3.20209 18.9816L3.91318 15.5298L3.53514 14.7895C2.91897 13.5828 2.60655 12.2779 2.60655 10.9111C2.60655 8.62904 3.49521 6.48363 5.10884 4.86994C6.70806 3.27072 8.88852 2.36759 11.1502 2.36759C13.4322 2.36765 15.5775 3.25631 17.1911 4.86989C18.8048 6.48353 19.6934 8.62894 19.6935 10.9109C19.6934 13.1726 18.7903 15.3531 17.1911 16.9522Z" fill="#0B0B0B"/>
<path id="Vector_2" d="M16.4459 13.2775L14.3324 12.6706C14.0545 12.5909 13.7553 12.6697 13.5529 12.876L13.036 13.4026C12.8181 13.6246 12.4874 13.6959 12.199 13.5792C11.1992 13.1746 9.09608 11.3047 8.55899 10.3694C8.40404 10.0996 8.42967 9.76226 8.61992 9.51607L9.07114 8.93232C9.24793 8.7036 9.28523 8.39644 9.16832 8.13205L8.27914 6.12096C8.06615 5.63927 7.45062 5.49906 7.04848 5.83916C6.45862 6.33805 5.75874 7.09617 5.67366 7.93606C5.52366 9.41684 6.15872 11.2835 8.5602 13.5249C11.3346 16.1143 13.5563 16.4564 15.0028 16.106C15.8233 15.9073 16.479 15.1106 16.8928 14.4583C17.1749 14.0135 16.9521 13.4229 16.4459 13.2775Z" fill="#0B0B0B"/>
</g>
</svg>
