<svg width="47" height="47" viewBox="0 0 47 47" fill="none" xmlns="http://www.w3.org/2000/svg">
<g id="Group 5743">
<path id="Union" d="M36.3913 0.252532C36.2667 -0.0841772 35.7904 -0.0841774 35.6658 0.252532L32.9305 7.64482C32.8913 7.75069 32.8078 7.83415 32.702 7.87332L25.3097 10.6087C24.973 10.7333 24.973 11.2095 25.3097 11.3341L32.702 14.0695C32.8078 14.1087 32.8913 14.1922 32.9305 14.298L35.6658 21.6903C35.7904 22.027 36.2667 22.027 36.3913 21.6903L39.1267 14.298C39.1658 14.1922 39.2493 14.1087 39.3552 14.0695L46.7475 11.3341C47.0842 11.2095 47.0842 10.7333 46.7475 10.6087L39.3552 7.87332C39.2493 7.83415 39.1658 7.75069 39.1267 7.64482L36.3913 0.252532Z" fill="#E5FF00"/>
<path id="Vector 57" d="M46 21.625V46H1V1H25.5455" stroke="#E5FF00" stroke-width="2"/>
</g>
</svg>
