<svg xmlns="http://www.w3.org/2000/svg" width="118" height="20" viewBox="0 0 118 20" fill="none">
  <path d="M34.1296 0.472168L28.7109 19.508H32.4729L35.5758 8.72637L37.4041 19.508H41.0814L46.4795 0.472168H42.7175L39.6581 11.2136L37.8526 0.472168H34.1296ZM51.3879 0.472168L47.8822 3.0844L43.2072 19.508H46.9692L48.5847 13.8057H53.3237L51.7082 19.508H55.4496L60.1245 3.10673L58.1475 0.472168H51.3879ZM65.7743 0.472168L62.2458 3.10673L60.525 9.03671L62.5021 11.774H68.2411L67.0718 15.8799H62.3327L62.9071 13.9307H59.1429L58.3351 16.793L60.3762 19.5102H67.0283L70.5774 16.8354L72.257 10.8429L70.2593 8.12578H64.5432L65.6919 4.06231H70.4104L69.836 6.05386H73.6186L74.4675 3.10896L72.511 0.474399H65.7743V0.472168ZM80.1402 0.472168L76.591 3.10673L72.6804 16.8131L74.7421 19.508H81.3942L84.9433 16.8131L86.0485 12.935H82.2866L81.4376 15.8799H76.7215L80.1013 4.03998H84.7991L83.9708 7.02507H87.7121L88.838 3.10673L86.9044 0.472168H80.1402ZM94.4854 0.472168L90.9569 3.10673L86.3025 19.508H90.0645L91.68 13.8057H96.419L94.7829 19.508H98.5449L103.199 3.0844L101.222 0.472168H94.4854ZM106.131 0.472168L100.712 19.508H104.474L106.089 13.8057H109.149L109.851 19.508H113.529L112.721 13.0176L115.357 10.9233L117.588 3.10673L115.611 0.472168H106.131ZM51.3444 4.03775H56.0834L54.342 10.1955H49.603L51.3444 4.03775ZM94.442 4.03775H99.181L97.4373 10.1955H92.6983L94.442 4.03775ZM108.851 4.03775H113.57L111.805 10.1955H107.11L108.851 4.03775Z" fill="black"/>
  <path d="M32.0732 0.472168H24.5905L19.1719 19.5057H26.6523L32.0732 0.472168Z" fill="#007AC2"/>
  <path d="M13.8361 0.472168L8.39453 19.528H12.0283L17.4264 0.472168H13.8361ZM18.9161 0.472168L13.4768 19.528H17.1083L22.5064 0.472168H18.9161Z" fill="#E4002B"/>
  <path d="M5.84606 0.472168L0.429688 19.528H2.68136L8.07943 0.472168H5.84606ZM9.54393 0.472168L4.12527 19.528H6.37694L11.775 0.472168H9.54393Z" fill="#FFD659"/>
</svg>