<svg width="82" height="22" viewBox="0 0 82 22" fill="none" xmlns="http://www.w3.org/2000/svg">
<g id="Logos 12">
<path d="M17.5154 20.4127L17.6456 19.6453H18.7488L18.6186 20.3656C18.5717 20.6273 18.6467 20.7215 18.8989 20.7215H20.6159C20.8589 20.7215 20.9709 20.6273 21.0082 20.3656L21.1484 19.5603C21.214 19.2329 21.1015 19.1404 20.8116 19.0739L19.1444 18.6994C18.3971 18.5404 17.9002 18.288 18.0578 17.3783L18.2171 16.4779C18.2263 16.2901 18.273 16.1062 18.3544 15.9373C18.4358 15.7683 18.5501 15.618 18.6905 15.4952C18.8309 15.3725 18.9944 15.2799 19.1711 15.2232C19.3478 15.1665 19.534 15.1467 19.7184 15.1652H21.651C22.522 15.1652 22.8537 15.5868 22.7044 16.4779L22.5742 17.1797H21.4793L21.5913 16.5242C21.6382 16.2616 21.5632 16.1682 21.3201 16.1682H19.7192C19.4762 16.1682 19.3642 16.2616 19.317 16.5242L19.1959 17.2352C19.1403 17.5735 19.2427 17.6661 19.5326 17.7225L21.2081 18.0969C21.9463 18.2652 22.444 18.5185 22.2864 19.4181L22.118 20.411C22.1066 20.5996 22.0579 20.7838 21.9748 20.9528C21.8916 21.1218 21.7757 21.2721 21.634 21.3946C21.4923 21.5172 21.3278 21.6095 21.1501 21.666C20.9725 21.7226 20.7854 21.7422 20.6001 21.7237H18.5431C17.6721 21.7237 17.3404 21.3038 17.498 20.411" fill="#0B0B0B"/>
<path d="M30.6207 20.7051L30.4548 21.7149H26.2246L27.3029 15.1513H31.616L31.3672 16.2452H28.2982L27.9664 17.8441H30.5377L30.3718 18.8538H27.8005L27.4687 20.7051H30.6207Z" fill="#0B0B0B"/>
<path d="M40.1595 16.458L39.9073 17.9221C39.8888 18.2504 39.7546 18.5609 39.5293 18.7973C39.304 19.0336 39.0025 19.1799 38.6798 19.2096L39.437 21.7004H38.2758L37.5185 19.2601H36.1914L35.7617 21.7004H34.642L35.7949 15.1452H39.1044C39.9754 15.1452 40.3071 15.5668 40.1578 16.458M38.7561 16.1676H36.7488L36.3755 18.2545H38.3911C38.6341 18.2545 38.737 18.1611 38.7834 17.8986L39.0265 16.5101C39.0733 16.2568 38.9983 16.1643 38.7552 16.1643" fill="#0B0B0B"/>
<path d="M45.8828 15.1513L44.7215 21.7149H43.6432L44.7215 15.1513H45.8828Z" fill="#0B0B0B"/>
<path d="M53.6797 20.7051L53.5138 21.7149H49.2836L50.3619 15.1513H54.6751L54.4262 16.2452H51.3573L51.0255 17.8441H53.5968L53.4309 18.8538H50.8596L50.5278 20.7051H53.6797Z" fill="#0B0B0B"/>
<path d="M57.661 20.4127L57.7912 19.6453H58.8944L58.7642 20.3656C58.7173 20.6273 58.7923 20.7215 59.0445 20.7215H60.7615C61.0045 20.7215 61.1165 20.6273 61.1538 20.3656L61.294 19.5603C61.3596 19.2329 61.2471 19.1404 60.9572 19.0739L59.29 18.6994C58.5427 18.5404 58.0459 18.288 58.2035 17.3783L58.3627 16.4779C58.3719 16.2901 58.4186 16.1062 58.5 15.9373C58.5814 15.7683 58.6957 15.618 58.8361 15.4952C58.9765 15.3725 59.14 15.2799 59.3167 15.2232C59.4934 15.1665 59.6796 15.1467 59.864 15.1652H61.7966C62.6676 15.1652 62.9994 15.5868 62.8501 16.4779L62.7198 17.1797H61.625L61.7369 16.5242C61.7832 16.2616 61.7088 16.1682 61.4657 16.1682H59.8648C59.6218 16.1682 59.5098 16.2616 59.4634 16.5242L59.3415 17.2352C59.2859 17.5735 59.3883 17.6661 59.6782 17.7225L61.3537 18.0969C62.0919 18.2652 62.5896 18.5185 62.432 19.4181L62.2636 20.411C62.2523 20.5996 62.2035 20.7838 62.1204 20.9528C62.0372 21.1218 61.9213 21.2721 61.7796 21.3946C61.638 21.5172 61.4734 21.6095 61.2957 21.666C61.1181 21.7226 60.931 21.7422 60.7457 21.7237H58.6887C57.8178 21.7237 57.486 21.3038 57.6436 20.411" fill="#0B0B0B"/>
<path d="M6.63293 0.761386L4.38511 13.2154H0.951172L3.19899 0.761386H6.63293Z" fill="#0B0B0B"/>
<path d="M16.8518 0.761386H20.2526L17.9301 13.2154H15.1099L11.7921 6.06276L10.5479 13.2154H7.14718L9.46965 0.761386H12.7045L15.6906 7.40914L16.8518 0.761386Z" fill="#0B0B0B"/>
<path d="M22.9898 0.806106H30.488C32.1304 0.806106 32.7939 1.58869 32.4787 3.22118L31.1101 10.8282C31.0833 11.18 30.9871 11.5227 30.8271 11.8361C30.6672 12.1494 30.4469 12.4269 30.1792 12.6522C29.9115 12.8775 29.6019 13.0459 29.2688 13.1474C28.9358 13.2489 28.586 13.2816 28.2402 13.2433H20.742L22.9898 0.806106ZM27.4357 10.4832C27.6911 10.4832 27.7459 10.4122 27.8014 10.1635L28.9378 3.9112C28.9746 3.66212 28.9378 3.59143 28.6823 3.59143H25.9368L24.6926 10.4832H27.4357Z" fill="#0B0B0B"/>
<path d="M40.1593 9.34457L39.4128 13.2154H36.0121L36.6756 9.34457L34.2702 0.761386H37.9198L38.9151 6.06276L41.9012 0.761386H45.7167L40.1593 9.34457Z" fill="#0B0B0B"/>
<path d="M45.2192 10.8201L46.5878 3.21302C46.621 2.86061 46.7225 2.51835 46.8866 2.20593C47.0508 1.89352 47.2741 1.61712 47.544 1.39265C47.8138 1.16818 48.1247 1.00008 48.4589 0.89801C48.793 0.795945 49.1437 0.761937 49.4909 0.797944H54.3349C55.9772 0.797944 56.5993 1.58053 56.2924 3.21302L55.8718 5.54394H52.4379L52.7481 3.89462C52.7849 3.64554 52.7299 3.57486 52.4744 3.57486H50.2763C50.0391 3.57486 49.9479 3.64588 49.9106 3.89462L48.7742 10.1469C48.7192 10.396 48.7923 10.4666 49.0297 10.4666H51.2277C51.484 10.4666 51.557 10.3956 51.6118 10.1469L51.9046 8.49756H55.3385L54.9171 10.8285C54.8892 11.1798 54.7922 11.522 54.6319 11.8348C54.4717 12.1475 54.2513 12.4246 53.9839 12.6496C53.7164 12.8747 53.4073 13.0432 53.0747 13.1452C52.7421 13.2472 52.3928 13.2806 52.0472 13.2436H47.2032C45.5609 13.2436 44.9139 12.461 45.2125 10.8285" fill="#0B0B0B"/>
<path d="M63.9648 10.6512H60.3235L59.212 13.2093H55.6122L61.6423 0.755313H66.1379L67.7139 13.2093H64.1472L63.9648 10.6512ZM63.7632 7.9837L63.4347 3.49015L61.4772 7.9837H63.7632Z" fill="#0B0B0B"/>
<path d="M81.1346 3.16237L80.549 6.39369C80.5131 6.96832 80.2859 7.51356 79.9047 7.9401C79.5234 8.36663 79.0107 8.64917 78.4505 8.74144L79.844 13.1845H76.5179L75.1327 9.02755H73.6894L72.9396 13.1845H69.5057L71.7535 0.730469H79.1605C80.8028 0.730469 81.4664 1.51306 81.1512 3.14554M76.8214 6.37686C77.0587 6.37686 77.1499 6.30584 77.2055 6.05709L77.6078 3.743C77.6628 3.49476 77.6078 3.42323 77.3705 3.42323H74.7163L74.168 6.37686H76.8214Z" fill="#0B0B0B"/>
<path d="M81.2172 13.1761C81.0215 13.1762 80.8335 13.0989 80.693 12.9607C80.6254 12.8928 80.5721 12.8118 80.5362 12.7225C80.4603 12.5291 80.4603 12.3135 80.5362 12.12C80.5721 12.0307 80.6254 11.9497 80.693 11.8819C80.8335 11.7437 81.0215 11.6664 81.2172 11.6665C81.3158 11.6659 81.4134 11.6857 81.5042 11.7248C81.5913 11.7617 81.6707 11.8151 81.7381 11.8821C81.8057 11.95 81.859 12.031 81.8949 12.1203C81.9699 12.3139 81.9699 12.5292 81.8949 12.7228C81.859 12.8121 81.8057 12.8931 81.7381 12.9609C81.6707 13.0279 81.5913 13.0813 81.5042 13.1183C81.4134 13.1573 81.3158 13.1767 81.2172 13.1761ZM81.2172 13.0546C81.2985 13.0557 81.3791 13.0393 81.4536 13.0064C81.5241 12.975 81.588 12.9302 81.6419 12.8743C81.696 12.8169 81.7383 12.7491 81.7663 12.6749C81.7968 12.5941 81.8119 12.5081 81.8107 12.4216C81.8116 12.3365 81.7965 12.252 81.7663 12.1725C81.738 12.0985 81.6957 12.0308 81.6419 11.9731C81.5882 11.917 81.5243 11.8721 81.4536 11.841C81.3792 11.8076 81.2986 11.7909 81.2172 11.7922C81.1378 11.7916 81.0591 11.8073 80.9858 11.8384C80.9125 11.8695 80.8462 11.9153 80.7909 11.9731C80.7364 12.0304 80.6938 12.0982 80.6656 12.1725C80.6354 12.252 80.6203 12.3365 80.6212 12.4216C80.62 12.5081 80.6351 12.5941 80.6656 12.6749C80.6935 12.7494 80.7361 12.8173 80.7909 12.8743C80.846 12.9324 80.9123 12.9784 80.9856 13.0095C81.0589 13.0407 81.1377 13.0555 81.2172 13.0546ZM80.8912 12.0202H81.2794C81.3533 12.0185 81.426 12.039 81.4884 12.0792C81.5174 12.0984 81.5408 12.125 81.5564 12.1563C81.572 12.1876 81.5792 12.2226 81.5772 12.2576C81.5801 12.2999 81.5686 12.3418 81.5445 12.3765C81.5205 12.4111 81.4855 12.4363 81.4453 12.4478V12.4541C81.4757 12.4616 81.5028 12.4792 81.5222 12.5042C81.5399 12.5303 81.5525 12.5598 81.559 12.5908C81.5669 12.6353 81.5711 12.6803 81.5715 12.7255C81.5715 12.7673 81.579 12.792 81.5959 12.8003V12.8186H81.3687C81.3586 12.813 81.3518 12.7901 81.3487 12.7508C81.3455 12.7109 81.3412 12.6729 81.3349 12.6347C81.3342 12.6206 81.3307 12.6068 81.3245 12.5942C81.3183 12.5816 81.3095 12.5704 81.2989 12.5614C81.2882 12.5524 81.2758 12.5457 81.2624 12.5418C81.249 12.5379 81.235 12.5369 81.2213 12.5387H81.1259V12.819H80.892L80.8912 12.0202ZM81.2421 12.3728C81.3121 12.3728 81.3466 12.3449 81.3466 12.2887C81.3466 12.2329 81.3123 12.2045 81.2421 12.2045H81.1251V12.3728H81.2421Z" fill="#0B0B0B"/>
</g>
</svg>
