<svg width="30" height="30" viewBox="0 0 30 30" fill="none" xmlns="http://www.w3.org/2000/svg">
<g id="Logos 10">
<path d="M29.8122 7.11072V13.4972L28.0796 15.2305L29.8122 16.9638V29.7305H0.818359V16.97L2.55091 15.2367L0.818359 13.5034V0.730469H29.8184V7.11072H29.8122ZM2.22179 12.8821L4.57532 15.2367L2.22179 17.5912V28.3389H28.4025V17.5912L26.049 15.2367L28.4025 12.8821V2.1345H2.22179V12.8821Z" fill="#0B0B0B"/>
<path d="M12.7287 6.3901L13.6416 7.30334V11.6521L11.8221 13.4724H6.966V5.47065H11.8221L12.7287 6.3901ZM8.37563 12.0683H11.2197L11.6855 11.5651L12.1512 11.0681V7.8811L11.2073 6.87467H8.37563V12.0683Z" fill="#0B0B0B"/>
<path d="M22.6772 9.47149C23.5839 11.6583 24.3228 13.4475 24.3228 13.4599C24.3228 13.4723 23.9813 13.4786 23.559 13.4786H22.7952L22.3978 12.5343H18.3365L17.9639 13.4537L17.1877 13.4661C16.5729 13.4723 16.4115 13.4661 16.4301 13.4226C16.4425 13.3916 17.1753 11.6148 18.0633 9.4777C18.9513 7.33439 19.6841 5.56382 19.6965 5.53276C19.7151 5.49548 19.8766 5.48306 20.3796 5.48927L21.0316 5.5017L22.6772 9.47149ZM19.6779 9.33482C19.3115 10.2232 18.9948 10.9811 18.9824 11.0246C18.9575 11.0992 19.0382 11.1054 20.3734 11.1054C21.5098 11.1054 21.783 11.093 21.7706 11.0495C21.7395 10.9252 20.3982 7.71956 20.3734 7.71956C20.3547 7.71956 20.0505 8.45264 19.6779 9.33482Z" fill="#0B0B0B"/>
<path d="M13.033 18.3926L10.9403 20.9832L8.86 23.5676L10.9403 23.5801L13.033 23.5863V24.9965H6.966V24.2759L6.97221 23.5676L11.1701 18.4237L6.966 18.3988V16.9948H13.033V18.3926Z" fill="#0B0B0B"/>
<path d="M20.2429 19.8401L22.2362 22.6979L22.2487 19.8401L22.2549 16.9948H23.6645V24.9965H22.0624L20.2801 22.4059L18.4979 19.8215L18.4855 22.4121L18.4793 24.9965H16.9827V16.9948H18.2433L20.2429 19.8401Z" fill="#0B0B0B"/>
</g>
</svg>
