<svg width="151" height="41" viewBox="0 0 151 41" fill="none" xmlns="http://www.w3.org/2000/svg">
<g id="Logos 12">
<path d="M30.9718 38.4714L31.213 37.0097H33.2559L33.0147 38.3817C32.928 38.8802 33.0668 39.0597 33.5339 39.0597H36.7135C37.1635 39.0597 37.3709 38.8802 37.44 38.3817L37.6996 36.8478C37.8211 36.2243 37.6128 36.0479 37.076 35.9213L33.9886 35.2081C32.6046 34.9051 31.6845 34.4243 31.9764 32.6916L32.2713 30.9766C32.2884 30.6189 32.3749 30.2685 32.5256 29.9468C32.6763 29.625 32.888 29.3386 33.148 29.1048C33.4079 28.8709 33.7107 28.6947 34.0379 28.5866C34.3651 28.4786 34.71 28.441 35.0515 28.4761H38.6304C40.2433 28.4761 40.8577 29.2792 40.5812 30.9766L40.34 32.3133H38.3125L38.5199 31.0647C38.6066 30.5646 38.4678 30.3867 38.0176 30.3867H35.053C34.603 30.3867 34.3956 30.5646 34.3081 31.0647L34.0838 32.4191C33.9809 33.0635 34.1706 33.2398 34.7074 33.3472L37.8102 34.0604C39.1773 34.381 40.0989 34.8634 39.807 36.5769L39.4952 38.4682C39.4742 38.8273 39.3839 39.1783 39.23 39.5002C39.076 39.8221 38.8614 40.1083 38.599 40.3418C38.3366 40.5752 38.0318 40.751 37.7028 40.8587C37.3738 40.9664 37.0274 41.0038 36.6843 40.9686H32.875C31.2621 40.9686 30.6477 40.1688 30.9396 38.4682" fill="#0B0B0B"/>
<path d="M55.2409 39.0284L54.9337 40.9518H47.0999L49.0968 28.4497H57.0841L56.6233 30.5334H50.94L50.3256 33.5788H55.0873L54.7801 35.5022H50.0184L49.404 39.0284H55.2409Z" fill="#0B0B0B"/>
<path d="M72.9054 30.9386L72.4384 33.7275C72.4041 34.3527 72.1556 34.9442 71.7384 35.3944C71.3211 35.8445 70.7628 36.1232 70.1651 36.1798L71.5675 40.9242H69.4171L68.0147 36.276H65.557L64.7614 40.9242H62.6877L64.8228 28.4381H70.9516C72.5644 28.4381 73.1788 29.2412 72.9023 30.9386M70.3064 30.3856H66.5892L65.898 34.3606H69.6306C70.0806 34.3606 70.2711 34.1827 70.3571 33.6826L70.8072 31.0379C70.8939 30.5555 70.7551 30.3792 70.3049 30.3792" fill="#0B0B0B"/>
<path d="M83.504 28.4497L81.3536 40.9518H79.3567L81.3536 28.4497H83.504Z" fill="#0B0B0B"/>
<path d="M97.9428 39.0284L97.6356 40.9518H89.8019L91.7987 28.4497H99.7861L99.3253 30.5334H93.642L93.0275 33.5788H97.7892L97.482 35.5022H92.7203L92.1059 39.0284H97.9428Z" fill="#0B0B0B"/>
<path d="M105.316 38.4714L105.557 37.0097H107.6L107.358 38.3817C107.272 38.8802 107.411 39.0597 107.878 39.0597H111.057C111.507 39.0597 111.715 38.8802 111.784 38.3817L112.043 36.8478C112.165 36.2243 111.957 36.0479 111.42 35.9213L108.332 35.2081C106.948 34.9051 106.028 34.4243 106.32 32.6916L106.615 30.9766C106.632 30.6189 106.719 30.2685 106.869 29.9468C107.02 29.625 107.232 29.3386 107.492 29.1048C107.752 28.8709 108.054 28.6947 108.382 28.5866C108.709 28.4786 109.054 28.441 109.395 28.4761H112.974C114.587 28.4761 115.201 29.2792 114.925 30.9766L114.684 32.3133H112.656L112.864 31.0647C112.949 30.5646 112.812 30.3867 112.361 30.3867H109.397C108.947 30.3867 108.739 30.5646 108.653 31.0647L108.428 32.4191C108.325 33.0635 108.514 33.2398 109.051 33.3472L112.154 34.0604C113.521 34.381 114.443 34.8634 114.151 36.5769L113.839 38.4682C113.818 38.8273 113.728 39.1783 113.574 39.5002C113.42 39.8221 113.205 40.1083 112.943 40.3418C112.68 40.5752 112.376 40.751 112.047 40.8587C111.718 40.9664 111.371 41.0038 111.028 40.9686H107.219C105.606 40.9686 104.991 40.1688 105.283 38.4682" fill="#0B0B0B"/>
<path d="M10.8191 1.04034L6.65651 24.7623H0.297363L4.45999 1.04034H10.8191Z" fill="#0B0B0B"/>
<path d="M29.743 1.04034H36.0407L31.7398 24.7623H26.5173L20.3732 11.1382L18.0692 24.7623H11.7715L16.0723 1.04034H22.0628L27.5925 13.7027L29.743 1.04034Z" fill="#0B0B0B"/>
<path d="M41.1096 1.12552H54.9953C58.0366 1.12552 59.2654 2.61615 58.6817 5.72565L56.1473 20.2153C56.0976 20.8854 55.9194 21.5382 55.6232 22.135C55.3271 22.7318 54.919 23.2604 54.4233 23.6895C53.9276 24.1186 53.3543 24.4393 52.7375 24.6328C52.1207 24.8262 51.4729 24.8883 50.8326 24.8154H36.947L41.1096 1.12552ZM49.3427 19.5581C49.8158 19.5581 49.9172 19.4228 50.0201 18.949L52.1244 7.03998C52.1926 6.56554 52.1244 6.4309 51.6513 6.4309H46.5671L44.2631 19.5581H49.3427Z" fill="#0B0B0B"/>
<path d="M72.9051 17.3893L71.5226 24.7623H65.2249L66.4537 17.3893L61.9993 1.04034H68.7578L70.601 11.1382L76.1307 1.04034H83.1964L72.9051 17.3893Z" fill="#0B0B0B"/>
<path d="M82.2751 20.1997L84.8096 5.71011C84.871 5.03886 85.0591 4.38693 85.363 3.79186C85.6669 3.19678 86.0806 2.6703 86.5803 2.24274C87.08 1.81518 87.6558 1.49498 88.2746 1.30057C88.8933 1.10616 89.5428 1.04138 90.1857 1.10997H99.1561C102.197 1.10997 103.349 2.60061 102.781 5.71011L102.002 10.15H95.6432L96.2176 7.0084C96.2858 6.53397 96.184 6.39933 95.7107 6.39933H91.6403C91.201 6.39933 91.032 6.53461 90.9629 7.0084L88.8585 18.9175C88.7567 19.3919 88.892 19.5265 89.3316 19.5265H93.4021C93.8767 19.5265 94.0119 19.3913 94.1133 18.9175L94.6555 15.7759H101.015L100.234 20.2158C100.183 20.885 100.003 21.5367 99.7062 22.1325C99.4094 22.7282 99.0013 23.2559 98.5061 23.6846C98.0108 24.1133 97.4384 24.4342 96.8225 24.6285C96.2065 24.8228 95.5596 24.8865 94.9197 24.8159H85.9493C82.908 24.8159 81.7099 23.3253 82.2628 20.2158" fill="#0B0B0B"/>
<path d="M116.989 19.8781H110.246L108.188 24.7507H101.521L112.688 1.02877H121.014L123.932 24.7507H117.327L116.989 19.8781ZM116.616 14.7971L116.008 6.23798L112.383 14.7971H116.616Z" fill="#0B0B0B"/>
<path d="M148.785 5.61364L147.701 11.7685C147.634 12.8631 147.214 13.9016 146.508 14.7141C145.802 15.5265 144.852 16.0647 143.815 16.2404L146.395 24.7034H140.236L137.671 16.7854H134.998L133.609 24.7034H127.25L131.413 0.981445H145.129C148.171 0.981445 149.4 2.47209 148.816 5.58159M140.798 11.7365C141.237 11.7365 141.406 11.6012 141.509 11.1274L142.254 6.7196C142.356 6.24676 142.254 6.11052 141.815 6.11052H136.899L135.884 11.7365H140.798Z" fill="#0B0B0B"/>
<path d="M148.938 24.6874C148.576 24.6876 148.228 24.5404 147.967 24.2771C147.842 24.1478 147.744 23.9935 147.677 23.8235C147.537 23.455 147.537 23.0443 147.677 22.6758C147.744 22.5057 147.842 22.3514 147.967 22.2222C148.228 21.959 148.576 21.8119 148.938 21.8119C149.121 21.8108 149.302 21.8486 149.47 21.923C149.631 21.9933 149.778 22.0951 149.903 22.2227C150.028 22.3519 150.127 22.5062 150.193 22.6763C150.332 23.0451 150.332 23.4552 150.193 23.824C150.127 23.994 150.028 24.1483 149.903 24.2775C149.778 24.4052 149.631 24.5069 149.47 24.5773C149.302 24.6517 149.121 24.6885 148.938 24.6874ZM148.938 24.4559C149.089 24.4582 149.238 24.4269 149.376 24.3643C149.507 24.3044 149.625 24.219 149.725 24.1126C149.825 24.0032 149.903 23.8741 149.955 23.7327C150.012 23.5789 150.039 23.4151 150.037 23.2503C150.039 23.0881 150.011 22.9271 149.955 22.7759C149.903 22.6348 149.824 22.5058 149.725 22.396C149.625 22.2891 149.507 22.2036 149.376 22.1443C149.238 22.0807 149.089 22.0489 148.938 22.0514C148.791 22.0503 148.645 22.0803 148.51 22.1395C148.374 22.1987 148.251 22.2859 148.149 22.396C148.048 22.5051 147.969 22.6343 147.917 22.7759C147.861 22.9271 147.833 23.0881 147.835 23.2503C147.832 23.4151 147.86 23.5789 147.917 23.7327C147.968 23.8746 148.047 24.0039 148.149 24.1126C148.251 24.2232 148.373 24.3109 148.509 24.3702C148.645 24.4294 148.791 24.4578 148.938 24.4559ZM148.334 22.4857H149.053C149.19 22.4825 149.325 22.5216 149.44 22.5981C149.494 22.6346 149.537 22.6853 149.566 22.745C149.595 22.8046 149.608 22.8712 149.605 22.9379C149.61 23.0184 149.589 23.0983 149.544 23.1643C149.5 23.2303 149.435 23.2782 149.361 23.3001V23.3122C149.417 23.3265 149.467 23.36 149.503 23.4075C149.536 23.4574 149.559 23.5135 149.571 23.5726C149.586 23.6573 149.594 23.7431 149.594 23.8291C149.594 23.9087 149.608 23.9559 149.64 23.9716V24.0065H149.219C149.2 23.9958 149.187 23.9522 149.182 23.8773C149.176 23.8013 149.168 23.7289 149.156 23.6561C149.155 23.6293 149.148 23.6031 149.137 23.579C149.125 23.555 149.109 23.5337 149.089 23.5165C149.07 23.4994 149.047 23.4866 149.022 23.4792C148.997 23.4718 148.971 23.4698 148.946 23.4734H148.769V24.0071H148.336L148.334 22.4857ZM148.984 23.1573C149.114 23.1573 149.178 23.1043 149.178 22.997C149.178 22.8908 149.114 22.8368 148.984 22.8368H148.768V23.1573H148.984Z" fill="#0B0B0B"/>
</g>
</svg>
