<svg width="95" height="17" viewBox="0 0 95 17" fill="none" xmlns="http://www.w3.org/2000/svg">
<g id="Logos 03">
<g id="Group">
<path id="Vector" d="M27.6228 0.549805L23.2734 16.2096H26.293L28.7836 7.34013L30.2511 16.2096H33.2027L37.5355 0.549805H34.5159L32.0603 9.38622L30.6111 0.549805H27.6228ZM41.4752 0.549805L38.6614 2.69876L34.909 16.2096H37.9286L39.2253 11.5186H43.0291L41.7324 16.2096H44.7354L48.4878 2.71712L46.9009 0.549805H41.4752ZM53.0226 0.549805L50.1904 2.71712L48.8092 7.59543L50.3962 9.84724H55.0026L54.0641 13.2249H50.2602L50.7212 11.6215H47.6999L47.0515 13.9762L48.6898 16.2114H54.0292L56.8779 14.0111L58.2261 9.08133L56.6226 6.84605H52.0345L52.9565 3.50324H56.7438L56.2828 5.14158H59.3189L60.0003 2.71896L58.4299 0.55164H53.0226V0.549805ZM64.5535 0.549805L61.7048 2.71712L58.5658 13.9927L60.2207 16.2096H65.56L68.4088 13.9927L69.2959 10.8023H66.2764L65.5949 13.2249H61.8095L64.5223 3.48487H68.2931L67.6282 5.94055H70.6312L71.5349 2.71712L69.9828 0.549805H64.5535ZM76.0679 0.549805L73.2357 2.71712L69.4998 16.2096H72.5193L73.8161 11.5186H77.6199L76.3066 16.2096H79.3262L83.0621 2.69876L81.4751 0.549805H76.0679ZM85.4149 0.549805L81.0656 16.2096H84.0851L85.3818 11.5186H87.8375L88.4014 16.2096H91.353L90.7046 10.8703L92.8205 9.14745L94.6113 2.71712L93.0244 0.549805H85.4149ZM41.4403 3.48303H45.2442L43.8464 8.54868H40.0426L41.4403 3.48303ZM76.033 3.48303H79.8368L78.4372 8.54868H74.6334L76.033 3.48303ZM87.5987 3.48303H91.386L89.9699 8.54868H86.201L87.5987 3.48303Z" fill="black"/>
<path id="Vector_2" d="M25.9701 0.549805H19.9641L15.6147 16.2078H21.619L25.9701 0.549805Z" fill="#007AC2"/>
<path id="Vector_3" d="M11.333 0.549805L6.96533 16.2261H9.88203L14.2148 0.549805H11.333ZM15.4105 0.549805L11.0447 16.2261H13.9595L18.2923 0.549805H15.4105Z" fill="#E4002B"/>
<path id="Vector_4" d="M4.91927 0.549805L0.571777 16.2261H2.3791L6.7119 0.549805H4.91927ZM7.8874 0.549805L3.53807 16.2261H5.34539L9.67819 0.549805H7.8874Z" fill="#FFD659"/>
</g>
</g>
</svg>
