<svg width="33" height="37" viewBox="0 0 33 37" fill="none" xmlns="http://www.w3.org/2000/svg">
<g id="Logos 11">
<path id="path6" d="M2.51649 22.0719C2.51649 18.7548 4.07533 17.5057 4.3851 14.3482C3.95569 17.1162 2.12695 19.3445 2.12695 22.0719C2.12695 23.1209 2.28647 24.0601 2.51649 24.9197C3.64592 28.7466 7.08263 30.8453 10.3605 31.7041C5.3244 30.4152 2.51649 26.1289 2.51649 22.0719ZM31.5833 22.0719C31.5833 20.3535 31.114 18.9941 30.6041 17.745C29.9846 16.2659 29.3152 14.8972 29.3152 13.2188C29.3152 17.2358 31.2237 18.4044 31.2237 22.0719C31.2237 26.1289 28.4557 30.4152 23.3796 31.7041C27.9565 30.5348 31.5833 27.1778 31.5833 22.0719Z" fill="#E4E5E6"/>
<path id="path8" d="M29.9027 6.00658C28.8538 5.69681 28.1039 4.91774 27.6446 3.66867L26.6355 0.781006L26.1256 2.60974C27.1347 7.09613 30.8021 7.40591 30.8021 7.40591L32.2812 6.7066L29.9027 6.00658ZM12.5062 22.3435L10.5977 19.376L8.44922 20.9747C8.44922 20.9747 9.18841 21.0146 9.18841 21.7944V27.3696L10.7074 26.2402V22.3036L12.4257 24.9513L14.0244 23.7421V16.8074L12.5055 17.9368V22.3435H12.5062ZM18.6718 15.8688L16.9534 17.1578V14.5799L14.6554 16.2982C14.6554 16.2982 15.3946 16.3381 15.3946 17.1179V22.6931L16.9534 21.5238V18.9858L18.6718 17.6968V20.2747L20.1509 19.1859V12.2014L18.6718 13.3308V15.8688ZM22.9581 15.2493V10.0636L20.66 11.7819C20.66 11.7819 21.3992 11.8218 21.3992 12.6016V18.1768L25.6855 14.9395C25.6057 13.8506 25.6855 13.1812 25.6855 13.1812L22.9581 15.2493Z" fill="#E4E5E6"/>
<path id="path19" d="M3.37806 13.2186C3.37806 17.1553 1.42969 17.935 1.42969 22.0718C1.42969 23.3208 1.62979 24.53 2.01933 25.579C2.13896 25.349 2.3291 25.0691 2.52921 24.9196C2.2586 24.06 2.13896 23.1207 2.13896 22.0718C2.13896 19.3842 3.9677 17.1161 4.39711 14.3481C4.43699 13.9984 4.43699 13.6089 4.43699 13.2186C4.47687 10.0611 2.95791 7.40341 2.95791 7.40341L1.47954 6.7041L2.48862 9.00213C2.98853 10.1714 3.37806 11.6199 3.37806 13.2186Z" fill="#E4E5E6"/>
<path id="path30" d="M29.3145 13.2186C29.3145 14.8971 29.9739 16.2259 30.6034 17.7449L31.4231 17.705C30.9132 16.4559 30.414 15.2468 30.414 13.2186C30.414 11.6199 30.8035 10.1814 31.3134 9.00213L32.3225 6.7041L30.8035 7.40341C30.8035 7.40341 29.3145 10.0611 29.3145 13.2186Z" fill="#E4E5E6"/>
<path id="path45" d="M15.7069 32.9118C14.4977 32.4824 12.8192 32.3222 10.4008 31.7026C7.08374 30.883 3.69616 28.7352 2.55676 24.9182C2.35665 25.1183 2.16722 25.3476 2.04688 25.5776C3.33582 29.2444 6.61302 31.823 10.1202 32.7516C12.3784 33.3412 13.4373 33.3711 15.1165 33.8404C15.3465 34.0704 16.8748 35.7489 16.8748 35.7489V34.1502C16.8762 34.1609 15.8671 33.0315 15.7069 32.9118Z" fill="#E4E5E6"/>
<path id="path68" d="M10.6719 30.6163C13.3594 31.2757 15.1184 31.3554 16.2877 31.9451C16.2877 31.9451 16.7171 32.3346 16.8773 32.5347C17.0368 32.3346 17.467 31.9451 17.467 31.9451C18.6363 31.3554 20.3945 31.2857 23.0828 30.6163C26.4803 29.7567 30.1471 26.7594 30.1471 22.0729C30.1471 18.7159 28.2386 17.4669 28.2386 13.2197C28.2386 10.3321 29.3274 8.11381 29.3274 8.11381C29.3274 8.11381 26.8293 7.60393 25.6607 4.44707C25.6607 4.44707 23.9822 6.00592 21.6842 6.00592C18.7965 6.00592 16.888 3.97778 16.888 3.97778C16.888 3.97778 14.9795 6.00592 12.0918 6.00592C9.7938 6.00592 8.11532 4.44707 8.11532 4.44707C6.94601 7.60464 4.44859 8.11381 4.44859 8.11381C4.44859 8.11381 5.53743 10.342 5.53743 13.2197C5.53743 17.4761 3.62893 18.7152 3.62893 22.0729C3.61754 26.7893 7.28427 29.7567 10.6719 30.6163ZM28.9272 22.0729C28.9272 26.0494 25.7696 28.6679 22.8022 29.4469C20.6537 29.9967 18.0858 30.2666 17.2668 30.7359C17.0667 30.8555 16.8773 31.0855 16.8773 31.0855C16.8773 31.0855 16.6473 30.8555 16.4878 30.7359C15.7087 30.3065 13.0902 29.9967 10.9524 29.4469C10.8727 29.4071 10.7922 29.4071 10.7224 29.3672L27.4987 16.7676C28.0677 18.7957 28.9272 20.0846 28.9272 22.0729ZM27.718 8.81383C27.3683 9.82291 26.9788 11.4316 26.9788 13.2205C26.9788 13.9596 27.0187 14.6589 27.139 15.2486L9.15289 28.7476C6.89474 27.5783 4.93639 25.3501 4.82602 22.3129L25.4997 6.78498C26.2389 7.79406 27.0586 8.42358 27.718 8.81383ZM6.77439 13.2197C6.77439 11.391 6.38486 9.8222 6.0352 8.81311C6.81427 8.3837 7.83403 7.60392 8.6131 6.2751C9.47263 6.74439 10.6811 7.25427 12.0804 7.25427C14.2289 7.25427 15.9074 6.31498 16.8766 5.61567C17.8558 6.31498 19.5243 7.25427 21.6728 7.25427C22.0224 7.25427 22.3322 7.21439 22.6519 7.17451L5.05603 20.3545C5.56591 18.3656 6.77439 16.727 6.77439 13.2197Z" fill="#E4E5E6"/>
<path id="path83" d="M12.0799 4.90411C14.9675 4.90411 16.876 2.44585 16.876 2.44585V0.887723L15.3571 2.3661C14.578 3.14516 13.3289 3.77468 12.0799 3.77468C11.1406 3.77468 10.2511 3.34527 9.50197 2.72572L7.16406 0.777344L7.67394 2.60608C7.63335 2.60608 9.85162 4.90411 12.0799 4.90411Z" fill="#E4E5E6"/>
<path id="path98" d="M31.584 22.0719C31.584 27.1778 27.9571 30.5348 23.3504 31.7041C20.932 32.3236 19.2535 32.4831 18.0443 32.9132C17.8848 33.0728 16.875 34.1623 16.875 34.1623V35.761C16.875 35.761 18.4338 34.0826 18.6332 33.8525C20.3117 33.3833 21.3614 33.3427 23.6295 32.7637C28.1957 31.5944 32.3324 27.6179 32.3324 22.0726C32.3324 20.0843 31.903 18.8751 31.433 17.7058L30.6133 17.7457C31.1139 18.994 31.584 20.3535 31.584 22.0719Z" fill="#E4E5E6"/>
<path id="path113" d="M21.6703 4.90411C23.8985 4.90411 26.1168 2.64596 26.1168 2.64596L26.6267 0.777344L24.2888 2.72572C23.5097 3.34527 22.6502 3.77468 21.7109 3.77468C20.4618 3.77468 19.2127 3.15513 18.4337 2.3661L16.9147 0.887011V2.41594C16.8741 2.44657 18.7826 4.90411 21.6703 4.90411Z" fill="#E4E5E6"/>
<path id="path128" d="M7.63341 2.60608L7.16412 0.777344L6.11516 3.66501C5.64587 4.91408 4.90597 5.69315 3.85701 6.00292L1.47852 6.70294L2.9576 7.40225C2.94692 7.40225 6.65424 7.09247 7.63341 2.60608Z" fill="#E4E5E6"/>
<path id="path130" d="M5.05479 20.354L22.6507 7.13478C22.3409 7.17466 21.9913 7.21454 21.6715 7.21454C19.523 7.21454 17.8446 6.27525 16.8754 5.57594C15.8962 6.27525 14.2277 7.21454 12.0792 7.21454C10.6706 7.21454 9.46143 6.74525 8.61186 6.23537C7.83279 7.5642 6.81303 8.34397 6.03397 8.77339C6.38362 9.78247 6.77315 11.3912 6.77315 13.18C6.77315 16.7264 5.56468 18.365 5.05479 20.354ZM10.7105 29.3666C10.7903 29.4065 10.8707 29.4065 10.9405 29.4464C13.089 29.9961 15.6569 30.266 16.4759 30.7353C16.676 30.855 16.8654 31.085 16.8654 31.085C16.8654 31.085 17.0954 30.855 17.2549 30.7353C18.034 30.3059 20.6525 29.9961 22.7903 29.4464C25.7577 28.7072 28.9153 26.0894 28.9153 22.0723C28.9153 20.0841 28.0557 18.7951 27.4768 16.7663L10.7105 29.3666ZM2.90631 13.2192C2.90631 17.0063 0.957936 17.8658 0.957936 22.0723C0.957936 28.1176 5.63446 32.0941 10.0105 33.2235C12.1988 33.7733 12.8583 33.8131 14.8465 34.2725C15.0067 34.432 16.8747 36.4608 16.8747 36.4608C16.8747 36.4608 18.7433 34.4726 18.9028 34.2725C20.891 33.7626 21.5505 33.7626 23.7388 33.2235C28.1056 32.0941 32.7914 28.1176 32.7914 22.0723C32.7914 17.8558 30.843 17.0063 30.843 13.2192C30.843 11.8505 31.1129 10.491 31.7025 9.20208L32.9516 6.39417L30.0639 5.57452C29.1645 5.30462 28.545 4.63522 28.1155 3.54638L26.8266 0.0391669L23.9389 2.41695C23.1997 3.0365 22.42 3.35625 21.6409 3.35625C20.6318 3.35625 19.4525 2.84637 18.7134 2.10718L16.8853 0.279865L15.0566 2.1086C14.2775 2.88767 13.1481 3.35767 12.129 3.35767C11.3899 3.35767 10.6101 3.0479 9.83102 2.41838L6.94335 0L5.6544 3.50722C5.26487 4.59606 4.60544 5.30605 3.70603 5.53535L0.818359 6.43477L2.06743 9.24268C2.59654 10.4917 2.90631 11.8505 2.90631 13.2192ZM3.8456 6.00535C4.89457 5.69558 5.64443 4.91651 6.10375 3.66745L7.15271 0.779777L9.49062 2.72815C10.2697 3.3477 11.1292 3.77711 12.0685 3.77711C13.3176 3.77711 14.5667 3.15756 15.3457 2.36853L16.8647 0.889445L18.3836 2.36853C19.1627 3.14759 20.4118 3.77711 21.6608 3.77711C22.6001 3.77711 23.4896 3.3477 24.2387 2.72815L26.5766 0.779777L27.6256 3.66745C28.0949 4.91651 28.8348 5.69558 29.8838 6.00535L32.2615 6.70466L31.2525 9.00269C30.7426 10.172 30.353 11.5806 30.353 13.2192C30.353 15.2473 30.8629 16.4565 31.3621 17.7056C31.8314 18.8749 32.2615 20.0834 32.2615 22.0723C32.3014 27.6077 28.1647 31.5949 23.5985 32.7635C21.3404 33.3531 20.2815 33.383 18.6023 33.8523C18.3723 34.0823 16.844 35.7608 16.844 35.7608C16.844 35.7608 15.2852 34.0823 15.0858 33.8523C13.4073 33.383 12.3576 33.3424 10.0895 32.7635C6.5823 31.864 3.3051 29.2961 2.01615 25.5895C1.62662 24.5007 1.42651 23.3314 1.42651 22.0823C1.38664 17.9456 3.33501 17.1665 3.33501 13.2292C3.33501 11.6304 2.94548 10.1919 2.4356 9.01266L1.42794 6.71463L3.8456 6.00535ZM9.15165 28.7471L27.1371 15.248C27.0573 14.6285 26.9776 13.9591 26.9776 13.2199C26.9776 11.3912 27.3671 9.82235 27.7168 8.81326C27.0573 8.42373 26.1978 7.83409 25.4885 6.82501L4.81481 22.3522C4.93516 25.3894 6.93338 27.6077 9.15165 28.7471ZM22.9605 10.0616V15.2074L25.6886 13.1394C25.6886 13.1394 25.6089 13.7989 25.6886 14.8977L21.4023 18.135V12.6395C21.4023 11.8604 20.6632 11.8199 20.6632 11.8199L22.9605 10.0616ZM16.9551 14.5886V17.1665L18.6735 15.8775V13.2997L20.1526 12.1702V19.1049L18.6735 20.2742V17.7355L16.9551 19.0244V21.5624L15.3963 22.7318V17.1565C15.3963 16.3775 14.6571 16.3369 14.6571 16.3369L16.9551 14.5886ZM10.5901 19.3848L12.4986 22.3522V17.9456L14.0176 16.8161V23.7608L12.4189 24.97L10.7005 22.3223V26.2589L9.18156 27.3883V21.8031C9.18156 21.0241 8.44237 20.9835 8.44237 20.9835L10.5901 19.3848ZM4.39537 14.3486C4.08559 17.5062 2.52675 18.7552 2.52675 22.0723C2.52675 26.1293 5.33466 30.4156 10.4107 31.7045C12.8291 32.3241 14.5075 32.4836 15.7167 32.9137C15.8763 33.0732 16.886 34.1628 16.886 34.1628C16.886 34.1628 17.8951 33.074 18.0554 32.9137C19.2645 32.4843 20.943 32.3241 23.3614 31.7045C28.4673 30.4156 31.2453 26.1293 31.2453 22.0723C31.2453 18.365 29.3368 17.2363 29.3368 13.2192C29.3368 10.0616 30.8159 7.40397 30.8159 7.40397C30.8159 7.40397 27.1086 7.09419 26.1394 2.6078C26.1394 2.6078 23.9112 4.86595 21.6929 4.86595C18.8052 4.86595 16.8967 2.4077 16.8967 2.4077C16.8967 2.4077 14.9882 4.86595 12.1006 4.86595C9.87232 4.86595 7.65405 2.6078 7.65405 2.6078C6.67488 7.09419 2.97752 7.40397 2.97752 7.40397C2.97752 7.40397 4.45661 10.0517 4.45661 13.2192C4.47512 13.6493 4.43524 13.999 4.39537 14.3486ZM4.47512 8.10328C4.47512 8.10328 6.97326 7.59339 8.14186 4.43654C8.14186 4.43654 9.82034 5.99538 12.1184 5.99538C15.006 5.99538 16.9145 3.96725 16.9145 3.96725C16.9145 3.96725 18.823 5.99538 21.7107 5.99538C24.0087 5.99538 25.6872 4.43654 25.6872 4.43654C26.8565 7.59411 29.3539 8.10328 29.3539 8.10328C29.3539 8.10328 28.2651 10.3315 28.2651 13.2092C28.2651 17.4656 30.1736 18.7047 30.1736 22.0624C30.1736 26.7389 26.5069 29.7462 23.1093 30.6057C20.4217 31.2652 18.6628 31.3449 17.4935 31.9346C17.4935 31.9346 17.0641 32.3241 16.9038 32.5242C16.7436 32.3241 16.3142 31.9346 16.3142 31.9346C15.1449 31.3449 13.3867 31.2751 10.6984 30.6057C7.30084 29.7462 3.6341 26.7489 3.6341 22.0624C3.6341 18.7054 5.5426 17.4563 5.5426 13.2092C5.52408 10.3315 4.47512 8.10328 4.47512 8.10328Z" fill="#111111"/>
</g>
</svg>
