<svg width="73" height="32" viewBox="0 0 73 32" fill="none" xmlns="http://www.w3.org/2000/svg">
<path id="Logos 06" d="M16.1056 22.293C15.4324 22.82 14.631 23.099 13.8616 23.037C12.964 22.944 12.387 22.572 11.5535 21.549L7.19374 16.341L5.23826 17.891L10.0148 23.564C11.0085 24.742 12.1626 25.393 13.4769 25.486C14.9836 25.61 16.2979 25.176 17.6443 24.153C18.9587 23.13 19.6639 21.952 19.8563 20.495C19.9845 19.224 19.5998 18.015 18.606 16.837L13.8295 11.133L11.9061 12.652L16.2659 17.86C17.1314 18.883 17.3558 19.472 17.2917 20.371C17.2276 21.053 16.7788 21.766 16.1056 22.293ZM61.4021 27.78L65.0246 15.597C65.1528 15.163 65.2169 14.729 64.6078 14.295L64.127 13.923C63.5499 13.489 63.1011 13.644 62.7164 13.892L51.753 20.774L54.0611 22.045L61.9791 17.085L60.7289 21.27L59.7031 20.495L57.6194 21.828L60.0557 23.626L59.3505 25.982L61.4021 27.78ZM36.9426 2.391C50.5027 2.391 62.7806 7.785 71.5321 16.496L72.9426 15.163C63.8064 6.111 51.0477 0.5 36.9426 0.5C22.8376 0.5 10.0789 6.111 0.942627 15.163L2.32108 16.496C11.1047 7.785 23.3825 2.391 36.9426 2.391ZM36.9426 22.355C45.2454 22.355 52.7147 25.889 57.8117 31.5L59.2863 30.26C53.8367 24.277 45.8545 20.464 36.9747 20.464C28.0949 20.464 20.1127 24.246 14.663 30.26L16.1376 31.5C21.1706 25.889 28.6399 22.355 36.9426 22.355ZM47.5855 8.932L52.0735 10.079L52.6506 7.878L48.0664 6.731C45.9186 6.204 43.931 6.7 43.2258 9.242L41.1742 16.806C41.0459 17.364 41.3344 17.767 41.8473 17.922L43.354 18.294L44.7004 13.396L50.2783 14.822L50.8554 12.652L45.2774 11.226L45.598 10.079C45.8865 8.87 46.4315 8.653 47.5855 8.932ZM32.2302 5.398L24.5045 6.917C23.9595 7.01 23.671 7.444 23.7672 8.002L25.4021 15.659C25.9471 18.263 27.9026 18.883 30.0824 18.449L34.7948 17.519L34.314 15.287L29.7619 16.186C28.5758 16.434 28.0628 16.186 27.7743 14.915L27.5499 13.799L33.224 12.683L32.7432 10.482L27.0691 11.598L26.5241 8.87L32.7111 7.63L32.2302 5.398Z" fill="#0B0B0B"/>
</svg>
