<svg xmlns="http://www.w3.org/2000/svg" width="117" height="38" viewBox="0 0 117 38" fill="none">
  <path d="M74.7306 20.8341H70.0756V33.4131H72.0125V28.0671H74.7273L76.5286 26.24V22.6298L74.7306 20.8341ZM72.0125 22.721H73.9267L74.595 23.4097V25.4569L73.9267 26.1771H72.0125V22.721Z" fill="#0B0B0B"/>
  <path d="M62.554 33.4131H68.3646V31.5263H64.4908V28.0671H67.719V26.1802H64.4908V22.721H68.3646V20.8341H62.554V33.4131Z" fill="#0B0B0B"/>
  <path d="M99.6777 22.721V20.8341H94.1899V22.721H95.9331V33.4131H97.87V22.721H99.6777Z" fill="#0B0B0B"/>
  <path d="M82.7267 20.8341H79.9892L78.0814 22.6298V31.586L79.9892 33.4131H82.7267L84.5377 31.586V22.6298L82.7267 20.8341ZM82.6008 30.8093L81.9293 31.5263H80.7898L80.0183 30.8061V23.4097L80.7898 22.721H81.9293L82.6008 23.4065V30.8093Z" fill="#0B0B0B"/>
  <path d="M57.9538 28.0671L58.9384 33.4131H60.8753L59.7584 27.328L60.843 26.2557V22.6424L59.0159 20.8341H54.3867V33.4131H56.3236V28.0671M56.3236 22.721H58.2153L58.9061 23.4254V25.4726L58.2153 26.1802H56.3236V22.721Z" fill="#0B0B0B"/>
  <path d="M89.8157 28.0671L90.8003 33.4131H92.7372L91.6203 27.328L92.7049 26.2557V22.6424L90.8778 20.8341H86.2486V33.4131H88.1855V28.0671M88.1855 22.721H90.0772L90.768 23.4254V25.4726L90.0772 26.1802H88.1855V22.721Z" fill="#0B0B0B"/>
  <path d="M59.0159 5.11035H54.3867V17.6894H59.0159L60.843 15.8623V12.2521L59.9521 11.3841L60.843 10.5162V6.90601L59.0159 5.11035ZM56.3236 6.9972H58.2153L58.9061 7.68591V9.73314L58.2153 10.4533H56.3236V6.9972ZM56.3236 12.3433H58.2153L58.9061 13.032V15.0792L58.2153 15.7994H56.3236V12.3433Z" fill="#0B0B0B"/>
  <path d="M94.4804 17.6894H96.4173V12.3433H98.9998V17.6894H100.937V5.11035H98.9998V10.4564H96.4173V5.11035H94.4804V17.6894Z" fill="#0B0B0B"/>
  <path d="M69.6236 17.6894H75.4343V15.8025H71.5605V12.3433H74.7887V10.4564H71.5605V6.9972H75.4343V5.11035H69.6236V17.6894Z" fill="#0B0B0B"/>
  <path d="M102.68 17.6894H108.491V15.8025H104.617V12.3433H107.845V10.4564H104.617V6.9972H108.491V5.11035H102.68V17.6894Z" fill="#0B0B0B"/>
  <path d="M68.0418 15.8025H64.4908V5.11035H62.554V17.6894H68.0418V15.8025Z" fill="#0B0B0B"/>
  <path d="M86.3132 15.8623L88.221 17.6894H90.9585L92.7695 15.8623V13.6012H90.8326V15.0855L90.1611 15.8025H89.0216L88.2501 15.0824V7.68591L89.0216 6.9972H90.1611L90.8326 7.68276V9.19853H92.7695V6.90601L90.9585 5.11035H88.221L86.3132 6.90601V15.8623Z" fill="#0B0B0B"/>
  <path d="M82.9236 17.6894H84.8605L82.5847 5.11035H79.066L76.7901 17.6894H78.727L79.3533 14.2301H82.2974L82.9236 17.6894ZM79.6955 12.3433L80.6639 6.9972H80.99L81.9584 12.3433H79.6955Z" fill="#0B0B0B"/>
  <path d="M113.736 12.3433L114.721 17.6894H116.658L115.541 11.6043L116.626 10.5319V6.91859L114.798 5.11035H110.169V17.6894H112.106V12.3433M112.106 6.9972H113.998L114.689 7.70163V9.74886L113.998 10.4564H112.106V6.9972Z" fill="#0B0B0B"/>
  <path d="M0 0H51.6488V37.737H0V0Z" fill="#0B0B0B"/>
  <path d="M15.4197 6.28906H6.22266V31.4471H15.4197L19.1353 27.8275V20.604L17.3566 18.8712L19.1353 17.1385V9.90867L15.4197 6.28906ZM10.0964 16.9812V10.0628H13.812L15.2615 11.4748V15.5724L13.812 16.9812M13.812 20.7549L15.2615 22.1669V26.2645L13.812 27.6765H10.0964V20.7581" fill="#F8F8F8"/>
  <path d="M45.4447 31.4471L42.236 19.7863L44.9605 17.1322V9.90867L41.2449 6.28906H32.0479V31.4471H35.9217V20.7549H38.6301L41.571 31.4471H45.4447ZM35.9217 10.0628H39.6373L41.0867 11.4748V15.5724L39.6373 16.9844H35.9217V10.0628Z" fill="#F8F8F8"/>
  <path d="M22.3634 19.7895V24.2362L28.8197 17.9467V13.5L22.3634 19.7895Z" fill="#F8F8F8"/>
  <mask id="mask0_421_5332" style="mask-type:alpha" maskUnits="userSpaceOnUse" x="0" y="0" width="52" height="38">
    <path d="M51.6505 0H0V37.737H51.6505V0Z" fill="#F8F8F8"/>
    <path d="M15.6533 6.28951H6.45631V31.4475H15.6533L19.3689 27.8279V20.6044L17.5902 18.8717L19.3689 17.1389V9.90912L15.6533 6.28951ZM10.3301 16.9817V10.0632H14.0457L15.4951 11.4752V15.5728L14.0457 16.9817M14.0457 20.7554L15.4951 22.1674V26.265L14.0457 27.677H10.3301V20.7585" fill="#F8F8F8"/>
    <path d="M45.6784 31.4475L42.4696 19.7868L45.1942 17.1326V9.90912L41.4786 6.28951H32.2816V31.4475H36.1553V20.7554H38.8638L41.8046 31.4475H45.6784ZM36.1553 10.0632H39.871L41.3204 11.4752V15.5728L39.871 16.9848H36.1553V10.0632Z" fill="#F8F8F8"/>
    <path d="M22.5971 19.7899V24.2366L29.0534 17.9471V13.5004L22.5971 19.7899Z" fill="#F8F8F8"/>
  </mask>
  <g mask="url(#mask0_421_5332)">
  </g>
</svg>