<svg width="55" height="32" viewBox="0 0 55 32" fill="none" xmlns="http://www.w3.org/2000/svg">
<g id="Logos 14">
<path d="M11.9227 0.721282L0.533203 25.1476H8.97412L13.8887 12.8233L18.976 25.1476H27.3594L16.0856 0.721282H11.9227Z" fill="#0373FF"/>
<path d="M54.5332 12.8515C54.5332 19.9493 48.5408 25.703 41.1483 25.703C33.7563 25.703 27.7634 19.9492 27.7634 12.8515C27.7634 5.75364 33.7558 0 41.1483 0C48.5403 0 54.5332 5.75375 54.5332 12.8515ZM41.1483 7.38327C38.0032 7.38327 35.4535 9.83138 35.4535 12.8514C35.4535 15.8713 38.0033 18.3195 41.1483 18.3195C44.2934 18.3195 46.8431 15.8713 46.8431 12.8514C46.8431 9.83149 44.2934 7.38327 41.1483 7.38327Z" fill="#0373FF"/>
<path d="M21.7798 28.7768V28.537H22.4785V30.854H21.7798V30.6226C21.6152 30.8197 21.325 30.9361 21.0936 30.9361C20.165 30.9361 19.8778 30.2928 19.8822 29.6548C19.8912 29.0209 20.3238 28.4985 21.1025 28.4985C21.3383 28.4984 21.6241 28.584 21.7798 28.7768ZM21.7952 29.7328C21.7952 29.385 21.519 29.0999 21.1776 29.0999C20.7759 29.0999 20.5751 29.4042 20.5701 29.7232C20.565 30.0373 20.7709 30.3611 21.1776 30.3611C21.519 30.3611 21.7952 30.0809 21.7952 29.7328ZM33.1827 28.7768V28.537H33.8815V30.854H33.1827V30.6226C33.0181 30.8197 32.728 30.9361 32.4966 30.9361C31.568 30.9361 31.2808 30.2928 31.2852 29.6548C31.294 29.0209 31.7267 28.4985 32.5054 28.4985C32.7413 28.4984 33.0271 28.584 33.1827 28.7768ZM33.1982 29.7328C33.1982 29.385 32.9221 29.0999 32.5806 29.0999C32.1789 29.0999 31.9781 29.4042 31.9731 29.7232C31.9681 30.0373 32.174 30.3611 32.5806 30.3611C32.922 30.3611 33.1982 30.0809 33.1982 29.7328ZM38.2599 28.7768V28.537H38.9586V30.854H38.2599V30.6226C38.0952 30.8197 37.805 30.9361 37.5737 30.9361C36.6451 30.9361 36.3578 30.2928 36.3624 29.6548C36.3712 29.0209 36.8038 28.4985 37.5825 28.4985C37.8185 28.4984 38.1041 28.584 38.2599 28.7768ZM38.2752 29.7328C38.2752 29.385 37.9992 29.0999 37.6577 29.0999C37.256 29.0999 37.0551 29.4042 37.0502 29.7232C37.0452 30.0373 37.251 30.3611 37.6577 30.3611C37.9991 30.3611 38.2752 30.0809 38.2752 29.7328ZM24.3867 30.9322V30.6967C24.2176 30.9065 23.9271 30.9664 23.6691 30.9622C22.9838 30.958 22.8482 30.3871 22.8527 29.8133V28.5369H23.5632V29.8871C23.5632 30.5676 24.4228 30.5302 24.4228 29.9268V28.5368H25.1028V30.9321L24.3867 30.9322ZM26.3992 28.4813C26.9154 28.4813 27.3076 28.734 27.312 29.2737H26.667C26.6626 29.0939 26.5459 29.0503 26.3992 29.0503C26.114 29.0503 26.0932 29.3389 26.3733 29.3859C26.9071 29.4757 27.3188 29.6966 27.3188 30.1345C27.3188 30.717 27.0165 30.9567 26.36 30.9567C25.7034 30.9567 25.4345 30.696 25.4256 30.105H26.0745C26.0789 30.2592 26.1742 30.357 26.3778 30.357C26.5832 30.357 26.6438 30.2712 26.6298 30.1875C26.6156 30.1018 26.5202 30.0417 26.3414 30.0182C25.7984 29.9465 25.4556 29.7097 25.4556 29.2823C25.4556 28.7211 25.8607 28.4813 26.3992 28.4813ZM28.7443 30.8926C28.2058 30.8968 27.9297 30.657 27.9297 30.0531V29.1408H27.5224V28.5626H27.9297V28.0369L28.6355 27.6001V28.5626H29.0825V29.1408H28.6355V30.0531C28.6355 30.2587 28.7353 30.3229 28.9045 30.3229C28.9711 30.3229 29.0424 30.3143 29.1047 30.3016L29.1269 30.8583C28.989 30.8798 28.86 30.8926 28.7443 30.8926ZM30.1492 30.854H29.5143V28.589H30.1462L30.1729 28.8058C30.3286 28.6644 30.5837 28.5418 30.7794 28.5418C30.8641 28.5418 30.9575 28.5546 31.051 28.5761L31.042 29.1839C30.9707 29.1625 30.7994 29.151 30.7194 29.151C30.4656 29.1554 30.1492 29.2564 30.1492 29.569V30.854ZM35.0121 27.4373V30.854H34.3001V27.4373H35.0121ZM35.6955 27.5125C35.9092 27.5082 36.1317 27.6367 36.1317 27.9066C36.1317 28.155 35.9315 28.2792 35.7267 28.2835C35.5132 28.2878 35.2906 28.1634 35.2906 27.9066C35.2906 27.6495 35.4909 27.5167 35.6955 27.5125ZM35.3574 28.5369V30.8539H36.0694V28.5369H35.3574ZM40.1109 28.5369V28.7682C40.28 28.5626 40.5648 28.5027 40.823 28.5027C41.5083 28.5113 41.6952 28.9995 41.6907 29.5777V30.854H40.9786V29.5298C40.9786 29.2172 40.7963 29.0759 40.6048 29.0759C40.3957 29.0759 40.1064 29.1708 40.1064 29.5427V30.854H39.4033V28.5371L40.1109 28.5369ZM52.5053 28.5369V28.7682C52.6745 28.5626 52.9593 28.5027 53.2174 28.5027C53.9027 28.5113 54.0896 28.9995 54.0851 29.5777V30.854H53.3731V29.5298C53.3731 29.2172 53.1906 29.0759 52.9993 29.0759C52.7901 29.0759 52.5008 29.1708 52.5008 29.5427V30.854H51.7977V28.5371L52.5053 28.5369ZM43.1917 29.6976C43.1917 28.0444 45.7594 28.0486 45.7594 29.6976C45.7594 31.3466 43.1917 31.338 43.1917 29.6976ZM45.0564 29.6976C45.0564 28.9096 43.8948 28.9139 43.8948 29.6976C43.8948 30.4728 45.0564 30.4771 45.0564 29.6976ZM46.7106 30.64V32H46.0979V28.537H46.7379V28.7683C46.9025 28.5713 47.247 28.5071 47.4784 28.5071C48.2438 28.5071 48.667 29.0981 48.6626 29.7361C48.6537 30.37 48.2483 30.9447 47.4695 30.9447C47.2336 30.9447 46.8708 30.8155 46.7106 30.64ZM46.7785 29.7102C46.7785 30.0571 47.0539 30.3414 47.3944 30.3414C47.7948 30.3414 47.9951 30.033 48.0001 29.7198C48.0051 29.4067 47.7999 29.0838 47.3944 29.0838C47.0539 29.0838 46.7785 29.3633 46.7785 29.7102ZM51.4299 29.9547H49.6219C49.7064 30.1687 49.9066 30.3844 50.1924 30.3844C50.4782 30.3844 50.5506 30.2788 50.6244 30.1738H51.3854C51.1986 30.6877 50.6911 30.9404 50.1839 30.9318C49.5742 30.9189 48.969 30.4728 48.969 29.689C48.969 28.8924 49.5964 28.4984 50.224 28.5027C50.8426 28.507 51.4567 28.9009 51.4567 29.689C51.4567 29.7834 51.4477 29.8689 51.4299 29.9547ZM50.7728 29.4278C50.706 29.1966 50.4288 29.0894 50.2018 29.0894C49.9925 29.0894 49.7469 29.2008 49.6757 29.4278H50.7728Z" fill="#0373FF"/>
</g>
</svg>
