<svg width="96" height="28" viewBox="0 0 96 28" fill="none" xmlns="http://www.w3.org/2000/svg">
<g id="Logos 04">
<g id="Logo">
<path id="Logo_2" d="M42.3373 17.6349V20.5565H35.6122L34.2667 19.0339C34.0417 18.7845 33.9185 18.4353 33.9185 18.1099V6.04578H36.9317V17.6349H42.3373ZM65.2768 17.6349V20.5565H58.5517L57.2063 19.0339C56.9812 18.7845 56.858 18.4353 56.858 18.1099V6.04578H59.8712V17.6349H65.2768ZM66.9705 6.04578H69.9836V20.5565H66.9705V6.04578ZM52.9235 10.2168L52.1252 7.06953C51.9759 6.47096 51.4287 6.04578 50.8057 6.04578H47.2952L46.2245 10.2168L43.9575 19.1337C43.9078 19.3332 43.8817 19.5327 43.8817 19.7323V20.5565H46.5727L47.1459 18.3593L51.6301 16.2121L52.7505 20.5565H55.2662V19.2334L52.9258 10.2168H52.9235ZM47.8684 15.5375L49.2376 10.1931L49.6616 8.54459L50.0856 10.1931L51.4548 15.5375H47.8684ZM92.8236 10.2168L92.0277 7.06953C91.8785 6.47096 91.3313 6.04578 90.7083 6.04578H87.1953L86.1246 10.2168L83.834 19.1337C83.7842 19.3332 83.7582 19.5327 83.7582 19.7323V20.5565H86.4492L87.0224 18.3593L91.5066 16.2121L92.627 20.5565H95.1427V19.2334L92.826 10.2168H92.8236ZM87.7425 15.5375L89.1117 10.1931L89.5357 8.54459L89.9597 10.1931L91.3289 15.5375H87.7425ZM82.787 15.3118V16.0363C82.787 18.6087 80.719 20.6824 78.1536 20.6824H76.7584C76.1851 20.6824 75.6379 20.5826 75.1405 20.3831C73.3734 19.7346 72.1274 18.0102 72.1274 16.0387V10.718C72.1274 10.5422 72.1274 10.3688 72.1534 10.2192C72.3524 8.44483 73.5226 6.97215 75.1428 6.37357C75.6403 6.17405 76.1899 6.07428 76.7607 6.07428H78.156C80.5461 6.07428 82.5146 7.89851 82.7633 10.2192H79.8236V9.87001C79.8236 9.29519 79.3759 8.84626 78.8027 8.84626H76.1638C75.5906 8.84626 75.1428 9.29519 75.1428 9.87001V16.8368C75.1428 17.4116 75.5906 17.8605 76.1638 17.8605H78.8027C79.3759 17.8605 79.8236 17.4116 79.8236 16.8368V14.9627H77.2819V12.0909H80.7688L80.8185 12.1408L82.0882 13.5137C82.5383 13.9888 82.787 14.6372 82.787 15.3118ZM6.32195 13.8391H12.3245L3.18328 18.4852L3.10985 18.3593L1.11769 15.7109C0.170165 14.4615 0.146477 12.7394 1.04189 11.4638L8.56521 0.900879H15.5129L6.32195 13.8391ZM14.1177 22.4306H21.1412L10.4318 27.8748L10.3821 27.7988L8.01565 24.6776C7.06813 23.4544 7.04444 21.756 7.93985 20.4829L21.5415 0.900879H29.0885L14.1201 22.4306H14.1177Z" fill="#FF4B44"/>
</g>
</g>
</svg>
