<svg width="39" height="38" viewBox="0 0 39 38" fill="none" xmlns="http://www.w3.org/2000/svg">
<g id="Logos 10">
<path d="M38.5251 8.36033V16.7288L36.2548 19L38.5251 21.2712V38H0.533203V21.2794L2.80344 19.0081L0.533203 16.7369V0H38.5332V8.36033H38.5251ZM2.37218 15.9229L5.45612 19.0081L2.37218 22.0934V36.1765H36.678V22.0934L33.594 19.0081L36.678 15.9229V1.83976H2.37218V15.9229Z" fill="#0B0B0B"/>
<path d="M16.1399 7.41607L17.3361 8.61273V14.3111L14.9519 16.6963H8.58873V6.21127H14.9519L16.1399 7.41607ZM10.4358 14.8565H14.1626L14.7729 14.1971L15.3832 13.5459V9.36979L14.1463 8.05103H10.4358V14.8565Z" fill="#0B0B0B"/>
<path d="M29.1758 11.4538C30.3639 14.3192 31.3322 16.6637 31.3322 16.68C31.3322 16.6963 30.8846 16.7044 30.3313 16.7044H29.3305L28.8097 15.467H23.4881L22.9998 16.6718L21.9827 16.6881C21.1771 16.6963 20.9656 16.6881 20.99 16.6311C21.0063 16.5904 21.9664 14.2622 23.13 11.4619C24.2936 8.65341 25.2538 6.33336 25.2701 6.29266C25.2945 6.24381 25.506 6.22753 26.1651 6.23567L27.0195 6.25195L29.1758 11.4538ZM25.2457 11.2747C24.7656 12.4388 24.3506 13.4319 24.3343 13.4889C24.3018 13.5866 24.4075 13.5947 26.157 13.5947C27.6461 13.5947 28.0041 13.5784 27.9878 13.5214C27.9472 13.3586 26.1896 9.15812 26.157 9.15812C26.1326 9.15812 25.7339 10.1187 25.2457 11.2747Z" fill="#0B0B0B"/>
<path d="M16.5386 23.1435L13.7964 26.5381L11.0705 29.9246L13.7964 29.9409L16.5386 29.949V31.7969H8.58873V30.8526L8.59686 29.9246L14.0975 23.1842L8.58873 23.1517V21.3119H16.5386V23.1435Z" fill="#0B0B0B"/>
<path d="M25.986 25.0403L28.598 28.7849L28.6143 25.0403L28.6224 21.3119H30.4695V31.7969H28.3702L26.0349 28.4023L23.6995 25.0158L23.6832 28.4104L23.6751 31.7969H21.7141V21.3119H23.3659L25.986 25.0403Z" fill="#0B0B0B"/>
</g>
</svg>
