<svg width="55" height="54" viewBox="0 0 55 54" fill="none" xmlns="http://www.w3.org/2000/svg">
<g id="Logos 10">
<path d="M54.9391 11.8805V23.7725L51.713 27L54.9391 30.2275V54H0.950684V30.2391L4.17681 27.0116L0.950684 23.7841V0H54.9507V11.8805H54.9391ZM3.56396 22.6273L7.9464 27.0116L3.56396 31.3959V51.4087H52.3143V31.3959L47.9318 27.0116L52.3143 22.6273V2.6144H3.56396V22.6273Z" fill="#0B0B0B"/>
<path d="M23.1286 10.5386L24.8284 12.2391V20.3368L21.4404 23.7263H12.398V8.82654H21.4404L23.1286 10.5386ZM15.0228 21.1119H20.3188L21.186 20.1749L22.0533 19.2494V13.315L20.2957 11.4409H15.0228V21.1119Z" fill="#0B0B0B"/>
<path d="M41.6534 16.2764C43.3416 20.3484 44.7176 23.68 44.7176 23.7031C44.7176 23.7263 44.0817 23.7378 43.2954 23.7378H41.8731L41.133 21.9795H33.5707L32.8769 23.6916L31.4315 23.7147C30.2868 23.7263 29.9862 23.7147 30.0208 23.6337C30.044 23.5759 31.4084 20.2674 33.062 16.288C34.7155 12.297 36.0799 9.00004 36.1031 8.9422C36.1378 8.87279 36.4384 8.84965 37.375 8.86122L38.5891 8.88436L41.6534 16.2764ZM36.0684 16.0219C35.3862 17.6761 34.7964 19.0874 34.7733 19.1684C34.7271 19.3072 34.8774 19.3188 37.3635 19.3188C39.4795 19.3188 39.9883 19.2957 39.9652 19.2147C39.9074 18.9833 37.4097 13.0142 37.3635 13.0142C37.3288 13.0142 36.7622 14.3792 36.0684 16.0219Z" fill="#0B0B0B"/>
<path d="M23.6952 32.8882L19.7984 37.7121L15.9248 42.5244L19.7984 42.5475L23.6952 42.5591V45.1851H12.398V43.8432L12.4096 42.5244L20.2263 32.946L12.398 32.8997V30.2853H23.6952V32.8882Z" fill="#0B0B0B"/>
<path d="M37.1205 35.5835L40.8323 40.9049L40.8554 35.5835L40.867 30.2853H43.4918V45.1851H40.5085L37.1899 40.3612L33.8712 35.5488L33.8481 40.3727L33.8366 45.1851H31.0498V30.2853H33.3972L37.1205 35.5835Z" fill="#0B0B0B"/>
</g>
</svg>
