<svg width="26" height="30" viewBox="0 0 26 30" fill="none" xmlns="http://www.w3.org/2000/svg">
<path d="M13 30C11.1944 30 9.50324 29.6607 7.92639 28.9821C6.34954 28.3036 4.97731 27.3869 3.80972 26.2321C2.64213 25.0774 1.71528 23.7202 1.02917 22.1607C0.343056 20.6012 0 18.9286 0 17.1429H2.88889C2.88889 19.9286 3.86991 22.2917 5.83194 24.2321C7.79398 26.1726 10.1833 27.1429 13 27.1429C15.8167 27.1429 18.206 26.1726 20.1681 24.2321C22.1301 22.2917 23.1111 19.9286 23.1111 17.1429C23.1111 14.3571 22.1301 11.994 20.1681 10.0536C18.206 8.1131 15.8167 7.14286 13 7.14286H12.7833L15.0222 9.35714L13 11.4286L7.22222 5.71429L13 0L15.0222 2.07143L12.7833 4.28571H13C14.8056 4.28571 16.4968 4.625 18.0736 5.30357C19.6505 5.98214 21.0227 6.89881 22.1903 8.05357C23.3579 9.20833 24.2847 10.5655 24.9708 12.125C25.6569 13.6845 26 15.3571 26 17.1429C26 18.9286 25.6569 20.6012 24.9708 22.1607C24.2847 23.7202 23.3579 25.0774 22.1903 26.2321C21.0227 27.3869 19.6505 28.3036 18.0736 28.9821C16.4968 29.6607 14.8056 30 13 30Z" fill="#E5FF00"/>
</svg>
